G04 EAGLE Gerber RS-274X export*
G75*
%MOMM*%
%FSLAX34Y34*%
%LPD*%
%INCopper Layer 15*%
%IPPOS*%
%AMOC8*
5,1,8,0,0,1.08239X$1,22.5*%
G01*
%ADD10C,1.004800*%
%ADD11C,0.990600*%
%ADD12C,4.191000*%
%ADD13C,1.244600*%
%ADD14C,1.400000*%
%ADD15C,0.609600*%
%ADD16C,0.654800*%

G36*
X-164922Y27949D02*
X-164922Y27949D01*
X-164852Y27948D01*
X-164765Y27969D01*
X-164675Y27981D01*
X-164611Y28006D01*
X-164543Y28023D01*
X-164463Y28065D01*
X-164380Y28098D01*
X-164323Y28139D01*
X-164262Y28171D01*
X-164195Y28232D01*
X-164122Y28284D01*
X-164078Y28338D01*
X-164026Y28385D01*
X-163977Y28460D01*
X-163920Y28529D01*
X-163890Y28593D01*
X-163852Y28651D01*
X-163822Y28736D01*
X-163784Y28817D01*
X-163771Y28886D01*
X-163748Y28952D01*
X-163741Y29041D01*
X-163724Y29129D01*
X-163729Y29199D01*
X-163723Y29269D01*
X-163739Y29357D01*
X-163744Y29447D01*
X-163766Y29513D01*
X-163778Y29582D01*
X-163814Y29664D01*
X-163842Y29749D01*
X-163879Y29808D01*
X-163908Y29872D01*
X-163964Y29942D01*
X-164012Y30018D01*
X-164063Y30066D01*
X-164107Y30120D01*
X-164178Y30175D01*
X-164244Y30236D01*
X-164305Y30270D01*
X-164361Y30312D01*
X-164505Y30383D01*
X-165709Y30881D01*
X-172319Y37491D01*
X-175896Y46126D01*
X-175896Y55474D01*
X-172319Y64109D01*
X-165709Y70719D01*
X-157074Y74296D01*
X-147726Y74296D01*
X-139091Y70719D01*
X-132481Y64109D01*
X-132183Y63388D01*
X-132148Y63327D01*
X-132122Y63263D01*
X-132070Y63190D01*
X-132025Y63112D01*
X-131977Y63062D01*
X-131936Y63005D01*
X-131866Y62948D01*
X-131804Y62883D01*
X-131744Y62847D01*
X-131691Y62802D01*
X-131609Y62764D01*
X-131533Y62717D01*
X-131466Y62697D01*
X-131403Y62667D01*
X-131315Y62650D01*
X-131229Y62624D01*
X-131159Y62620D01*
X-131090Y62607D01*
X-131001Y62613D01*
X-130911Y62608D01*
X-130843Y62623D01*
X-130773Y62627D01*
X-130688Y62655D01*
X-130600Y62673D01*
X-130537Y62703D01*
X-130471Y62725D01*
X-130395Y62773D01*
X-130314Y62812D01*
X-130261Y62858D01*
X-130202Y62895D01*
X-130140Y62961D01*
X-130072Y63019D01*
X-130032Y63076D01*
X-129984Y63127D01*
X-129941Y63205D01*
X-129889Y63279D01*
X-129864Y63344D01*
X-129830Y63405D01*
X-129808Y63492D01*
X-129776Y63576D01*
X-129768Y63646D01*
X-129751Y63713D01*
X-129741Y63874D01*
X-129741Y367926D01*
X-129749Y367995D01*
X-129748Y368065D01*
X-129769Y368153D01*
X-129781Y368242D01*
X-129806Y368307D01*
X-129823Y368374D01*
X-129865Y368454D01*
X-129898Y368537D01*
X-129939Y368594D01*
X-129971Y368656D01*
X-130032Y368722D01*
X-130084Y368795D01*
X-130138Y368839D01*
X-130185Y368891D01*
X-130260Y368940D01*
X-130329Y368998D01*
X-130393Y369027D01*
X-130451Y369066D01*
X-130536Y369095D01*
X-130617Y369133D01*
X-130686Y369146D01*
X-130752Y369169D01*
X-130841Y369176D01*
X-130929Y369193D01*
X-130999Y369188D01*
X-131069Y369194D01*
X-131157Y369179D01*
X-131247Y369173D01*
X-131313Y369152D01*
X-131382Y369140D01*
X-131464Y369103D01*
X-131549Y369075D01*
X-131608Y369038D01*
X-131672Y369009D01*
X-131742Y368953D01*
X-131818Y368905D01*
X-131866Y368854D01*
X-131920Y368810D01*
X-131974Y368739D01*
X-132036Y368673D01*
X-132070Y368612D01*
X-132112Y368556D01*
X-132183Y368412D01*
X-132481Y367691D01*
X-139091Y361081D01*
X-147726Y357504D01*
X-157074Y357504D01*
X-165709Y361081D01*
X-172319Y367691D01*
X-175896Y376326D01*
X-175896Y385674D01*
X-172319Y394309D01*
X-165709Y400919D01*
X-164505Y401417D01*
X-164445Y401452D01*
X-164380Y401478D01*
X-164307Y401530D01*
X-164229Y401575D01*
X-164179Y401623D01*
X-164122Y401664D01*
X-164065Y401734D01*
X-164001Y401796D01*
X-163964Y401856D01*
X-163920Y401909D01*
X-163881Y401991D01*
X-163834Y402067D01*
X-163814Y402134D01*
X-163784Y402197D01*
X-163767Y402285D01*
X-163741Y402371D01*
X-163737Y402441D01*
X-163724Y402510D01*
X-163730Y402599D01*
X-163726Y402689D01*
X-163740Y402757D01*
X-163744Y402827D01*
X-163772Y402912D01*
X-163790Y403000D01*
X-163821Y403063D01*
X-163842Y403129D01*
X-163890Y403205D01*
X-163930Y403286D01*
X-163975Y403339D01*
X-164012Y403398D01*
X-164078Y403460D01*
X-164136Y403528D01*
X-164193Y403568D01*
X-164244Y403616D01*
X-164323Y403659D01*
X-164396Y403711D01*
X-164461Y403736D01*
X-164522Y403770D01*
X-164609Y403792D01*
X-164693Y403824D01*
X-164763Y403832D01*
X-164830Y403849D01*
X-164991Y403859D01*
X-673209Y403859D01*
X-673278Y403851D01*
X-673348Y403852D01*
X-673435Y403831D01*
X-673525Y403819D01*
X-673589Y403794D01*
X-673657Y403777D01*
X-673737Y403735D01*
X-673820Y403702D01*
X-673877Y403661D01*
X-673938Y403629D01*
X-674005Y403568D01*
X-674078Y403516D01*
X-674122Y403462D01*
X-674174Y403415D01*
X-674223Y403340D01*
X-674280Y403271D01*
X-674310Y403207D01*
X-674348Y403149D01*
X-674378Y403064D01*
X-674416Y402983D01*
X-674429Y402914D01*
X-674452Y402848D01*
X-674459Y402759D01*
X-674476Y402671D01*
X-674471Y402601D01*
X-674477Y402531D01*
X-674461Y402443D01*
X-674456Y402353D01*
X-674434Y402287D01*
X-674422Y402218D01*
X-674386Y402136D01*
X-674358Y402051D01*
X-674321Y401992D01*
X-674292Y401928D01*
X-674236Y401858D01*
X-674188Y401782D01*
X-674137Y401734D01*
X-674093Y401680D01*
X-674022Y401625D01*
X-673956Y401564D01*
X-673895Y401530D01*
X-673839Y401488D01*
X-673695Y401417D01*
X-672491Y400919D01*
X-665881Y394309D01*
X-662304Y385674D01*
X-662304Y376326D01*
X-665881Y367691D01*
X-672491Y361081D01*
X-681126Y357504D01*
X-690474Y357504D01*
X-699109Y361081D01*
X-705719Y367691D01*
X-706217Y368895D01*
X-706252Y368955D01*
X-706278Y369020D01*
X-706330Y369093D01*
X-706375Y369171D01*
X-706423Y369221D01*
X-706464Y369278D01*
X-706534Y369335D01*
X-706596Y369399D01*
X-706656Y369436D01*
X-706709Y369480D01*
X-706791Y369519D01*
X-706867Y369566D01*
X-706934Y369586D01*
X-706997Y369616D01*
X-707085Y369633D01*
X-707171Y369659D01*
X-707241Y369663D01*
X-707310Y369676D01*
X-707399Y369670D01*
X-707489Y369674D01*
X-707557Y369660D01*
X-707627Y369656D01*
X-707712Y369628D01*
X-707800Y369610D01*
X-707863Y369579D01*
X-707929Y369558D01*
X-708005Y369510D01*
X-708086Y369470D01*
X-708139Y369425D01*
X-708198Y369388D01*
X-708260Y369322D01*
X-708328Y369264D01*
X-708368Y369207D01*
X-708416Y369156D01*
X-708459Y369077D01*
X-708511Y369004D01*
X-708536Y368939D01*
X-708570Y368878D01*
X-708592Y368791D01*
X-708624Y368707D01*
X-708632Y368637D01*
X-708649Y368570D01*
X-708659Y368409D01*
X-708659Y63391D01*
X-708651Y63322D01*
X-708652Y63252D01*
X-708631Y63165D01*
X-708619Y63076D01*
X-708594Y63011D01*
X-708577Y62943D01*
X-708535Y62863D01*
X-708502Y62780D01*
X-708461Y62723D01*
X-708429Y62662D01*
X-708368Y62595D01*
X-708316Y62522D01*
X-708262Y62478D01*
X-708215Y62426D01*
X-708140Y62377D01*
X-708071Y62320D01*
X-708007Y62290D01*
X-707949Y62252D01*
X-707864Y62222D01*
X-707783Y62184D01*
X-707714Y62171D01*
X-707648Y62148D01*
X-707559Y62141D01*
X-707471Y62124D01*
X-707401Y62129D01*
X-707331Y62123D01*
X-707243Y62139D01*
X-707153Y62144D01*
X-707087Y62166D01*
X-707018Y62178D01*
X-706936Y62214D01*
X-706851Y62242D01*
X-706792Y62279D01*
X-706728Y62308D01*
X-706658Y62364D01*
X-706582Y62412D01*
X-706534Y62463D01*
X-706480Y62507D01*
X-706425Y62579D01*
X-706364Y62644D01*
X-706330Y62705D01*
X-706288Y62761D01*
X-706217Y62905D01*
X-705719Y64109D01*
X-699109Y70719D01*
X-690474Y74296D01*
X-681126Y74296D01*
X-672491Y70719D01*
X-665881Y64109D01*
X-662304Y55474D01*
X-662304Y46126D01*
X-665881Y37491D01*
X-672491Y30881D01*
X-673695Y30383D01*
X-673755Y30348D01*
X-673820Y30322D01*
X-673893Y30270D01*
X-673971Y30225D01*
X-674021Y30177D01*
X-674078Y30136D01*
X-674135Y30066D01*
X-674199Y30004D01*
X-674236Y29944D01*
X-674280Y29891D01*
X-674319Y29809D01*
X-674366Y29733D01*
X-674386Y29666D01*
X-674416Y29603D01*
X-674433Y29515D01*
X-674459Y29429D01*
X-674463Y29359D01*
X-674476Y29290D01*
X-674470Y29201D01*
X-674474Y29111D01*
X-674460Y29043D01*
X-674456Y28973D01*
X-674428Y28888D01*
X-674410Y28800D01*
X-674379Y28737D01*
X-674358Y28671D01*
X-674310Y28595D01*
X-674270Y28514D01*
X-674225Y28461D01*
X-674188Y28402D01*
X-674122Y28340D01*
X-674064Y28272D01*
X-674007Y28232D01*
X-673956Y28184D01*
X-673877Y28141D01*
X-673804Y28089D01*
X-673739Y28064D01*
X-673678Y28030D01*
X-673591Y28008D01*
X-673507Y27976D01*
X-673437Y27968D01*
X-673370Y27951D01*
X-673209Y27941D01*
X-164991Y27941D01*
X-164922Y27949D01*
G37*
%LPC*%
G36*
X-623055Y142478D02*
X-623055Y142478D01*
X-626561Y143931D01*
X-629245Y146615D01*
X-630698Y150121D01*
X-630698Y153917D01*
X-629245Y157423D01*
X-626561Y160107D01*
X-623055Y161560D01*
X-619259Y161560D01*
X-615753Y160107D01*
X-613069Y157423D01*
X-611616Y153917D01*
X-611616Y150121D01*
X-613069Y146615D01*
X-615753Y143931D01*
X-619259Y142478D01*
X-623055Y142478D01*
G37*
%LPD*%
%LPC*%
G36*
X-648455Y142478D02*
X-648455Y142478D01*
X-651961Y143931D01*
X-654645Y146615D01*
X-656098Y150121D01*
X-656098Y153917D01*
X-654645Y157423D01*
X-651961Y160107D01*
X-648455Y161560D01*
X-644659Y161560D01*
X-641153Y160107D01*
X-638469Y157423D01*
X-637016Y153917D01*
X-637016Y150121D01*
X-638469Y146615D01*
X-641153Y143931D01*
X-644659Y142478D01*
X-648455Y142478D01*
G37*
%LPD*%
%LPC*%
G36*
X-623055Y167878D02*
X-623055Y167878D01*
X-626561Y169331D01*
X-629245Y172015D01*
X-630698Y175521D01*
X-630698Y179317D01*
X-629245Y182823D01*
X-626561Y185507D01*
X-623055Y186960D01*
X-619259Y186960D01*
X-615753Y185507D01*
X-613069Y182823D01*
X-611616Y179317D01*
X-611616Y175521D01*
X-613069Y172015D01*
X-615753Y169331D01*
X-619259Y167878D01*
X-623055Y167878D01*
G37*
%LPD*%
%LPC*%
G36*
X-648455Y167878D02*
X-648455Y167878D01*
X-651961Y169331D01*
X-654645Y172015D01*
X-656098Y175521D01*
X-656098Y179317D01*
X-654645Y182823D01*
X-651961Y185507D01*
X-648455Y186960D01*
X-644659Y186960D01*
X-641153Y185507D01*
X-638469Y182823D01*
X-637016Y179317D01*
X-637016Y175521D01*
X-638469Y172015D01*
X-641153Y169331D01*
X-644659Y167878D01*
X-648455Y167878D01*
G37*
%LPD*%
%LPC*%
G36*
X-648455Y117078D02*
X-648455Y117078D01*
X-651961Y118531D01*
X-654645Y121215D01*
X-656098Y124721D01*
X-656098Y128517D01*
X-654645Y132023D01*
X-651961Y134707D01*
X-648455Y136160D01*
X-644659Y136160D01*
X-641153Y134707D01*
X-638469Y132023D01*
X-637016Y128517D01*
X-637016Y124721D01*
X-638469Y121215D01*
X-641153Y118531D01*
X-644659Y117078D01*
X-648455Y117078D01*
G37*
%LPD*%
%LPC*%
G36*
X-282805Y180235D02*
X-282805Y180235D01*
X-285585Y181387D01*
X-287713Y183515D01*
X-288201Y184692D01*
X-288260Y184796D01*
X-288312Y184902D01*
X-288338Y184933D01*
X-288358Y184968D01*
X-288441Y185054D01*
X-288518Y185144D01*
X-288551Y185168D01*
X-288579Y185197D01*
X-288681Y185259D01*
X-288778Y185328D01*
X-288816Y185342D01*
X-288851Y185363D01*
X-288964Y185398D01*
X-289076Y185440D01*
X-289116Y185445D01*
X-289155Y185457D01*
X-289273Y185462D01*
X-289392Y185476D01*
X-289432Y185470D01*
X-289472Y185472D01*
X-289589Y185448D01*
X-289707Y185431D01*
X-289764Y185412D01*
X-289784Y185408D01*
X-289802Y185399D01*
X-289859Y185379D01*
X-290988Y184911D01*
X-293212Y184911D01*
X-295266Y185762D01*
X-296838Y187334D01*
X-297689Y189388D01*
X-297689Y191612D01*
X-296838Y193666D01*
X-295266Y195238D01*
X-293212Y196089D01*
X-290988Y196089D01*
X-288934Y195238D01*
X-287645Y193948D01*
X-287551Y193875D01*
X-287461Y193797D01*
X-287425Y193778D01*
X-287393Y193753D01*
X-287284Y193706D01*
X-287178Y193652D01*
X-287139Y193643D01*
X-287102Y193627D01*
X-286984Y193608D01*
X-286868Y193582D01*
X-286828Y193584D01*
X-286788Y193577D01*
X-286669Y193588D01*
X-286550Y193592D01*
X-286511Y193603D01*
X-286471Y193607D01*
X-286359Y193647D01*
X-286244Y193680D01*
X-286210Y193701D01*
X-286172Y193715D01*
X-286073Y193781D01*
X-285971Y193842D01*
X-285925Y193882D01*
X-285908Y193893D01*
X-285895Y193909D01*
X-285850Y193948D01*
X-285585Y194213D01*
X-282805Y195365D01*
X-279795Y195365D01*
X-277015Y194213D01*
X-274887Y192085D01*
X-273735Y189305D01*
X-273735Y186295D01*
X-274887Y183515D01*
X-277015Y181387D01*
X-279795Y180235D01*
X-282805Y180235D01*
G37*
%LPD*%
%LPC*%
G36*
X-403743Y344036D02*
X-403743Y344036D01*
X-406964Y345370D01*
X-409430Y347836D01*
X-410764Y351057D01*
X-410764Y354543D01*
X-409430Y357764D01*
X-406964Y360230D01*
X-403743Y361564D01*
X-400257Y361564D01*
X-397036Y360230D01*
X-394570Y357764D01*
X-393236Y354543D01*
X-393236Y351057D01*
X-394570Y347836D01*
X-397036Y345370D01*
X-400257Y344036D01*
X-403743Y344036D01*
G37*
%LPD*%
%LPC*%
G36*
X-429143Y344036D02*
X-429143Y344036D01*
X-432364Y345370D01*
X-434830Y347836D01*
X-436164Y351057D01*
X-436164Y354543D01*
X-434830Y357764D01*
X-432364Y360230D01*
X-429143Y361564D01*
X-425657Y361564D01*
X-422436Y360230D01*
X-419970Y357764D01*
X-418636Y354543D01*
X-418636Y351057D01*
X-419970Y347836D01*
X-422436Y345370D01*
X-425657Y344036D01*
X-429143Y344036D01*
G37*
%LPD*%
%LPC*%
G36*
X-581543Y344036D02*
X-581543Y344036D01*
X-584764Y345370D01*
X-587230Y347836D01*
X-588564Y351057D01*
X-588564Y354543D01*
X-587230Y357764D01*
X-584764Y360230D01*
X-581543Y361564D01*
X-578057Y361564D01*
X-574836Y360230D01*
X-572370Y357764D01*
X-571036Y354543D01*
X-571036Y351057D01*
X-572370Y347836D01*
X-574836Y345370D01*
X-578057Y344036D01*
X-581543Y344036D01*
G37*
%LPD*%
%LPC*%
G36*
X-454543Y344036D02*
X-454543Y344036D01*
X-457764Y345370D01*
X-460230Y347836D01*
X-461564Y351057D01*
X-461564Y354543D01*
X-460230Y357764D01*
X-457764Y360230D01*
X-454543Y361564D01*
X-451057Y361564D01*
X-447836Y360230D01*
X-445370Y357764D01*
X-444036Y354543D01*
X-444036Y351057D01*
X-445370Y347836D01*
X-447836Y345370D01*
X-451057Y344036D01*
X-454543Y344036D01*
G37*
%LPD*%
%LPC*%
G36*
X-479943Y344036D02*
X-479943Y344036D01*
X-483164Y345370D01*
X-485630Y347836D01*
X-486964Y351057D01*
X-486964Y354543D01*
X-485630Y357764D01*
X-483164Y360230D01*
X-479943Y361564D01*
X-476457Y361564D01*
X-473236Y360230D01*
X-470770Y357764D01*
X-469436Y354543D01*
X-469436Y351057D01*
X-470770Y347836D01*
X-473236Y345370D01*
X-476457Y344036D01*
X-479943Y344036D01*
G37*
%LPD*%
%LPC*%
G36*
X-530743Y344036D02*
X-530743Y344036D01*
X-533964Y345370D01*
X-536430Y347836D01*
X-537764Y351057D01*
X-537764Y354543D01*
X-536430Y357764D01*
X-533964Y360230D01*
X-530743Y361564D01*
X-527257Y361564D01*
X-524036Y360230D01*
X-521570Y357764D01*
X-520236Y354543D01*
X-520236Y351057D01*
X-521570Y347836D01*
X-524036Y345370D01*
X-527257Y344036D01*
X-530743Y344036D01*
G37*
%LPD*%
%LPC*%
G36*
X-556143Y344036D02*
X-556143Y344036D01*
X-559364Y345370D01*
X-561830Y347836D01*
X-563164Y351057D01*
X-563164Y354543D01*
X-561830Y357764D01*
X-559364Y360230D01*
X-556143Y361564D01*
X-552657Y361564D01*
X-549436Y360230D01*
X-546970Y357764D01*
X-545636Y354543D01*
X-545636Y351057D01*
X-546970Y347836D01*
X-549436Y345370D01*
X-552657Y344036D01*
X-556143Y344036D01*
G37*
%LPD*%
%LPC*%
G36*
X-276743Y344036D02*
X-276743Y344036D01*
X-279964Y345370D01*
X-282430Y347836D01*
X-283764Y351057D01*
X-283764Y354543D01*
X-282430Y357764D01*
X-279964Y360230D01*
X-276743Y361564D01*
X-273257Y361564D01*
X-270036Y360230D01*
X-267570Y357764D01*
X-266236Y354543D01*
X-266236Y351057D01*
X-267570Y347836D01*
X-270036Y345370D01*
X-273257Y344036D01*
X-276743Y344036D01*
G37*
%LPD*%
%LPC*%
G36*
X-505343Y344036D02*
X-505343Y344036D01*
X-508564Y345370D01*
X-511030Y347836D01*
X-512364Y351057D01*
X-512364Y354543D01*
X-511030Y357764D01*
X-508564Y360230D01*
X-505343Y361564D01*
X-501857Y361564D01*
X-498636Y360230D01*
X-496170Y357764D01*
X-494836Y354543D01*
X-494836Y351057D01*
X-496170Y347836D01*
X-498636Y345370D01*
X-501857Y344036D01*
X-505343Y344036D01*
G37*
%LPD*%
%LPC*%
G36*
X-606943Y344036D02*
X-606943Y344036D01*
X-610164Y345370D01*
X-612630Y347836D01*
X-613964Y351057D01*
X-613964Y354543D01*
X-612630Y357764D01*
X-610164Y360230D01*
X-606943Y361564D01*
X-603457Y361564D01*
X-600236Y360230D01*
X-597770Y357764D01*
X-596436Y354543D01*
X-596436Y351057D01*
X-597770Y347836D01*
X-600236Y345370D01*
X-603457Y344036D01*
X-606943Y344036D01*
G37*
%LPD*%
%LPC*%
G36*
X-200543Y344036D02*
X-200543Y344036D01*
X-203764Y345370D01*
X-206230Y347836D01*
X-207564Y351057D01*
X-207564Y354543D01*
X-206230Y357764D01*
X-203764Y360230D01*
X-200543Y361564D01*
X-197057Y361564D01*
X-193836Y360230D01*
X-191370Y357764D01*
X-190036Y354543D01*
X-190036Y351057D01*
X-191370Y347836D01*
X-193836Y345370D01*
X-197057Y344036D01*
X-200543Y344036D01*
G37*
%LPD*%
%LPC*%
G36*
X-225943Y344036D02*
X-225943Y344036D01*
X-229164Y345370D01*
X-231630Y347836D01*
X-232964Y351057D01*
X-232964Y354543D01*
X-231630Y357764D01*
X-229164Y360230D01*
X-225943Y361564D01*
X-222457Y361564D01*
X-219236Y360230D01*
X-216770Y357764D01*
X-215436Y354543D01*
X-215436Y351057D01*
X-216770Y347836D01*
X-219236Y345370D01*
X-222457Y344036D01*
X-225943Y344036D01*
G37*
%LPD*%
%LPC*%
G36*
X-251343Y344036D02*
X-251343Y344036D01*
X-254564Y345370D01*
X-257030Y347836D01*
X-258364Y351057D01*
X-258364Y354543D01*
X-257030Y357764D01*
X-254564Y360230D01*
X-251343Y361564D01*
X-247857Y361564D01*
X-244636Y360230D01*
X-242170Y357764D01*
X-240836Y354543D01*
X-240836Y351057D01*
X-242170Y347836D01*
X-244636Y345370D01*
X-247857Y344036D01*
X-251343Y344036D01*
G37*
%LPD*%
%LPC*%
G36*
X-632343Y344036D02*
X-632343Y344036D01*
X-635564Y345370D01*
X-638030Y347836D01*
X-639364Y351057D01*
X-639364Y354543D01*
X-638030Y357764D01*
X-635564Y360230D01*
X-632343Y361564D01*
X-628857Y361564D01*
X-625636Y360230D01*
X-623170Y357764D01*
X-621836Y354543D01*
X-621836Y351057D01*
X-623170Y347836D01*
X-625636Y345370D01*
X-628857Y344036D01*
X-632343Y344036D01*
G37*
%LPD*%
%LPC*%
G36*
X-302143Y344036D02*
X-302143Y344036D01*
X-305364Y345370D01*
X-307830Y347836D01*
X-309164Y351057D01*
X-309164Y354543D01*
X-307830Y357764D01*
X-305364Y360230D01*
X-302143Y361564D01*
X-298657Y361564D01*
X-295436Y360230D01*
X-292970Y357764D01*
X-291636Y354543D01*
X-291636Y351057D01*
X-292970Y347836D01*
X-295436Y345370D01*
X-298657Y344036D01*
X-302143Y344036D01*
G37*
%LPD*%
%LPC*%
G36*
X-327543Y344036D02*
X-327543Y344036D01*
X-330764Y345370D01*
X-333230Y347836D01*
X-334564Y351057D01*
X-334564Y354543D01*
X-333230Y357764D01*
X-330764Y360230D01*
X-327543Y361564D01*
X-324057Y361564D01*
X-320836Y360230D01*
X-318370Y357764D01*
X-317036Y354543D01*
X-317036Y351057D01*
X-318370Y347836D01*
X-320836Y345370D01*
X-324057Y344036D01*
X-327543Y344036D01*
G37*
%LPD*%
%LPC*%
G36*
X-352943Y344036D02*
X-352943Y344036D01*
X-356164Y345370D01*
X-358630Y347836D01*
X-359964Y351057D01*
X-359964Y354543D01*
X-358630Y357764D01*
X-356164Y360230D01*
X-352943Y361564D01*
X-349457Y361564D01*
X-346236Y360230D01*
X-343770Y357764D01*
X-342436Y354543D01*
X-342436Y351057D01*
X-343770Y347836D01*
X-346236Y345370D01*
X-349457Y344036D01*
X-352943Y344036D01*
G37*
%LPD*%
%LPC*%
G36*
X-378343Y344036D02*
X-378343Y344036D01*
X-381564Y345370D01*
X-384030Y347836D01*
X-385364Y351057D01*
X-385364Y354543D01*
X-384030Y357764D01*
X-381564Y360230D01*
X-378343Y361564D01*
X-374857Y361564D01*
X-371636Y360230D01*
X-369170Y357764D01*
X-367836Y354543D01*
X-367836Y351057D01*
X-369170Y347836D01*
X-371636Y345370D01*
X-374857Y344036D01*
X-378343Y344036D01*
G37*
%LPD*%
%LPC*%
G36*
X-200543Y318636D02*
X-200543Y318636D01*
X-203764Y319970D01*
X-206230Y322436D01*
X-207564Y325657D01*
X-207564Y329143D01*
X-206230Y332364D01*
X-203764Y334830D01*
X-200543Y336164D01*
X-197057Y336164D01*
X-193836Y334830D01*
X-191370Y332364D01*
X-190036Y329143D01*
X-190036Y325657D01*
X-191370Y322436D01*
X-193836Y319970D01*
X-197057Y318636D01*
X-200543Y318636D01*
G37*
%LPD*%
%LPC*%
G36*
X-225943Y318636D02*
X-225943Y318636D01*
X-229164Y319970D01*
X-231630Y322436D01*
X-232964Y325657D01*
X-232964Y329143D01*
X-231630Y332364D01*
X-229164Y334830D01*
X-225943Y336164D01*
X-222457Y336164D01*
X-219236Y334830D01*
X-216770Y332364D01*
X-215436Y329143D01*
X-215436Y325657D01*
X-216770Y322436D01*
X-219236Y319970D01*
X-222457Y318636D01*
X-225943Y318636D01*
G37*
%LPD*%
%LPC*%
G36*
X-251343Y318636D02*
X-251343Y318636D01*
X-254564Y319970D01*
X-257030Y322436D01*
X-258364Y325657D01*
X-258364Y329143D01*
X-257030Y332364D01*
X-254564Y334830D01*
X-251343Y336164D01*
X-247857Y336164D01*
X-244636Y334830D01*
X-242170Y332364D01*
X-240836Y329143D01*
X-240836Y325657D01*
X-242170Y322436D01*
X-244636Y319970D01*
X-247857Y318636D01*
X-251343Y318636D01*
G37*
%LPD*%
%LPC*%
G36*
X-276743Y318636D02*
X-276743Y318636D01*
X-279964Y319970D01*
X-282430Y322436D01*
X-283764Y325657D01*
X-283764Y329143D01*
X-282430Y332364D01*
X-279964Y334830D01*
X-276743Y336164D01*
X-273257Y336164D01*
X-270036Y334830D01*
X-267570Y332364D01*
X-266236Y329143D01*
X-266236Y325657D01*
X-267570Y322436D01*
X-270036Y319970D01*
X-273257Y318636D01*
X-276743Y318636D01*
G37*
%LPD*%
%LPC*%
G36*
X-302143Y318636D02*
X-302143Y318636D01*
X-305364Y319970D01*
X-307830Y322436D01*
X-309164Y325657D01*
X-309164Y329143D01*
X-307830Y332364D01*
X-305364Y334830D01*
X-302143Y336164D01*
X-298657Y336164D01*
X-295436Y334830D01*
X-292970Y332364D01*
X-291636Y329143D01*
X-291636Y325657D01*
X-292970Y322436D01*
X-295436Y319970D01*
X-298657Y318636D01*
X-302143Y318636D01*
G37*
%LPD*%
%LPC*%
G36*
X-327543Y318636D02*
X-327543Y318636D01*
X-330764Y319970D01*
X-333230Y322436D01*
X-334564Y325657D01*
X-334564Y329143D01*
X-333230Y332364D01*
X-330764Y334830D01*
X-327543Y336164D01*
X-324057Y336164D01*
X-320836Y334830D01*
X-318370Y332364D01*
X-317036Y329143D01*
X-317036Y325657D01*
X-318370Y322436D01*
X-320836Y319970D01*
X-324057Y318636D01*
X-327543Y318636D01*
G37*
%LPD*%
%LPC*%
G36*
X-352943Y318636D02*
X-352943Y318636D01*
X-356164Y319970D01*
X-358630Y322436D01*
X-359964Y325657D01*
X-359964Y329143D01*
X-358630Y332364D01*
X-356164Y334830D01*
X-352943Y336164D01*
X-349457Y336164D01*
X-346236Y334830D01*
X-343770Y332364D01*
X-342436Y329143D01*
X-342436Y325657D01*
X-343770Y322436D01*
X-346236Y319970D01*
X-349457Y318636D01*
X-352943Y318636D01*
G37*
%LPD*%
%LPC*%
G36*
X-378343Y318636D02*
X-378343Y318636D01*
X-381564Y319970D01*
X-384030Y322436D01*
X-385364Y325657D01*
X-385364Y329143D01*
X-384030Y332364D01*
X-381564Y334830D01*
X-378343Y336164D01*
X-374857Y336164D01*
X-371636Y334830D01*
X-369170Y332364D01*
X-367836Y329143D01*
X-367836Y325657D01*
X-369170Y322436D01*
X-371636Y319970D01*
X-374857Y318636D01*
X-378343Y318636D01*
G37*
%LPD*%
%LPC*%
G36*
X-403743Y318636D02*
X-403743Y318636D01*
X-406964Y319970D01*
X-409430Y322436D01*
X-410764Y325657D01*
X-410764Y329143D01*
X-409430Y332364D01*
X-406964Y334830D01*
X-403743Y336164D01*
X-400257Y336164D01*
X-397036Y334830D01*
X-394570Y332364D01*
X-393236Y329143D01*
X-393236Y325657D01*
X-394570Y322436D01*
X-397036Y319970D01*
X-400257Y318636D01*
X-403743Y318636D01*
G37*
%LPD*%
%LPC*%
G36*
X-429143Y318636D02*
X-429143Y318636D01*
X-432364Y319970D01*
X-434830Y322436D01*
X-436164Y325657D01*
X-436164Y329143D01*
X-434830Y332364D01*
X-432364Y334830D01*
X-429143Y336164D01*
X-425657Y336164D01*
X-422436Y334830D01*
X-419970Y332364D01*
X-418636Y329143D01*
X-418636Y325657D01*
X-419970Y322436D01*
X-422436Y319970D01*
X-425657Y318636D01*
X-429143Y318636D01*
G37*
%LPD*%
%LPC*%
G36*
X-454543Y318636D02*
X-454543Y318636D01*
X-457764Y319970D01*
X-460230Y322436D01*
X-461564Y325657D01*
X-461564Y329143D01*
X-460230Y332364D01*
X-457764Y334830D01*
X-454543Y336164D01*
X-451057Y336164D01*
X-447836Y334830D01*
X-445370Y332364D01*
X-444036Y329143D01*
X-444036Y325657D01*
X-445370Y322436D01*
X-447836Y319970D01*
X-451057Y318636D01*
X-454543Y318636D01*
G37*
%LPD*%
%LPC*%
G36*
X-479943Y318636D02*
X-479943Y318636D01*
X-483164Y319970D01*
X-485630Y322436D01*
X-486964Y325657D01*
X-486964Y329143D01*
X-485630Y332364D01*
X-483164Y334830D01*
X-479943Y336164D01*
X-476457Y336164D01*
X-473236Y334830D01*
X-470770Y332364D01*
X-469436Y329143D01*
X-469436Y325657D01*
X-470770Y322436D01*
X-473236Y319970D01*
X-476457Y318636D01*
X-479943Y318636D01*
G37*
%LPD*%
%LPC*%
G36*
X-505343Y318636D02*
X-505343Y318636D01*
X-508564Y319970D01*
X-511030Y322436D01*
X-512364Y325657D01*
X-512364Y329143D01*
X-511030Y332364D01*
X-508564Y334830D01*
X-505343Y336164D01*
X-501857Y336164D01*
X-498636Y334830D01*
X-496170Y332364D01*
X-494836Y329143D01*
X-494836Y325657D01*
X-496170Y322436D01*
X-498636Y319970D01*
X-501857Y318636D01*
X-505343Y318636D01*
G37*
%LPD*%
%LPC*%
G36*
X-530743Y318636D02*
X-530743Y318636D01*
X-533964Y319970D01*
X-536430Y322436D01*
X-537764Y325657D01*
X-537764Y329143D01*
X-536430Y332364D01*
X-533964Y334830D01*
X-530743Y336164D01*
X-527257Y336164D01*
X-524036Y334830D01*
X-521570Y332364D01*
X-520236Y329143D01*
X-520236Y325657D01*
X-521570Y322436D01*
X-524036Y319970D01*
X-527257Y318636D01*
X-530743Y318636D01*
G37*
%LPD*%
%LPC*%
G36*
X-556143Y318636D02*
X-556143Y318636D01*
X-559364Y319970D01*
X-561830Y322436D01*
X-563164Y325657D01*
X-563164Y329143D01*
X-561830Y332364D01*
X-559364Y334830D01*
X-556143Y336164D01*
X-552657Y336164D01*
X-549436Y334830D01*
X-546970Y332364D01*
X-545636Y329143D01*
X-545636Y325657D01*
X-546970Y322436D01*
X-549436Y319970D01*
X-552657Y318636D01*
X-556143Y318636D01*
G37*
%LPD*%
%LPC*%
G36*
X-581543Y318636D02*
X-581543Y318636D01*
X-584764Y319970D01*
X-587230Y322436D01*
X-588564Y325657D01*
X-588564Y329143D01*
X-587230Y332364D01*
X-584764Y334830D01*
X-581543Y336164D01*
X-578057Y336164D01*
X-574836Y334830D01*
X-572370Y332364D01*
X-571036Y329143D01*
X-571036Y325657D01*
X-572370Y322436D01*
X-574836Y319970D01*
X-578057Y318636D01*
X-581543Y318636D01*
G37*
%LPD*%
%LPC*%
G36*
X-606943Y318636D02*
X-606943Y318636D01*
X-610164Y319970D01*
X-612630Y322436D01*
X-613964Y325657D01*
X-613964Y329143D01*
X-612630Y332364D01*
X-610164Y334830D01*
X-606943Y336164D01*
X-603457Y336164D01*
X-600236Y334830D01*
X-597770Y332364D01*
X-596436Y329143D01*
X-596436Y325657D01*
X-597770Y322436D01*
X-600236Y319970D01*
X-603457Y318636D01*
X-606943Y318636D01*
G37*
%LPD*%
%LPC*%
G36*
X-632343Y318636D02*
X-632343Y318636D01*
X-635564Y319970D01*
X-638030Y322436D01*
X-639364Y325657D01*
X-639364Y329143D01*
X-638030Y332364D01*
X-635564Y334830D01*
X-632343Y336164D01*
X-628857Y336164D01*
X-625636Y334830D01*
X-623170Y332364D01*
X-621836Y329143D01*
X-621836Y325657D01*
X-623170Y322436D01*
X-625636Y319970D01*
X-628857Y318636D01*
X-632343Y318636D01*
G37*
%LPD*%
%LPC*%
G36*
X-505343Y64636D02*
X-505343Y64636D01*
X-508564Y65970D01*
X-511030Y68436D01*
X-512364Y71657D01*
X-512364Y75143D01*
X-511030Y78364D01*
X-508564Y80830D01*
X-505343Y82164D01*
X-501857Y82164D01*
X-498636Y80830D01*
X-496170Y78364D01*
X-494836Y75143D01*
X-494836Y71657D01*
X-496170Y68436D01*
X-498636Y65970D01*
X-501857Y64636D01*
X-505343Y64636D01*
G37*
%LPD*%
%LPC*%
G36*
X-530743Y64636D02*
X-530743Y64636D01*
X-533964Y65970D01*
X-536430Y68436D01*
X-537764Y71657D01*
X-537764Y75143D01*
X-536430Y78364D01*
X-533964Y80830D01*
X-530743Y82164D01*
X-527257Y82164D01*
X-524036Y80830D01*
X-521570Y78364D01*
X-520236Y75143D01*
X-520236Y71657D01*
X-521570Y68436D01*
X-524036Y65970D01*
X-527257Y64636D01*
X-530743Y64636D01*
G37*
%LPD*%
%LPC*%
G36*
X-556143Y64636D02*
X-556143Y64636D01*
X-559364Y65970D01*
X-561830Y68436D01*
X-563164Y71657D01*
X-563164Y75143D01*
X-561830Y78364D01*
X-559364Y80830D01*
X-556143Y82164D01*
X-552657Y82164D01*
X-549436Y80830D01*
X-546970Y78364D01*
X-545636Y75143D01*
X-545636Y71657D01*
X-546970Y68436D01*
X-549436Y65970D01*
X-552657Y64636D01*
X-556143Y64636D01*
G37*
%LPD*%
%LPC*%
G36*
X-581543Y64636D02*
X-581543Y64636D01*
X-584764Y65970D01*
X-587230Y68436D01*
X-588564Y71657D01*
X-588564Y75143D01*
X-587230Y78364D01*
X-584764Y80830D01*
X-581543Y82164D01*
X-578057Y82164D01*
X-574836Y80830D01*
X-572370Y78364D01*
X-571036Y75143D01*
X-571036Y71657D01*
X-572370Y68436D01*
X-574836Y65970D01*
X-578057Y64636D01*
X-581543Y64636D01*
G37*
%LPD*%
%LPC*%
G36*
X-606943Y64636D02*
X-606943Y64636D01*
X-610164Y65970D01*
X-612630Y68436D01*
X-613964Y71657D01*
X-613964Y75143D01*
X-612630Y78364D01*
X-610164Y80830D01*
X-606943Y82164D01*
X-603457Y82164D01*
X-600236Y80830D01*
X-597770Y78364D01*
X-596436Y75143D01*
X-596436Y71657D01*
X-597770Y68436D01*
X-600236Y65970D01*
X-603457Y64636D01*
X-606943Y64636D01*
G37*
%LPD*%
%LPC*%
G36*
X-632343Y64636D02*
X-632343Y64636D01*
X-635564Y65970D01*
X-638030Y68436D01*
X-639364Y71657D01*
X-639364Y75143D01*
X-638030Y78364D01*
X-635564Y80830D01*
X-632343Y82164D01*
X-628857Y82164D01*
X-625636Y80830D01*
X-623170Y78364D01*
X-621836Y75143D01*
X-621836Y71657D01*
X-623170Y68436D01*
X-625636Y65970D01*
X-628857Y64636D01*
X-632343Y64636D01*
G37*
%LPD*%
%LPC*%
G36*
X-454543Y90036D02*
X-454543Y90036D01*
X-457764Y91370D01*
X-460230Y93836D01*
X-461564Y97057D01*
X-461564Y100543D01*
X-460230Y103764D01*
X-457764Y106230D01*
X-454543Y107564D01*
X-451057Y107564D01*
X-447836Y106230D01*
X-445370Y103764D01*
X-444036Y100543D01*
X-444036Y97057D01*
X-445370Y93836D01*
X-447836Y91370D01*
X-451057Y90036D01*
X-454543Y90036D01*
G37*
%LPD*%
%LPC*%
G36*
X-403743Y90036D02*
X-403743Y90036D01*
X-406964Y91370D01*
X-409430Y93836D01*
X-410764Y97057D01*
X-410764Y100543D01*
X-409430Y103764D01*
X-406964Y106230D01*
X-403743Y107564D01*
X-400257Y107564D01*
X-397036Y106230D01*
X-394570Y103764D01*
X-393236Y100543D01*
X-393236Y97057D01*
X-394570Y93836D01*
X-397036Y91370D01*
X-400257Y90036D01*
X-403743Y90036D01*
G37*
%LPD*%
%LPC*%
G36*
X-429143Y90036D02*
X-429143Y90036D01*
X-432364Y91370D01*
X-434830Y93836D01*
X-436164Y97057D01*
X-436164Y100543D01*
X-434830Y103764D01*
X-432364Y106230D01*
X-429143Y107564D01*
X-425657Y107564D01*
X-422436Y106230D01*
X-419970Y103764D01*
X-418636Y100543D01*
X-418636Y97057D01*
X-419970Y93836D01*
X-422436Y91370D01*
X-425657Y90036D01*
X-429143Y90036D01*
G37*
%LPD*%
%LPC*%
G36*
X-479943Y90036D02*
X-479943Y90036D01*
X-483164Y91370D01*
X-485630Y93836D01*
X-486964Y97057D01*
X-486964Y100543D01*
X-485630Y103764D01*
X-483164Y106230D01*
X-479943Y107564D01*
X-476457Y107564D01*
X-473236Y106230D01*
X-470770Y103764D01*
X-469436Y100543D01*
X-469436Y97057D01*
X-470770Y93836D01*
X-473236Y91370D01*
X-476457Y90036D01*
X-479943Y90036D01*
G37*
%LPD*%
%LPC*%
G36*
X-505343Y90036D02*
X-505343Y90036D01*
X-508564Y91370D01*
X-511030Y93836D01*
X-512364Y97057D01*
X-512364Y100543D01*
X-511030Y103764D01*
X-508564Y106230D01*
X-505343Y107564D01*
X-501857Y107564D01*
X-498636Y106230D01*
X-496170Y103764D01*
X-494836Y100543D01*
X-494836Y97057D01*
X-496170Y93836D01*
X-498636Y91370D01*
X-501857Y90036D01*
X-505343Y90036D01*
G37*
%LPD*%
%LPC*%
G36*
X-530743Y90036D02*
X-530743Y90036D01*
X-533964Y91370D01*
X-536430Y93836D01*
X-537764Y97057D01*
X-537764Y100543D01*
X-536430Y103764D01*
X-533964Y106230D01*
X-530743Y107564D01*
X-527257Y107564D01*
X-524036Y106230D01*
X-521570Y103764D01*
X-520236Y100543D01*
X-520236Y97057D01*
X-521570Y93836D01*
X-524036Y91370D01*
X-527257Y90036D01*
X-530743Y90036D01*
G37*
%LPD*%
%LPC*%
G36*
X-556143Y90036D02*
X-556143Y90036D01*
X-559364Y91370D01*
X-561830Y93836D01*
X-563164Y97057D01*
X-563164Y100543D01*
X-561830Y103764D01*
X-559364Y106230D01*
X-556143Y107564D01*
X-552657Y107564D01*
X-549436Y106230D01*
X-546970Y103764D01*
X-545636Y100543D01*
X-545636Y97057D01*
X-546970Y93836D01*
X-549436Y91370D01*
X-552657Y90036D01*
X-556143Y90036D01*
G37*
%LPD*%
%LPC*%
G36*
X-581543Y90036D02*
X-581543Y90036D01*
X-584764Y91370D01*
X-587230Y93836D01*
X-588564Y97057D01*
X-588564Y100543D01*
X-587230Y103764D01*
X-584764Y106230D01*
X-581543Y107564D01*
X-578057Y107564D01*
X-574836Y106230D01*
X-572370Y103764D01*
X-571036Y100543D01*
X-571036Y97057D01*
X-572370Y93836D01*
X-574836Y91370D01*
X-578057Y90036D01*
X-581543Y90036D01*
G37*
%LPD*%
%LPC*%
G36*
X-606943Y90036D02*
X-606943Y90036D01*
X-610164Y91370D01*
X-612630Y93836D01*
X-613964Y97057D01*
X-613964Y100543D01*
X-612630Y103764D01*
X-610164Y106230D01*
X-606943Y107564D01*
X-603457Y107564D01*
X-600236Y106230D01*
X-597770Y103764D01*
X-596436Y100543D01*
X-596436Y97057D01*
X-597770Y93836D01*
X-600236Y91370D01*
X-603457Y90036D01*
X-606943Y90036D01*
G37*
%LPD*%
%LPC*%
G36*
X-632343Y90036D02*
X-632343Y90036D01*
X-635564Y91370D01*
X-638030Y93836D01*
X-639364Y97057D01*
X-639364Y100543D01*
X-638030Y103764D01*
X-635564Y106230D01*
X-632343Y107564D01*
X-628857Y107564D01*
X-625636Y106230D01*
X-623170Y103764D01*
X-621836Y100543D01*
X-621836Y97057D01*
X-623170Y93836D01*
X-625636Y91370D01*
X-628857Y90036D01*
X-632343Y90036D01*
G37*
%LPD*%
%LPC*%
G36*
X-200543Y90036D02*
X-200543Y90036D01*
X-203764Y91370D01*
X-206230Y93836D01*
X-207564Y97057D01*
X-207564Y100543D01*
X-206230Y103764D01*
X-203764Y106230D01*
X-200543Y107564D01*
X-197057Y107564D01*
X-193836Y106230D01*
X-191370Y103764D01*
X-190036Y100543D01*
X-190036Y97057D01*
X-191370Y93836D01*
X-193836Y91370D01*
X-197057Y90036D01*
X-200543Y90036D01*
G37*
%LPD*%
%LPC*%
G36*
X-225943Y90036D02*
X-225943Y90036D01*
X-229164Y91370D01*
X-231630Y93836D01*
X-232964Y97057D01*
X-232964Y100543D01*
X-231630Y103764D01*
X-229164Y106230D01*
X-225943Y107564D01*
X-222457Y107564D01*
X-219236Y106230D01*
X-216770Y103764D01*
X-215436Y100543D01*
X-215436Y97057D01*
X-216770Y93836D01*
X-219236Y91370D01*
X-222457Y90036D01*
X-225943Y90036D01*
G37*
%LPD*%
%LPC*%
G36*
X-251343Y90036D02*
X-251343Y90036D01*
X-254564Y91370D01*
X-257030Y93836D01*
X-258364Y97057D01*
X-258364Y100543D01*
X-257030Y103764D01*
X-254564Y106230D01*
X-251343Y107564D01*
X-247857Y107564D01*
X-244636Y106230D01*
X-242170Y103764D01*
X-240836Y100543D01*
X-240836Y97057D01*
X-242170Y93836D01*
X-244636Y91370D01*
X-247857Y90036D01*
X-251343Y90036D01*
G37*
%LPD*%
%LPC*%
G36*
X-276743Y90036D02*
X-276743Y90036D01*
X-279964Y91370D01*
X-282430Y93836D01*
X-283764Y97057D01*
X-283764Y100543D01*
X-282430Y103764D01*
X-279964Y106230D01*
X-276743Y107564D01*
X-273257Y107564D01*
X-270036Y106230D01*
X-267570Y103764D01*
X-266236Y100543D01*
X-266236Y97057D01*
X-267570Y93836D01*
X-270036Y91370D01*
X-273257Y90036D01*
X-276743Y90036D01*
G37*
%LPD*%
%LPC*%
G36*
X-302143Y90036D02*
X-302143Y90036D01*
X-305364Y91370D01*
X-307830Y93836D01*
X-309164Y97057D01*
X-309164Y100543D01*
X-307830Y103764D01*
X-305364Y106230D01*
X-302143Y107564D01*
X-298657Y107564D01*
X-295436Y106230D01*
X-292970Y103764D01*
X-291636Y100543D01*
X-291636Y97057D01*
X-292970Y93836D01*
X-295436Y91370D01*
X-298657Y90036D01*
X-302143Y90036D01*
G37*
%LPD*%
%LPC*%
G36*
X-327543Y90036D02*
X-327543Y90036D01*
X-330764Y91370D01*
X-333230Y93836D01*
X-334564Y97057D01*
X-334564Y100543D01*
X-333230Y103764D01*
X-330764Y106230D01*
X-327543Y107564D01*
X-324057Y107564D01*
X-320836Y106230D01*
X-318370Y103764D01*
X-317036Y100543D01*
X-317036Y97057D01*
X-318370Y93836D01*
X-320836Y91370D01*
X-324057Y90036D01*
X-327543Y90036D01*
G37*
%LPD*%
%LPC*%
G36*
X-378343Y90036D02*
X-378343Y90036D01*
X-381564Y91370D01*
X-384030Y93836D01*
X-385364Y97057D01*
X-385364Y100543D01*
X-384030Y103764D01*
X-381564Y106230D01*
X-378343Y107564D01*
X-374857Y107564D01*
X-371636Y106230D01*
X-369170Y103764D01*
X-367836Y100543D01*
X-367836Y97057D01*
X-369170Y93836D01*
X-371636Y91370D01*
X-374857Y90036D01*
X-378343Y90036D01*
G37*
%LPD*%
%LPC*%
G36*
X-200543Y64636D02*
X-200543Y64636D01*
X-203764Y65970D01*
X-206230Y68436D01*
X-207564Y71657D01*
X-207564Y75143D01*
X-206230Y78364D01*
X-203764Y80830D01*
X-200543Y82164D01*
X-197057Y82164D01*
X-193836Y80830D01*
X-191370Y78364D01*
X-190036Y75143D01*
X-190036Y71657D01*
X-191370Y68436D01*
X-193836Y65970D01*
X-197057Y64636D01*
X-200543Y64636D01*
G37*
%LPD*%
%LPC*%
G36*
X-225943Y64636D02*
X-225943Y64636D01*
X-229164Y65970D01*
X-231630Y68436D01*
X-232964Y71657D01*
X-232964Y75143D01*
X-231630Y78364D01*
X-229164Y80830D01*
X-225943Y82164D01*
X-222457Y82164D01*
X-219236Y80830D01*
X-216770Y78364D01*
X-215436Y75143D01*
X-215436Y71657D01*
X-216770Y68436D01*
X-219236Y65970D01*
X-222457Y64636D01*
X-225943Y64636D01*
G37*
%LPD*%
%LPC*%
G36*
X-251343Y64636D02*
X-251343Y64636D01*
X-254564Y65970D01*
X-257030Y68436D01*
X-258364Y71657D01*
X-258364Y75143D01*
X-257030Y78364D01*
X-254564Y80830D01*
X-251343Y82164D01*
X-247857Y82164D01*
X-244636Y80830D01*
X-242170Y78364D01*
X-240836Y75143D01*
X-240836Y71657D01*
X-242170Y68436D01*
X-244636Y65970D01*
X-247857Y64636D01*
X-251343Y64636D01*
G37*
%LPD*%
%LPC*%
G36*
X-276743Y64636D02*
X-276743Y64636D01*
X-279964Y65970D01*
X-282430Y68436D01*
X-283764Y71657D01*
X-283764Y75143D01*
X-282430Y78364D01*
X-279964Y80830D01*
X-276743Y82164D01*
X-273257Y82164D01*
X-270036Y80830D01*
X-267570Y78364D01*
X-266236Y75143D01*
X-266236Y71657D01*
X-267570Y68436D01*
X-270036Y65970D01*
X-273257Y64636D01*
X-276743Y64636D01*
G37*
%LPD*%
%LPC*%
G36*
X-302143Y64636D02*
X-302143Y64636D01*
X-305364Y65970D01*
X-307830Y68436D01*
X-309164Y71657D01*
X-309164Y75143D01*
X-307830Y78364D01*
X-305364Y80830D01*
X-302143Y82164D01*
X-298657Y82164D01*
X-295436Y80830D01*
X-292970Y78364D01*
X-291636Y75143D01*
X-291636Y71657D01*
X-292970Y68436D01*
X-295436Y65970D01*
X-298657Y64636D01*
X-302143Y64636D01*
G37*
%LPD*%
%LPC*%
G36*
X-327543Y64636D02*
X-327543Y64636D01*
X-330764Y65970D01*
X-333230Y68436D01*
X-334564Y71657D01*
X-334564Y75143D01*
X-333230Y78364D01*
X-330764Y80830D01*
X-327543Y82164D01*
X-324057Y82164D01*
X-320836Y80830D01*
X-318370Y78364D01*
X-317036Y75143D01*
X-317036Y71657D01*
X-318370Y68436D01*
X-320836Y65970D01*
X-324057Y64636D01*
X-327543Y64636D01*
G37*
%LPD*%
%LPC*%
G36*
X-352943Y64636D02*
X-352943Y64636D01*
X-356164Y65970D01*
X-358630Y68436D01*
X-359964Y71657D01*
X-359964Y75143D01*
X-358630Y78364D01*
X-356164Y80830D01*
X-352943Y82164D01*
X-349457Y82164D01*
X-346236Y80830D01*
X-343770Y78364D01*
X-342436Y75143D01*
X-342436Y71657D01*
X-343770Y68436D01*
X-346236Y65970D01*
X-349457Y64636D01*
X-352943Y64636D01*
G37*
%LPD*%
%LPC*%
G36*
X-378343Y64636D02*
X-378343Y64636D01*
X-381564Y65970D01*
X-384030Y68436D01*
X-385364Y71657D01*
X-385364Y75143D01*
X-384030Y78364D01*
X-381564Y80830D01*
X-378343Y82164D01*
X-374857Y82164D01*
X-371636Y80830D01*
X-369170Y78364D01*
X-367836Y75143D01*
X-367836Y71657D01*
X-369170Y68436D01*
X-371636Y65970D01*
X-374857Y64636D01*
X-378343Y64636D01*
G37*
%LPD*%
%LPC*%
G36*
X-403743Y64636D02*
X-403743Y64636D01*
X-406964Y65970D01*
X-409430Y68436D01*
X-410764Y71657D01*
X-410764Y75143D01*
X-409430Y78364D01*
X-406964Y80830D01*
X-403743Y82164D01*
X-400257Y82164D01*
X-397036Y80830D01*
X-394570Y78364D01*
X-393236Y75143D01*
X-393236Y71657D01*
X-394570Y68436D01*
X-397036Y65970D01*
X-400257Y64636D01*
X-403743Y64636D01*
G37*
%LPD*%
%LPC*%
G36*
X-429143Y64636D02*
X-429143Y64636D01*
X-432364Y65970D01*
X-434830Y68436D01*
X-436164Y71657D01*
X-436164Y75143D01*
X-434830Y78364D01*
X-432364Y80830D01*
X-429143Y82164D01*
X-425657Y82164D01*
X-422436Y80830D01*
X-419970Y78364D01*
X-418636Y75143D01*
X-418636Y71657D01*
X-419970Y68436D01*
X-422436Y65970D01*
X-425657Y64636D01*
X-429143Y64636D01*
G37*
%LPD*%
%LPC*%
G36*
X-454543Y64636D02*
X-454543Y64636D01*
X-457764Y65970D01*
X-460230Y68436D01*
X-461564Y71657D01*
X-461564Y75143D01*
X-460230Y78364D01*
X-457764Y80830D01*
X-454543Y82164D01*
X-451057Y82164D01*
X-447836Y80830D01*
X-445370Y78364D01*
X-444036Y75143D01*
X-444036Y71657D01*
X-445370Y68436D01*
X-447836Y65970D01*
X-451057Y64636D01*
X-454543Y64636D01*
G37*
%LPD*%
%LPC*%
G36*
X-479943Y64636D02*
X-479943Y64636D01*
X-483164Y65970D01*
X-485630Y68436D01*
X-486964Y71657D01*
X-486964Y75143D01*
X-485630Y78364D01*
X-483164Y80830D01*
X-479943Y82164D01*
X-476457Y82164D01*
X-473236Y80830D01*
X-470770Y78364D01*
X-469436Y75143D01*
X-469436Y71657D01*
X-470770Y68436D01*
X-473236Y65970D01*
X-476457Y64636D01*
X-479943Y64636D01*
G37*
%LPD*%
%LPC*%
G36*
X-558405Y236435D02*
X-558405Y236435D01*
X-561185Y237587D01*
X-563313Y239715D01*
X-564465Y242495D01*
X-564465Y245505D01*
X-563313Y248285D01*
X-561185Y250413D01*
X-558405Y251565D01*
X-555395Y251565D01*
X-552615Y250413D01*
X-550487Y248285D01*
X-549335Y245505D01*
X-549335Y242495D01*
X-550487Y239715D01*
X-552615Y237587D01*
X-555395Y236435D01*
X-558405Y236435D01*
G37*
%LPD*%
%LPC*%
G36*
X-558391Y256506D02*
X-558391Y256506D01*
X-561145Y257647D01*
X-563253Y259755D01*
X-564394Y262509D01*
X-564394Y265491D01*
X-563253Y268245D01*
X-561145Y270353D01*
X-558391Y271494D01*
X-555409Y271494D01*
X-552655Y270353D01*
X-550547Y268245D01*
X-549406Y265491D01*
X-549406Y262509D01*
X-550547Y259755D01*
X-552655Y257647D01*
X-555409Y256506D01*
X-558391Y256506D01*
G37*
%LPD*%
%LPC*%
G36*
X-282791Y160306D02*
X-282791Y160306D01*
X-285545Y161447D01*
X-287653Y163555D01*
X-288794Y166309D01*
X-288794Y169291D01*
X-287653Y172045D01*
X-285545Y174153D01*
X-282791Y175294D01*
X-279809Y175294D01*
X-277055Y174153D01*
X-274947Y172045D01*
X-273806Y169291D01*
X-273806Y166309D01*
X-274947Y163555D01*
X-277055Y161447D01*
X-279809Y160306D01*
X-282791Y160306D01*
G37*
%LPD*%
%LPC*%
G36*
X-385332Y108485D02*
X-385332Y108485D01*
X-387469Y109370D01*
X-389105Y111006D01*
X-389990Y113143D01*
X-389990Y115457D01*
X-389105Y117594D01*
X-387469Y119230D01*
X-385332Y120115D01*
X-383018Y120115D01*
X-380881Y119230D01*
X-379245Y117594D01*
X-378360Y115457D01*
X-378360Y113143D01*
X-379245Y111006D01*
X-380881Y109370D01*
X-383018Y108485D01*
X-385332Y108485D01*
G37*
%LPD*%
%LPC*%
G36*
X-669685Y155475D02*
X-669685Y155475D01*
X-671822Y156360D01*
X-673458Y157996D01*
X-674343Y160133D01*
X-674343Y162447D01*
X-673458Y164584D01*
X-671822Y166220D01*
X-669685Y167105D01*
X-667371Y167105D01*
X-665234Y166220D01*
X-663598Y164584D01*
X-662713Y162447D01*
X-662713Y160133D01*
X-663598Y157996D01*
X-665234Y156360D01*
X-667371Y155475D01*
X-669685Y155475D01*
G37*
%LPD*%
%LPC*%
G36*
X-185262Y305561D02*
X-185262Y305561D01*
X-187316Y306412D01*
X-188888Y307984D01*
X-189739Y310038D01*
X-189739Y312262D01*
X-188888Y314316D01*
X-187316Y315888D01*
X-185262Y316739D01*
X-183038Y316739D01*
X-180984Y315888D01*
X-179412Y314316D01*
X-178561Y312262D01*
X-178561Y310038D01*
X-179412Y307984D01*
X-180984Y306412D01*
X-183038Y305561D01*
X-185262Y305561D01*
G37*
%LPD*%
%LPC*%
G36*
X-394812Y289686D02*
X-394812Y289686D01*
X-396866Y290537D01*
X-398438Y292109D01*
X-399289Y294163D01*
X-399289Y296387D01*
X-398438Y298441D01*
X-396866Y300013D01*
X-394812Y300864D01*
X-392588Y300864D01*
X-390534Y300013D01*
X-388962Y298441D01*
X-388111Y296387D01*
X-388111Y294163D01*
X-388962Y292109D01*
X-390534Y290537D01*
X-392588Y289686D01*
X-394812Y289686D01*
G37*
%LPD*%
%LPC*%
G36*
X-363062Y245236D02*
X-363062Y245236D01*
X-365116Y246087D01*
X-366688Y247659D01*
X-367539Y249713D01*
X-367539Y251937D01*
X-366688Y253991D01*
X-365116Y255563D01*
X-363062Y256414D01*
X-360838Y256414D01*
X-358784Y255563D01*
X-357212Y253991D01*
X-356361Y251937D01*
X-356361Y249713D01*
X-357212Y247659D01*
X-358784Y246087D01*
X-360838Y245236D01*
X-363062Y245236D01*
G37*
%LPD*%
%LPC*%
G36*
X-540862Y235711D02*
X-540862Y235711D01*
X-542916Y236562D01*
X-544488Y238134D01*
X-545339Y240188D01*
X-545339Y242412D01*
X-544488Y244466D01*
X-542916Y246038D01*
X-540862Y246889D01*
X-538638Y246889D01*
X-536584Y246038D01*
X-535012Y244466D01*
X-534161Y242412D01*
X-534161Y240188D01*
X-535012Y238134D01*
X-536584Y236562D01*
X-538638Y235711D01*
X-540862Y235711D01*
G37*
%LPD*%
%LPC*%
G36*
X-382112Y137286D02*
X-382112Y137286D01*
X-384166Y138137D01*
X-385738Y139709D01*
X-386589Y141763D01*
X-386589Y143987D01*
X-385738Y146041D01*
X-384166Y147613D01*
X-382112Y148464D01*
X-379888Y148464D01*
X-377834Y147613D01*
X-376262Y146041D01*
X-375411Y143987D01*
X-375411Y141763D01*
X-376262Y139709D01*
X-377834Y138137D01*
X-379888Y137286D01*
X-382112Y137286D01*
G37*
%LPD*%
%LPC*%
G36*
X-159862Y305561D02*
X-159862Y305561D01*
X-161916Y306412D01*
X-163488Y307984D01*
X-164339Y310038D01*
X-164339Y312262D01*
X-163488Y314316D01*
X-161916Y315888D01*
X-159862Y316739D01*
X-157638Y316739D01*
X-155584Y315888D01*
X-154012Y314316D01*
X-153161Y312262D01*
X-153161Y310038D01*
X-154012Y307984D01*
X-155584Y306412D01*
X-157638Y305561D01*
X-159862Y305561D01*
G37*
%LPD*%
%LPC*%
G36*
X-432912Y137286D02*
X-432912Y137286D01*
X-434966Y138137D01*
X-436538Y139709D01*
X-437389Y141763D01*
X-437389Y143987D01*
X-436538Y146041D01*
X-434966Y147613D01*
X-432912Y148464D01*
X-430688Y148464D01*
X-428634Y147613D01*
X-427062Y146041D01*
X-426211Y143987D01*
X-426211Y141763D01*
X-427062Y139709D01*
X-428634Y138137D01*
X-430688Y137286D01*
X-432912Y137286D01*
G37*
%LPD*%
%LPC*%
G36*
X-630377Y129118D02*
X-630377Y129118D01*
X-629999Y130281D01*
X-629317Y131620D01*
X-628434Y132834D01*
X-627372Y133896D01*
X-626158Y134779D01*
X-624819Y135461D01*
X-623656Y135839D01*
X-623656Y129118D01*
X-630377Y129118D01*
G37*
%LPD*%
%LPC*%
G36*
X-618658Y129118D02*
X-618658Y129118D01*
X-618658Y135839D01*
X-617495Y135461D01*
X-616156Y134779D01*
X-614942Y133896D01*
X-613880Y132834D01*
X-612997Y131620D01*
X-612315Y130281D01*
X-611937Y129118D01*
X-618658Y129118D01*
G37*
%LPD*%
%LPC*%
G36*
X-624819Y117777D02*
X-624819Y117777D01*
X-626158Y118459D01*
X-627372Y119342D01*
X-628434Y120404D01*
X-629317Y121618D01*
X-629999Y122957D01*
X-630377Y124120D01*
X-623656Y124120D01*
X-623656Y117399D01*
X-624819Y117777D01*
G37*
%LPD*%
%LPC*%
G36*
X-618658Y124120D02*
X-618658Y124120D01*
X-611937Y124120D01*
X-612315Y122957D01*
X-612997Y121618D01*
X-613880Y120404D01*
X-614942Y119342D01*
X-616156Y118459D01*
X-617495Y117777D01*
X-618658Y117399D01*
X-618658Y124120D01*
G37*
%LPD*%
%LPC*%
G36*
X-359693Y101022D02*
X-359693Y101022D01*
X-359627Y101356D01*
X-358966Y102951D01*
X-358007Y104387D01*
X-356787Y105607D01*
X-355351Y106566D01*
X-353756Y107227D01*
X-353422Y107293D01*
X-353422Y101022D01*
X-359693Y101022D01*
G37*
%LPD*%
%LPC*%
G36*
X-348978Y101022D02*
X-348978Y101022D01*
X-348978Y107293D01*
X-348644Y107227D01*
X-347049Y106566D01*
X-345613Y105607D01*
X-344393Y104387D01*
X-343434Y102951D01*
X-342773Y101356D01*
X-342707Y101022D01*
X-348978Y101022D01*
G37*
%LPD*%
%LPC*%
G36*
X-353756Y90373D02*
X-353756Y90373D01*
X-355351Y91034D01*
X-356787Y91993D01*
X-358007Y93213D01*
X-358966Y94649D01*
X-359627Y96244D01*
X-359693Y96578D01*
X-353422Y96578D01*
X-353422Y90307D01*
X-353756Y90373D01*
G37*
%LPD*%
%LPC*%
G36*
X-348978Y96578D02*
X-348978Y96578D01*
X-342707Y96578D01*
X-342773Y96244D01*
X-343434Y94649D01*
X-344393Y93213D01*
X-345613Y91993D01*
X-347049Y91034D01*
X-348644Y90373D01*
X-348978Y90307D01*
X-348978Y96578D01*
G37*
%LPD*%
D10*
X-556900Y244000D03*
D11*
X-556900Y264000D03*
D10*
X-281300Y187800D03*
D11*
X-281300Y167800D03*
D12*
X-152400Y381000D03*
X-685800Y381000D03*
X-152400Y50800D03*
D13*
X-198800Y73400D03*
X-198800Y98800D03*
X-224200Y73400D03*
X-224200Y98800D03*
X-249600Y73400D03*
X-249600Y98800D03*
X-275000Y73400D03*
X-275000Y98800D03*
X-300400Y73400D03*
X-300400Y98800D03*
X-325800Y73400D03*
X-325800Y98800D03*
X-351200Y73400D03*
X-351200Y98800D03*
X-376600Y73400D03*
X-376600Y98800D03*
X-402000Y73400D03*
X-402000Y98800D03*
X-427400Y73400D03*
X-427400Y98800D03*
X-452800Y73400D03*
X-452800Y98800D03*
X-478200Y73400D03*
X-478200Y98800D03*
X-503600Y73400D03*
X-503600Y98800D03*
X-529000Y73400D03*
X-529000Y98800D03*
X-554400Y73400D03*
X-554400Y98800D03*
X-579800Y73400D03*
X-579800Y98800D03*
X-605200Y73400D03*
X-605200Y98800D03*
X-630600Y73400D03*
X-630600Y98800D03*
X-198800Y327400D03*
X-198800Y352800D03*
X-224200Y327400D03*
X-224200Y352800D03*
X-249600Y327400D03*
X-249600Y352800D03*
X-275000Y327400D03*
X-275000Y352800D03*
X-300400Y327400D03*
X-300400Y352800D03*
X-325800Y327400D03*
X-325800Y352800D03*
X-351200Y327400D03*
X-351200Y352800D03*
X-376600Y327400D03*
X-376600Y352800D03*
X-402000Y327400D03*
X-402000Y352800D03*
X-427400Y327400D03*
X-427400Y352800D03*
X-452800Y327400D03*
X-452800Y352800D03*
X-478200Y327400D03*
X-478200Y352800D03*
X-503600Y327400D03*
X-503600Y352800D03*
X-529000Y327400D03*
X-529000Y352800D03*
X-554400Y327400D03*
X-554400Y352800D03*
X-579800Y327400D03*
X-579800Y352800D03*
X-605200Y327400D03*
X-605200Y352800D03*
X-630600Y327400D03*
X-630600Y352800D03*
D14*
X-621157Y126619D03*
X-646557Y126619D03*
X-621157Y152019D03*
X-646557Y152019D03*
X-621157Y177419D03*
X-646557Y177419D03*
D12*
X-685800Y50800D03*
D15*
X-292100Y190500D03*
X-184150Y311150D03*
X-158750Y311150D03*
X-539750Y241300D03*
X-381000Y142875D03*
X-431800Y142875D03*
X-361950Y250825D03*
X-393700Y295275D03*
D16*
X-384175Y114300D03*
X-668528Y161290D03*
D15*
X-431800Y187325D03*
X-361950Y206375D03*
D16*
X-508000Y136525D03*
X-482600Y136525D03*
X-342900Y114300D03*
X-606425Y127000D03*
M02*
