G04 EAGLE Gerber RS-274X export*
G75*
%MOMM*%
%FSLAX34Y34*%
%LPD*%
%INCopper Layer 2*%
%IPPOS*%
%AMOC8*
5,1,8,0,0,1.08239X$1,22.5*%
G01*
%ADD10C,1.004800*%
%ADD11C,0.990600*%
%ADD12C,4.191000*%
%ADD13C,1.244600*%
%ADD14C,1.400000*%
%ADD15C,0.609600*%
%ADD16C,0.654800*%

G36*
X-164922Y27949D02*
X-164922Y27949D01*
X-164852Y27948D01*
X-164765Y27969D01*
X-164675Y27981D01*
X-164611Y28006D01*
X-164543Y28023D01*
X-164463Y28065D01*
X-164380Y28098D01*
X-164323Y28139D01*
X-164262Y28171D01*
X-164195Y28232D01*
X-164122Y28284D01*
X-164078Y28338D01*
X-164026Y28385D01*
X-163977Y28460D01*
X-163920Y28529D01*
X-163890Y28593D01*
X-163852Y28651D01*
X-163822Y28736D01*
X-163784Y28817D01*
X-163771Y28886D01*
X-163748Y28952D01*
X-163741Y29041D01*
X-163724Y29129D01*
X-163729Y29199D01*
X-163723Y29269D01*
X-163739Y29357D01*
X-163744Y29447D01*
X-163766Y29513D01*
X-163778Y29582D01*
X-163814Y29664D01*
X-163842Y29749D01*
X-163879Y29808D01*
X-163908Y29872D01*
X-163964Y29942D01*
X-164012Y30018D01*
X-164063Y30066D01*
X-164107Y30120D01*
X-164178Y30175D01*
X-164244Y30236D01*
X-164305Y30270D01*
X-164361Y30312D01*
X-164505Y30383D01*
X-165709Y30881D01*
X-172319Y37491D01*
X-175896Y46126D01*
X-175896Y55474D01*
X-172319Y64109D01*
X-165709Y70719D01*
X-157074Y74296D01*
X-147726Y74296D01*
X-139091Y70719D01*
X-132481Y64109D01*
X-132183Y63388D01*
X-132148Y63327D01*
X-132122Y63263D01*
X-132070Y63190D01*
X-132025Y63112D01*
X-131977Y63062D01*
X-131936Y63005D01*
X-131866Y62948D01*
X-131804Y62883D01*
X-131744Y62847D01*
X-131691Y62802D01*
X-131609Y62764D01*
X-131533Y62717D01*
X-131466Y62697D01*
X-131403Y62667D01*
X-131315Y62650D01*
X-131229Y62624D01*
X-131159Y62620D01*
X-131090Y62607D01*
X-131001Y62613D01*
X-130911Y62608D01*
X-130843Y62623D01*
X-130773Y62627D01*
X-130688Y62655D01*
X-130600Y62673D01*
X-130537Y62703D01*
X-130471Y62725D01*
X-130395Y62773D01*
X-130314Y62812D01*
X-130261Y62858D01*
X-130202Y62895D01*
X-130140Y62961D01*
X-130072Y63019D01*
X-130032Y63076D01*
X-129984Y63127D01*
X-129941Y63205D01*
X-129889Y63279D01*
X-129864Y63344D01*
X-129830Y63405D01*
X-129808Y63492D01*
X-129776Y63576D01*
X-129768Y63646D01*
X-129751Y63713D01*
X-129741Y63874D01*
X-129741Y367926D01*
X-129749Y367995D01*
X-129748Y368065D01*
X-129769Y368153D01*
X-129781Y368242D01*
X-129806Y368307D01*
X-129823Y368374D01*
X-129865Y368454D01*
X-129898Y368537D01*
X-129939Y368594D01*
X-129971Y368656D01*
X-130032Y368722D01*
X-130084Y368795D01*
X-130138Y368839D01*
X-130185Y368891D01*
X-130260Y368940D01*
X-130329Y368998D01*
X-130393Y369027D01*
X-130451Y369066D01*
X-130536Y369095D01*
X-130617Y369133D01*
X-130686Y369146D01*
X-130752Y369169D01*
X-130841Y369176D01*
X-130929Y369193D01*
X-130999Y369188D01*
X-131069Y369194D01*
X-131157Y369179D01*
X-131247Y369173D01*
X-131313Y369152D01*
X-131382Y369140D01*
X-131464Y369103D01*
X-131549Y369075D01*
X-131608Y369038D01*
X-131672Y369009D01*
X-131742Y368953D01*
X-131818Y368905D01*
X-131866Y368854D01*
X-131920Y368810D01*
X-131974Y368739D01*
X-132036Y368673D01*
X-132070Y368612D01*
X-132112Y368556D01*
X-132183Y368412D01*
X-132481Y367691D01*
X-139091Y361081D01*
X-147726Y357504D01*
X-157074Y357504D01*
X-165709Y361081D01*
X-172319Y367691D01*
X-175896Y376326D01*
X-175896Y385674D01*
X-172319Y394309D01*
X-165709Y400919D01*
X-164505Y401417D01*
X-164445Y401452D01*
X-164380Y401478D01*
X-164307Y401530D01*
X-164229Y401575D01*
X-164179Y401623D01*
X-164122Y401664D01*
X-164065Y401734D01*
X-164001Y401796D01*
X-163964Y401856D01*
X-163920Y401909D01*
X-163881Y401991D01*
X-163834Y402067D01*
X-163814Y402134D01*
X-163784Y402197D01*
X-163767Y402285D01*
X-163741Y402371D01*
X-163737Y402441D01*
X-163724Y402510D01*
X-163730Y402599D01*
X-163726Y402689D01*
X-163740Y402757D01*
X-163744Y402827D01*
X-163772Y402912D01*
X-163790Y403000D01*
X-163821Y403063D01*
X-163842Y403129D01*
X-163890Y403205D01*
X-163930Y403286D01*
X-163975Y403339D01*
X-164012Y403398D01*
X-164078Y403460D01*
X-164136Y403528D01*
X-164193Y403568D01*
X-164244Y403616D01*
X-164323Y403659D01*
X-164396Y403711D01*
X-164461Y403736D01*
X-164522Y403770D01*
X-164609Y403792D01*
X-164693Y403824D01*
X-164763Y403832D01*
X-164830Y403849D01*
X-164991Y403859D01*
X-673209Y403859D01*
X-673278Y403851D01*
X-673348Y403852D01*
X-673435Y403831D01*
X-673525Y403819D01*
X-673589Y403794D01*
X-673657Y403777D01*
X-673737Y403735D01*
X-673820Y403702D01*
X-673877Y403661D01*
X-673938Y403629D01*
X-674005Y403568D01*
X-674078Y403516D01*
X-674122Y403462D01*
X-674174Y403415D01*
X-674223Y403340D01*
X-674280Y403271D01*
X-674310Y403207D01*
X-674348Y403149D01*
X-674378Y403064D01*
X-674416Y402983D01*
X-674429Y402914D01*
X-674452Y402848D01*
X-674459Y402759D01*
X-674476Y402671D01*
X-674471Y402601D01*
X-674477Y402531D01*
X-674461Y402443D01*
X-674456Y402353D01*
X-674434Y402287D01*
X-674422Y402218D01*
X-674386Y402136D01*
X-674358Y402051D01*
X-674321Y401992D01*
X-674292Y401928D01*
X-674236Y401858D01*
X-674188Y401782D01*
X-674137Y401734D01*
X-674093Y401680D01*
X-674022Y401625D01*
X-673956Y401564D01*
X-673895Y401530D01*
X-673839Y401488D01*
X-673695Y401417D01*
X-672491Y400919D01*
X-665881Y394309D01*
X-662304Y385674D01*
X-662304Y376326D01*
X-665881Y367691D01*
X-672491Y361081D01*
X-681126Y357504D01*
X-690474Y357504D01*
X-699109Y361081D01*
X-705719Y367691D01*
X-706217Y368895D01*
X-706252Y368955D01*
X-706278Y369020D01*
X-706330Y369093D01*
X-706375Y369171D01*
X-706423Y369221D01*
X-706464Y369278D01*
X-706534Y369335D01*
X-706596Y369399D01*
X-706656Y369436D01*
X-706709Y369480D01*
X-706791Y369519D01*
X-706867Y369566D01*
X-706934Y369586D01*
X-706997Y369616D01*
X-707085Y369633D01*
X-707171Y369659D01*
X-707241Y369663D01*
X-707310Y369676D01*
X-707399Y369670D01*
X-707489Y369674D01*
X-707557Y369660D01*
X-707627Y369656D01*
X-707712Y369628D01*
X-707800Y369610D01*
X-707863Y369579D01*
X-707929Y369558D01*
X-708005Y369510D01*
X-708086Y369470D01*
X-708139Y369425D01*
X-708198Y369388D01*
X-708260Y369322D01*
X-708328Y369264D01*
X-708368Y369207D01*
X-708416Y369156D01*
X-708459Y369077D01*
X-708511Y369004D01*
X-708536Y368939D01*
X-708570Y368878D01*
X-708592Y368791D01*
X-708624Y368707D01*
X-708632Y368637D01*
X-708649Y368570D01*
X-708659Y368409D01*
X-708659Y63391D01*
X-708651Y63322D01*
X-708652Y63252D01*
X-708631Y63165D01*
X-708619Y63075D01*
X-708594Y63011D01*
X-708577Y62943D01*
X-708535Y62863D01*
X-708502Y62780D01*
X-708461Y62723D01*
X-708429Y62662D01*
X-708368Y62595D01*
X-708316Y62522D01*
X-708262Y62478D01*
X-708215Y62426D01*
X-708140Y62377D01*
X-708071Y62320D01*
X-708007Y62290D01*
X-707949Y62252D01*
X-707864Y62222D01*
X-707783Y62184D01*
X-707714Y62171D01*
X-707648Y62148D01*
X-707559Y62141D01*
X-707471Y62124D01*
X-707401Y62129D01*
X-707331Y62123D01*
X-707243Y62139D01*
X-707153Y62144D01*
X-707087Y62166D01*
X-707018Y62178D01*
X-706936Y62214D01*
X-706851Y62242D01*
X-706792Y62279D01*
X-706728Y62308D01*
X-706658Y62364D01*
X-706582Y62412D01*
X-706534Y62463D01*
X-706480Y62507D01*
X-706425Y62578D01*
X-706364Y62644D01*
X-706330Y62705D01*
X-706288Y62761D01*
X-706217Y62905D01*
X-705719Y64109D01*
X-699109Y70719D01*
X-690474Y74296D01*
X-681126Y74296D01*
X-672491Y70719D01*
X-665881Y64109D01*
X-662304Y55474D01*
X-662304Y46126D01*
X-665881Y37491D01*
X-672491Y30881D01*
X-673695Y30383D01*
X-673755Y30348D01*
X-673820Y30322D01*
X-673893Y30270D01*
X-673971Y30225D01*
X-674021Y30177D01*
X-674078Y30136D01*
X-674135Y30066D01*
X-674199Y30004D01*
X-674236Y29944D01*
X-674280Y29891D01*
X-674319Y29809D01*
X-674366Y29733D01*
X-674386Y29666D01*
X-674416Y29603D01*
X-674433Y29515D01*
X-674459Y29429D01*
X-674463Y29359D01*
X-674476Y29290D01*
X-674470Y29201D01*
X-674474Y29111D01*
X-674460Y29043D01*
X-674456Y28973D01*
X-674428Y28888D01*
X-674410Y28800D01*
X-674379Y28737D01*
X-674358Y28671D01*
X-674310Y28595D01*
X-674270Y28514D01*
X-674225Y28461D01*
X-674188Y28402D01*
X-674122Y28340D01*
X-674064Y28272D01*
X-674007Y28232D01*
X-673956Y28184D01*
X-673877Y28141D01*
X-673804Y28089D01*
X-673739Y28064D01*
X-673678Y28030D01*
X-673591Y28008D01*
X-673507Y27976D01*
X-673437Y27968D01*
X-673370Y27951D01*
X-673209Y27941D01*
X-164991Y27941D01*
X-164922Y27949D01*
G37*
%LPC*%
G36*
X-623055Y117078D02*
X-623055Y117078D01*
X-626561Y118531D01*
X-629245Y121215D01*
X-630698Y124721D01*
X-630698Y128517D01*
X-629245Y132023D01*
X-626561Y134707D01*
X-623055Y136160D01*
X-619259Y136160D01*
X-615753Y134707D01*
X-613069Y132023D01*
X-612787Y131343D01*
X-612762Y131300D01*
X-612746Y131253D01*
X-612684Y131162D01*
X-612629Y131067D01*
X-612595Y131031D01*
X-612567Y130990D01*
X-612485Y130917D01*
X-612408Y130838D01*
X-612366Y130813D01*
X-612329Y130780D01*
X-612231Y130730D01*
X-612137Y130672D01*
X-612090Y130658D01*
X-612045Y130635D01*
X-611938Y130611D01*
X-611833Y130579D01*
X-611783Y130576D01*
X-611735Y130565D01*
X-611625Y130569D01*
X-611515Y130564D01*
X-611467Y130574D01*
X-611417Y130575D01*
X-611312Y130606D01*
X-611204Y130628D01*
X-611159Y130650D01*
X-611112Y130663D01*
X-611017Y130719D01*
X-610918Y130768D01*
X-610880Y130800D01*
X-610838Y130825D01*
X-610717Y130931D01*
X-609719Y131930D01*
X-607582Y132815D01*
X-605268Y132815D01*
X-603131Y131930D01*
X-601495Y130294D01*
X-600610Y128157D01*
X-600610Y125843D01*
X-601495Y123706D01*
X-603131Y122070D01*
X-605268Y121185D01*
X-607582Y121185D01*
X-609719Y122070D01*
X-610494Y122845D01*
X-610533Y122876D01*
X-610566Y122913D01*
X-610658Y122973D01*
X-610745Y123040D01*
X-610790Y123060D01*
X-610832Y123087D01*
X-610936Y123123D01*
X-611037Y123167D01*
X-611086Y123174D01*
X-611133Y123191D01*
X-611242Y123199D01*
X-611351Y123217D01*
X-611400Y123212D01*
X-611450Y123216D01*
X-611558Y123197D01*
X-611668Y123187D01*
X-611714Y123170D01*
X-611763Y123161D01*
X-611863Y123116D01*
X-611967Y123079D01*
X-612008Y123051D01*
X-612053Y123031D01*
X-612139Y122962D01*
X-612230Y122901D01*
X-612263Y122863D01*
X-612302Y122832D01*
X-612368Y122745D01*
X-612440Y122662D01*
X-612463Y122618D01*
X-612493Y122578D01*
X-612564Y122434D01*
X-613069Y121215D01*
X-615753Y118531D01*
X-619259Y117078D01*
X-623055Y117078D01*
G37*
%LPD*%
%LPC*%
G36*
X-648455Y142478D02*
X-648455Y142478D01*
X-651961Y143931D01*
X-654645Y146615D01*
X-656098Y150121D01*
X-656098Y153917D01*
X-654645Y157423D01*
X-651961Y160107D01*
X-648455Y161560D01*
X-644659Y161560D01*
X-641153Y160107D01*
X-638469Y157423D01*
X-637016Y153917D01*
X-637016Y150121D01*
X-638469Y146615D01*
X-641153Y143931D01*
X-644659Y142478D01*
X-648455Y142478D01*
G37*
%LPD*%
%LPC*%
G36*
X-623055Y167878D02*
X-623055Y167878D01*
X-626561Y169331D01*
X-629245Y172015D01*
X-630698Y175521D01*
X-630698Y179317D01*
X-629245Y182823D01*
X-626561Y185507D01*
X-623055Y186960D01*
X-619259Y186960D01*
X-615753Y185507D01*
X-613069Y182823D01*
X-611616Y179317D01*
X-611616Y175521D01*
X-613069Y172015D01*
X-615753Y169331D01*
X-619259Y167878D01*
X-623055Y167878D01*
G37*
%LPD*%
%LPC*%
G36*
X-623055Y142478D02*
X-623055Y142478D01*
X-626561Y143931D01*
X-629245Y146615D01*
X-630698Y150121D01*
X-630698Y153917D01*
X-629245Y157423D01*
X-626561Y160107D01*
X-623055Y161560D01*
X-619259Y161560D01*
X-615753Y160107D01*
X-613069Y157423D01*
X-611616Y153917D01*
X-611616Y150121D01*
X-613069Y146615D01*
X-615753Y143931D01*
X-619259Y142478D01*
X-623055Y142478D01*
G37*
%LPD*%
%LPC*%
G36*
X-648455Y117078D02*
X-648455Y117078D01*
X-651961Y118531D01*
X-654645Y121215D01*
X-656098Y124721D01*
X-656098Y128517D01*
X-654645Y132023D01*
X-651961Y134707D01*
X-648455Y136160D01*
X-644659Y136160D01*
X-641153Y134707D01*
X-638469Y132023D01*
X-637016Y128517D01*
X-637016Y124721D01*
X-638469Y121215D01*
X-641153Y118531D01*
X-644659Y117078D01*
X-648455Y117078D01*
G37*
%LPD*%
%LPC*%
G36*
X-403743Y344036D02*
X-403743Y344036D01*
X-406964Y345370D01*
X-409430Y347836D01*
X-410764Y351057D01*
X-410764Y354543D01*
X-409430Y357764D01*
X-406964Y360230D01*
X-403743Y361564D01*
X-400257Y361564D01*
X-397036Y360230D01*
X-394570Y357764D01*
X-393236Y354543D01*
X-393236Y351057D01*
X-394570Y347836D01*
X-397036Y345370D01*
X-400257Y344036D01*
X-403743Y344036D01*
G37*
%LPD*%
%LPC*%
G36*
X-429143Y344036D02*
X-429143Y344036D01*
X-432364Y345370D01*
X-434830Y347836D01*
X-436164Y351057D01*
X-436164Y354543D01*
X-434830Y357764D01*
X-432364Y360230D01*
X-429143Y361564D01*
X-425657Y361564D01*
X-422436Y360230D01*
X-419970Y357764D01*
X-418636Y354543D01*
X-418636Y351057D01*
X-419970Y347836D01*
X-422436Y345370D01*
X-425657Y344036D01*
X-429143Y344036D01*
G37*
%LPD*%
%LPC*%
G36*
X-606943Y344036D02*
X-606943Y344036D01*
X-610164Y345370D01*
X-612630Y347836D01*
X-613964Y351057D01*
X-613964Y354543D01*
X-612630Y357764D01*
X-610164Y360230D01*
X-606943Y361564D01*
X-603457Y361564D01*
X-600236Y360230D01*
X-597770Y357764D01*
X-596436Y354543D01*
X-596436Y351057D01*
X-597770Y347836D01*
X-600236Y345370D01*
X-603457Y344036D01*
X-606943Y344036D01*
G37*
%LPD*%
%LPC*%
G36*
X-454543Y344036D02*
X-454543Y344036D01*
X-457764Y345370D01*
X-460230Y347836D01*
X-461564Y351057D01*
X-461564Y354543D01*
X-460230Y357764D01*
X-457764Y360230D01*
X-454543Y361564D01*
X-451057Y361564D01*
X-447836Y360230D01*
X-445370Y357764D01*
X-444036Y354543D01*
X-444036Y351057D01*
X-445370Y347836D01*
X-447836Y345370D01*
X-451057Y344036D01*
X-454543Y344036D01*
G37*
%LPD*%
%LPC*%
G36*
X-479943Y344036D02*
X-479943Y344036D01*
X-483164Y345370D01*
X-485630Y347836D01*
X-486964Y351057D01*
X-486964Y354543D01*
X-485630Y357764D01*
X-483164Y360230D01*
X-479943Y361564D01*
X-476457Y361564D01*
X-473236Y360230D01*
X-470770Y357764D01*
X-469436Y354543D01*
X-469436Y351057D01*
X-470770Y347836D01*
X-473236Y345370D01*
X-476457Y344036D01*
X-479943Y344036D01*
G37*
%LPD*%
%LPC*%
G36*
X-530743Y344036D02*
X-530743Y344036D01*
X-533964Y345370D01*
X-536430Y347836D01*
X-537764Y351057D01*
X-537764Y354543D01*
X-536430Y357764D01*
X-533964Y360230D01*
X-530743Y361564D01*
X-527257Y361564D01*
X-524036Y360230D01*
X-521570Y357764D01*
X-520236Y354543D01*
X-520236Y351057D01*
X-521570Y347836D01*
X-524036Y345370D01*
X-527257Y344036D01*
X-530743Y344036D01*
G37*
%LPD*%
%LPC*%
G36*
X-556143Y344036D02*
X-556143Y344036D01*
X-559364Y345370D01*
X-561830Y347836D01*
X-563164Y351057D01*
X-563164Y354543D01*
X-561830Y357764D01*
X-559364Y360230D01*
X-556143Y361564D01*
X-552657Y361564D01*
X-549436Y360230D01*
X-546970Y357764D01*
X-545636Y354543D01*
X-545636Y351057D01*
X-546970Y347836D01*
X-549436Y345370D01*
X-552657Y344036D01*
X-556143Y344036D01*
G37*
%LPD*%
%LPC*%
G36*
X-302143Y344036D02*
X-302143Y344036D01*
X-305364Y345370D01*
X-307830Y347836D01*
X-309164Y351057D01*
X-309164Y354543D01*
X-307830Y357764D01*
X-305364Y360230D01*
X-302143Y361564D01*
X-298657Y361564D01*
X-295436Y360230D01*
X-292970Y357764D01*
X-291636Y354543D01*
X-291636Y351057D01*
X-292970Y347836D01*
X-295436Y345370D01*
X-298657Y344036D01*
X-302143Y344036D01*
G37*
%LPD*%
%LPC*%
G36*
X-581543Y344036D02*
X-581543Y344036D01*
X-584764Y345370D01*
X-587230Y347836D01*
X-588564Y351057D01*
X-588564Y354543D01*
X-587230Y357764D01*
X-584764Y360230D01*
X-581543Y361564D01*
X-578057Y361564D01*
X-574836Y360230D01*
X-572370Y357764D01*
X-571036Y354543D01*
X-571036Y351057D01*
X-572370Y347836D01*
X-574836Y345370D01*
X-578057Y344036D01*
X-581543Y344036D01*
G37*
%LPD*%
%LPC*%
G36*
X-505343Y344036D02*
X-505343Y344036D01*
X-508564Y345370D01*
X-511030Y347836D01*
X-512364Y351057D01*
X-512364Y354543D01*
X-511030Y357764D01*
X-508564Y360230D01*
X-505343Y361564D01*
X-501857Y361564D01*
X-498636Y360230D01*
X-496170Y357764D01*
X-494836Y354543D01*
X-494836Y351057D01*
X-496170Y347836D01*
X-498636Y345370D01*
X-501857Y344036D01*
X-505343Y344036D01*
G37*
%LPD*%
%LPC*%
G36*
X-200543Y344036D02*
X-200543Y344036D01*
X-203764Y345370D01*
X-206230Y347836D01*
X-207564Y351057D01*
X-207564Y354543D01*
X-206230Y357764D01*
X-203764Y360230D01*
X-200543Y361564D01*
X-197057Y361564D01*
X-193836Y360230D01*
X-191370Y357764D01*
X-190036Y354543D01*
X-190036Y351057D01*
X-191370Y347836D01*
X-193836Y345370D01*
X-197057Y344036D01*
X-200543Y344036D01*
G37*
%LPD*%
%LPC*%
G36*
X-225943Y344036D02*
X-225943Y344036D01*
X-229164Y345370D01*
X-231630Y347836D01*
X-232964Y351057D01*
X-232964Y354543D01*
X-231630Y357764D01*
X-229164Y360230D01*
X-225943Y361564D01*
X-222457Y361564D01*
X-219236Y360230D01*
X-216770Y357764D01*
X-215436Y354543D01*
X-215436Y351057D01*
X-216770Y347836D01*
X-219236Y345370D01*
X-222457Y344036D01*
X-225943Y344036D01*
G37*
%LPD*%
%LPC*%
G36*
X-251343Y344036D02*
X-251343Y344036D01*
X-254564Y345370D01*
X-257030Y347836D01*
X-258364Y351057D01*
X-258364Y354543D01*
X-257030Y357764D01*
X-254564Y360230D01*
X-251343Y361564D01*
X-247857Y361564D01*
X-244636Y360230D01*
X-242170Y357764D01*
X-240836Y354543D01*
X-240836Y351057D01*
X-242170Y347836D01*
X-244636Y345370D01*
X-247857Y344036D01*
X-251343Y344036D01*
G37*
%LPD*%
%LPC*%
G36*
X-276743Y344036D02*
X-276743Y344036D01*
X-279964Y345370D01*
X-282430Y347836D01*
X-283764Y351057D01*
X-283764Y354543D01*
X-282430Y357764D01*
X-279964Y360230D01*
X-276743Y361564D01*
X-273257Y361564D01*
X-270036Y360230D01*
X-267570Y357764D01*
X-266236Y354543D01*
X-266236Y351057D01*
X-267570Y347836D01*
X-270036Y345370D01*
X-273257Y344036D01*
X-276743Y344036D01*
G37*
%LPD*%
%LPC*%
G36*
X-632343Y344036D02*
X-632343Y344036D01*
X-635564Y345370D01*
X-638030Y347836D01*
X-639364Y351057D01*
X-639364Y354543D01*
X-638030Y357764D01*
X-635564Y360230D01*
X-632343Y361564D01*
X-628857Y361564D01*
X-625636Y360230D01*
X-623170Y357764D01*
X-621836Y354543D01*
X-621836Y351057D01*
X-623170Y347836D01*
X-625636Y345370D01*
X-628857Y344036D01*
X-632343Y344036D01*
G37*
%LPD*%
%LPC*%
G36*
X-327543Y344036D02*
X-327543Y344036D01*
X-330764Y345370D01*
X-333230Y347836D01*
X-334564Y351057D01*
X-334564Y354543D01*
X-333230Y357764D01*
X-330764Y360230D01*
X-327543Y361564D01*
X-324057Y361564D01*
X-320836Y360230D01*
X-318370Y357764D01*
X-317036Y354543D01*
X-317036Y351057D01*
X-318370Y347836D01*
X-320836Y345370D01*
X-324057Y344036D01*
X-327543Y344036D01*
G37*
%LPD*%
%LPC*%
G36*
X-352943Y344036D02*
X-352943Y344036D01*
X-356164Y345370D01*
X-358630Y347836D01*
X-359964Y351057D01*
X-359964Y354543D01*
X-358630Y357764D01*
X-356164Y360230D01*
X-352943Y361564D01*
X-349457Y361564D01*
X-346236Y360230D01*
X-343770Y357764D01*
X-342436Y354543D01*
X-342436Y351057D01*
X-343770Y347836D01*
X-346236Y345370D01*
X-349457Y344036D01*
X-352943Y344036D01*
G37*
%LPD*%
%LPC*%
G36*
X-378343Y344036D02*
X-378343Y344036D01*
X-381564Y345370D01*
X-384030Y347836D01*
X-385364Y351057D01*
X-385364Y354543D01*
X-384030Y357764D01*
X-381564Y360230D01*
X-378343Y361564D01*
X-374857Y361564D01*
X-371636Y360230D01*
X-369170Y357764D01*
X-367836Y354543D01*
X-367836Y351057D01*
X-369170Y347836D01*
X-371636Y345370D01*
X-374857Y344036D01*
X-378343Y344036D01*
G37*
%LPD*%
%LPC*%
G36*
X-200543Y318636D02*
X-200543Y318636D01*
X-203764Y319970D01*
X-206230Y322436D01*
X-207564Y325657D01*
X-207564Y329143D01*
X-206230Y332364D01*
X-203764Y334830D01*
X-200543Y336164D01*
X-197057Y336164D01*
X-193836Y334830D01*
X-191370Y332364D01*
X-190036Y329143D01*
X-190036Y325657D01*
X-191370Y322436D01*
X-193836Y319970D01*
X-197057Y318636D01*
X-200543Y318636D01*
G37*
%LPD*%
%LPC*%
G36*
X-225943Y318636D02*
X-225943Y318636D01*
X-229164Y319970D01*
X-231630Y322436D01*
X-232964Y325657D01*
X-232964Y329143D01*
X-231630Y332364D01*
X-229164Y334830D01*
X-225943Y336164D01*
X-222457Y336164D01*
X-219236Y334830D01*
X-216770Y332364D01*
X-215436Y329143D01*
X-215436Y325657D01*
X-216770Y322436D01*
X-219236Y319970D01*
X-222457Y318636D01*
X-225943Y318636D01*
G37*
%LPD*%
%LPC*%
G36*
X-251343Y318636D02*
X-251343Y318636D01*
X-254564Y319970D01*
X-257030Y322436D01*
X-258364Y325657D01*
X-258364Y329143D01*
X-257030Y332364D01*
X-254564Y334830D01*
X-251343Y336164D01*
X-247857Y336164D01*
X-244636Y334830D01*
X-242170Y332364D01*
X-240836Y329143D01*
X-240836Y325657D01*
X-242170Y322436D01*
X-244636Y319970D01*
X-247857Y318636D01*
X-251343Y318636D01*
G37*
%LPD*%
%LPC*%
G36*
X-276743Y318636D02*
X-276743Y318636D01*
X-279964Y319970D01*
X-282430Y322436D01*
X-283764Y325657D01*
X-283764Y329143D01*
X-282430Y332364D01*
X-279964Y334830D01*
X-276743Y336164D01*
X-273257Y336164D01*
X-270036Y334830D01*
X-267570Y332364D01*
X-266236Y329143D01*
X-266236Y325657D01*
X-267570Y322436D01*
X-270036Y319970D01*
X-273257Y318636D01*
X-276743Y318636D01*
G37*
%LPD*%
%LPC*%
G36*
X-302143Y318636D02*
X-302143Y318636D01*
X-305364Y319970D01*
X-307830Y322436D01*
X-309164Y325657D01*
X-309164Y329143D01*
X-307830Y332364D01*
X-305364Y334830D01*
X-302143Y336164D01*
X-298657Y336164D01*
X-295436Y334830D01*
X-292970Y332364D01*
X-291636Y329143D01*
X-291636Y325657D01*
X-292970Y322436D01*
X-295436Y319970D01*
X-298657Y318636D01*
X-302143Y318636D01*
G37*
%LPD*%
%LPC*%
G36*
X-327543Y318636D02*
X-327543Y318636D01*
X-330764Y319970D01*
X-333230Y322436D01*
X-334564Y325657D01*
X-334564Y329143D01*
X-333230Y332364D01*
X-330764Y334830D01*
X-327543Y336164D01*
X-324057Y336164D01*
X-320836Y334830D01*
X-318370Y332364D01*
X-317036Y329143D01*
X-317036Y325657D01*
X-318370Y322436D01*
X-320836Y319970D01*
X-324057Y318636D01*
X-327543Y318636D01*
G37*
%LPD*%
%LPC*%
G36*
X-352943Y318636D02*
X-352943Y318636D01*
X-356164Y319970D01*
X-358630Y322436D01*
X-359964Y325657D01*
X-359964Y329143D01*
X-358630Y332364D01*
X-356164Y334830D01*
X-352943Y336164D01*
X-349457Y336164D01*
X-346236Y334830D01*
X-343770Y332364D01*
X-342436Y329143D01*
X-342436Y325657D01*
X-343770Y322436D01*
X-346236Y319970D01*
X-349457Y318636D01*
X-352943Y318636D01*
G37*
%LPD*%
%LPC*%
G36*
X-403743Y318636D02*
X-403743Y318636D01*
X-406964Y319970D01*
X-409430Y322436D01*
X-410764Y325657D01*
X-410764Y329143D01*
X-409430Y332364D01*
X-406964Y334830D01*
X-403743Y336164D01*
X-400257Y336164D01*
X-397036Y334830D01*
X-394570Y332364D01*
X-393236Y329143D01*
X-393236Y325657D01*
X-394570Y322436D01*
X-397036Y319970D01*
X-400257Y318636D01*
X-403743Y318636D01*
G37*
%LPD*%
%LPC*%
G36*
X-429143Y318636D02*
X-429143Y318636D01*
X-432364Y319970D01*
X-434830Y322436D01*
X-436164Y325657D01*
X-436164Y329143D01*
X-434830Y332364D01*
X-432364Y334830D01*
X-429143Y336164D01*
X-425657Y336164D01*
X-422436Y334830D01*
X-419970Y332364D01*
X-418636Y329143D01*
X-418636Y325657D01*
X-419970Y322436D01*
X-422436Y319970D01*
X-425657Y318636D01*
X-429143Y318636D01*
G37*
%LPD*%
%LPC*%
G36*
X-479943Y318636D02*
X-479943Y318636D01*
X-483164Y319970D01*
X-485630Y322436D01*
X-486964Y325657D01*
X-486964Y329143D01*
X-485630Y332364D01*
X-483164Y334830D01*
X-479943Y336164D01*
X-476457Y336164D01*
X-473236Y334830D01*
X-470770Y332364D01*
X-469436Y329143D01*
X-469436Y325657D01*
X-470770Y322436D01*
X-473236Y319970D01*
X-476457Y318636D01*
X-479943Y318636D01*
G37*
%LPD*%
%LPC*%
G36*
X-505343Y318636D02*
X-505343Y318636D01*
X-508564Y319970D01*
X-511030Y322436D01*
X-512364Y325657D01*
X-512364Y329143D01*
X-511030Y332364D01*
X-508564Y334830D01*
X-505343Y336164D01*
X-501857Y336164D01*
X-498636Y334830D01*
X-496170Y332364D01*
X-494836Y329143D01*
X-494836Y325657D01*
X-496170Y322436D01*
X-498636Y319970D01*
X-501857Y318636D01*
X-505343Y318636D01*
G37*
%LPD*%
%LPC*%
G36*
X-530743Y318636D02*
X-530743Y318636D01*
X-533964Y319970D01*
X-536430Y322436D01*
X-537764Y325657D01*
X-537764Y329143D01*
X-536430Y332364D01*
X-533964Y334830D01*
X-530743Y336164D01*
X-527257Y336164D01*
X-524036Y334830D01*
X-521570Y332364D01*
X-520236Y329143D01*
X-520236Y325657D01*
X-521570Y322436D01*
X-524036Y319970D01*
X-527257Y318636D01*
X-530743Y318636D01*
G37*
%LPD*%
%LPC*%
G36*
X-556143Y318636D02*
X-556143Y318636D01*
X-559364Y319970D01*
X-561830Y322436D01*
X-563164Y325657D01*
X-563164Y329143D01*
X-561830Y332364D01*
X-559364Y334830D01*
X-556143Y336164D01*
X-552657Y336164D01*
X-549436Y334830D01*
X-546970Y332364D01*
X-545636Y329143D01*
X-545636Y325657D01*
X-546970Y322436D01*
X-549436Y319970D01*
X-552657Y318636D01*
X-556143Y318636D01*
G37*
%LPD*%
%LPC*%
G36*
X-581543Y318636D02*
X-581543Y318636D01*
X-584764Y319970D01*
X-587230Y322436D01*
X-588564Y325657D01*
X-588564Y329143D01*
X-587230Y332364D01*
X-584764Y334830D01*
X-581543Y336164D01*
X-578057Y336164D01*
X-574836Y334830D01*
X-572370Y332364D01*
X-571036Y329143D01*
X-571036Y325657D01*
X-572370Y322436D01*
X-574836Y319970D01*
X-578057Y318636D01*
X-581543Y318636D01*
G37*
%LPD*%
%LPC*%
G36*
X-606943Y318636D02*
X-606943Y318636D01*
X-610164Y319970D01*
X-612630Y322436D01*
X-613964Y325657D01*
X-613964Y329143D01*
X-612630Y332364D01*
X-610164Y334830D01*
X-606943Y336164D01*
X-603457Y336164D01*
X-600236Y334830D01*
X-597770Y332364D01*
X-596436Y329143D01*
X-596436Y325657D01*
X-597770Y322436D01*
X-600236Y319970D01*
X-603457Y318636D01*
X-606943Y318636D01*
G37*
%LPD*%
%LPC*%
G36*
X-632343Y318636D02*
X-632343Y318636D01*
X-635564Y319970D01*
X-638030Y322436D01*
X-639364Y325657D01*
X-639364Y329143D01*
X-638030Y332364D01*
X-635564Y334830D01*
X-632343Y336164D01*
X-628857Y336164D01*
X-625636Y334830D01*
X-623170Y332364D01*
X-621836Y329143D01*
X-621836Y325657D01*
X-623170Y322436D01*
X-625636Y319970D01*
X-628857Y318636D01*
X-632343Y318636D01*
G37*
%LPD*%
%LPC*%
G36*
X-327543Y64636D02*
X-327543Y64636D01*
X-330764Y65970D01*
X-333230Y68436D01*
X-334564Y71657D01*
X-334564Y75143D01*
X-333230Y78364D01*
X-330764Y80830D01*
X-327543Y82164D01*
X-324057Y82164D01*
X-320836Y80830D01*
X-318370Y78364D01*
X-317036Y75143D01*
X-317036Y71657D01*
X-318370Y68436D01*
X-320836Y65970D01*
X-324057Y64636D01*
X-327543Y64636D01*
G37*
%LPD*%
%LPC*%
G36*
X-352943Y64636D02*
X-352943Y64636D01*
X-356164Y65970D01*
X-358630Y68436D01*
X-359964Y71657D01*
X-359964Y75143D01*
X-358630Y78364D01*
X-356164Y80830D01*
X-352943Y82164D01*
X-349457Y82164D01*
X-346236Y80830D01*
X-343770Y78364D01*
X-342436Y75143D01*
X-342436Y71657D01*
X-343770Y68436D01*
X-346236Y65970D01*
X-349457Y64636D01*
X-352943Y64636D01*
G37*
%LPD*%
%LPC*%
G36*
X-378343Y64636D02*
X-378343Y64636D01*
X-381564Y65970D01*
X-384030Y68436D01*
X-385364Y71657D01*
X-385364Y75143D01*
X-384030Y78364D01*
X-381564Y80830D01*
X-378343Y82164D01*
X-374857Y82164D01*
X-371636Y80830D01*
X-369170Y78364D01*
X-367836Y75143D01*
X-367836Y71657D01*
X-369170Y68436D01*
X-371636Y65970D01*
X-374857Y64636D01*
X-378343Y64636D01*
G37*
%LPD*%
%LPC*%
G36*
X-403743Y64636D02*
X-403743Y64636D01*
X-406964Y65970D01*
X-409430Y68436D01*
X-410764Y71657D01*
X-410764Y75143D01*
X-409430Y78364D01*
X-406964Y80830D01*
X-403743Y82164D01*
X-400257Y82164D01*
X-397036Y80830D01*
X-394570Y78364D01*
X-393236Y75143D01*
X-393236Y71657D01*
X-394570Y68436D01*
X-397036Y65970D01*
X-400257Y64636D01*
X-403743Y64636D01*
G37*
%LPD*%
%LPC*%
G36*
X-429143Y64636D02*
X-429143Y64636D01*
X-432364Y65970D01*
X-434830Y68436D01*
X-436164Y71657D01*
X-436164Y75143D01*
X-434830Y78364D01*
X-432364Y80830D01*
X-429143Y82164D01*
X-425657Y82164D01*
X-422436Y80830D01*
X-419970Y78364D01*
X-418636Y75143D01*
X-418636Y71657D01*
X-419970Y68436D01*
X-422436Y65970D01*
X-425657Y64636D01*
X-429143Y64636D01*
G37*
%LPD*%
%LPC*%
G36*
X-454543Y64636D02*
X-454543Y64636D01*
X-457764Y65970D01*
X-460230Y68436D01*
X-461564Y71657D01*
X-461564Y75143D01*
X-460230Y78364D01*
X-457764Y80830D01*
X-454543Y82164D01*
X-451057Y82164D01*
X-447836Y80830D01*
X-445370Y78364D01*
X-444036Y75143D01*
X-444036Y71657D01*
X-445370Y68436D01*
X-447836Y65970D01*
X-451057Y64636D01*
X-454543Y64636D01*
G37*
%LPD*%
%LPC*%
G36*
X-352943Y90036D02*
X-352943Y90036D01*
X-356164Y91370D01*
X-358630Y93836D01*
X-359964Y97057D01*
X-359964Y100543D01*
X-358630Y103764D01*
X-356164Y106230D01*
X-352943Y107564D01*
X-349457Y107564D01*
X-346236Y106230D01*
X-343770Y103764D01*
X-342436Y100543D01*
X-342436Y97057D01*
X-343770Y93836D01*
X-346236Y91370D01*
X-349457Y90036D01*
X-352943Y90036D01*
G37*
%LPD*%
%LPC*%
G36*
X-479943Y64636D02*
X-479943Y64636D01*
X-483164Y65970D01*
X-485630Y68436D01*
X-486964Y71657D01*
X-486964Y75143D01*
X-485630Y78364D01*
X-483164Y80830D01*
X-479943Y82164D01*
X-476457Y82164D01*
X-473236Y80830D01*
X-470770Y78364D01*
X-469436Y75143D01*
X-469436Y71657D01*
X-470770Y68436D01*
X-473236Y65970D01*
X-476457Y64636D01*
X-479943Y64636D01*
G37*
%LPD*%
%LPC*%
G36*
X-505343Y64636D02*
X-505343Y64636D01*
X-508564Y65970D01*
X-511030Y68436D01*
X-512364Y71657D01*
X-512364Y75143D01*
X-511030Y78364D01*
X-508564Y80830D01*
X-505343Y82164D01*
X-501857Y82164D01*
X-498636Y80830D01*
X-496170Y78364D01*
X-494836Y75143D01*
X-494836Y71657D01*
X-496170Y68436D01*
X-498636Y65970D01*
X-501857Y64636D01*
X-505343Y64636D01*
G37*
%LPD*%
%LPC*%
G36*
X-530743Y64636D02*
X-530743Y64636D01*
X-533964Y65970D01*
X-536430Y68436D01*
X-537764Y71657D01*
X-537764Y75143D01*
X-536430Y78364D01*
X-533964Y80830D01*
X-530743Y82164D01*
X-527257Y82164D01*
X-524036Y80830D01*
X-521570Y78364D01*
X-520236Y75143D01*
X-520236Y71657D01*
X-521570Y68436D01*
X-524036Y65970D01*
X-527257Y64636D01*
X-530743Y64636D01*
G37*
%LPD*%
%LPC*%
G36*
X-556143Y64636D02*
X-556143Y64636D01*
X-559364Y65970D01*
X-561830Y68436D01*
X-563164Y71657D01*
X-563164Y75143D01*
X-561830Y78364D01*
X-559364Y80830D01*
X-556143Y82164D01*
X-552657Y82164D01*
X-549436Y80830D01*
X-546970Y78364D01*
X-545636Y75143D01*
X-545636Y71657D01*
X-546970Y68436D01*
X-549436Y65970D01*
X-552657Y64636D01*
X-556143Y64636D01*
G37*
%LPD*%
%LPC*%
G36*
X-581543Y64636D02*
X-581543Y64636D01*
X-584764Y65970D01*
X-587230Y68436D01*
X-588564Y71657D01*
X-588564Y75143D01*
X-587230Y78364D01*
X-584764Y80830D01*
X-581543Y82164D01*
X-578057Y82164D01*
X-574836Y80830D01*
X-572370Y78364D01*
X-571036Y75143D01*
X-571036Y71657D01*
X-572370Y68436D01*
X-574836Y65970D01*
X-578057Y64636D01*
X-581543Y64636D01*
G37*
%LPD*%
%LPC*%
G36*
X-606943Y64636D02*
X-606943Y64636D01*
X-610164Y65970D01*
X-612630Y68436D01*
X-613964Y71657D01*
X-613964Y75143D01*
X-612630Y78364D01*
X-610164Y80830D01*
X-606943Y82164D01*
X-603457Y82164D01*
X-600236Y80830D01*
X-597770Y78364D01*
X-596436Y75143D01*
X-596436Y71657D01*
X-597770Y68436D01*
X-600236Y65970D01*
X-603457Y64636D01*
X-606943Y64636D01*
G37*
%LPD*%
%LPC*%
G36*
X-632343Y64636D02*
X-632343Y64636D01*
X-635564Y65970D01*
X-638030Y68436D01*
X-639364Y71657D01*
X-639364Y75143D01*
X-638030Y78364D01*
X-635564Y80830D01*
X-632343Y82164D01*
X-628857Y82164D01*
X-625636Y80830D01*
X-623170Y78364D01*
X-621836Y75143D01*
X-621836Y71657D01*
X-623170Y68436D01*
X-625636Y65970D01*
X-628857Y64636D01*
X-632343Y64636D01*
G37*
%LPD*%
%LPC*%
G36*
X-302143Y64636D02*
X-302143Y64636D01*
X-305364Y65970D01*
X-307830Y68436D01*
X-309164Y71657D01*
X-309164Y75143D01*
X-307830Y78364D01*
X-305364Y80830D01*
X-302143Y82164D01*
X-298657Y82164D01*
X-295436Y80830D01*
X-292970Y78364D01*
X-291636Y75143D01*
X-291636Y71657D01*
X-292970Y68436D01*
X-295436Y65970D01*
X-298657Y64636D01*
X-302143Y64636D01*
G37*
%LPD*%
%LPC*%
G36*
X-403743Y90036D02*
X-403743Y90036D01*
X-406964Y91370D01*
X-409430Y93836D01*
X-410764Y97057D01*
X-410764Y100543D01*
X-409430Y103764D01*
X-406964Y106230D01*
X-403743Y107564D01*
X-400257Y107564D01*
X-397036Y106230D01*
X-394570Y103764D01*
X-393236Y100543D01*
X-393236Y97057D01*
X-394570Y93836D01*
X-397036Y91370D01*
X-400257Y90036D01*
X-403743Y90036D01*
G37*
%LPD*%
%LPC*%
G36*
X-429143Y90036D02*
X-429143Y90036D01*
X-432364Y91370D01*
X-434830Y93836D01*
X-436164Y97057D01*
X-436164Y100543D01*
X-434830Y103764D01*
X-432364Y106230D01*
X-429143Y107564D01*
X-425657Y107564D01*
X-422436Y106230D01*
X-419970Y103764D01*
X-418636Y100543D01*
X-418636Y97057D01*
X-419970Y93836D01*
X-422436Y91370D01*
X-425657Y90036D01*
X-429143Y90036D01*
G37*
%LPD*%
%LPC*%
G36*
X-479943Y90036D02*
X-479943Y90036D01*
X-483164Y91370D01*
X-485630Y93836D01*
X-486964Y97057D01*
X-486964Y100543D01*
X-485630Y103764D01*
X-483164Y106230D01*
X-479943Y107564D01*
X-476457Y107564D01*
X-473236Y106230D01*
X-470770Y103764D01*
X-469436Y100543D01*
X-469436Y97057D01*
X-470770Y93836D01*
X-473236Y91370D01*
X-476457Y90036D01*
X-479943Y90036D01*
G37*
%LPD*%
%LPC*%
G36*
X-505343Y90036D02*
X-505343Y90036D01*
X-508564Y91370D01*
X-511030Y93836D01*
X-512364Y97057D01*
X-512364Y100543D01*
X-511030Y103764D01*
X-508564Y106230D01*
X-505343Y107564D01*
X-501857Y107564D01*
X-498636Y106230D01*
X-496170Y103764D01*
X-494836Y100543D01*
X-494836Y97057D01*
X-496170Y93836D01*
X-498636Y91370D01*
X-501857Y90036D01*
X-505343Y90036D01*
G37*
%LPD*%
%LPC*%
G36*
X-530743Y90036D02*
X-530743Y90036D01*
X-533964Y91370D01*
X-536430Y93836D01*
X-537764Y97057D01*
X-537764Y100543D01*
X-536430Y103764D01*
X-533964Y106230D01*
X-530743Y107564D01*
X-527257Y107564D01*
X-524036Y106230D01*
X-521570Y103764D01*
X-520236Y100543D01*
X-520236Y97057D01*
X-521570Y93836D01*
X-524036Y91370D01*
X-527257Y90036D01*
X-530743Y90036D01*
G37*
%LPD*%
%LPC*%
G36*
X-556143Y90036D02*
X-556143Y90036D01*
X-559364Y91370D01*
X-561830Y93836D01*
X-563164Y97057D01*
X-563164Y100543D01*
X-561830Y103764D01*
X-559364Y106230D01*
X-556143Y107564D01*
X-552657Y107564D01*
X-549436Y106230D01*
X-546970Y103764D01*
X-545636Y100543D01*
X-545636Y97057D01*
X-546970Y93836D01*
X-549436Y91370D01*
X-552657Y90036D01*
X-556143Y90036D01*
G37*
%LPD*%
%LPC*%
G36*
X-581543Y90036D02*
X-581543Y90036D01*
X-584764Y91370D01*
X-587230Y93836D01*
X-588564Y97057D01*
X-588564Y100543D01*
X-587230Y103764D01*
X-584764Y106230D01*
X-581543Y107564D01*
X-578057Y107564D01*
X-574836Y106230D01*
X-572370Y103764D01*
X-571036Y100543D01*
X-571036Y97057D01*
X-572370Y93836D01*
X-574836Y91370D01*
X-578057Y90036D01*
X-581543Y90036D01*
G37*
%LPD*%
%LPC*%
G36*
X-606943Y90036D02*
X-606943Y90036D01*
X-610164Y91370D01*
X-612630Y93836D01*
X-613964Y97057D01*
X-613964Y100543D01*
X-612630Y103764D01*
X-610164Y106230D01*
X-606943Y107564D01*
X-603457Y107564D01*
X-600236Y106230D01*
X-597770Y103764D01*
X-596436Y100543D01*
X-596436Y97057D01*
X-597770Y93836D01*
X-600236Y91370D01*
X-603457Y90036D01*
X-606943Y90036D01*
G37*
%LPD*%
%LPC*%
G36*
X-632343Y90036D02*
X-632343Y90036D01*
X-635564Y91370D01*
X-638030Y93836D01*
X-639364Y97057D01*
X-639364Y100543D01*
X-638030Y103764D01*
X-635564Y106230D01*
X-632343Y107564D01*
X-628857Y107564D01*
X-625636Y106230D01*
X-623170Y103764D01*
X-621836Y100543D01*
X-621836Y97057D01*
X-623170Y93836D01*
X-625636Y91370D01*
X-628857Y90036D01*
X-632343Y90036D01*
G37*
%LPD*%
%LPC*%
G36*
X-200543Y90036D02*
X-200543Y90036D01*
X-203764Y91370D01*
X-206230Y93836D01*
X-207564Y97057D01*
X-207564Y100543D01*
X-206230Y103764D01*
X-203764Y106230D01*
X-200543Y107564D01*
X-197057Y107564D01*
X-193836Y106230D01*
X-191370Y103764D01*
X-190036Y100543D01*
X-190036Y97057D01*
X-191370Y93836D01*
X-193836Y91370D01*
X-197057Y90036D01*
X-200543Y90036D01*
G37*
%LPD*%
%LPC*%
G36*
X-225943Y90036D02*
X-225943Y90036D01*
X-229164Y91370D01*
X-231630Y93836D01*
X-232964Y97057D01*
X-232964Y100543D01*
X-231630Y103764D01*
X-229164Y106230D01*
X-225943Y107564D01*
X-222457Y107564D01*
X-219236Y106230D01*
X-216770Y103764D01*
X-215436Y100543D01*
X-215436Y97057D01*
X-216770Y93836D01*
X-219236Y91370D01*
X-222457Y90036D01*
X-225943Y90036D01*
G37*
%LPD*%
%LPC*%
G36*
X-251343Y90036D02*
X-251343Y90036D01*
X-254564Y91370D01*
X-257030Y93836D01*
X-258364Y97057D01*
X-258364Y100543D01*
X-257030Y103764D01*
X-254564Y106230D01*
X-251343Y107564D01*
X-247857Y107564D01*
X-244636Y106230D01*
X-242170Y103764D01*
X-240836Y100543D01*
X-240836Y97057D01*
X-242170Y93836D01*
X-244636Y91370D01*
X-247857Y90036D01*
X-251343Y90036D01*
G37*
%LPD*%
%LPC*%
G36*
X-276743Y90036D02*
X-276743Y90036D01*
X-279964Y91370D01*
X-282430Y93836D01*
X-283764Y97057D01*
X-283764Y100543D01*
X-282430Y103764D01*
X-279964Y106230D01*
X-276743Y107564D01*
X-273257Y107564D01*
X-270036Y106230D01*
X-267570Y103764D01*
X-266236Y100543D01*
X-266236Y97057D01*
X-267570Y93836D01*
X-270036Y91370D01*
X-273257Y90036D01*
X-276743Y90036D01*
G37*
%LPD*%
%LPC*%
G36*
X-302143Y90036D02*
X-302143Y90036D01*
X-305364Y91370D01*
X-307830Y93836D01*
X-309164Y97057D01*
X-309164Y100543D01*
X-307830Y103764D01*
X-305364Y106230D01*
X-302143Y107564D01*
X-298657Y107564D01*
X-295436Y106230D01*
X-292970Y103764D01*
X-291636Y100543D01*
X-291636Y97057D01*
X-292970Y93836D01*
X-295436Y91370D01*
X-298657Y90036D01*
X-302143Y90036D01*
G37*
%LPD*%
%LPC*%
G36*
X-327543Y90036D02*
X-327543Y90036D01*
X-330764Y91370D01*
X-333230Y93836D01*
X-334564Y97057D01*
X-334564Y100543D01*
X-333230Y103764D01*
X-330764Y106230D01*
X-327543Y107564D01*
X-324057Y107564D01*
X-320836Y106230D01*
X-318370Y103764D01*
X-317036Y100543D01*
X-317036Y97057D01*
X-318370Y93836D01*
X-320836Y91370D01*
X-324057Y90036D01*
X-327543Y90036D01*
G37*
%LPD*%
%LPC*%
G36*
X-200543Y64636D02*
X-200543Y64636D01*
X-203764Y65970D01*
X-206230Y68436D01*
X-207564Y71657D01*
X-207564Y75143D01*
X-206230Y78364D01*
X-203764Y80830D01*
X-200543Y82164D01*
X-197057Y82164D01*
X-193836Y80830D01*
X-191370Y78364D01*
X-190036Y75143D01*
X-190036Y71657D01*
X-191370Y68436D01*
X-193836Y65970D01*
X-197057Y64636D01*
X-200543Y64636D01*
G37*
%LPD*%
%LPC*%
G36*
X-225943Y64636D02*
X-225943Y64636D01*
X-229164Y65970D01*
X-231630Y68436D01*
X-232964Y71657D01*
X-232964Y75143D01*
X-231630Y78364D01*
X-229164Y80830D01*
X-225943Y82164D01*
X-222457Y82164D01*
X-219236Y80830D01*
X-216770Y78364D01*
X-215436Y75143D01*
X-215436Y71657D01*
X-216770Y68436D01*
X-219236Y65970D01*
X-222457Y64636D01*
X-225943Y64636D01*
G37*
%LPD*%
%LPC*%
G36*
X-251343Y64636D02*
X-251343Y64636D01*
X-254564Y65970D01*
X-257030Y68436D01*
X-258364Y71657D01*
X-258364Y75143D01*
X-257030Y78364D01*
X-254564Y80830D01*
X-251343Y82164D01*
X-247857Y82164D01*
X-244636Y80830D01*
X-242170Y78364D01*
X-240836Y75143D01*
X-240836Y71657D01*
X-242170Y68436D01*
X-244636Y65970D01*
X-247857Y64636D01*
X-251343Y64636D01*
G37*
%LPD*%
%LPC*%
G36*
X-276743Y64636D02*
X-276743Y64636D01*
X-279964Y65970D01*
X-282430Y68436D01*
X-283764Y71657D01*
X-283764Y75143D01*
X-282430Y78364D01*
X-279964Y80830D01*
X-276743Y82164D01*
X-273257Y82164D01*
X-270036Y80830D01*
X-267570Y78364D01*
X-266236Y75143D01*
X-266236Y71657D01*
X-267570Y68436D01*
X-270036Y65970D01*
X-273257Y64636D01*
X-276743Y64636D01*
G37*
%LPD*%
%LPC*%
G36*
X-282791Y160306D02*
X-282791Y160306D01*
X-285545Y161447D01*
X-287653Y163555D01*
X-288794Y166309D01*
X-288794Y169291D01*
X-287653Y172045D01*
X-285545Y174153D01*
X-282791Y175294D01*
X-279809Y175294D01*
X-277055Y174153D01*
X-274947Y172045D01*
X-273806Y169291D01*
X-273806Y166309D01*
X-274947Y163555D01*
X-277055Y161447D01*
X-279809Y160306D01*
X-282791Y160306D01*
G37*
%LPD*%
%LPC*%
G36*
X-558391Y256506D02*
X-558391Y256506D01*
X-561145Y257647D01*
X-563253Y259755D01*
X-564394Y262509D01*
X-564394Y265491D01*
X-563253Y268245D01*
X-561145Y270353D01*
X-558391Y271494D01*
X-555409Y271494D01*
X-552655Y270353D01*
X-550547Y268245D01*
X-549406Y265491D01*
X-549406Y262509D01*
X-550547Y259755D01*
X-552655Y257647D01*
X-555409Y256506D01*
X-558391Y256506D01*
G37*
%LPD*%
%LPC*%
G36*
X-344057Y108485D02*
X-344057Y108485D01*
X-346194Y109370D01*
X-347830Y111006D01*
X-348715Y113143D01*
X-348715Y115457D01*
X-347830Y117594D01*
X-346194Y119230D01*
X-344057Y120115D01*
X-341743Y120115D01*
X-339606Y119230D01*
X-337970Y117594D01*
X-337085Y115457D01*
X-337085Y113143D01*
X-337970Y111006D01*
X-339606Y109370D01*
X-341743Y108485D01*
X-344057Y108485D01*
G37*
%LPD*%
%LPC*%
G36*
X-509157Y130710D02*
X-509157Y130710D01*
X-511294Y131595D01*
X-512930Y133231D01*
X-513815Y135368D01*
X-513815Y137682D01*
X-512930Y139819D01*
X-511294Y141455D01*
X-509157Y142340D01*
X-506843Y142340D01*
X-504706Y141455D01*
X-503070Y139819D01*
X-502185Y137682D01*
X-502185Y135368D01*
X-503070Y133231D01*
X-504706Y131595D01*
X-506843Y130710D01*
X-509157Y130710D01*
G37*
%LPD*%
%LPC*%
G36*
X-483757Y130710D02*
X-483757Y130710D01*
X-485894Y131595D01*
X-487530Y133231D01*
X-488415Y135368D01*
X-488415Y137682D01*
X-487530Y139819D01*
X-485894Y141455D01*
X-483757Y142340D01*
X-481443Y142340D01*
X-479306Y141455D01*
X-477670Y139819D01*
X-476785Y137682D01*
X-476785Y135368D01*
X-477670Y133231D01*
X-479306Y131595D01*
X-481443Y130710D01*
X-483757Y130710D01*
G37*
%LPD*%
%LPC*%
G36*
X-432912Y181736D02*
X-432912Y181736D01*
X-434966Y182587D01*
X-436538Y184159D01*
X-437389Y186213D01*
X-437389Y188437D01*
X-436538Y190491D01*
X-434966Y192063D01*
X-432912Y192914D01*
X-430688Y192914D01*
X-428634Y192063D01*
X-427062Y190491D01*
X-426211Y188437D01*
X-426211Y186213D01*
X-427062Y184159D01*
X-428634Y182587D01*
X-430688Y181736D01*
X-432912Y181736D01*
G37*
%LPD*%
%LPC*%
G36*
X-363062Y200786D02*
X-363062Y200786D01*
X-365116Y201637D01*
X-366688Y203209D01*
X-367539Y205263D01*
X-367539Y207487D01*
X-366688Y209541D01*
X-365116Y211113D01*
X-363062Y211964D01*
X-360838Y211964D01*
X-358784Y211113D01*
X-357212Y209541D01*
X-356361Y207487D01*
X-356361Y205263D01*
X-357212Y203209D01*
X-358784Y201637D01*
X-360838Y200786D01*
X-363062Y200786D01*
G37*
%LPD*%
%LPC*%
G36*
X-655777Y179918D02*
X-655777Y179918D01*
X-655399Y181081D01*
X-654717Y182420D01*
X-653834Y183634D01*
X-652772Y184696D01*
X-651558Y185579D01*
X-650219Y186261D01*
X-649056Y186639D01*
X-649056Y179918D01*
X-655777Y179918D01*
G37*
%LPD*%
%LPC*%
G36*
X-644058Y179918D02*
X-644058Y179918D01*
X-644058Y186639D01*
X-642895Y186261D01*
X-641556Y185579D01*
X-640342Y184696D01*
X-639280Y183634D01*
X-638397Y182420D01*
X-637715Y181081D01*
X-637337Y179918D01*
X-644058Y179918D01*
G37*
%LPD*%
%LPC*%
G36*
X-650219Y168577D02*
X-650219Y168577D01*
X-651558Y169259D01*
X-652772Y170142D01*
X-653834Y171204D01*
X-654717Y172418D01*
X-655399Y173757D01*
X-655777Y174920D01*
X-649056Y174920D01*
X-649056Y168199D01*
X-650219Y168577D01*
G37*
%LPD*%
%LPC*%
G36*
X-644058Y174920D02*
X-644058Y174920D01*
X-637337Y174920D01*
X-637715Y173757D01*
X-638397Y172418D01*
X-639280Y171204D01*
X-640342Y170142D01*
X-641556Y169259D01*
X-642895Y168577D01*
X-644058Y168199D01*
X-644058Y174920D01*
G37*
%LPD*%
%LPC*%
G36*
X-461293Y101022D02*
X-461293Y101022D01*
X-461227Y101356D01*
X-460566Y102951D01*
X-459607Y104387D01*
X-458387Y105607D01*
X-456951Y106566D01*
X-455356Y107227D01*
X-455022Y107293D01*
X-455022Y101022D01*
X-461293Y101022D01*
G37*
%LPD*%
%LPC*%
G36*
X-385093Y329622D02*
X-385093Y329622D01*
X-385027Y329956D01*
X-384366Y331551D01*
X-383407Y332987D01*
X-382187Y334207D01*
X-380751Y335166D01*
X-379156Y335827D01*
X-378822Y335893D01*
X-378822Y329622D01*
X-385093Y329622D01*
G37*
%LPD*%
%LPC*%
G36*
X-385093Y101022D02*
X-385093Y101022D01*
X-385027Y101356D01*
X-384366Y102951D01*
X-383407Y104387D01*
X-382187Y105607D01*
X-380751Y106566D01*
X-379156Y107227D01*
X-378822Y107293D01*
X-378822Y101022D01*
X-385093Y101022D01*
G37*
%LPD*%
%LPC*%
G36*
X-461293Y329622D02*
X-461293Y329622D01*
X-461227Y329956D01*
X-460566Y331551D01*
X-459607Y332987D01*
X-458387Y334207D01*
X-456951Y335166D01*
X-455356Y335827D01*
X-455022Y335893D01*
X-455022Y329622D01*
X-461293Y329622D01*
G37*
%LPD*%
%LPC*%
G36*
X-450578Y329622D02*
X-450578Y329622D01*
X-450578Y335893D01*
X-450244Y335827D01*
X-448649Y335166D01*
X-447213Y334207D01*
X-445993Y332987D01*
X-445034Y331551D01*
X-444373Y329956D01*
X-444307Y329622D01*
X-450578Y329622D01*
G37*
%LPD*%
%LPC*%
G36*
X-374378Y329622D02*
X-374378Y329622D01*
X-374378Y335893D01*
X-374044Y335827D01*
X-372449Y335166D01*
X-371013Y334207D01*
X-369793Y332987D01*
X-368834Y331551D01*
X-368173Y329956D01*
X-368107Y329622D01*
X-374378Y329622D01*
G37*
%LPD*%
%LPC*%
G36*
X-379156Y318973D02*
X-379156Y318973D01*
X-380751Y319634D01*
X-382187Y320593D01*
X-383407Y321813D01*
X-384366Y323249D01*
X-385027Y324844D01*
X-385093Y325178D01*
X-378822Y325178D01*
X-378822Y318907D01*
X-379156Y318973D01*
G37*
%LPD*%
%LPC*%
G36*
X-455356Y318973D02*
X-455356Y318973D01*
X-456951Y319634D01*
X-458387Y320593D01*
X-459607Y321813D01*
X-460566Y323249D01*
X-461227Y324844D01*
X-461293Y325178D01*
X-455022Y325178D01*
X-455022Y318907D01*
X-455356Y318973D01*
G37*
%LPD*%
%LPC*%
G36*
X-379156Y90373D02*
X-379156Y90373D01*
X-380751Y91034D01*
X-382187Y91993D01*
X-383407Y93213D01*
X-384366Y94649D01*
X-385027Y96244D01*
X-385093Y96578D01*
X-378822Y96578D01*
X-378822Y90307D01*
X-379156Y90373D01*
G37*
%LPD*%
%LPC*%
G36*
X-455356Y90373D02*
X-455356Y90373D01*
X-456951Y91034D01*
X-458387Y91993D01*
X-459607Y93213D01*
X-460566Y94649D01*
X-461227Y96244D01*
X-461293Y96578D01*
X-455022Y96578D01*
X-455022Y90307D01*
X-455356Y90373D01*
G37*
%LPD*%
%LPC*%
G36*
X-450578Y101022D02*
X-450578Y101022D01*
X-450578Y107293D01*
X-450244Y107227D01*
X-448649Y106566D01*
X-447213Y105607D01*
X-445993Y104387D01*
X-445034Y102951D01*
X-444373Y101356D01*
X-444307Y101022D01*
X-450578Y101022D01*
G37*
%LPD*%
%LPC*%
G36*
X-374378Y101022D02*
X-374378Y101022D01*
X-374378Y107293D01*
X-374044Y107227D01*
X-372449Y106566D01*
X-371013Y105607D01*
X-369793Y104387D01*
X-368834Y102951D01*
X-368173Y101356D01*
X-368107Y101022D01*
X-374378Y101022D01*
G37*
%LPD*%
%LPC*%
G36*
X-374378Y325178D02*
X-374378Y325178D01*
X-368107Y325178D01*
X-368173Y324844D01*
X-368834Y323249D01*
X-369793Y321813D01*
X-371013Y320593D01*
X-372449Y319634D01*
X-374044Y318973D01*
X-374378Y318907D01*
X-374378Y325178D01*
G37*
%LPD*%
%LPC*%
G36*
X-374378Y96578D02*
X-374378Y96578D01*
X-368107Y96578D01*
X-368173Y96244D01*
X-368834Y94649D01*
X-369793Y93213D01*
X-371013Y91993D01*
X-372449Y91034D01*
X-374044Y90373D01*
X-374378Y90307D01*
X-374378Y96578D01*
G37*
%LPD*%
%LPC*%
G36*
X-450578Y325178D02*
X-450578Y325178D01*
X-444307Y325178D01*
X-444373Y324844D01*
X-445034Y323249D01*
X-445993Y321813D01*
X-447213Y320593D01*
X-448649Y319634D01*
X-450244Y318973D01*
X-450578Y318907D01*
X-450578Y325178D01*
G37*
%LPD*%
%LPC*%
G36*
X-450578Y96578D02*
X-450578Y96578D01*
X-444307Y96578D01*
X-444373Y96244D01*
X-445034Y94649D01*
X-445993Y93213D01*
X-447213Y91993D01*
X-448649Y91034D01*
X-450244Y90373D01*
X-450578Y90307D01*
X-450578Y96578D01*
G37*
%LPD*%
%LPC*%
G36*
X-564265Y245749D02*
X-564265Y245749D01*
X-564174Y246207D01*
X-563604Y247583D01*
X-562776Y248822D01*
X-561722Y249876D01*
X-560483Y250704D01*
X-559107Y251274D01*
X-558649Y251365D01*
X-558649Y245749D01*
X-564265Y245749D01*
G37*
%LPD*%
%LPC*%
G36*
X-288665Y189549D02*
X-288665Y189549D01*
X-288574Y190007D01*
X-288004Y191383D01*
X-287176Y192622D01*
X-286122Y193676D01*
X-284883Y194504D01*
X-283507Y195074D01*
X-283049Y195165D01*
X-283049Y189549D01*
X-288665Y189549D01*
G37*
%LPD*%
%LPC*%
G36*
X-559107Y236726D02*
X-559107Y236726D01*
X-560483Y237296D01*
X-561722Y238124D01*
X-562776Y239178D01*
X-563604Y240417D01*
X-564174Y241793D01*
X-564265Y242251D01*
X-558649Y242251D01*
X-558649Y236635D01*
X-559107Y236726D01*
G37*
%LPD*%
%LPC*%
G36*
X-279551Y189549D02*
X-279551Y189549D01*
X-279551Y195165D01*
X-279093Y195074D01*
X-277717Y194504D01*
X-276478Y193676D01*
X-275424Y192622D01*
X-274596Y191383D01*
X-274026Y190007D01*
X-273935Y189549D01*
X-279551Y189549D01*
G37*
%LPD*%
%LPC*%
G36*
X-555151Y245749D02*
X-555151Y245749D01*
X-555151Y251365D01*
X-554693Y251274D01*
X-553317Y250704D01*
X-552078Y249876D01*
X-551024Y248822D01*
X-550196Y247583D01*
X-549626Y246207D01*
X-549535Y245749D01*
X-555151Y245749D01*
G37*
%LPD*%
%LPC*%
G36*
X-283507Y180526D02*
X-283507Y180526D01*
X-284883Y181096D01*
X-286122Y181924D01*
X-287176Y182978D01*
X-288004Y184217D01*
X-288574Y185593D01*
X-288665Y186051D01*
X-283049Y186051D01*
X-283049Y180435D01*
X-283507Y180526D01*
G37*
%LPD*%
%LPC*%
G36*
X-555151Y242251D02*
X-555151Y242251D01*
X-549535Y242251D01*
X-549626Y241793D01*
X-550196Y240417D01*
X-551024Y239178D01*
X-552078Y238124D01*
X-553317Y237296D01*
X-554693Y236726D01*
X-555151Y236635D01*
X-555151Y242251D01*
G37*
%LPD*%
%LPC*%
G36*
X-279551Y186051D02*
X-279551Y186051D01*
X-273935Y186051D01*
X-274026Y185593D01*
X-274596Y184217D01*
X-275424Y182978D01*
X-276478Y181924D01*
X-277717Y181096D01*
X-279093Y180526D01*
X-279551Y180435D01*
X-279551Y186051D01*
G37*
%LPD*%
D10*
X-556900Y244000D03*
D11*
X-556900Y264000D03*
D10*
X-281300Y187800D03*
D11*
X-281300Y167800D03*
D12*
X-152400Y381000D03*
X-685800Y381000D03*
X-152400Y50800D03*
D13*
X-198800Y73400D03*
X-198800Y98800D03*
X-224200Y73400D03*
X-224200Y98800D03*
X-249600Y73400D03*
X-249600Y98800D03*
X-275000Y73400D03*
X-275000Y98800D03*
X-300400Y73400D03*
X-300400Y98800D03*
X-325800Y73400D03*
X-325800Y98800D03*
X-351200Y73400D03*
X-351200Y98800D03*
X-376600Y73400D03*
X-376600Y98800D03*
X-402000Y73400D03*
X-402000Y98800D03*
X-427400Y73400D03*
X-427400Y98800D03*
X-452800Y73400D03*
X-452800Y98800D03*
X-478200Y73400D03*
X-478200Y98800D03*
X-503600Y73400D03*
X-503600Y98800D03*
X-529000Y73400D03*
X-529000Y98800D03*
X-554400Y73400D03*
X-554400Y98800D03*
X-579800Y73400D03*
X-579800Y98800D03*
X-605200Y73400D03*
X-605200Y98800D03*
X-630600Y73400D03*
X-630600Y98800D03*
X-198800Y327400D03*
X-198800Y352800D03*
X-224200Y327400D03*
X-224200Y352800D03*
X-249600Y327400D03*
X-249600Y352800D03*
X-275000Y327400D03*
X-275000Y352800D03*
X-300400Y327400D03*
X-300400Y352800D03*
X-325800Y327400D03*
X-325800Y352800D03*
X-351200Y327400D03*
X-351200Y352800D03*
X-376600Y327400D03*
X-376600Y352800D03*
X-402000Y327400D03*
X-402000Y352800D03*
X-427400Y327400D03*
X-427400Y352800D03*
X-452800Y327400D03*
X-452800Y352800D03*
X-478200Y327400D03*
X-478200Y352800D03*
X-503600Y327400D03*
X-503600Y352800D03*
X-529000Y327400D03*
X-529000Y352800D03*
X-554400Y327400D03*
X-554400Y352800D03*
X-579800Y327400D03*
X-579800Y352800D03*
X-605200Y327400D03*
X-605200Y352800D03*
X-630600Y327400D03*
X-630600Y352800D03*
D14*
X-621157Y126619D03*
X-646557Y126619D03*
X-621157Y152019D03*
X-646557Y152019D03*
X-621157Y177419D03*
X-646557Y177419D03*
D12*
X-685800Y50800D03*
D15*
X-292100Y190500D03*
X-184150Y311150D03*
X-158750Y311150D03*
X-539750Y241300D03*
X-381000Y142875D03*
X-431800Y142875D03*
X-361950Y250825D03*
X-393700Y295275D03*
D16*
X-384175Y114300D03*
X-668528Y161290D03*
D15*
X-431800Y187325D03*
X-361950Y206375D03*
D16*
X-508000Y136525D03*
X-482600Y136525D03*
X-342900Y114300D03*
X-606425Y127000D03*
M02*
