G04 EAGLE Gerber RS-274X export*
G75*
%MOMM*%
%FSLAX34Y34*%
%LPD*%
%INSilkscreen Top*%
%IPPOS*%
%AMOC8*
5,1,8,0,0,1.08239X$1,22.5*%
G01*
%ADD10R,0.241300X0.012700*%
%ADD11R,0.025400X0.012700*%
%ADD12R,0.419100X0.012700*%
%ADD13R,0.038100X0.012700*%
%ADD14R,0.520700X0.012700*%
%ADD15R,0.063500X0.012700*%
%ADD16R,0.609600X0.012700*%
%ADD17R,0.660400X0.012700*%
%ADD18R,0.076200X0.012700*%
%ADD19R,0.723900X0.012700*%
%ADD20R,0.774700X0.012700*%
%ADD21R,0.101600X0.012700*%
%ADD22R,0.838200X0.012700*%
%ADD23R,0.889000X0.012700*%
%ADD24R,0.927100X0.012700*%
%ADD25R,0.114300X0.012700*%
%ADD26R,0.952500X0.012700*%
%ADD27R,0.127000X0.012700*%
%ADD28R,1.003300X0.012700*%
%ADD29R,1.041400X0.012700*%
%ADD30R,1.079500X0.012700*%
%ADD31R,1.104900X0.012700*%
%ADD32R,0.139700X0.012700*%
%ADD33R,1.143000X0.012700*%
%ADD34R,1.168400X0.012700*%
%ADD35R,1.206500X0.012700*%
%ADD36R,0.152400X0.012700*%
%ADD37R,1.231900X0.012700*%
%ADD38R,1.270000X0.012700*%
%ADD39R,1.282700X0.012700*%
%ADD40R,1.308100X0.012700*%
%ADD41R,1.333500X0.012700*%
%ADD42R,0.368300X0.012700*%
%ADD43R,0.736600X0.012700*%
%ADD44R,0.165100X0.012700*%
%ADD45R,0.330200X0.012700*%
%ADD46R,0.673100X0.012700*%
%ADD47R,0.292100X0.012700*%
%ADD48R,0.635000X0.012700*%
%ADD49R,0.279400X0.012700*%
%ADD50R,0.596900X0.012700*%
%ADD51R,0.254000X0.012700*%
%ADD52R,0.571500X0.012700*%
%ADD53R,0.546100X0.012700*%
%ADD54R,0.533400X0.012700*%
%ADD55R,0.228600X0.012700*%
%ADD56R,0.508000X0.012700*%
%ADD57R,0.495300X0.012700*%
%ADD58R,0.215900X0.012700*%
%ADD59R,0.482600X0.012700*%
%ADD60R,0.203200X0.012700*%
%ADD61R,0.457200X0.012700*%
%ADD62R,0.190500X0.012700*%
%ADD63R,0.444500X0.012700*%
%ADD64R,0.431800X0.012700*%
%ADD65R,0.177800X0.012700*%
%ADD66R,0.406400X0.012700*%
%ADD67R,0.393700X0.012700*%
%ADD68R,0.088900X0.012700*%
%ADD69R,0.469900X0.012700*%
%ADD70R,0.266700X0.012700*%
%ADD71R,0.558800X0.012700*%
%ADD72R,0.584200X0.012700*%
%ADD73R,0.304800X0.012700*%
%ADD74R,0.622300X0.012700*%
%ADD75R,0.317500X0.012700*%
%ADD76R,0.342900X0.012700*%
%ADD77R,0.647700X0.012700*%
%ADD78R,0.355600X0.012700*%
%ADD79R,0.381000X0.012700*%
%ADD80R,0.685800X0.012700*%
%ADD81R,0.698500X0.012700*%
%ADD82R,0.050800X0.012700*%
%ADD83R,0.800100X0.012700*%
%ADD84R,0.939800X0.012700*%
%ADD85R,0.990600X0.012700*%
%ADD86R,1.054100X0.012700*%
%ADD87R,0.711200X0.012700*%
%ADD88R,1.117600X0.012700*%
%ADD89R,0.749300X0.012700*%
%ADD90R,1.193800X0.012700*%
%ADD91R,1.295400X0.012700*%
%ADD92R,1.358900X0.012700*%
%ADD93R,0.876300X0.012700*%
%ADD94R,1.422400X0.012700*%
%ADD95R,0.914400X0.012700*%
%ADD96R,1.473200X0.012700*%
%ADD97R,1.524000X0.012700*%
%ADD98R,1.549400X0.012700*%
%ADD99R,1.587500X0.012700*%
%ADD100R,1.600200X0.012700*%
%ADD101R,1.612900X0.012700*%
%ADD102R,1.625600X0.012700*%
%ADD103R,1.638300X0.012700*%
%ADD104R,1.651000X0.012700*%
%ADD105R,1.574800X0.012700*%
%ADD106R,1.562100X0.012700*%
%ADD107R,1.536700X0.012700*%
%ADD108R,1.498600X0.012700*%
%ADD109R,1.485900X0.012700*%
%ADD110R,1.435100X0.012700*%
%ADD111R,0.012700X0.012700*%
%ADD112R,1.409700X0.012700*%
%ADD113R,1.181100X0.012700*%
%ADD114R,1.028700X0.012700*%
%ADD115R,1.155700X0.012700*%
%ADD116R,1.130300X0.012700*%
%ADD117R,0.977900X0.012700*%
%ADD118R,0.965200X0.012700*%
%ADD119R,1.092200X0.012700*%
%ADD120R,0.901700X0.012700*%
%ADD121R,0.762000X0.012700*%
%ADD122R,0.863600X0.012700*%
%ADD123R,0.850900X0.012700*%
%ADD124R,0.825500X0.012700*%
%ADD125R,0.812800X0.012700*%
%ADD126R,0.787400X0.012700*%
%ADD127R,1.066800X0.012700*%
%ADD128R,1.460500X0.012700*%
%ADD129R,1.727200X0.012700*%
%ADD130R,1.828800X0.012700*%
%ADD131R,1.917700X0.012700*%
%ADD132R,1.981200X0.012700*%
%ADD133R,2.057400X0.012700*%
%ADD134R,2.133600X0.012700*%
%ADD135R,2.209800X0.012700*%
%ADD136R,2.273300X0.012700*%
%ADD137R,1.016000X0.012700*%
%ADD138R,2.349500X0.012700*%
%ADD139R,3.111500X0.012700*%
%ADD140R,3.149600X0.012700*%
%ADD141R,3.175000X0.012700*%
%ADD142R,3.213100X0.012700*%
%ADD143R,3.225800X0.012700*%
%ADD144R,3.263900X0.012700*%
%ADD145R,3.276600X0.012700*%
%ADD146R,3.314700X0.012700*%
%ADD147R,3.327400X0.012700*%
%ADD148R,3.352800X0.012700*%
%ADD149R,3.378200X0.012700*%
%ADD150R,3.403600X0.012700*%
%ADD151R,3.429000X0.012700*%
%ADD152R,3.441700X0.012700*%
%ADD153R,3.467100X0.012700*%
%ADD154R,3.479800X0.012700*%
%ADD155R,3.505200X0.012700*%
%ADD156R,3.517900X0.012700*%
%ADD157R,3.543300X0.012700*%
%ADD158R,3.568700X0.012700*%
%ADD159R,2.298700X0.012700*%
%ADD160R,1.244600X0.012700*%
%ADD161R,1.955800X0.012700*%
%ADD162R,2.832100X0.012700*%
%ADD163R,2.755900X0.012700*%
%ADD164R,2.679700X0.012700*%
%ADD165R,2.641600X0.012700*%
%ADD166R,2.578100X0.012700*%
%ADD167R,2.527300X0.012700*%
%ADD168R,1.219200X0.012700*%
%ADD169R,2.489200X0.012700*%
%ADD170R,2.451100X0.012700*%
%ADD171R,2.413000X0.012700*%
%ADD172R,2.387600X0.012700*%
%ADD173R,4.038600X0.012700*%
%ADD174R,4.064000X0.012700*%
%ADD175R,4.076700X0.012700*%
%ADD176R,4.102100X0.012700*%
%ADD177R,4.114800X0.012700*%
%ADD178R,4.127500X0.012700*%
%ADD179R,4.140200X0.012700*%
%ADD180R,4.152900X0.012700*%
%ADD181R,4.279900X0.012700*%
%ADD182R,4.940300X0.012700*%
%ADD183R,5.067300X0.012700*%
%ADD184R,5.156200X0.012700*%
%ADD185R,5.245100X0.012700*%
%ADD186R,5.308600X0.012700*%
%ADD187R,5.384800X0.012700*%
%ADD188R,5.448300X0.012700*%
%ADD189R,5.511800X0.012700*%
%ADD190R,5.588000X0.012700*%
%ADD191R,5.651500X0.012700*%
%ADD192R,5.715000X0.012700*%
%ADD193R,5.765800X0.012700*%
%ADD194R,5.816600X0.012700*%
%ADD195R,5.867400X0.012700*%
%ADD196R,5.930900X0.012700*%
%ADD197R,5.969000X0.012700*%
%ADD198R,6.032500X0.012700*%
%ADD199R,6.083300X0.012700*%
%ADD200R,6.121400X0.012700*%
%ADD201R,6.172200X0.012700*%
%ADD202R,6.210300X0.012700*%
%ADD203R,6.248400X0.012700*%
%ADD204R,6.311900X0.012700*%
%ADD205R,4.889500X0.012700*%
%ADD206R,4.813300X0.012700*%
%ADD207R,4.762500X0.012700*%
%ADD208R,4.737100X0.012700*%
%ADD209R,4.711700X0.012700*%
%ADD210R,4.686300X0.012700*%
%ADD211R,4.673600X0.012700*%
%ADD212R,4.660900X0.012700*%
%ADD213R,4.635500X0.012700*%
%ADD214R,4.622800X0.012700*%
%ADD215R,2.070100X0.012700*%
%ADD216R,4.610100X0.012700*%
%ADD217R,2.032000X0.012700*%
%ADD218R,4.597400X0.012700*%
%ADD219R,2.006600X0.012700*%
%ADD220R,4.584700X0.012700*%
%ADD221R,1.968500X0.012700*%
%ADD222R,1.930400X0.012700*%
%ADD223R,4.572000X0.012700*%
%ADD224R,1.892300X0.012700*%
%ADD225R,1.854200X0.012700*%
%ADD226R,3.251200X0.012700*%
%ADD227R,1.816100X0.012700*%
%ADD228R,3.162300X0.012700*%
%ADD229R,1.778000X0.012700*%
%ADD230R,3.086100X0.012700*%
%ADD231R,1.752600X0.012700*%
%ADD232R,3.009900X0.012700*%
%ADD233R,1.714500X0.012700*%
%ADD234R,2.946400X0.012700*%
%ADD235R,1.676400X0.012700*%
%ADD236R,2.882900X0.012700*%
%ADD237R,2.781300X0.012700*%
%ADD238R,2.730500X0.012700*%
%ADD239R,2.603500X0.012700*%
%ADD240R,2.552700X0.012700*%
%ADD241R,1.384300X0.012700*%
%ADD242R,2.514600X0.012700*%
%ADD243R,1.346200X0.012700*%
%ADD244R,1.257300X0.012700*%
%ADD245R,2.425700X0.012700*%
%ADD246R,2.819400X0.012700*%
%ADD247R,2.921000X0.012700*%
%ADD248R,2.984500X0.012700*%
%ADD249R,3.022600X0.012700*%
%ADD250R,3.048000X0.012700*%
%ADD251R,3.124200X0.012700*%
%ADD252R,3.200400X0.012700*%
%ADD253R,3.365500X0.012700*%
%ADD254R,3.390900X0.012700*%
%ADD255R,3.416300X0.012700*%
%ADD256R,3.492500X0.012700*%
%ADD257R,3.530600X0.012700*%
%ADD258R,3.556000X0.012700*%
%ADD259R,3.581400X0.012700*%
%ADD260R,3.606800X0.012700*%
%ADD261R,3.632200X0.012700*%
%ADD262R,3.657600X0.012700*%
%ADD263R,3.683000X0.012700*%
%ADD264R,3.708400X0.012700*%
%ADD265R,3.733800X0.012700*%
%ADD266R,3.759200X0.012700*%
%ADD267R,3.771900X0.012700*%
%ADD268R,3.810000X0.012700*%
%ADD269R,3.822700X0.012700*%
%ADD270R,3.860800X0.012700*%
%ADD271R,3.873500X0.012700*%
%ADD272R,3.898900X0.012700*%
%ADD273R,3.937000X0.012700*%
%ADD274R,3.949700X0.012700*%
%ADD275R,3.975100X0.012700*%
%ADD276R,4.000500X0.012700*%
%ADD277R,4.025900X0.012700*%
%ADD278R,2.654300X0.012700*%
%ADD279R,2.628900X0.012700*%
%ADD280R,2.590800X0.012700*%
%ADD281R,2.565400X0.012700*%
%ADD282R,2.540000X0.012700*%
%ADD283R,2.501900X0.012700*%
%ADD284R,2.476500X0.012700*%
%ADD285R,2.463800X0.012700*%
%ADD286R,2.438400X0.012700*%
%ADD287R,2.400300X0.012700*%
%ADD288R,2.362200X0.012700*%
%ADD289R,2.324100X0.012700*%
%ADD290R,2.311400X0.012700*%
%ADD291R,2.286000X0.012700*%
%ADD292R,2.260600X0.012700*%
%ADD293R,2.247900X0.012700*%
%ADD294R,2.235200X0.012700*%
%ADD295R,2.184400X0.012700*%
%ADD296R,2.171700X0.012700*%
%ADD297R,2.159000X0.012700*%
%ADD298R,2.120900X0.012700*%
%ADD299R,2.095500X0.012700*%
%ADD300R,2.082800X0.012700*%
%ADD301R,2.044700X0.012700*%
%ADD302R,2.019300X0.012700*%
%ADD303R,1.993900X0.012700*%
%ADD304R,1.905000X0.012700*%
%ADD305R,1.879600X0.012700*%
%ADD306R,1.841500X0.012700*%
%ADD307R,1.790700X0.012700*%
%ADD308R,1.765300X0.012700*%
%ADD309R,1.447800X0.012700*%
%ADD310R,1.689100X0.012700*%
%ADD311R,1.397000X0.012700*%
%ADD312R,1.511300X0.012700*%
%ADD313C,0.101600*%
%ADD314C,0.152400*%
%ADD315C,0.127000*%
%ADD316C,0.203200*%
%ADD317C,0.200000*%


D10*
X-301625Y242697D03*
D11*
X-267272Y242697D03*
D12*
X-301625Y242824D03*
D13*
X-267081Y242824D03*
D14*
X-301625Y242951D03*
D15*
X-266954Y242951D03*
D16*
X-301562Y243078D03*
D15*
X-266827Y243078D03*
D17*
X-301562Y243205D03*
D18*
X-266637Y243205D03*
D19*
X-301498Y243332D03*
D18*
X-266510Y243332D03*
D20*
X-301498Y243459D03*
D21*
X-266383Y243459D03*
D22*
X-301435Y243586D03*
D21*
X-266256Y243586D03*
D23*
X-301435Y243713D03*
D21*
X-266129Y243713D03*
D24*
X-301371Y243840D03*
D25*
X-265938Y243840D03*
D26*
X-301371Y243967D03*
D27*
X-265875Y243967D03*
D28*
X-301371Y244094D03*
D27*
X-265748Y244094D03*
D29*
X-301308Y244221D03*
D27*
X-265621Y244221D03*
D30*
X-301244Y244348D03*
D27*
X-265494Y244348D03*
D31*
X-301244Y244475D03*
D32*
X-265430Y244475D03*
D33*
X-301181Y244602D03*
D32*
X-265303Y244602D03*
D34*
X-301181Y244729D03*
D32*
X-265176Y244729D03*
D35*
X-301117Y244856D03*
D36*
X-265113Y244856D03*
D37*
X-301117Y244983D03*
D36*
X-264986Y244983D03*
D38*
X-301054Y245110D03*
D36*
X-264859Y245110D03*
D39*
X-300990Y245237D03*
D36*
X-264859Y245237D03*
D40*
X-300990Y245364D03*
D36*
X-264732Y245364D03*
D41*
X-300990Y245491D03*
D36*
X-264605Y245491D03*
D42*
X-305816Y245618D03*
D43*
X-297752Y245618D03*
D44*
X-264541Y245618D03*
D45*
X-306134Y245745D03*
D46*
X-297307Y245745D03*
D36*
X-264478Y245745D03*
D47*
X-306324Y245872D03*
D48*
X-296990Y245872D03*
D44*
X-264414Y245872D03*
D49*
X-306515Y245999D03*
D50*
X-296672Y245999D03*
D44*
X-264287Y245999D03*
D51*
X-306642Y246126D03*
D52*
X-296418Y246126D03*
D36*
X-264224Y246126D03*
D51*
X-306769Y246253D03*
D53*
X-296164Y246253D03*
D44*
X-264160Y246253D03*
D10*
X-306832Y246380D03*
D54*
X-295974Y246380D03*
D36*
X-264097Y246380D03*
D55*
X-306896Y246507D03*
D14*
X-295783Y246507D03*
D44*
X-264033Y246507D03*
D55*
X-307023Y246634D03*
D56*
X-295593Y246634D03*
D36*
X-263970Y246634D03*
D55*
X-307023Y246761D03*
D57*
X-295402Y246761D03*
D44*
X-263906Y246761D03*
D58*
X-307086Y246888D03*
D59*
X-295212Y246888D03*
D36*
X-263843Y246888D03*
D58*
X-307086Y247015D03*
D59*
X-295085Y247015D03*
D44*
X-263779Y247015D03*
D60*
X-307150Y247142D03*
D61*
X-294958Y247142D03*
D36*
X-263716Y247142D03*
D60*
X-307150Y247269D03*
D61*
X-294831Y247269D03*
D44*
X-263652Y247269D03*
D62*
X-307213Y247396D03*
D61*
X-294704Y247396D03*
D36*
X-263589Y247396D03*
D62*
X-307213Y247523D03*
D63*
X-294640Y247523D03*
D44*
X-263525Y247523D03*
D62*
X-307213Y247650D03*
D64*
X-294450Y247650D03*
D44*
X-263525Y247650D03*
D65*
X-307277Y247777D03*
D64*
X-294323Y247777D03*
D44*
X-263398Y247777D03*
X-307213Y247904D03*
D12*
X-294259Y247904D03*
D44*
X-263398Y247904D03*
X-307213Y248031D03*
D64*
X-294196Y248031D03*
D36*
X-263335Y248031D03*
D44*
X-307213Y248158D03*
D64*
X-294069Y248158D03*
D44*
X-263271Y248158D03*
D36*
X-307150Y248285D03*
D12*
X-294005Y248285D03*
D44*
X-263271Y248285D03*
D32*
X-307086Y248412D03*
D12*
X-293878Y248412D03*
D36*
X-263208Y248412D03*
D32*
X-307086Y248539D03*
D66*
X-293815Y248539D03*
D44*
X-263144Y248539D03*
D32*
X-306959Y248666D03*
D12*
X-293751Y248666D03*
D44*
X-263144Y248666D03*
D27*
X-306896Y248793D03*
D66*
X-293688Y248793D03*
D36*
X-263081Y248793D03*
D27*
X-306769Y248920D03*
D12*
X-293624Y248920D03*
D44*
X-263017Y248920D03*
D27*
X-306642Y249047D03*
D66*
X-293561Y249047D03*
D44*
X-263017Y249047D03*
D27*
X-306515Y249174D03*
D66*
X-293561Y249174D03*
D44*
X-263017Y249174D03*
D25*
X-306451Y249301D03*
D66*
X-293434Y249301D03*
D65*
X-262954Y249301D03*
D21*
X-306261Y249428D03*
D66*
X-293434Y249428D03*
D65*
X-262954Y249428D03*
D21*
X-306134Y249555D03*
D67*
X-293370Y249555D03*
D44*
X-262890Y249555D03*
D68*
X-305943Y249682D03*
D66*
X-293307Y249682D03*
D44*
X-262890Y249682D03*
D18*
X-305753Y249809D03*
D66*
X-293307Y249809D03*
D65*
X-262827Y249809D03*
D15*
X-305562Y249936D03*
D67*
X-293243Y249936D03*
D65*
X-262827Y249936D03*
D11*
X-305372Y250063D03*
D67*
X-293243Y250063D03*
D65*
X-262827Y250063D03*
D67*
X-293243Y250190D03*
D65*
X-262827Y250190D03*
D66*
X-293180Y250317D03*
D62*
X-262763Y250317D03*
D66*
X-293180Y250444D03*
D62*
X-262763Y250444D03*
D66*
X-293180Y250571D03*
D62*
X-262763Y250571D03*
D67*
X-293116Y250698D03*
D62*
X-262763Y250698D03*
D67*
X-293116Y250825D03*
D62*
X-262763Y250825D03*
D67*
X-293116Y250952D03*
D60*
X-262700Y250952D03*
D67*
X-293116Y251079D03*
D62*
X-262636Y251079D03*
D67*
X-293116Y251206D03*
D62*
X-262636Y251206D03*
D67*
X-293116Y251333D03*
D60*
X-262700Y251333D03*
D67*
X-293116Y251460D03*
D60*
X-262700Y251460D03*
D67*
X-293116Y251587D03*
D60*
X-262700Y251587D03*
D67*
X-293116Y251714D03*
D58*
X-262636Y251714D03*
D67*
X-293116Y251841D03*
D58*
X-262636Y251841D03*
D67*
X-293116Y251968D03*
D58*
X-262636Y251968D03*
D67*
X-293116Y252095D03*
D58*
X-262636Y252095D03*
D67*
X-293116Y252222D03*
D58*
X-262636Y252222D03*
D67*
X-293116Y252349D03*
D58*
X-262636Y252349D03*
D66*
X-293180Y252476D03*
D58*
X-262636Y252476D03*
D67*
X-293243Y252603D03*
D58*
X-262636Y252603D03*
D67*
X-293243Y252730D03*
D58*
X-262636Y252730D03*
D66*
X-293307Y252857D03*
D58*
X-262636Y252857D03*
D66*
X-293307Y252984D03*
D55*
X-262700Y252984D03*
D66*
X-293307Y253111D03*
D55*
X-262700Y253111D03*
D12*
X-293370Y253238D03*
D55*
X-262700Y253238D03*
D64*
X-293434Y253365D03*
D55*
X-262700Y253365D03*
D12*
X-293497Y253492D03*
D55*
X-262700Y253492D03*
D64*
X-293561Y253619D03*
D55*
X-262700Y253619D03*
D63*
X-293624Y253746D03*
D10*
X-262763Y253746D03*
D61*
X-293688Y253873D03*
D10*
X-262763Y253873D03*
D69*
X-293751Y254000D03*
D10*
X-262763Y254000D03*
D61*
X-293815Y254127D03*
D10*
X-262763Y254127D03*
D69*
X-293878Y254254D03*
D51*
X-262827Y254254D03*
D59*
X-293942Y254381D03*
D51*
X-262827Y254381D03*
D57*
X-294005Y254508D03*
D51*
X-262827Y254508D03*
D57*
X-294132Y254635D03*
D10*
X-262890Y254635D03*
D56*
X-294196Y254762D03*
D51*
X-262954Y254762D03*
D14*
X-294259Y254889D03*
D51*
X-262954Y254889D03*
D14*
X-294386Y255016D03*
D70*
X-263017Y255016D03*
D54*
X-294450Y255143D03*
D70*
X-263017Y255143D03*
D53*
X-294513Y255270D03*
D51*
X-263081Y255270D03*
D53*
X-294640Y255397D03*
D70*
X-263144Y255397D03*
D71*
X-294704Y255524D03*
D70*
X-263144Y255524D03*
D71*
X-294831Y255651D03*
D49*
X-263208Y255651D03*
D52*
X-294894Y255778D03*
D49*
X-263335Y255778D03*
D72*
X-294958Y255905D03*
D47*
X-263398Y255905D03*
D72*
X-295085Y256032D03*
D47*
X-263398Y256032D03*
D50*
X-295148Y256159D03*
D47*
X-263525Y256159D03*
D16*
X-295339Y256286D03*
D73*
X-263589Y256286D03*
D74*
X-295402Y256413D03*
D75*
X-263652Y256413D03*
D74*
X-295529Y256540D03*
D75*
X-263652Y256540D03*
D74*
X-295656Y256667D03*
D75*
X-263779Y256667D03*
D48*
X-295720Y256794D03*
D45*
X-263843Y256794D03*
D48*
X-295847Y256921D03*
D45*
X-263970Y256921D03*
D48*
X-295974Y257048D03*
D76*
X-264033Y257048D03*
D77*
X-296037Y257175D03*
D78*
X-264097Y257175D03*
D77*
X-296164Y257302D03*
D78*
X-264224Y257302D03*
D77*
X-296291Y257429D03*
D42*
X-264287Y257429D03*
D17*
X-296355Y257556D03*
D79*
X-264351Y257556D03*
D17*
X-296482Y257683D03*
D79*
X-264478Y257683D03*
D17*
X-296609Y257810D03*
D67*
X-264541Y257810D03*
D17*
X-296736Y257937D03*
D67*
X-264668Y257937D03*
D17*
X-296863Y258064D03*
D66*
X-264732Y258064D03*
D46*
X-296926Y258191D03*
D66*
X-264859Y258191D03*
D46*
X-297053Y258318D03*
D12*
X-264922Y258318D03*
D46*
X-297180Y258445D03*
D12*
X-265049Y258445D03*
D46*
X-297307Y258572D03*
D64*
X-265113Y258572D03*
D46*
X-297434Y258699D03*
D64*
X-265240Y258699D03*
D46*
X-297561Y258826D03*
D63*
X-265303Y258826D03*
D80*
X-297625Y258953D03*
D61*
X-265494Y258953D03*
D80*
X-297752Y259080D03*
D69*
X-265557Y259080D03*
D80*
X-297879Y259207D03*
D69*
X-265684Y259207D03*
D80*
X-298006Y259334D03*
D57*
X-265811Y259334D03*
D80*
X-298133Y259461D03*
D57*
X-265938Y259461D03*
D80*
X-298260Y259588D03*
D56*
X-266129Y259588D03*
D80*
X-298387Y259715D03*
D54*
X-266256Y259715D03*
D81*
X-298450Y259842D03*
D53*
X-266446Y259842D03*
D81*
X-298577Y259969D03*
D52*
X-266573Y259969D03*
D81*
X-298704Y260096D03*
D72*
X-266764Y260096D03*
D81*
X-298831Y260223D03*
D16*
X-267018Y260223D03*
D80*
X-298895Y260350D03*
D77*
X-267208Y260350D03*
D80*
X-299022Y260477D03*
D46*
X-267462Y260477D03*
D13*
X-332359Y260604D03*
D80*
X-299149Y260604D03*
D81*
X-267716Y260604D03*
D82*
X-332423Y260731D03*
D80*
X-299276Y260731D03*
D19*
X-267970Y260731D03*
D15*
X-332486Y260858D03*
D13*
X-318770Y260858D03*
D81*
X-299339Y260858D03*
D20*
X-268224Y260858D03*
D15*
X-332613Y260985D03*
D49*
X-318834Y260985D03*
D81*
X-299466Y260985D03*
D83*
X-268478Y260985D03*
D18*
X-332677Y261112D03*
D67*
X-318770Y261112D03*
D81*
X-299593Y261112D03*
D22*
X-268796Y261112D03*
D18*
X-332677Y261239D03*
D69*
X-318770Y261239D03*
D80*
X-299657Y261239D03*
D23*
X-269177Y261239D03*
D18*
X-332804Y261366D03*
D53*
X-318643Y261366D03*
D80*
X-299784Y261366D03*
D84*
X-269558Y261366D03*
D18*
X-332804Y261493D03*
D16*
X-318580Y261493D03*
D80*
X-299911Y261493D03*
D85*
X-269939Y261493D03*
D18*
X-332931Y261620D03*
D77*
X-318516Y261620D03*
D80*
X-300038Y261620D03*
D86*
X-270383Y261620D03*
D18*
X-332931Y261747D03*
D87*
X-318453Y261747D03*
D80*
X-300038Y261747D03*
D88*
X-270828Y261747D03*
D18*
X-332931Y261874D03*
D89*
X-318389Y261874D03*
D80*
X-300165Y261874D03*
D90*
X-271336Y261874D03*
D68*
X-332994Y262001D03*
D83*
X-318262Y262001D03*
D80*
X-300292Y262001D03*
D91*
X-271971Y262001D03*
D68*
X-332994Y262128D03*
D22*
X-318199Y262128D03*
D46*
X-300355Y262128D03*
D92*
X-272542Y262128D03*
D68*
X-333121Y262255D03*
D93*
X-318135Y262255D03*
D46*
X-300482Y262255D03*
D94*
X-272987Y262255D03*
D68*
X-333121Y262382D03*
D95*
X-318072Y262382D03*
D46*
X-300609Y262382D03*
D96*
X-273495Y262382D03*
D68*
X-333121Y262509D03*
D45*
X-320993Y262509D03*
D16*
X-316167Y262509D03*
D46*
X-300609Y262509D03*
D97*
X-273876Y262509D03*
D21*
X-333185Y262636D03*
D55*
X-321628Y262636D03*
D56*
X-315405Y262636D03*
D46*
X-300736Y262636D03*
D98*
X-274257Y262636D03*
D21*
X-333185Y262763D03*
D62*
X-321945Y262763D03*
D69*
X-314960Y262763D03*
D46*
X-300863Y262763D03*
D99*
X-274574Y262763D03*
D21*
X-333185Y262890D03*
D44*
X-322072Y262890D03*
D63*
X-314579Y262890D03*
D17*
X-300927Y262890D03*
D100*
X-274892Y262890D03*
D21*
X-333185Y263017D03*
D36*
X-322263Y263017D03*
D12*
X-314198Y263017D03*
D46*
X-300990Y263017D03*
D101*
X-275209Y263017D03*
D25*
X-333248Y263144D03*
D32*
X-322326Y263144D03*
D66*
X-313881Y263144D03*
D17*
X-301054Y263144D03*
D102*
X-275527Y263144D03*
D25*
X-333248Y263271D03*
D32*
X-322453Y263271D03*
D66*
X-313627Y263271D03*
D17*
X-301181Y263271D03*
D103*
X-275844Y263271D03*
D25*
X-333248Y263398D03*
D27*
X-322517Y263398D03*
D67*
X-313309Y263398D03*
D17*
X-301181Y263398D03*
D103*
X-276098Y263398D03*
D25*
X-333248Y263525D03*
D27*
X-322644Y263525D03*
D67*
X-313055Y263525D03*
D17*
X-301308Y263525D03*
D103*
X-276352Y263525D03*
D25*
X-333248Y263652D03*
D27*
X-322644Y263652D03*
D79*
X-312738Y263652D03*
D17*
X-301435Y263652D03*
D104*
X-276670Y263652D03*
D27*
X-333312Y263779D03*
D25*
X-322707Y263779D03*
D79*
X-312611Y263779D03*
D17*
X-301435Y263779D03*
D104*
X-276924Y263779D03*
D27*
X-333312Y263906D03*
D21*
X-322771Y263906D03*
D79*
X-312357Y263906D03*
D17*
X-301562Y263906D03*
D103*
X-277241Y263906D03*
D27*
X-333312Y264033D03*
D25*
X-322834Y264033D03*
D79*
X-312103Y264033D03*
D77*
X-301625Y264033D03*
D103*
X-277495Y264033D03*
D27*
X-333312Y264160D03*
D21*
X-322898Y264160D03*
D79*
X-311849Y264160D03*
D77*
X-301625Y264160D03*
D102*
X-277813Y264160D03*
D32*
X-333248Y264287D03*
D21*
X-322898Y264287D03*
D67*
X-311658Y264287D03*
D77*
X-301752Y264287D03*
D101*
X-278130Y264287D03*
D32*
X-333248Y264414D03*
D68*
X-322961Y264414D03*
D67*
X-311404Y264414D03*
D77*
X-301879Y264414D03*
D99*
X-278384Y264414D03*
D32*
X-333248Y264541D03*
D68*
X-322961Y264541D03*
D66*
X-311214Y264541D03*
D77*
X-301879Y264541D03*
D105*
X-278702Y264541D03*
D32*
X-333248Y264668D03*
D15*
X-322961Y264668D03*
D66*
X-310960Y264668D03*
D77*
X-302006Y264668D03*
D106*
X-279019Y264668D03*
D32*
X-333248Y264795D03*
D15*
X-322961Y264795D03*
D12*
X-310769Y264795D03*
D77*
X-302006Y264795D03*
D107*
X-279400Y264795D03*
D36*
X-333185Y264922D03*
D82*
X-323025Y264922D03*
D12*
X-310642Y264922D03*
D48*
X-302070Y264922D03*
D108*
X-279718Y264922D03*
D36*
X-333185Y265049D03*
D13*
X-322961Y265049D03*
D64*
X-310452Y265049D03*
D77*
X-302133Y265049D03*
D109*
X-280035Y265049D03*
D36*
X-333185Y265176D03*
D13*
X-322961Y265176D03*
D63*
X-310261Y265176D03*
D48*
X-302197Y265176D03*
D110*
X-280416Y265176D03*
D111*
X-344043Y265303D03*
X-343789Y265303D03*
D36*
X-333185Y265303D03*
D11*
X-322898Y265303D03*
D61*
X-310071Y265303D03*
D77*
X-302260Y265303D03*
D112*
X-280797Y265303D03*
D60*
X-343853Y265430D03*
D44*
X-333121Y265430D03*
D69*
X-309880Y265430D03*
D48*
X-302324Y265430D03*
D92*
X-281178Y265430D03*
D47*
X-343916Y265557D03*
D44*
X-333121Y265557D03*
D59*
X-309690Y265557D03*
D77*
X-302387Y265557D03*
D40*
X-281559Y265557D03*
D78*
X-343853Y265684D03*
D44*
X-333121Y265684D03*
D57*
X-309499Y265684D03*
D48*
X-302451Y265684D03*
D38*
X-282004Y265684D03*
D67*
X-343916Y265811D03*
D44*
X-332994Y265811D03*
D57*
X-309372Y265811D03*
D77*
X-302514Y265811D03*
D35*
X-282448Y265811D03*
D63*
X-343916Y265938D03*
D44*
X-332994Y265938D03*
D56*
X-309182Y265938D03*
D77*
X-302514Y265938D03*
D34*
X-282893Y265938D03*
D59*
X-343980Y266065D03*
D65*
X-332931Y266065D03*
D14*
X-308991Y266065D03*
D77*
X-302641Y266065D03*
D88*
X-283274Y266065D03*
D56*
X-343980Y266192D03*
D65*
X-332931Y266192D03*
D54*
X-308801Y266192D03*
D77*
X-302641Y266192D03*
D30*
X-283591Y266192D03*
D53*
X-344043Y266319D03*
D65*
X-332804Y266319D03*
D113*
X-305435Y266319D03*
D29*
X-283909Y266319D03*
D52*
X-344043Y266446D03*
D62*
X-332740Y266446D03*
D34*
X-305372Y266446D03*
D114*
X-284226Y266446D03*
D50*
X-344043Y266573D03*
D60*
X-332677Y266573D03*
D115*
X-305308Y266573D03*
D28*
X-284480Y266573D03*
D16*
X-344107Y266700D03*
D60*
X-332677Y266700D03*
D116*
X-305308Y266700D03*
D117*
X-284734Y266700D03*
D77*
X-344170Y266827D03*
D60*
X-332550Y266827D03*
D88*
X-305245Y266827D03*
D118*
X-284925Y266827D03*
D17*
X-344234Y266954D03*
D58*
X-332486Y266954D03*
D119*
X-305245Y266954D03*
D26*
X-285115Y266954D03*
D80*
X-344234Y267081D03*
D55*
X-332423Y267081D03*
D30*
X-305181Y267081D03*
D84*
X-285433Y267081D03*
D80*
X-344234Y267208D03*
D10*
X-332232Y267208D03*
D30*
X-305181Y267208D03*
D24*
X-285623Y267208D03*
D81*
X-344297Y267335D03*
D51*
X-332169Y267335D03*
D86*
X-305181Y267335D03*
D95*
X-285814Y267335D03*
D87*
X-344361Y267462D03*
D49*
X-332042Y267462D03*
D29*
X-305118Y267462D03*
D120*
X-286004Y267462D03*
D43*
X-344361Y267589D03*
D49*
X-331915Y267589D03*
D114*
X-305054Y267589D03*
D93*
X-286258Y267589D03*
D89*
X-344424Y267716D03*
D73*
X-331788Y267716D03*
D28*
X-305054Y267716D03*
D93*
X-286385Y267716D03*
D121*
X-344488Y267843D03*
D45*
X-331661Y267843D03*
D85*
X-304991Y267843D03*
D122*
X-286576Y267843D03*
D121*
X-344488Y267970D03*
D76*
X-331470Y267970D03*
D117*
X-304927Y267970D03*
D122*
X-286830Y267970D03*
D42*
X-346583Y268097D03*
D51*
X-341948Y268097D03*
D42*
X-331343Y268097D03*
D26*
X-304927Y268097D03*
D123*
X-287020Y268097D03*
D75*
X-346964Y268224D03*
D60*
X-341694Y268224D03*
D79*
X-331153Y268224D03*
D84*
X-304864Y268224D03*
D22*
X-287211Y268224D03*
D49*
X-347155Y268351D03*
D44*
X-341630Y268351D03*
D12*
X-330962Y268351D03*
D84*
X-304864Y268351D03*
D124*
X-287401Y268351D03*
D49*
X-347282Y268478D03*
D36*
X-341567Y268478D03*
D64*
X-330772Y268478D03*
D24*
X-304800Y268478D03*
D125*
X-287592Y268478D03*
D70*
X-347472Y268605D03*
D36*
X-341567Y268605D03*
D69*
X-330581Y268605D03*
D120*
X-304800Y268605D03*
D83*
X-287782Y268605D03*
D51*
X-347536Y268732D03*
D36*
X-341567Y268732D03*
D57*
X-330327Y268732D03*
D23*
X-304737Y268732D03*
D126*
X-287973Y268732D03*
D51*
X-347663Y268859D03*
D32*
X-341630Y268859D03*
D54*
X-330137Y268859D03*
D93*
X-304673Y268859D03*
D126*
X-288100Y268859D03*
D10*
X-347726Y268986D03*
D32*
X-341630Y268986D03*
D71*
X-329883Y268986D03*
D122*
X-304610Y268986D03*
D20*
X-288290Y268986D03*
D10*
X-347853Y269113D03*
D27*
X-341694Y269113D03*
D72*
X-329629Y269113D03*
D22*
X-304610Y269113D03*
D121*
X-288481Y269113D03*
D55*
X-347917Y269240D03*
D27*
X-341694Y269240D03*
D74*
X-329438Y269240D03*
D22*
X-304610Y269240D03*
D121*
X-288608Y269240D03*
D10*
X-347980Y269367D03*
D25*
X-341757Y269367D03*
D17*
X-329121Y269367D03*
D124*
X-304546Y269367D03*
D89*
X-288798Y269367D03*
D55*
X-348044Y269494D03*
D21*
X-341821Y269494D03*
D80*
X-328867Y269494D03*
D125*
X-304483Y269494D03*
D89*
X-288925Y269494D03*
D55*
X-348171Y269621D03*
D68*
X-341884Y269621D03*
D87*
X-328613Y269621D03*
D126*
X-304483Y269621D03*
D43*
X-289116Y269621D03*
D55*
X-348171Y269748D03*
D18*
X-341948Y269748D03*
D89*
X-328295Y269748D03*
D20*
X-304419Y269748D03*
D43*
X-289243Y269748D03*
D55*
X-348298Y269875D03*
D15*
X-342011Y269875D03*
D20*
X-328041Y269875D03*
D121*
X-304356Y269875D03*
D43*
X-289370Y269875D03*
D58*
X-348361Y270002D03*
D13*
X-342138Y270002D03*
D125*
X-327724Y270002D03*
D121*
X-304356Y270002D03*
D43*
X-289497Y270002D03*
D55*
X-348425Y270129D03*
D22*
X-327470Y270129D03*
D89*
X-304292Y270129D03*
D43*
X-289624Y270129D03*
D58*
X-348488Y270256D03*
D93*
X-327152Y270256D03*
D43*
X-304229Y270256D03*
X-289751Y270256D03*
D55*
X-348552Y270383D03*
D95*
X-326835Y270383D03*
D43*
X-304102Y270383D03*
X-289878Y270383D03*
D58*
X-348615Y270510D03*
D24*
X-326517Y270510D03*
D19*
X-304038Y270510D03*
D43*
X-290005Y270510D03*
D58*
X-348615Y270637D03*
D118*
X-326200Y270637D03*
D19*
X-304038Y270637D03*
D43*
X-290132Y270637D03*
D58*
X-348742Y270764D03*
D117*
X-325882Y270764D03*
D19*
X-303911Y270764D03*
D43*
X-290259Y270764D03*
D58*
X-348742Y270891D03*
D28*
X-325501Y270891D03*
D87*
X-303848Y270891D03*
D43*
X-290386Y270891D03*
D60*
X-348806Y271018D03*
D114*
X-325120Y271018D03*
D19*
X-303784Y271018D03*
D43*
X-290513Y271018D03*
D58*
X-348869Y271145D03*
D29*
X-324803Y271145D03*
D43*
X-303721Y271145D03*
X-290640Y271145D03*
D11*
X-275781Y271145D03*
D27*
X-274892Y271145D03*
D58*
X-348869Y271272D03*
D127*
X-324422Y271272D03*
D19*
X-303657Y271272D03*
D43*
X-290640Y271272D03*
D54*
X-275146Y271272D03*
D60*
X-348933Y271399D03*
D30*
X-323977Y271399D03*
D43*
X-303594Y271399D03*
X-290767Y271399D03*
D121*
X-275273Y271399D03*
D58*
X-348996Y271526D03*
D119*
X-323660Y271526D03*
D43*
X-303594Y271526D03*
X-290894Y271526D03*
D84*
X-275400Y271526D03*
D60*
X-349060Y271653D03*
D119*
X-323279Y271653D03*
D89*
X-303530Y271653D03*
D43*
X-291021Y271653D03*
D30*
X-275463Y271653D03*
D60*
X-349060Y271780D03*
D31*
X-322834Y271780D03*
D121*
X-303467Y271780D03*
D43*
X-291148Y271780D03*
D35*
X-275463Y271780D03*
D58*
X-349123Y271907D03*
D31*
X-322453Y271907D03*
D121*
X-303467Y271907D03*
D19*
X-291211Y271907D03*
D41*
X-275590Y271907D03*
D58*
X-349123Y272034D03*
D119*
X-322009Y272034D03*
D20*
X-303403Y272034D03*
D19*
X-291338Y272034D03*
D128*
X-275717Y272034D03*
D60*
X-349187Y272161D03*
D119*
X-321628Y272161D03*
D20*
X-303403Y272161D03*
D43*
X-291402Y272161D03*
D98*
X-275781Y272161D03*
D60*
X-349187Y272288D03*
D119*
X-321120Y272288D03*
D126*
X-303340Y272288D03*
D43*
X-291529Y272288D03*
D103*
X-275844Y272288D03*
D60*
X-349187Y272415D03*
D30*
X-320802Y272415D03*
D126*
X-303340Y272415D03*
D19*
X-291592Y272415D03*
D129*
X-275908Y272415D03*
D60*
X-349314Y272542D03*
D30*
X-320421Y272542D03*
D83*
X-303276Y272542D03*
D19*
X-291719Y272542D03*
D130*
X-276035Y272542D03*
D60*
X-349314Y272669D03*
D127*
X-319977Y272669D03*
D83*
X-303276Y272669D03*
D19*
X-291719Y272669D03*
D131*
X-276098Y272669D03*
D60*
X-349314Y272796D03*
D127*
X-319596Y272796D03*
D125*
X-303213Y272796D03*
D19*
X-291846Y272796D03*
D132*
X-276162Y272796D03*
D60*
X-349314Y272923D03*
D86*
X-319278Y272923D03*
D125*
X-303213Y272923D03*
D19*
X-291973Y272923D03*
D133*
X-276289Y272923D03*
D62*
X-349377Y273050D03*
D86*
X-318897Y273050D03*
D124*
X-303149Y273050D03*
D87*
X-292037Y273050D03*
D134*
X-276416Y273050D03*
D60*
X-349441Y273177D03*
D29*
X-318580Y273177D03*
D124*
X-303149Y273177D03*
D19*
X-292100Y273177D03*
D135*
X-276416Y273177D03*
D60*
X-349441Y273304D03*
D114*
X-318262Y273304D03*
D22*
X-303086Y273304D03*
D87*
X-292164Y273304D03*
D136*
X-276479Y273304D03*
D60*
X-349441Y273431D03*
D137*
X-317945Y273431D03*
D22*
X-303086Y273431D03*
D19*
X-292227Y273431D03*
D138*
X-276606Y273431D03*
D60*
X-349441Y273558D03*
D28*
X-317627Y273558D03*
D123*
X-303022Y273558D03*
D139*
X-280289Y273558D03*
D60*
X-349441Y273685D03*
D28*
X-317373Y273685D03*
D123*
X-303022Y273685D03*
D140*
X-280226Y273685D03*
D62*
X-349504Y273812D03*
D85*
X-317056Y273812D03*
D122*
X-302959Y273812D03*
D141*
X-280099Y273812D03*
D62*
X-349504Y273939D03*
D117*
X-316738Y273939D03*
D122*
X-302959Y273939D03*
D142*
X-280035Y273939D03*
D60*
X-349568Y274066D03*
D118*
X-316548Y274066D03*
D93*
X-302895Y274066D03*
D143*
X-279972Y274066D03*
D60*
X-349568Y274193D03*
D118*
X-316294Y274193D03*
D93*
X-302895Y274193D03*
D144*
X-279908Y274193D03*
D60*
X-349568Y274320D03*
D84*
X-316040Y274320D03*
D23*
X-302832Y274320D03*
D145*
X-279845Y274320D03*
D60*
X-349568Y274447D03*
D84*
X-315786Y274447D03*
D23*
X-302832Y274447D03*
D146*
X-279781Y274447D03*
D60*
X-349568Y274574D03*
D24*
X-315595Y274574D03*
D120*
X-302768Y274574D03*
D147*
X-279718Y274574D03*
D58*
X-349504Y274701D03*
D95*
X-315405Y274701D03*
D120*
X-302768Y274701D03*
D148*
X-279718Y274701D03*
D58*
X-349504Y274828D03*
D95*
X-315151Y274828D03*
D120*
X-302768Y274828D03*
D149*
X-279718Y274828D03*
D58*
X-349504Y274955D03*
D120*
X-314960Y274955D03*
D95*
X-302705Y274955D03*
D150*
X-279591Y274955D03*
D58*
X-349504Y275082D03*
D23*
X-314770Y275082D03*
D95*
X-302705Y275082D03*
D151*
X-279591Y275082D03*
D58*
X-349504Y275209D03*
D93*
X-314579Y275209D03*
D95*
X-302705Y275209D03*
D152*
X-279527Y275209D03*
D58*
X-349504Y275336D03*
D122*
X-314389Y275336D03*
D24*
X-302641Y275336D03*
D153*
X-279527Y275336D03*
D58*
X-349504Y275463D03*
D122*
X-314135Y275463D03*
D24*
X-302641Y275463D03*
D154*
X-279464Y275463D03*
D10*
X-349504Y275590D03*
D122*
X-314008Y275590D03*
D24*
X-302641Y275590D03*
D155*
X-279464Y275590D03*
D10*
X-349504Y275717D03*
D123*
X-313817Y275717D03*
D84*
X-302578Y275717D03*
D156*
X-279400Y275717D03*
D10*
X-349504Y275844D03*
D22*
X-313627Y275844D03*
D84*
X-302578Y275844D03*
D157*
X-279400Y275844D03*
D10*
X-349504Y275971D03*
D22*
X-313500Y275971D03*
D84*
X-302578Y275971D03*
D158*
X-279400Y275971D03*
D10*
X-349504Y276098D03*
D124*
X-313309Y276098D03*
D26*
X-302514Y276098D03*
D159*
X-285750Y276098D03*
D111*
X-274066Y276098D03*
D160*
X-267653Y276098D03*
D51*
X-349441Y276225D03*
D124*
X-313182Y276225D03*
D26*
X-302514Y276225D03*
D133*
X-287084Y276225D03*
D29*
X-266510Y276225D03*
D51*
X-349441Y276352D03*
D125*
X-312992Y276352D03*
D26*
X-302514Y276352D03*
D161*
X-287719Y276352D03*
D118*
X-266002Y276352D03*
D51*
X-349441Y276479D03*
D83*
X-312801Y276479D03*
D162*
X-293116Y276479D03*
D24*
X-265684Y276479D03*
D70*
X-349377Y276606D03*
D83*
X-312674Y276606D03*
D163*
X-293624Y276606D03*
D23*
X-265367Y276606D03*
D70*
X-349377Y276733D03*
D126*
X-312484Y276733D03*
D164*
X-293878Y276733D03*
D93*
X-265176Y276733D03*
D70*
X-349377Y276860D03*
D126*
X-312357Y276860D03*
D165*
X-294196Y276860D03*
D123*
X-264922Y276860D03*
D49*
X-349314Y276987D03*
D126*
X-312230Y276987D03*
D166*
X-294513Y276987D03*
D124*
X-264668Y276987D03*
D49*
X-349314Y277114D03*
D111*
X-317881Y277114D03*
D26*
X-312928Y277114D03*
D167*
X-294767Y277114D03*
D83*
X-264541Y277114D03*
D49*
X-349314Y277241D03*
D168*
X-314135Y277241D03*
D169*
X-294958Y277241D03*
D20*
X-264287Y277241D03*
D47*
X-349250Y277368D03*
D112*
X-314833Y277368D03*
D170*
X-295148Y277368D03*
D121*
X-264097Y277368D03*
D47*
X-349250Y277495D03*
D97*
X-315278Y277495D03*
D171*
X-295339Y277495D03*
D89*
X-263906Y277495D03*
D47*
X-349250Y277622D03*
D101*
X-315595Y277622D03*
D172*
X-295466Y277622D03*
D87*
X-263716Y277622D03*
D73*
X-349187Y277749D03*
D173*
X-304102Y277749D03*
D81*
X-263525Y277749D03*
D73*
X-349187Y277876D03*
D174*
X-304483Y277876D03*
D80*
X-263335Y277876D03*
D73*
X-349060Y278003D03*
D175*
X-304800Y278003D03*
D46*
X-263144Y278003D03*
D73*
X-349060Y278130D03*
D176*
X-305181Y278130D03*
D77*
X-263017Y278130D03*
D75*
X-348996Y278257D03*
D176*
X-305562Y278257D03*
D48*
X-262827Y278257D03*
D75*
X-348996Y278384D03*
D177*
X-305880Y278384D03*
D48*
X-262700Y278384D03*
D45*
X-348933Y278511D03*
D177*
X-306134Y278511D03*
D16*
X-262573Y278511D03*
D45*
X-348933Y278638D03*
D178*
X-306451Y278638D03*
D50*
X-262382Y278638D03*
D76*
X-348869Y278765D03*
D178*
X-306705Y278765D03*
D52*
X-262255Y278765D03*
D76*
X-348869Y278892D03*
D179*
X-307023Y278892D03*
D52*
X-262128Y278892D03*
D78*
X-348806Y279019D03*
D180*
X-307213Y279019D03*
D53*
X-262001Y279019D03*
D76*
X-348742Y279146D03*
D181*
X-306959Y279146D03*
D82*
X-284798Y279146D03*
D54*
X-261811Y279146D03*
D78*
X-348679Y279273D03*
D182*
X-303911Y279273D03*
D14*
X-261747Y279273D03*
D78*
X-348679Y279400D03*
D183*
X-303530Y279400D03*
D56*
X-261557Y279400D03*
D42*
X-348615Y279527D03*
D184*
X-303467Y279527D03*
D57*
X-261493Y279527D03*
D79*
X-348552Y279654D03*
D185*
X-303276Y279654D03*
D59*
X-261303Y279654D03*
D79*
X-348552Y279781D03*
D186*
X-303213Y279781D03*
D69*
X-261239Y279781D03*
D79*
X-348425Y279908D03*
D187*
X-303086Y279908D03*
D69*
X-261112Y279908D03*
D79*
X-348425Y280035D03*
D188*
X-303022Y280035D03*
D61*
X-261049Y280035D03*
D67*
X-348361Y280162D03*
D189*
X-302959Y280162D03*
D63*
X-260858Y280162D03*
D66*
X-348298Y280289D03*
D190*
X-302959Y280289D03*
D64*
X-260795Y280289D03*
D66*
X-348171Y280416D03*
D191*
X-302895Y280416D03*
D12*
X-260731Y280416D03*
D66*
X-348171Y280543D03*
D192*
X-302832Y280543D03*
D12*
X-260604Y280543D03*
X-348107Y280670D03*
D193*
X-302832Y280670D03*
D66*
X-260541Y280670D03*
D64*
X-348044Y280797D03*
D194*
X-302832Y280797D03*
D67*
X-260477Y280797D03*
D64*
X-347917Y280924D03*
D195*
X-302832Y280924D03*
D67*
X-260350Y280924D03*
D64*
X-347917Y281051D03*
D196*
X-302768Y281051D03*
D79*
X-260287Y281051D03*
D63*
X-347853Y281178D03*
D197*
X-302832Y281178D03*
D79*
X-260160Y281178D03*
D63*
X-347726Y281305D03*
D198*
X-302895Y281305D03*
D42*
X-260096Y281305D03*
D61*
X-347663Y281432D03*
D199*
X-302895Y281432D03*
D78*
X-260033Y281432D03*
D69*
X-347599Y281559D03*
D200*
X-302959Y281559D03*
D78*
X-260033Y281559D03*
D69*
X-347472Y281686D03*
D201*
X-302959Y281686D03*
D78*
X-259906Y281686D03*
D59*
X-347409Y281813D03*
D202*
X-303022Y281813D03*
D76*
X-259842Y281813D03*
D57*
X-347345Y281940D03*
D203*
X-303086Y281940D03*
D45*
X-259779Y281940D03*
D57*
X-347218Y282067D03*
D204*
X-303149Y282067D03*
D76*
X-259715Y282067D03*
D14*
X-347091Y282194D03*
D34*
X-329121Y282194D03*
D205*
X-295910Y282194D03*
D45*
X-259652Y282194D03*
D14*
X-346964Y282321D03*
D30*
X-329819Y282321D03*
D206*
X-295402Y282321D03*
D75*
X-259588Y282321D03*
D54*
X-346901Y282448D03*
D29*
X-330264Y282448D03*
D207*
X-295021Y282448D03*
D75*
X-259588Y282448D03*
D53*
X-346710Y282575D03*
D114*
X-330708Y282575D03*
D208*
X-294640Y282575D03*
D75*
X-259461Y282575D03*
D52*
X-346583Y282702D03*
D137*
X-331026Y282702D03*
D209*
X-294386Y282702D03*
D75*
X-259461Y282702D03*
D72*
X-346393Y282829D03*
D137*
X-331407Y282829D03*
D210*
X-294132Y282829D03*
D73*
X-259398Y282829D03*
D16*
X-346266Y282956D03*
D28*
X-331724Y282956D03*
D211*
X-293942Y282956D03*
D73*
X-259398Y282956D03*
D48*
X-346012Y283083D03*
D28*
X-331978Y283083D03*
D212*
X-293751Y283083D03*
D73*
X-259271Y283083D03*
D80*
X-345758Y283210D03*
D28*
X-332359Y283210D03*
D213*
X-293497Y283210D03*
D73*
X-259271Y283210D03*
D43*
X-345377Y283337D03*
D114*
X-332740Y283337D03*
D214*
X-293307Y283337D03*
D47*
X-259207Y283337D03*
D24*
X-344424Y283464D03*
D115*
X-333756Y283464D03*
D214*
X-293180Y283464D03*
D47*
X-259207Y283464D03*
D215*
X-338582Y283591D03*
D216*
X-292989Y283591D03*
D47*
X-259080Y283591D03*
D217*
X-338646Y283718D03*
D218*
X-292799Y283718D03*
D47*
X-259080Y283718D03*
D219*
X-338773Y283845D03*
D220*
X-292608Y283845D03*
D49*
X-259017Y283845D03*
D221*
X-338836Y283972D03*
D220*
X-292481Y283972D03*
D49*
X-259017Y283972D03*
D222*
X-338900Y284099D03*
D223*
X-292291Y284099D03*
D49*
X-259017Y284099D03*
D224*
X-339090Y284226D03*
D150*
X-298006Y284226D03*
D122*
X-273622Y284226D03*
D70*
X-258953Y284226D03*
D225*
X-339154Y284353D03*
D226*
X-298514Y284353D03*
D126*
X-273114Y284353D03*
D49*
X-258890Y284353D03*
D227*
X-339217Y284480D03*
D228*
X-298831Y284480D03*
D89*
X-272796Y284480D03*
D70*
X-258826Y284480D03*
D229*
X-339281Y284607D03*
D230*
X-299085Y284607D03*
D87*
X-272479Y284607D03*
D70*
X-258826Y284607D03*
D231*
X-339408Y284734D03*
D232*
X-299212Y284734D03*
D80*
X-272225Y284734D03*
D70*
X-258826Y284734D03*
D233*
X-339471Y284861D03*
D234*
X-299403Y284861D03*
D46*
X-272034Y284861D03*
D51*
X-258763Y284861D03*
D235*
X-339535Y284988D03*
D236*
X-299593Y284988D03*
D48*
X-271844Y284988D03*
D70*
X-258699Y284988D03*
D103*
X-339598Y285115D03*
D162*
X-299720Y285115D03*
D74*
X-271653Y285115D03*
D70*
X-258699Y285115D03*
D101*
X-339598Y285242D03*
D237*
X-299720Y285242D03*
D16*
X-271463Y285242D03*
D51*
X-258636Y285242D03*
D106*
X-339725Y285369D03*
D238*
X-299847Y285369D03*
D50*
X-271272Y285369D03*
D51*
X-258636Y285369D03*
D107*
X-339725Y285496D03*
D164*
X-299974Y285496D03*
D72*
X-271082Y285496D03*
D51*
X-258636Y285496D03*
D108*
X-339789Y285623D03*
D165*
X-300038Y285623D03*
D71*
X-270955Y285623D03*
D51*
X-258636Y285623D03*
D128*
X-339852Y285750D03*
D239*
X-300101Y285750D03*
D71*
X-270828Y285750D03*
D51*
X-258509Y285750D03*
D94*
X-339916Y285877D03*
D240*
X-300101Y285877D03*
D53*
X-270637Y285877D03*
D51*
X-258509Y285877D03*
D111*
X-251079Y285877D03*
D241*
X-339979Y286004D03*
D242*
X-300165Y286004D03*
D53*
X-270510Y286004D03*
D51*
X-258509Y286004D03*
D111*
X-251079Y286004D03*
D243*
X-340043Y286131D03*
D169*
X-300165Y286131D03*
D54*
X-270447Y286131D03*
D51*
X-258509Y286131D03*
D11*
X-251016Y286131D03*
D91*
X-340043Y286258D03*
D170*
X-300228Y286258D03*
D14*
X-270256Y286258D03*
D10*
X-258445Y286258D03*
D11*
X-251016Y286258D03*
D244*
X-340106Y286385D03*
D245*
X-300228Y286385D03*
D14*
X-270129Y286385D03*
D51*
X-258382Y286385D03*
D111*
X-250952Y286385D03*
D168*
X-340170Y286512D03*
D62*
X-314452Y286512D03*
D172*
X-300292Y286512D03*
D14*
X-270002Y286512D03*
D51*
X-258382Y286512D03*
D11*
X-250889Y286512D03*
D34*
X-340170Y286639D03*
D246*
X-302578Y286639D03*
D56*
X-269939Y286639D03*
D51*
X-258382Y286639D03*
D11*
X-250889Y286639D03*
D88*
X-340297Y286766D03*
D236*
X-303022Y286766D03*
D57*
X-269748Y286766D03*
D10*
X-258318Y286766D03*
D13*
X-250825Y286766D03*
D127*
X-340297Y286893D03*
D247*
X-303340Y286893D03*
D57*
X-269621Y286893D03*
D10*
X-258318Y286893D03*
D13*
X-250825Y286893D03*
D114*
X-340360Y287020D03*
D248*
X-303657Y287020D03*
D59*
X-269558Y287020D03*
D10*
X-258318Y287020D03*
D82*
X-250762Y287020D03*
D117*
X-340360Y287147D03*
D249*
X-303975Y287147D03*
D59*
X-269431Y287147D03*
D10*
X-258318Y287147D03*
D82*
X-250762Y287147D03*
D95*
X-340424Y287274D03*
D250*
X-304229Y287274D03*
D69*
X-269367Y287274D03*
D10*
X-258191Y287274D03*
D82*
X-250762Y287274D03*
D123*
X-340487Y287401D03*
D230*
X-304419Y287401D03*
D69*
X-269240Y287401D03*
D10*
X-258191Y287401D03*
D15*
X-250698Y287401D03*
D83*
X-340487Y287528D03*
D251*
X-304737Y287528D03*
D69*
X-269113Y287528D03*
D10*
X-258191Y287528D03*
D82*
X-250635Y287528D03*
D19*
X-340487Y287655D03*
D140*
X-304864Y287655D03*
D61*
X-269050Y287655D03*
D10*
X-258191Y287655D03*
D15*
X-250571Y287655D03*
D17*
X-340551Y287782D03*
D252*
X-305118Y287782D03*
D69*
X-268986Y287782D03*
D10*
X-258191Y287782D03*
D15*
X-250571Y287782D03*
D52*
X-340614Y287909D03*
D142*
X-305308Y287909D03*
D61*
X-268923Y287909D03*
D55*
X-258128Y287909D03*
D15*
X-250571Y287909D03*
D59*
X-340551Y288036D03*
D226*
X-305499Y288036D03*
D61*
X-268796Y288036D03*
D55*
X-258128Y288036D03*
D18*
X-250508Y288036D03*
D42*
X-340614Y288163D03*
D145*
X-305626Y288163D03*
D63*
X-268732Y288163D03*
D10*
X-258064Y288163D03*
D18*
X-250508Y288163D03*
D65*
X-340551Y288290D03*
D146*
X-305816Y288290D03*
D63*
X-268605Y288290D03*
D10*
X-258064Y288290D03*
D18*
X-250508Y288290D03*
D147*
X-306007Y288417D03*
D63*
X-268605Y288417D03*
D10*
X-258064Y288417D03*
D68*
X-250444Y288417D03*
D253*
X-306197Y288544D03*
D63*
X-268478Y288544D03*
D55*
X-258001Y288544D03*
D68*
X-250444Y288544D03*
D254*
X-306324Y288671D03*
D64*
X-268415Y288671D03*
D55*
X-258001Y288671D03*
D68*
X-250444Y288671D03*
D255*
X-306451Y288798D03*
D63*
X-268351Y288798D03*
D55*
X-258001Y288798D03*
D21*
X-250381Y288798D03*
D152*
X-306578Y288925D03*
D64*
X-268288Y288925D03*
D55*
X-258001Y288925D03*
D21*
X-250381Y288925D03*
D153*
X-306705Y289052D03*
D64*
X-268161Y289052D03*
D10*
X-257937Y289052D03*
D21*
X-250381Y289052D03*
D256*
X-306832Y289179D03*
D64*
X-268161Y289179D03*
D10*
X-257937Y289179D03*
D21*
X-250381Y289179D03*
D257*
X-306896Y289306D03*
D64*
X-268034Y289306D03*
D55*
X-257874Y289306D03*
D25*
X-250317Y289306D03*
D258*
X-307023Y289433D03*
D12*
X-267970Y289433D03*
D55*
X-257874Y289433D03*
D25*
X-250317Y289433D03*
D259*
X-307150Y289560D03*
D64*
X-267907Y289560D03*
D55*
X-257874Y289560D03*
D25*
X-250317Y289560D03*
D260*
X-307277Y289687D03*
D12*
X-267843Y289687D03*
D55*
X-257874Y289687D03*
D25*
X-250317Y289687D03*
D261*
X-307404Y289814D03*
D12*
X-267843Y289814D03*
D55*
X-257874Y289814D03*
D25*
X-250317Y289814D03*
D262*
X-307404Y289941D03*
D12*
X-267716Y289941D03*
D10*
X-257810Y289941D03*
D25*
X-250317Y289941D03*
D263*
X-307531Y290068D03*
D66*
X-267653Y290068D03*
D55*
X-257747Y290068D03*
D27*
X-250254Y290068D03*
D264*
X-307658Y290195D03*
D12*
X-267589Y290195D03*
D55*
X-257747Y290195D03*
D27*
X-250254Y290195D03*
D265*
X-307658Y290322D03*
D66*
X-267526Y290322D03*
D55*
X-257747Y290322D03*
D27*
X-250254Y290322D03*
D266*
X-307785Y290449D03*
D66*
X-267526Y290449D03*
D55*
X-257747Y290449D03*
D27*
X-250254Y290449D03*
D267*
X-307848Y290576D03*
D66*
X-267399Y290576D03*
D55*
X-257747Y290576D03*
D27*
X-250254Y290576D03*
D268*
X-307912Y290703D03*
D66*
X-267399Y290703D03*
D10*
X-257683Y290703D03*
D27*
X-250254Y290703D03*
D269*
X-307975Y290830D03*
D66*
X-267399Y290830D03*
D55*
X-257620Y290830D03*
D32*
X-250317Y290830D03*
D270*
X-308039Y290957D03*
D66*
X-267272Y290957D03*
D55*
X-257620Y290957D03*
D32*
X-250317Y290957D03*
D271*
X-308102Y291084D03*
D66*
X-267272Y291084D03*
D55*
X-257620Y291084D03*
D32*
X-250317Y291084D03*
D272*
X-308102Y291211D03*
D67*
X-267208Y291211D03*
D55*
X-257620Y291211D03*
D32*
X-250317Y291211D03*
D273*
X-308166Y291338D03*
D66*
X-267145Y291338D03*
D10*
X-257556Y291338D03*
D36*
X-250381Y291338D03*
D274*
X-308229Y291465D03*
D67*
X-267081Y291465D03*
D10*
X-257556Y291465D03*
D36*
X-250381Y291465D03*
D275*
X-308229Y291592D03*
D67*
X-267081Y291592D03*
D10*
X-257556Y291592D03*
D44*
X-250444Y291592D03*
D276*
X-308356Y291719D03*
D67*
X-266954Y291719D03*
D55*
X-257493Y291719D03*
D44*
X-250444Y291719D03*
D277*
X-308356Y291846D03*
D67*
X-266954Y291846D03*
D10*
X-257429Y291846D03*
D65*
X-250508Y291846D03*
D119*
X-323152Y291973D03*
D247*
X-302705Y291973D03*
D67*
X-266954Y291973D03*
D10*
X-257429Y291973D03*
D62*
X-250571Y291973D03*
D24*
X-324104Y292100D03*
D237*
X-301879Y292100D03*
D79*
X-266891Y292100D03*
D10*
X-257429Y292100D03*
D60*
X-250635Y292100D03*
D123*
X-324739Y292227D03*
D238*
X-301498Y292227D03*
D67*
X-266827Y292227D03*
D51*
X-257366Y292227D03*
D58*
X-250698Y292227D03*
D83*
X-325120Y292354D03*
D164*
X-301117Y292354D03*
D67*
X-266827Y292354D03*
D51*
X-257366Y292354D03*
D58*
X-250825Y292354D03*
D89*
X-325501Y292481D03*
D278*
X-300863Y292481D03*
D79*
X-266764Y292481D03*
D51*
X-257239Y292481D03*
D55*
X-250889Y292481D03*
D81*
X-325882Y292608D03*
D279*
X-300609Y292608D03*
D79*
X-266764Y292608D03*
D51*
X-257239Y292608D03*
D10*
X-250952Y292608D03*
D17*
X-326200Y292735D03*
D280*
X-300292Y292735D03*
D67*
X-266700Y292735D03*
D70*
X-257175Y292735D03*
X-251079Y292735D03*
D48*
X-326454Y292862D03*
D166*
X-299974Y292862D03*
D79*
X-266637Y292862D03*
D49*
X-257112Y292862D03*
X-251143Y292862D03*
D50*
X-326771Y292989D03*
D281*
X-299784Y292989D03*
D79*
X-266637Y292989D03*
D47*
X-257048Y292989D03*
X-251333Y292989D03*
D52*
X-327025Y293116D03*
D240*
X-299466Y293116D03*
D79*
X-266637Y293116D03*
D73*
X-256858Y293116D03*
D75*
X-251460Y293116D03*
D53*
X-327279Y293243D03*
D282*
X-299276Y293243D03*
D42*
X-266573Y293243D03*
D45*
X-256731Y293243D03*
D78*
X-251651Y293243D03*
D54*
X-327470Y293370D03*
D167*
X-298958Y293370D03*
D79*
X-266510Y293370D03*
D123*
X-254127Y293370D03*
D14*
X-327787Y293497D03*
D242*
X-298768Y293497D03*
D79*
X-266510Y293497D03*
D22*
X-254191Y293497D03*
D56*
X-327978Y293624D03*
D242*
X-298514Y293624D03*
D42*
X-266446Y293624D03*
D22*
X-254191Y293624D03*
D57*
X-328168Y293751D03*
D242*
X-298260Y293751D03*
D42*
X-266446Y293751D03*
D124*
X-254127Y293751D03*
D59*
X-328359Y293878D03*
D283*
X-298069Y293878D03*
D42*
X-266446Y293878D03*
D125*
X-254191Y293878D03*
D69*
X-328549Y294005D03*
D283*
X-297815Y294005D03*
D42*
X-266446Y294005D03*
D125*
X-254191Y294005D03*
D61*
X-328740Y294132D03*
D242*
X-297625Y294132D03*
D42*
X-266446Y294132D03*
D126*
X-254191Y294132D03*
D61*
X-328867Y294259D03*
D283*
X-297434Y294259D03*
D42*
X-266319Y294259D03*
D126*
X-254191Y294259D03*
D63*
X-329057Y294386D03*
D283*
X-297180Y294386D03*
D42*
X-266319Y294386D03*
D20*
X-254254Y294386D03*
D64*
X-329121Y294513D03*
D283*
X-297053Y294513D03*
D42*
X-266319Y294513D03*
D121*
X-254191Y294513D03*
D64*
X-329248Y294640D03*
D283*
X-296799Y294640D03*
D42*
X-266319Y294640D03*
D89*
X-254254Y294640D03*
D12*
X-329438Y294767D03*
D169*
X-296609Y294767D03*
D42*
X-266319Y294767D03*
D43*
X-254318Y294767D03*
D12*
X-329565Y294894D03*
D283*
X-296418Y294894D03*
D42*
X-266319Y294894D03*
D19*
X-254254Y294894D03*
D12*
X-329692Y295021D03*
D283*
X-296291Y295021D03*
D42*
X-266319Y295021D03*
D87*
X-254318Y295021D03*
D12*
X-329819Y295148D03*
D169*
X-296101Y295148D03*
D42*
X-266319Y295148D03*
D80*
X-254318Y295148D03*
D12*
X-329946Y295275D03*
D283*
X-295910Y295275D03*
D42*
X-266319Y295275D03*
D17*
X-254318Y295275D03*
D12*
X-330073Y295402D03*
D283*
X-295783Y295402D03*
D42*
X-266319Y295402D03*
D77*
X-254254Y295402D03*
D12*
X-330200Y295529D03*
D283*
X-295656Y295529D03*
D42*
X-266319Y295529D03*
D48*
X-254318Y295529D03*
D12*
X-330327Y295656D03*
D169*
X-295466Y295656D03*
D42*
X-266319Y295656D03*
D16*
X-254318Y295656D03*
D67*
X-330454Y295783D03*
D283*
X-295275Y295783D03*
D42*
X-266319Y295783D03*
D72*
X-254318Y295783D03*
D67*
X-330581Y295910D03*
D283*
X-295148Y295910D03*
D42*
X-266319Y295910D03*
D53*
X-254381Y295910D03*
D67*
X-330708Y296037D03*
D283*
X-295021Y296037D03*
D78*
X-266256Y296037D03*
D56*
X-254318Y296037D03*
D67*
X-330835Y296164D03*
D283*
X-294894Y296164D03*
D42*
X-266319Y296164D03*
D59*
X-254318Y296164D03*
D66*
X-330899Y296291D03*
D242*
X-294831Y296291D03*
D42*
X-266319Y296291D03*
D63*
X-254381Y296291D03*
D66*
X-331026Y296418D03*
D242*
X-294704Y296418D03*
D78*
X-266256Y296418D03*
D66*
X-254318Y296418D03*
D67*
X-331089Y296545D03*
D242*
X-294577Y296545D03*
D78*
X-266256Y296545D03*
X-254318Y296545D03*
D67*
X-331216Y296672D03*
D242*
X-294450Y296672D03*
D76*
X-266319Y296672D03*
D47*
X-254381Y296672D03*
D67*
X-331343Y296799D03*
D242*
X-294323Y296799D03*
D78*
X-266383Y296799D03*
D58*
X-254381Y296799D03*
D67*
X-331470Y296926D03*
D167*
X-294259Y296926D03*
D78*
X-266383Y296926D03*
D15*
X-254381Y296926D03*
D67*
X-331597Y297053D03*
D167*
X-294132Y297053D03*
D78*
X-266383Y297053D03*
D79*
X-331661Y297180D03*
D167*
X-294005Y297180D03*
D78*
X-266383Y297180D03*
D79*
X-331788Y297307D03*
D282*
X-293942Y297307D03*
D76*
X-266446Y297307D03*
D79*
X-331915Y297434D03*
D282*
X-293815Y297434D03*
D76*
X-266446Y297434D03*
D79*
X-332042Y297561D03*
D282*
X-293688Y297561D03*
D76*
X-266446Y297561D03*
D79*
X-332042Y297688D03*
D240*
X-293624Y297688D03*
D45*
X-266510Y297688D03*
D79*
X-332169Y297815D03*
D282*
X-293561Y297815D03*
D45*
X-266510Y297815D03*
D79*
X-332296Y297942D03*
D282*
X-293434Y297942D03*
D45*
X-266510Y297942D03*
D79*
X-332423Y298069D03*
D240*
X-293370Y298069D03*
D75*
X-266573Y298069D03*
D42*
X-332486Y298196D03*
D240*
X-293243Y298196D03*
D75*
X-266573Y298196D03*
D79*
X-332550Y298323D03*
D240*
X-293243Y298323D03*
D75*
X-266573Y298323D03*
D79*
X-332677Y298450D03*
D240*
X-293116Y298450D03*
D73*
X-266637Y298450D03*
D42*
X-332740Y298577D03*
D281*
X-293053Y298577D03*
D73*
X-266637Y298577D03*
D42*
X-332867Y298704D03*
D281*
X-292926Y298704D03*
D75*
X-266700Y298704D03*
D42*
X-332994Y298831D03*
D281*
X-292926Y298831D03*
D73*
X-266764Y298831D03*
D79*
X-333058Y298958D03*
D281*
X-292799Y298958D03*
D73*
X-266764Y298958D03*
D42*
X-333121Y299085D03*
D281*
X-292799Y299085D03*
D47*
X-266827Y299085D03*
D42*
X-333248Y299212D03*
D281*
X-292672Y299212D03*
D47*
X-266827Y299212D03*
D42*
X-333375Y299339D03*
D166*
X-292608Y299339D03*
D73*
X-266891Y299339D03*
D42*
X-333375Y299466D03*
D281*
X-292545Y299466D03*
D47*
X-266954Y299466D03*
D42*
X-333502Y299593D03*
D166*
X-292481Y299593D03*
D47*
X-266954Y299593D03*
D42*
X-333629Y299720D03*
D281*
X-292418Y299720D03*
D49*
X-267018Y299720D03*
D78*
X-333693Y299847D03*
D166*
X-292354Y299847D03*
D47*
X-267081Y299847D03*
D42*
X-333756Y299974D03*
D281*
X-292291Y299974D03*
D49*
X-267145Y299974D03*
D42*
X-333883Y300101D03*
D166*
X-292227Y300101D03*
D49*
X-267145Y300101D03*
D78*
X-333947Y300228D03*
D166*
X-292227Y300228D03*
D49*
X-267272Y300228D03*
D78*
X-334074Y300355D03*
D166*
X-292100Y300355D03*
D49*
X-267272Y300355D03*
D42*
X-334137Y300482D03*
D166*
X-292100Y300482D03*
D47*
X-267335Y300482D03*
D78*
X-334201Y300609D03*
D281*
X-292037Y300609D03*
D49*
X-267399Y300609D03*
D78*
X-334328Y300736D03*
D166*
X-291973Y300736D03*
D47*
X-267462Y300736D03*
D42*
X-334391Y300863D03*
D166*
X-291973Y300863D03*
D49*
X-267526Y300863D03*
D78*
X-334455Y300990D03*
D166*
X-291846Y300990D03*
D47*
X-267589Y300990D03*
D78*
X-334582Y301117D03*
D166*
X-291846Y301117D03*
D49*
X-267653Y301117D03*
D42*
X-334645Y301244D03*
D166*
X-291846Y301244D03*
D47*
X-267716Y301244D03*
D78*
X-334709Y301371D03*
D281*
X-291783Y301371D03*
D49*
X-267780Y301371D03*
D78*
X-334836Y301498D03*
D166*
X-291719Y301498D03*
D47*
X-267843Y301498D03*
D42*
X-334899Y301625D03*
D281*
X-291656Y301625D03*
D47*
X-267970Y301625D03*
D78*
X-334963Y301752D03*
D281*
X-291656Y301752D03*
D47*
X-267970Y301752D03*
D78*
X-335090Y301879D03*
D281*
X-291656Y301879D03*
D47*
X-268097Y301879D03*
D42*
X-335153Y302006D03*
D240*
X-291592Y302006D03*
D73*
X-268161Y302006D03*
D78*
X-335217Y302133D03*
D240*
X-291592Y302133D03*
D47*
X-268224Y302133D03*
D78*
X-335344Y302260D03*
D281*
X-291529Y302260D03*
D73*
X-268288Y302260D03*
D42*
X-335407Y302387D03*
D281*
X-291529Y302387D03*
D73*
X-268415Y302387D03*
D78*
X-335471Y302514D03*
D240*
X-291465Y302514D03*
D73*
X-268415Y302514D03*
D78*
X-335598Y302641D03*
D240*
X-291465Y302641D03*
D75*
X-268478Y302641D03*
D42*
X-335661Y302768D03*
D240*
X-291465Y302768D03*
D75*
X-268605Y302768D03*
D78*
X-335725Y302895D03*
D282*
X-291402Y302895D03*
D45*
X-268669Y302895D03*
D78*
X-335852Y303022D03*
D282*
X-291402Y303022D03*
D75*
X-268732Y303022D03*
D78*
X-335852Y303149D03*
D282*
X-291402Y303149D03*
D45*
X-268796Y303149D03*
D27*
X-256858Y303149D03*
D78*
X-335979Y303276D03*
D282*
X-291402Y303276D03*
D45*
X-268923Y303276D03*
D60*
X-256858Y303276D03*
D42*
X-336042Y303403D03*
D167*
X-291338Y303403D03*
D45*
X-268923Y303403D03*
D51*
X-256858Y303403D03*
D60*
X-346012Y303530D03*
D78*
X-336106Y303530D03*
D167*
X-291338Y303530D03*
D45*
X-269050Y303530D03*
D47*
X-256794Y303530D03*
D73*
X-345758Y303657D03*
D78*
X-336233Y303657D03*
D167*
X-291338Y303657D03*
D76*
X-269113Y303657D03*
D75*
X-256794Y303657D03*
D79*
X-345631Y303784D03*
D42*
X-336296Y303784D03*
D167*
X-291338Y303784D03*
D78*
X-269177Y303784D03*
D76*
X-256794Y303784D03*
D63*
X-345567Y303911D03*
D78*
X-336360Y303911D03*
D242*
X-291275Y303911D03*
D76*
X-269240Y303911D03*
D82*
X-258382Y303911D03*
D60*
X-255969Y303911D03*
D69*
X-345694Y304038D03*
D42*
X-336423Y304038D03*
D242*
X-291275Y304038D03*
D78*
X-269304Y304038D03*
D62*
X-255778Y304038D03*
D12*
X-346075Y304165D03*
D42*
X-336550Y304165D03*
D242*
X-291275Y304165D03*
D78*
X-269431Y304165D03*
D65*
X-255588Y304165D03*
D73*
X-346774Y304292D03*
D42*
X-336550Y304292D03*
D242*
X-291275Y304292D03*
D42*
X-269494Y304292D03*
D65*
X-255588Y304292D03*
D10*
X-347218Y304419D03*
D42*
X-336677Y304419D03*
D283*
X-291211Y304419D03*
D42*
X-269494Y304419D03*
D65*
X-255461Y304419D03*
D58*
X-347472Y304546D03*
D42*
X-336804Y304546D03*
D283*
X-291211Y304546D03*
D42*
X-269621Y304546D03*
D44*
X-255397Y304546D03*
D60*
X-347663Y304673D03*
D42*
X-336804Y304673D03*
D283*
X-291211Y304673D03*
D79*
X-269685Y304673D03*
D65*
X-255334Y304673D03*
D60*
X-347790Y304800D03*
D42*
X-336931Y304800D03*
D283*
X-291211Y304800D03*
D42*
X-269748Y304800D03*
D65*
X-255334Y304800D03*
D62*
X-347980Y304927D03*
D79*
X-336995Y304927D03*
D283*
X-291211Y304927D03*
D79*
X-269812Y304927D03*
D65*
X-255334Y304927D03*
D62*
X-348107Y305054D03*
D42*
X-337058Y305054D03*
D169*
X-291148Y305054D03*
D67*
X-269875Y305054D03*
D44*
X-255270Y305054D03*
D62*
X-348234Y305181D03*
D79*
X-337122Y305181D03*
D169*
X-291148Y305181D03*
D79*
X-269939Y305181D03*
D44*
X-255270Y305181D03*
D65*
X-348298Y305308D03*
D79*
X-337249Y305308D03*
D169*
X-291148Y305308D03*
D67*
X-270002Y305308D03*
D44*
X-255270Y305308D03*
D65*
X-348425Y305435D03*
D42*
X-337312Y305435D03*
D169*
X-291148Y305435D03*
D66*
X-270066Y305435D03*
D44*
X-255270Y305435D03*
D65*
X-348552Y305562D03*
D79*
X-337376Y305562D03*
D169*
X-291148Y305562D03*
D67*
X-270129Y305562D03*
D44*
X-255270Y305562D03*
D65*
X-348679Y305689D03*
D79*
X-337503Y305689D03*
D284*
X-291084Y305689D03*
D66*
X-270193Y305689D03*
D44*
X-255270Y305689D03*
X-348742Y305816D03*
D67*
X-337566Y305816D03*
D284*
X-291084Y305816D03*
D66*
X-270193Y305816D03*
D65*
X-255334Y305816D03*
D44*
X-348869Y305943D03*
D79*
X-337630Y305943D03*
D284*
X-291084Y305943D03*
D66*
X-270320Y305943D03*
D65*
X-255334Y305943D03*
D44*
X-348869Y306070D03*
D79*
X-337757Y306070D03*
D285*
X-291021Y306070D03*
D12*
X-270383Y306070D03*
D65*
X-255334Y306070D03*
D44*
X-348996Y306197D03*
D67*
X-337820Y306197D03*
D285*
X-291021Y306197D03*
D12*
X-270383Y306197D03*
D65*
X-255334Y306197D03*
X-349060Y306324D03*
D79*
X-337884Y306324D03*
D285*
X-291021Y306324D03*
D12*
X-270510Y306324D03*
D65*
X-255334Y306324D03*
D44*
X-349123Y306451D03*
D79*
X-338011Y306451D03*
D285*
X-291021Y306451D03*
D12*
X-270510Y306451D03*
D62*
X-255397Y306451D03*
D65*
X-349187Y306578D03*
D67*
X-338074Y306578D03*
D170*
X-290957Y306578D03*
D64*
X-270574Y306578D03*
D65*
X-255461Y306578D03*
D44*
X-349250Y306705D03*
D67*
X-338201Y306705D03*
D286*
X-291021Y306705D03*
D64*
X-270574Y306705D03*
D65*
X-255461Y306705D03*
X-349314Y306832D03*
D67*
X-338328Y306832D03*
D286*
X-291021Y306832D03*
D64*
X-270701Y306832D03*
D62*
X-255524Y306832D03*
D65*
X-349314Y306959D03*
D67*
X-338328Y306959D03*
D245*
X-290957Y306959D03*
D64*
X-270701Y306959D03*
D62*
X-255524Y306959D03*
D65*
X-349441Y307086D03*
D67*
X-338455Y307086D03*
D245*
X-290957Y307086D03*
D63*
X-270764Y307086D03*
D62*
X-255524Y307086D03*
D65*
X-349441Y307213D03*
D67*
X-338582Y307213D03*
D245*
X-290957Y307213D03*
D63*
X-270764Y307213D03*
D60*
X-255588Y307213D03*
D65*
X-349441Y307340D03*
D66*
X-338646Y307340D03*
D245*
X-290957Y307340D03*
D63*
X-270764Y307340D03*
D62*
X-255651Y307340D03*
X-349504Y307467D03*
D66*
X-338773Y307467D03*
D287*
X-290957Y307467D03*
D61*
X-270828Y307467D03*
D60*
X-255715Y307467D03*
D62*
X-349504Y307594D03*
D66*
X-338900Y307594D03*
D287*
X-290957Y307594D03*
D63*
X-270891Y307594D03*
D58*
X-255778Y307594D03*
D60*
X-349568Y307721D03*
D66*
X-339027Y307721D03*
D172*
X-290894Y307721D03*
D61*
X-270955Y307721D03*
D58*
X-255778Y307721D03*
D60*
X-349568Y307848D03*
D66*
X-339154Y307848D03*
D172*
X-290894Y307848D03*
D61*
X-270955Y307848D03*
D58*
X-255905Y307848D03*
D60*
X-349568Y307975D03*
D12*
X-339217Y307975D03*
D172*
X-290894Y307975D03*
D61*
X-270955Y307975D03*
D55*
X-255969Y307975D03*
D58*
X-349631Y308102D03*
D12*
X-339344Y308102D03*
D288*
X-290894Y308102D03*
D69*
X-270891Y308102D03*
D55*
X-255969Y308102D03*
D58*
X-349631Y308229D03*
D12*
X-339471Y308229D03*
D138*
X-290830Y308229D03*
D59*
X-270955Y308229D03*
D55*
X-256096Y308229D03*
X-349695Y308356D03*
D12*
X-339598Y308356D03*
D138*
X-290830Y308356D03*
D59*
X-270955Y308356D03*
D10*
X-256159Y308356D03*
D55*
X-349695Y308483D03*
D12*
X-339725Y308483D03*
D289*
X-290830Y308483D03*
D59*
X-270955Y308483D03*
D51*
X-256223Y308483D03*
D55*
X-349695Y308610D03*
D12*
X-339852Y308610D03*
D289*
X-290830Y308610D03*
D59*
X-270955Y308610D03*
D10*
X-256286Y308610D03*
D55*
X-349695Y308737D03*
D12*
X-339979Y308737D03*
D290*
X-290767Y308737D03*
D57*
X-271018Y308737D03*
D51*
X-256350Y308737D03*
X-349695Y308864D03*
D64*
X-340043Y308864D03*
D159*
X-290830Y308864D03*
D56*
X-270955Y308864D03*
D51*
X-256477Y308864D03*
X-349695Y308991D03*
D63*
X-340233Y308991D03*
D291*
X-290767Y308991D03*
D56*
X-270955Y308991D03*
D70*
X-256540Y308991D03*
D51*
X-349695Y309118D03*
D63*
X-340360Y309118D03*
D136*
X-290703Y309118D03*
D56*
X-270955Y309118D03*
D49*
X-256604Y309118D03*
D70*
X-349631Y309245D03*
D63*
X-340487Y309245D03*
D292*
X-290767Y309245D03*
D56*
X-270955Y309245D03*
D49*
X-256731Y309245D03*
X-349695Y309372D03*
D63*
X-340614Y309372D03*
D293*
X-290703Y309372D03*
D14*
X-270891Y309372D03*
D47*
X-256794Y309372D03*
X-349631Y309499D03*
D61*
X-340805Y309499D03*
D294*
X-290640Y309499D03*
D14*
X-270891Y309499D03*
D47*
X-256921Y309499D03*
X-349631Y309626D03*
D61*
X-340932Y309626D03*
D135*
X-290640Y309626D03*
D54*
X-270828Y309626D03*
D73*
X-256985Y309626D03*
X-349568Y309753D03*
D61*
X-341059Y309753D03*
D135*
X-290640Y309753D03*
D54*
X-270828Y309753D03*
D73*
X-257112Y309753D03*
X-349568Y309880D03*
D69*
X-341249Y309880D03*
D295*
X-290640Y309880D03*
D54*
X-270701Y309880D03*
D73*
X-257239Y309880D03*
D75*
X-349504Y310007D03*
D69*
X-341376Y310007D03*
D296*
X-290576Y310007D03*
D54*
X-270701Y310007D03*
D75*
X-257302Y310007D03*
D45*
X-349441Y310134D03*
D59*
X-341567Y310134D03*
D297*
X-290513Y310134D03*
D53*
X-270637Y310134D03*
D45*
X-257493Y310134D03*
D76*
X-349377Y310261D03*
D59*
X-341694Y310261D03*
D134*
X-290513Y310261D03*
D71*
X-270574Y310261D03*
D76*
X-257556Y310261D03*
D78*
X-349314Y310388D03*
D59*
X-341948Y310388D03*
D298*
X-290449Y310388D03*
D71*
X-270574Y310388D03*
D76*
X-257683Y310388D03*
D79*
X-349187Y310515D03*
D59*
X-342075Y310515D03*
D299*
X-290449Y310515D03*
D71*
X-270447Y310515D03*
D76*
X-257810Y310515D03*
D79*
X-349060Y310642D03*
D57*
X-342265Y310642D03*
D300*
X-290386Y310642D03*
D52*
X-270383Y310642D03*
D42*
X-257937Y310642D03*
D12*
X-348869Y310769D03*
D14*
X-342519Y310769D03*
D133*
X-290386Y310769D03*
D72*
X-270320Y310769D03*
D42*
X-258064Y310769D03*
D63*
X-348742Y310896D03*
D53*
X-342773Y310896D03*
D301*
X-290322Y310896D03*
D72*
X-270193Y310896D03*
D79*
X-258255Y310896D03*
D127*
X-345504Y311023D03*
D302*
X-290322Y311023D03*
D50*
X-270129Y311023D03*
D66*
X-258382Y311023D03*
D29*
X-345631Y311150D03*
D303*
X-290322Y311150D03*
D50*
X-270002Y311150D03*
D66*
X-258509Y311150D03*
D114*
X-345694Y311277D03*
D132*
X-290259Y311277D03*
D74*
X-269875Y311277D03*
D12*
X-258699Y311277D03*
D28*
X-345694Y311404D03*
D161*
X-290259Y311404D03*
D74*
X-269748Y311404D03*
D63*
X-258953Y311404D03*
D85*
X-345758Y311531D03*
D222*
X-290132Y311531D03*
D48*
X-269558Y311531D03*
D61*
X-259144Y311531D03*
D26*
X-345821Y311658D03*
D304*
X-290132Y311658D03*
D77*
X-269494Y311658D03*
D57*
X-259334Y311658D03*
D84*
X-345885Y311785D03*
D305*
X-290132Y311785D03*
D46*
X-269240Y311785D03*
D54*
X-259652Y311785D03*
D95*
X-345885Y311912D03*
D306*
X-290068Y311912D03*
D80*
X-269050Y311912D03*
D50*
X-260096Y311912D03*
D23*
X-346012Y312039D03*
D227*
X-290068Y312039D03*
D97*
X-264859Y312039D03*
D122*
X-346012Y312166D03*
D307*
X-289941Y312166D03*
D108*
X-264859Y312166D03*
D22*
X-346012Y312293D03*
D308*
X-289941Y312293D03*
D96*
X-264859Y312293D03*
D125*
X-346139Y312420D03*
D233*
X-289941Y312420D03*
D309*
X-264859Y312420D03*
D126*
X-346139Y312547D03*
D310*
X-289941Y312547D03*
D94*
X-264859Y312547D03*
D89*
X-346202Y312674D03*
D104*
X-289878Y312674D03*
D311*
X-264859Y312674D03*
D19*
X-346202Y312801D03*
D101*
X-289814Y312801D03*
D92*
X-264922Y312801D03*
D80*
X-346266Y312928D03*
D106*
X-289814Y312928D03*
D41*
X-264922Y312928D03*
D77*
X-346329Y313055D03*
D312*
X-289814Y313055D03*
D40*
X-264922Y313055D03*
D74*
X-346329Y313182D03*
D128*
X-289814Y313182D03*
D38*
X-264859Y313182D03*
D72*
X-346393Y313309D03*
D112*
X-289814Y313309D03*
D37*
X-264922Y313309D03*
D54*
X-346393Y313436D03*
D92*
X-289814Y313436D03*
D35*
X-264922Y313436D03*
D57*
X-346456Y313563D03*
D91*
X-289878Y313563D03*
D34*
X-264859Y313563D03*
D63*
X-346456Y313690D03*
D37*
X-289941Y313690D03*
D116*
X-264922Y313690D03*
D66*
X-346520Y313817D03*
D115*
X-289941Y313817D03*
D30*
X-264922Y313817D03*
D78*
X-346520Y313944D03*
D119*
X-290005Y313944D03*
D29*
X-264859Y313944D03*
D49*
X-346520Y314071D03*
D137*
X-290005Y314071D03*
D85*
X-264859Y314071D03*
D60*
X-346520Y314198D03*
D84*
X-290132Y314198D03*
X-264859Y314198D03*
D68*
X-346583Y314325D03*
D123*
X-290195Y314325D03*
D23*
X-264859Y314325D03*
D89*
X-290322Y314452D03*
D22*
X-264859Y314452D03*
D77*
X-290449Y314579D03*
D126*
X-264859Y314579D03*
D54*
X-290640Y314706D03*
D87*
X-264859Y314706D03*
D67*
X-290830Y314833D03*
D48*
X-264859Y314833D03*
D25*
X-291338Y314960D03*
D71*
X-264859Y314960D03*
D61*
X-264859Y315087D03*
D45*
X-264859Y315214D03*
D36*
X-264859Y315341D03*
D313*
X-548273Y306437D02*
X-549374Y306437D01*
X-548273Y306437D02*
X-548273Y302768D01*
X-550474Y302768D01*
X-550548Y302770D01*
X-550623Y302776D01*
X-550696Y302785D01*
X-550770Y302798D01*
X-550842Y302815D01*
X-550913Y302835D01*
X-550984Y302859D01*
X-551053Y302887D01*
X-551121Y302918D01*
X-551186Y302952D01*
X-551251Y302990D01*
X-551313Y303031D01*
X-551373Y303075D01*
X-551430Y303122D01*
X-551485Y303172D01*
X-551538Y303225D01*
X-551588Y303280D01*
X-551635Y303337D01*
X-551679Y303397D01*
X-551720Y303459D01*
X-551758Y303524D01*
X-551792Y303590D01*
X-551823Y303657D01*
X-551851Y303726D01*
X-551875Y303797D01*
X-551895Y303868D01*
X-551912Y303941D01*
X-551925Y304014D01*
X-551934Y304088D01*
X-551940Y304162D01*
X-551942Y304236D01*
X-551942Y307904D01*
X-551940Y307978D01*
X-551934Y308053D01*
X-551925Y308126D01*
X-551912Y308199D01*
X-551895Y308272D01*
X-551875Y308343D01*
X-551851Y308414D01*
X-551823Y308483D01*
X-551792Y308550D01*
X-551758Y308616D01*
X-551720Y308681D01*
X-551679Y308743D01*
X-551635Y308803D01*
X-551588Y308860D01*
X-551538Y308915D01*
X-551485Y308968D01*
X-551430Y309018D01*
X-551373Y309065D01*
X-551313Y309109D01*
X-551251Y309150D01*
X-551186Y309188D01*
X-551121Y309222D01*
X-551053Y309253D01*
X-550984Y309281D01*
X-550914Y309305D01*
X-550842Y309325D01*
X-550770Y309342D01*
X-550696Y309355D01*
X-550623Y309364D01*
X-550548Y309370D01*
X-550474Y309372D01*
X-548273Y309372D01*
X-543845Y302768D02*
X-542011Y302768D01*
X-543845Y302768D02*
X-543909Y302770D01*
X-543973Y302775D01*
X-544036Y302785D01*
X-544099Y302798D01*
X-544161Y302814D01*
X-544222Y302834D01*
X-544281Y302858D01*
X-544339Y302885D01*
X-544396Y302916D01*
X-544450Y302949D01*
X-544502Y302986D01*
X-544553Y303026D01*
X-544601Y303068D01*
X-544646Y303113D01*
X-544688Y303161D01*
X-544728Y303212D01*
X-544765Y303264D01*
X-544799Y303319D01*
X-544829Y303375D01*
X-544856Y303433D01*
X-544880Y303492D01*
X-544900Y303553D01*
X-544916Y303615D01*
X-544929Y303678D01*
X-544939Y303741D01*
X-544944Y303805D01*
X-544946Y303869D01*
X-544946Y305703D01*
X-544944Y305779D01*
X-544938Y305854D01*
X-544929Y305929D01*
X-544915Y306003D01*
X-544898Y306077D01*
X-544876Y306149D01*
X-544852Y306221D01*
X-544823Y306291D01*
X-544791Y306359D01*
X-544756Y306426D01*
X-544717Y306491D01*
X-544674Y306554D01*
X-544629Y306614D01*
X-544581Y306672D01*
X-544529Y306728D01*
X-544475Y306780D01*
X-544418Y306830D01*
X-544359Y306877D01*
X-544298Y306921D01*
X-544234Y306962D01*
X-544168Y306999D01*
X-544100Y307033D01*
X-544031Y307063D01*
X-543960Y307090D01*
X-543888Y307113D01*
X-543815Y307132D01*
X-543741Y307147D01*
X-543666Y307159D01*
X-543591Y307167D01*
X-543516Y307171D01*
X-543440Y307171D01*
X-543365Y307167D01*
X-543290Y307159D01*
X-543215Y307147D01*
X-543141Y307132D01*
X-543068Y307113D01*
X-542996Y307090D01*
X-542925Y307063D01*
X-542856Y307033D01*
X-542788Y306999D01*
X-542722Y306962D01*
X-542658Y306921D01*
X-542597Y306877D01*
X-542538Y306830D01*
X-542481Y306780D01*
X-542427Y306728D01*
X-542375Y306672D01*
X-542327Y306614D01*
X-542282Y306554D01*
X-542239Y306491D01*
X-542200Y306426D01*
X-542165Y306359D01*
X-542133Y306291D01*
X-542104Y306221D01*
X-542080Y306149D01*
X-542058Y306077D01*
X-542041Y306003D01*
X-542027Y305929D01*
X-542018Y305854D01*
X-542012Y305779D01*
X-542010Y305703D01*
X-542011Y305703D02*
X-542011Y304969D01*
X-544946Y304969D01*
X-538452Y305336D02*
X-536617Y304602D01*
X-538452Y305336D02*
X-538508Y305361D01*
X-538563Y305389D01*
X-538616Y305420D01*
X-538666Y305455D01*
X-538714Y305494D01*
X-538760Y305535D01*
X-538802Y305579D01*
X-538842Y305626D01*
X-538879Y305675D01*
X-538912Y305726D01*
X-538942Y305780D01*
X-538969Y305835D01*
X-538992Y305892D01*
X-539011Y305950D01*
X-539027Y306009D01*
X-539038Y306070D01*
X-539046Y306131D01*
X-539050Y306192D01*
X-539049Y306253D01*
X-539045Y306314D01*
X-539037Y306375D01*
X-539025Y306436D01*
X-539009Y306495D01*
X-538989Y306553D01*
X-538966Y306610D01*
X-538939Y306665D01*
X-538909Y306718D01*
X-538875Y306769D01*
X-538838Y306818D01*
X-538797Y306864D01*
X-538754Y306908D01*
X-538709Y306949D01*
X-538660Y306987D01*
X-538609Y307021D01*
X-538557Y307053D01*
X-538502Y307080D01*
X-538446Y307105D01*
X-538388Y307125D01*
X-538329Y307142D01*
X-538269Y307155D01*
X-538208Y307164D01*
X-538147Y307169D01*
X-538085Y307170D01*
X-538084Y307171D02*
X-537963Y307167D01*
X-537841Y307160D01*
X-537720Y307149D01*
X-537599Y307135D01*
X-537479Y307118D01*
X-537359Y307096D01*
X-537240Y307072D01*
X-537122Y307044D01*
X-537004Y307012D01*
X-536888Y306977D01*
X-536772Y306939D01*
X-536658Y306897D01*
X-536545Y306852D01*
X-536434Y306804D01*
X-536618Y304602D02*
X-536562Y304577D01*
X-536507Y304549D01*
X-536455Y304518D01*
X-536404Y304483D01*
X-536356Y304444D01*
X-536311Y304403D01*
X-536268Y304359D01*
X-536228Y304312D01*
X-536191Y304263D01*
X-536158Y304212D01*
X-536128Y304158D01*
X-536101Y304103D01*
X-536078Y304046D01*
X-536059Y303988D01*
X-536043Y303929D01*
X-536032Y303868D01*
X-536024Y303807D01*
X-536020Y303746D01*
X-536021Y303685D01*
X-536025Y303624D01*
X-536033Y303563D01*
X-536045Y303502D01*
X-536061Y303443D01*
X-536081Y303385D01*
X-536104Y303328D01*
X-536131Y303273D01*
X-536161Y303220D01*
X-536195Y303169D01*
X-536232Y303120D01*
X-536273Y303074D01*
X-536316Y303030D01*
X-536362Y302989D01*
X-536410Y302951D01*
X-536461Y302917D01*
X-536513Y302885D01*
X-536568Y302858D01*
X-536624Y302833D01*
X-536682Y302813D01*
X-536741Y302796D01*
X-536801Y302783D01*
X-536862Y302774D01*
X-536923Y302769D01*
X-536985Y302768D01*
X-536984Y302768D02*
X-537131Y302771D01*
X-537278Y302779D01*
X-537425Y302790D01*
X-537571Y302804D01*
X-537718Y302822D01*
X-537863Y302843D01*
X-538008Y302867D01*
X-538153Y302895D01*
X-538297Y302927D01*
X-538440Y302962D01*
X-538582Y303000D01*
X-538723Y303041D01*
X-538863Y303086D01*
X-539002Y303135D01*
X-533680Y307171D02*
X-531479Y307171D01*
X-532946Y309372D02*
X-532946Y303869D01*
X-532947Y303869D02*
X-532945Y303805D01*
X-532940Y303741D01*
X-532930Y303678D01*
X-532917Y303615D01*
X-532901Y303553D01*
X-532881Y303492D01*
X-532857Y303433D01*
X-532830Y303375D01*
X-532799Y303318D01*
X-532766Y303264D01*
X-532729Y303212D01*
X-532689Y303161D01*
X-532647Y303113D01*
X-532602Y303068D01*
X-532554Y303026D01*
X-532503Y302986D01*
X-532451Y302949D01*
X-532396Y302915D01*
X-532340Y302885D01*
X-532282Y302858D01*
X-532223Y302834D01*
X-532162Y302814D01*
X-532100Y302798D01*
X-532037Y302785D01*
X-531974Y302775D01*
X-531910Y302770D01*
X-531846Y302768D01*
X-531479Y302768D01*
X-528487Y303869D02*
X-528487Y307171D01*
X-528487Y303869D02*
X-528485Y303805D01*
X-528480Y303741D01*
X-528470Y303678D01*
X-528457Y303615D01*
X-528441Y303553D01*
X-528421Y303492D01*
X-528397Y303433D01*
X-528370Y303375D01*
X-528339Y303319D01*
X-528306Y303264D01*
X-528269Y303212D01*
X-528229Y303161D01*
X-528187Y303113D01*
X-528142Y303068D01*
X-528094Y303026D01*
X-528043Y302986D01*
X-527991Y302949D01*
X-527937Y302916D01*
X-527880Y302885D01*
X-527822Y302858D01*
X-527763Y302834D01*
X-527702Y302814D01*
X-527640Y302798D01*
X-527577Y302785D01*
X-527514Y302775D01*
X-527450Y302770D01*
X-527386Y302768D01*
X-525552Y302768D01*
X-525552Y307171D01*
X-522033Y307171D02*
X-522033Y302768D01*
X-522033Y307171D02*
X-519831Y307171D01*
X-519831Y306437D01*
X-516413Y302768D02*
X-514579Y302768D01*
X-516413Y302768D02*
X-516477Y302770D01*
X-516541Y302775D01*
X-516604Y302785D01*
X-516667Y302798D01*
X-516729Y302814D01*
X-516790Y302834D01*
X-516849Y302858D01*
X-516907Y302885D01*
X-516964Y302916D01*
X-517018Y302949D01*
X-517070Y302986D01*
X-517121Y303026D01*
X-517169Y303068D01*
X-517214Y303113D01*
X-517256Y303161D01*
X-517296Y303212D01*
X-517333Y303264D01*
X-517367Y303319D01*
X-517397Y303375D01*
X-517424Y303433D01*
X-517448Y303492D01*
X-517468Y303553D01*
X-517484Y303615D01*
X-517497Y303678D01*
X-517507Y303741D01*
X-517512Y303805D01*
X-517514Y303869D01*
X-517514Y305703D01*
X-517512Y305779D01*
X-517506Y305854D01*
X-517497Y305929D01*
X-517483Y306003D01*
X-517466Y306077D01*
X-517444Y306149D01*
X-517420Y306221D01*
X-517391Y306291D01*
X-517359Y306359D01*
X-517324Y306426D01*
X-517285Y306491D01*
X-517242Y306554D01*
X-517197Y306614D01*
X-517149Y306672D01*
X-517097Y306728D01*
X-517043Y306780D01*
X-516986Y306830D01*
X-516927Y306877D01*
X-516866Y306921D01*
X-516802Y306962D01*
X-516736Y306999D01*
X-516668Y307033D01*
X-516599Y307063D01*
X-516528Y307090D01*
X-516456Y307113D01*
X-516383Y307132D01*
X-516309Y307147D01*
X-516234Y307159D01*
X-516159Y307167D01*
X-516084Y307171D01*
X-516008Y307171D01*
X-515933Y307167D01*
X-515858Y307159D01*
X-515783Y307147D01*
X-515709Y307132D01*
X-515636Y307113D01*
X-515564Y307090D01*
X-515493Y307063D01*
X-515424Y307033D01*
X-515356Y306999D01*
X-515290Y306962D01*
X-515226Y306921D01*
X-515165Y306877D01*
X-515106Y306830D01*
X-515049Y306780D01*
X-514995Y306728D01*
X-514943Y306672D01*
X-514895Y306614D01*
X-514850Y306554D01*
X-514807Y306491D01*
X-514768Y306426D01*
X-514733Y306359D01*
X-514701Y306291D01*
X-514672Y306221D01*
X-514648Y306149D01*
X-514626Y306077D01*
X-514609Y306003D01*
X-514595Y305929D01*
X-514586Y305854D01*
X-514580Y305779D01*
X-514578Y305703D01*
X-514579Y305703D02*
X-514579Y304969D01*
X-517514Y304969D01*
X-506381Y302768D02*
X-504914Y302768D01*
X-506381Y302768D02*
X-506455Y302770D01*
X-506530Y302776D01*
X-506603Y302785D01*
X-506677Y302798D01*
X-506749Y302815D01*
X-506820Y302835D01*
X-506891Y302859D01*
X-506960Y302887D01*
X-507028Y302918D01*
X-507093Y302952D01*
X-507158Y302990D01*
X-507220Y303031D01*
X-507280Y303075D01*
X-507337Y303122D01*
X-507392Y303172D01*
X-507445Y303225D01*
X-507495Y303280D01*
X-507542Y303337D01*
X-507586Y303397D01*
X-507627Y303459D01*
X-507665Y303524D01*
X-507699Y303590D01*
X-507730Y303657D01*
X-507758Y303726D01*
X-507782Y303797D01*
X-507802Y303868D01*
X-507819Y303941D01*
X-507832Y304014D01*
X-507841Y304088D01*
X-507847Y304162D01*
X-507849Y304236D01*
X-507849Y307904D01*
X-507847Y307978D01*
X-507841Y308053D01*
X-507832Y308126D01*
X-507819Y308199D01*
X-507802Y308272D01*
X-507782Y308343D01*
X-507758Y308414D01*
X-507730Y308483D01*
X-507699Y308550D01*
X-507665Y308616D01*
X-507627Y308681D01*
X-507586Y308743D01*
X-507542Y308803D01*
X-507495Y308860D01*
X-507445Y308915D01*
X-507392Y308968D01*
X-507337Y309018D01*
X-507280Y309065D01*
X-507220Y309109D01*
X-507158Y309150D01*
X-507093Y309188D01*
X-507028Y309222D01*
X-506960Y309253D01*
X-506891Y309281D01*
X-506821Y309305D01*
X-506749Y309325D01*
X-506677Y309342D01*
X-506603Y309355D01*
X-506530Y309364D01*
X-506455Y309370D01*
X-506381Y309372D01*
X-504914Y309372D01*
X-500961Y305336D02*
X-499310Y305336D01*
X-500961Y305336D02*
X-501032Y305334D01*
X-501102Y305328D01*
X-501172Y305318D01*
X-501242Y305305D01*
X-501310Y305288D01*
X-501378Y305266D01*
X-501444Y305242D01*
X-501509Y305213D01*
X-501572Y305181D01*
X-501633Y305146D01*
X-501693Y305107D01*
X-501750Y305065D01*
X-501804Y305020D01*
X-501856Y304972D01*
X-501906Y304922D01*
X-501952Y304868D01*
X-501996Y304812D01*
X-502036Y304754D01*
X-502073Y304694D01*
X-502107Y304632D01*
X-502137Y304568D01*
X-502163Y304502D01*
X-502186Y304435D01*
X-502206Y304367D01*
X-502221Y304298D01*
X-502233Y304228D01*
X-502241Y304158D01*
X-502245Y304087D01*
X-502245Y304017D01*
X-502241Y303946D01*
X-502233Y303876D01*
X-502221Y303806D01*
X-502206Y303737D01*
X-502186Y303669D01*
X-502163Y303602D01*
X-502137Y303536D01*
X-502107Y303472D01*
X-502073Y303410D01*
X-502036Y303350D01*
X-501996Y303292D01*
X-501952Y303236D01*
X-501906Y303182D01*
X-501856Y303132D01*
X-501804Y303084D01*
X-501750Y303039D01*
X-501693Y302997D01*
X-501633Y302958D01*
X-501572Y302923D01*
X-501509Y302891D01*
X-501444Y302862D01*
X-501378Y302838D01*
X-501310Y302816D01*
X-501242Y302799D01*
X-501172Y302786D01*
X-501102Y302776D01*
X-501032Y302770D01*
X-500961Y302768D01*
X-499310Y302768D01*
X-499310Y306070D01*
X-499309Y306070D02*
X-499311Y306134D01*
X-499316Y306198D01*
X-499326Y306261D01*
X-499339Y306324D01*
X-499355Y306386D01*
X-499375Y306447D01*
X-499399Y306506D01*
X-499426Y306564D01*
X-499457Y306621D01*
X-499490Y306675D01*
X-499527Y306727D01*
X-499567Y306778D01*
X-499609Y306826D01*
X-499654Y306871D01*
X-499702Y306913D01*
X-499753Y306953D01*
X-499805Y306990D01*
X-499860Y307024D01*
X-499916Y307054D01*
X-499974Y307081D01*
X-500033Y307105D01*
X-500094Y307125D01*
X-500156Y307141D01*
X-500219Y307154D01*
X-500282Y307164D01*
X-500346Y307169D01*
X-500410Y307171D01*
X-501878Y307171D01*
X-495982Y309372D02*
X-495982Y303869D01*
X-495980Y303805D01*
X-495975Y303741D01*
X-495965Y303678D01*
X-495952Y303615D01*
X-495936Y303553D01*
X-495916Y303492D01*
X-495892Y303433D01*
X-495865Y303375D01*
X-495834Y303319D01*
X-495801Y303264D01*
X-495764Y303212D01*
X-495724Y303161D01*
X-495682Y303113D01*
X-495637Y303068D01*
X-495589Y303026D01*
X-495538Y302986D01*
X-495486Y302949D01*
X-495432Y302916D01*
X-495375Y302885D01*
X-495317Y302858D01*
X-495258Y302834D01*
X-495197Y302814D01*
X-495135Y302798D01*
X-495072Y302785D01*
X-495009Y302775D01*
X-494945Y302770D01*
X-494881Y302768D01*
X-491257Y302768D02*
X-489789Y302768D01*
X-491257Y302768D02*
X-491321Y302770D01*
X-491385Y302775D01*
X-491448Y302785D01*
X-491511Y302798D01*
X-491573Y302814D01*
X-491634Y302834D01*
X-491693Y302858D01*
X-491751Y302885D01*
X-491808Y302916D01*
X-491862Y302949D01*
X-491914Y302986D01*
X-491965Y303026D01*
X-492013Y303068D01*
X-492058Y303113D01*
X-492100Y303161D01*
X-492140Y303212D01*
X-492177Y303264D01*
X-492211Y303319D01*
X-492241Y303375D01*
X-492268Y303433D01*
X-492292Y303492D01*
X-492312Y303553D01*
X-492328Y303615D01*
X-492341Y303678D01*
X-492351Y303741D01*
X-492356Y303805D01*
X-492358Y303869D01*
X-492357Y303869D02*
X-492357Y306070D01*
X-492358Y306070D02*
X-492356Y306134D01*
X-492351Y306198D01*
X-492341Y306261D01*
X-492328Y306324D01*
X-492312Y306386D01*
X-492292Y306447D01*
X-492268Y306506D01*
X-492241Y306564D01*
X-492210Y306621D01*
X-492177Y306675D01*
X-492140Y306727D01*
X-492100Y306778D01*
X-492058Y306826D01*
X-492013Y306871D01*
X-491965Y306913D01*
X-491914Y306953D01*
X-491862Y306990D01*
X-491808Y307023D01*
X-491751Y307054D01*
X-491693Y307081D01*
X-491634Y307105D01*
X-491573Y307125D01*
X-491511Y307141D01*
X-491448Y307154D01*
X-491385Y307164D01*
X-491321Y307169D01*
X-491257Y307171D01*
X-489789Y307171D01*
X-486882Y307171D02*
X-486882Y303869D01*
X-486880Y303805D01*
X-486875Y303741D01*
X-486865Y303678D01*
X-486852Y303615D01*
X-486836Y303553D01*
X-486816Y303492D01*
X-486792Y303433D01*
X-486765Y303375D01*
X-486734Y303319D01*
X-486701Y303264D01*
X-486664Y303212D01*
X-486624Y303161D01*
X-486582Y303113D01*
X-486537Y303068D01*
X-486489Y303026D01*
X-486438Y302986D01*
X-486386Y302949D01*
X-486332Y302916D01*
X-486275Y302885D01*
X-486217Y302858D01*
X-486158Y302834D01*
X-486097Y302814D01*
X-486035Y302798D01*
X-485972Y302785D01*
X-485909Y302775D01*
X-485845Y302770D01*
X-485781Y302768D01*
X-483947Y302768D01*
X-483947Y307171D01*
X-480666Y309372D02*
X-480666Y303869D01*
X-480664Y303805D01*
X-480659Y303741D01*
X-480649Y303678D01*
X-480636Y303615D01*
X-480620Y303553D01*
X-480600Y303492D01*
X-480576Y303433D01*
X-480549Y303375D01*
X-480518Y303319D01*
X-480485Y303264D01*
X-480448Y303212D01*
X-480408Y303161D01*
X-480366Y303113D01*
X-480321Y303068D01*
X-480273Y303026D01*
X-480222Y302986D01*
X-480170Y302949D01*
X-480116Y302916D01*
X-480059Y302885D01*
X-480001Y302858D01*
X-479942Y302834D01*
X-479881Y302814D01*
X-479819Y302798D01*
X-479756Y302785D01*
X-479693Y302775D01*
X-479629Y302770D01*
X-479565Y302768D01*
X-475815Y305336D02*
X-474164Y305336D01*
X-475815Y305336D02*
X-475886Y305334D01*
X-475956Y305328D01*
X-476026Y305318D01*
X-476096Y305305D01*
X-476164Y305288D01*
X-476232Y305266D01*
X-476298Y305242D01*
X-476363Y305213D01*
X-476426Y305181D01*
X-476487Y305146D01*
X-476547Y305107D01*
X-476604Y305065D01*
X-476658Y305020D01*
X-476710Y304972D01*
X-476760Y304922D01*
X-476806Y304868D01*
X-476850Y304812D01*
X-476890Y304754D01*
X-476927Y304694D01*
X-476961Y304632D01*
X-476991Y304568D01*
X-477017Y304502D01*
X-477040Y304435D01*
X-477060Y304367D01*
X-477075Y304298D01*
X-477087Y304228D01*
X-477095Y304158D01*
X-477099Y304087D01*
X-477099Y304017D01*
X-477095Y303946D01*
X-477087Y303876D01*
X-477075Y303806D01*
X-477060Y303737D01*
X-477040Y303669D01*
X-477017Y303602D01*
X-476991Y303536D01*
X-476961Y303472D01*
X-476927Y303410D01*
X-476890Y303350D01*
X-476850Y303292D01*
X-476806Y303236D01*
X-476760Y303182D01*
X-476710Y303132D01*
X-476658Y303084D01*
X-476604Y303039D01*
X-476547Y302997D01*
X-476487Y302958D01*
X-476426Y302923D01*
X-476363Y302891D01*
X-476298Y302862D01*
X-476232Y302838D01*
X-476164Y302816D01*
X-476096Y302799D01*
X-476026Y302786D01*
X-475956Y302776D01*
X-475886Y302770D01*
X-475815Y302768D01*
X-474164Y302768D01*
X-474164Y306070D01*
X-474166Y306134D01*
X-474171Y306198D01*
X-474181Y306261D01*
X-474194Y306324D01*
X-474210Y306386D01*
X-474230Y306447D01*
X-474254Y306506D01*
X-474281Y306564D01*
X-474312Y306621D01*
X-474345Y306675D01*
X-474382Y306727D01*
X-474422Y306778D01*
X-474464Y306826D01*
X-474509Y306871D01*
X-474557Y306913D01*
X-474608Y306953D01*
X-474660Y306990D01*
X-474715Y307024D01*
X-474771Y307054D01*
X-474829Y307081D01*
X-474888Y307105D01*
X-474949Y307125D01*
X-475011Y307141D01*
X-475074Y307154D01*
X-475137Y307164D01*
X-475201Y307169D01*
X-475265Y307171D01*
X-476732Y307171D01*
X-471501Y307171D02*
X-469300Y307171D01*
X-470767Y309372D02*
X-470767Y303869D01*
X-470768Y303869D02*
X-470766Y303805D01*
X-470761Y303741D01*
X-470751Y303678D01*
X-470738Y303615D01*
X-470722Y303553D01*
X-470702Y303492D01*
X-470678Y303433D01*
X-470651Y303375D01*
X-470620Y303318D01*
X-470587Y303264D01*
X-470550Y303212D01*
X-470510Y303161D01*
X-470468Y303113D01*
X-470423Y303068D01*
X-470375Y303026D01*
X-470324Y302986D01*
X-470272Y302949D01*
X-470217Y302915D01*
X-470161Y302885D01*
X-470103Y302858D01*
X-470044Y302834D01*
X-469983Y302814D01*
X-469921Y302798D01*
X-469858Y302785D01*
X-469795Y302775D01*
X-469731Y302770D01*
X-469667Y302768D01*
X-469300Y302768D01*
X-466536Y304236D02*
X-466536Y305703D01*
X-466537Y305703D02*
X-466535Y305779D01*
X-466529Y305854D01*
X-466520Y305929D01*
X-466506Y306003D01*
X-466489Y306077D01*
X-466467Y306149D01*
X-466443Y306221D01*
X-466414Y306291D01*
X-466382Y306359D01*
X-466347Y306426D01*
X-466308Y306491D01*
X-466265Y306554D01*
X-466220Y306614D01*
X-466172Y306672D01*
X-466120Y306728D01*
X-466066Y306780D01*
X-466009Y306830D01*
X-465950Y306877D01*
X-465889Y306921D01*
X-465825Y306962D01*
X-465759Y306999D01*
X-465691Y307033D01*
X-465622Y307063D01*
X-465551Y307090D01*
X-465479Y307113D01*
X-465406Y307132D01*
X-465332Y307147D01*
X-465257Y307159D01*
X-465182Y307167D01*
X-465107Y307171D01*
X-465031Y307171D01*
X-464956Y307167D01*
X-464881Y307159D01*
X-464806Y307147D01*
X-464732Y307132D01*
X-464659Y307113D01*
X-464587Y307090D01*
X-464516Y307063D01*
X-464447Y307033D01*
X-464379Y306999D01*
X-464313Y306962D01*
X-464249Y306921D01*
X-464188Y306877D01*
X-464129Y306830D01*
X-464072Y306780D01*
X-464018Y306728D01*
X-463966Y306672D01*
X-463918Y306614D01*
X-463873Y306554D01*
X-463830Y306491D01*
X-463791Y306426D01*
X-463756Y306359D01*
X-463724Y306291D01*
X-463695Y306221D01*
X-463671Y306149D01*
X-463649Y306077D01*
X-463632Y306003D01*
X-463618Y305929D01*
X-463609Y305854D01*
X-463603Y305779D01*
X-463601Y305703D01*
X-463601Y304236D01*
X-463603Y304160D01*
X-463609Y304085D01*
X-463618Y304010D01*
X-463632Y303936D01*
X-463649Y303862D01*
X-463671Y303790D01*
X-463695Y303718D01*
X-463724Y303648D01*
X-463756Y303580D01*
X-463791Y303513D01*
X-463830Y303448D01*
X-463873Y303385D01*
X-463918Y303325D01*
X-463966Y303267D01*
X-464018Y303211D01*
X-464072Y303159D01*
X-464129Y303109D01*
X-464188Y303062D01*
X-464249Y303018D01*
X-464313Y302977D01*
X-464379Y302940D01*
X-464447Y302906D01*
X-464516Y302876D01*
X-464587Y302849D01*
X-464659Y302826D01*
X-464732Y302807D01*
X-464806Y302792D01*
X-464881Y302780D01*
X-464956Y302772D01*
X-465031Y302768D01*
X-465107Y302768D01*
X-465182Y302772D01*
X-465257Y302780D01*
X-465332Y302792D01*
X-465406Y302807D01*
X-465479Y302826D01*
X-465551Y302849D01*
X-465622Y302876D01*
X-465691Y302906D01*
X-465759Y302940D01*
X-465825Y302977D01*
X-465889Y303018D01*
X-465950Y303062D01*
X-466009Y303109D01*
X-466066Y303159D01*
X-466120Y303211D01*
X-466172Y303267D01*
X-466220Y303325D01*
X-466265Y303385D01*
X-466308Y303448D01*
X-466347Y303513D01*
X-466382Y303580D01*
X-466414Y303648D01*
X-466443Y303718D01*
X-466467Y303790D01*
X-466489Y303862D01*
X-466506Y303936D01*
X-466520Y304010D01*
X-466529Y304085D01*
X-466535Y304160D01*
X-466537Y304236D01*
X-460311Y302768D02*
X-460311Y307171D01*
X-458110Y307171D01*
X-458110Y306437D01*
X-549007Y291338D02*
X-551942Y291338D01*
X-551942Y297942D01*
X-549007Y297942D01*
X-549741Y295007D02*
X-551942Y295007D01*
X-546017Y297942D02*
X-546017Y291338D01*
X-542348Y291338D02*
X-546017Y297942D01*
X-542348Y297942D02*
X-542348Y291338D01*
X-536133Y295007D02*
X-535032Y295007D01*
X-535032Y291338D01*
X-537234Y291338D01*
X-537308Y291340D01*
X-537383Y291346D01*
X-537456Y291355D01*
X-537530Y291368D01*
X-537602Y291385D01*
X-537673Y291405D01*
X-537744Y291429D01*
X-537813Y291457D01*
X-537881Y291488D01*
X-537946Y291522D01*
X-538011Y291560D01*
X-538073Y291601D01*
X-538133Y291645D01*
X-538190Y291692D01*
X-538245Y291742D01*
X-538298Y291795D01*
X-538348Y291850D01*
X-538395Y291907D01*
X-538439Y291967D01*
X-538480Y292029D01*
X-538518Y292094D01*
X-538552Y292160D01*
X-538583Y292227D01*
X-538611Y292296D01*
X-538635Y292367D01*
X-538655Y292438D01*
X-538672Y292511D01*
X-538685Y292584D01*
X-538694Y292658D01*
X-538700Y292732D01*
X-538702Y292806D01*
X-538701Y292806D02*
X-538701Y296474D01*
X-538702Y296474D02*
X-538700Y296548D01*
X-538694Y296623D01*
X-538685Y296696D01*
X-538672Y296769D01*
X-538655Y296842D01*
X-538635Y296913D01*
X-538611Y296984D01*
X-538583Y297053D01*
X-538552Y297120D01*
X-538518Y297186D01*
X-538480Y297251D01*
X-538439Y297313D01*
X-538395Y297373D01*
X-538348Y297430D01*
X-538298Y297485D01*
X-538245Y297538D01*
X-538190Y297588D01*
X-538133Y297635D01*
X-538073Y297679D01*
X-538011Y297720D01*
X-537946Y297758D01*
X-537881Y297792D01*
X-537813Y297823D01*
X-537744Y297851D01*
X-537674Y297875D01*
X-537602Y297895D01*
X-537530Y297912D01*
X-537456Y297925D01*
X-537383Y297934D01*
X-537308Y297940D01*
X-537234Y297942D01*
X-535032Y297942D01*
X-531152Y297942D02*
X-531152Y291338D01*
X-531886Y291338D02*
X-530418Y291338D01*
X-530418Y297942D02*
X-531886Y297942D01*
X-523842Y291338D02*
X-522008Y291338D01*
X-521923Y291340D01*
X-521839Y291346D01*
X-521755Y291356D01*
X-521671Y291369D01*
X-521588Y291387D01*
X-521506Y291408D01*
X-521425Y291433D01*
X-521345Y291462D01*
X-521267Y291494D01*
X-521191Y291530D01*
X-521116Y291570D01*
X-521043Y291613D01*
X-520972Y291659D01*
X-520903Y291708D01*
X-520836Y291761D01*
X-520772Y291817D01*
X-520711Y291875D01*
X-520653Y291936D01*
X-520597Y292000D01*
X-520544Y292067D01*
X-520495Y292136D01*
X-520449Y292207D01*
X-520406Y292280D01*
X-520366Y292355D01*
X-520330Y292431D01*
X-520298Y292509D01*
X-520269Y292589D01*
X-520244Y292670D01*
X-520223Y292752D01*
X-520205Y292835D01*
X-520192Y292919D01*
X-520182Y293003D01*
X-520176Y293087D01*
X-520174Y293172D01*
X-520176Y293257D01*
X-520182Y293341D01*
X-520192Y293425D01*
X-520205Y293509D01*
X-520223Y293592D01*
X-520244Y293674D01*
X-520269Y293755D01*
X-520298Y293835D01*
X-520330Y293913D01*
X-520366Y293989D01*
X-520406Y294064D01*
X-520449Y294137D01*
X-520495Y294208D01*
X-520544Y294277D01*
X-520597Y294344D01*
X-520653Y294408D01*
X-520711Y294469D01*
X-520772Y294527D01*
X-520836Y294583D01*
X-520903Y294636D01*
X-520972Y294685D01*
X-521043Y294731D01*
X-521116Y294774D01*
X-521191Y294814D01*
X-521267Y294850D01*
X-521345Y294882D01*
X-521425Y294911D01*
X-521506Y294936D01*
X-521588Y294957D01*
X-521671Y294975D01*
X-521755Y294988D01*
X-521839Y294998D01*
X-521923Y295004D01*
X-522008Y295006D01*
X-521641Y297942D02*
X-523842Y297942D01*
X-521641Y297942D02*
X-521565Y297940D01*
X-521490Y297934D01*
X-521415Y297925D01*
X-521341Y297911D01*
X-521267Y297894D01*
X-521195Y297872D01*
X-521123Y297848D01*
X-521053Y297819D01*
X-520985Y297787D01*
X-520918Y297752D01*
X-520853Y297713D01*
X-520790Y297670D01*
X-520730Y297625D01*
X-520672Y297577D01*
X-520616Y297525D01*
X-520564Y297471D01*
X-520514Y297414D01*
X-520467Y297355D01*
X-520423Y297294D01*
X-520382Y297230D01*
X-520345Y297164D01*
X-520311Y297096D01*
X-520281Y297027D01*
X-520254Y296956D01*
X-520231Y296884D01*
X-520212Y296811D01*
X-520197Y296737D01*
X-520185Y296662D01*
X-520177Y296587D01*
X-520173Y296512D01*
X-520173Y296436D01*
X-520177Y296361D01*
X-520185Y296286D01*
X-520197Y296211D01*
X-520212Y296137D01*
X-520231Y296064D01*
X-520254Y295992D01*
X-520281Y295921D01*
X-520311Y295852D01*
X-520345Y295784D01*
X-520382Y295718D01*
X-520423Y295654D01*
X-520467Y295593D01*
X-520514Y295534D01*
X-520564Y295477D01*
X-520616Y295423D01*
X-520672Y295371D01*
X-520730Y295323D01*
X-520790Y295278D01*
X-520853Y295235D01*
X-520918Y295196D01*
X-520985Y295161D01*
X-521053Y295129D01*
X-521123Y295100D01*
X-521195Y295076D01*
X-521267Y295054D01*
X-521341Y295037D01*
X-521415Y295023D01*
X-521490Y295014D01*
X-521565Y295008D01*
X-521641Y295006D01*
X-521641Y295007D02*
X-523109Y295007D01*
X-516984Y294640D02*
X-516982Y294785D01*
X-516976Y294930D01*
X-516967Y295075D01*
X-516953Y295220D01*
X-516936Y295364D01*
X-516914Y295507D01*
X-516889Y295651D01*
X-516860Y295793D01*
X-516828Y295934D01*
X-516791Y296075D01*
X-516751Y296214D01*
X-516707Y296353D01*
X-516660Y296490D01*
X-516609Y296626D01*
X-516554Y296760D01*
X-516496Y296893D01*
X-516434Y297025D01*
X-516435Y297025D02*
X-516409Y297094D01*
X-516380Y297161D01*
X-516347Y297227D01*
X-516311Y297290D01*
X-516271Y297352D01*
X-516228Y297411D01*
X-516182Y297468D01*
X-516133Y297522D01*
X-516081Y297574D01*
X-516026Y297623D01*
X-515969Y297668D01*
X-515909Y297711D01*
X-515847Y297750D01*
X-515784Y297786D01*
X-515718Y297819D01*
X-515651Y297847D01*
X-515582Y297873D01*
X-515512Y297894D01*
X-515441Y297912D01*
X-515369Y297925D01*
X-515296Y297935D01*
X-515223Y297941D01*
X-515150Y297943D01*
X-515150Y297942D02*
X-515077Y297940D01*
X-515004Y297934D01*
X-514931Y297924D01*
X-514860Y297911D01*
X-514788Y297893D01*
X-514718Y297872D01*
X-514650Y297846D01*
X-514582Y297818D01*
X-514517Y297785D01*
X-514453Y297749D01*
X-514391Y297710D01*
X-514332Y297668D01*
X-514275Y297622D01*
X-514220Y297573D01*
X-514168Y297522D01*
X-514119Y297467D01*
X-514073Y297410D01*
X-514030Y297351D01*
X-513990Y297290D01*
X-513954Y297226D01*
X-513921Y297161D01*
X-513892Y297094D01*
X-513866Y297025D01*
X-513865Y297025D02*
X-513803Y296893D01*
X-513745Y296760D01*
X-513690Y296626D01*
X-513639Y296490D01*
X-513592Y296353D01*
X-513548Y296214D01*
X-513508Y296075D01*
X-513471Y295934D01*
X-513439Y295793D01*
X-513410Y295651D01*
X-513385Y295508D01*
X-513363Y295364D01*
X-513346Y295220D01*
X-513332Y295075D01*
X-513323Y294930D01*
X-513317Y294785D01*
X-513315Y294640D01*
X-516984Y294640D02*
X-516982Y294495D01*
X-516976Y294350D01*
X-516967Y294205D01*
X-516953Y294060D01*
X-516936Y293916D01*
X-516914Y293773D01*
X-516889Y293630D01*
X-516861Y293487D01*
X-516828Y293346D01*
X-516791Y293205D01*
X-516751Y293066D01*
X-516707Y292927D01*
X-516660Y292790D01*
X-516609Y292654D01*
X-516554Y292520D01*
X-516496Y292387D01*
X-516434Y292255D01*
X-516435Y292256D02*
X-516409Y292187D01*
X-516380Y292120D01*
X-516347Y292054D01*
X-516311Y291991D01*
X-516271Y291929D01*
X-516228Y291870D01*
X-516182Y291813D01*
X-516133Y291759D01*
X-516081Y291707D01*
X-516026Y291658D01*
X-515969Y291613D01*
X-515909Y291570D01*
X-515847Y291531D01*
X-515784Y291495D01*
X-515718Y291462D01*
X-515651Y291434D01*
X-515582Y291408D01*
X-515512Y291387D01*
X-515441Y291369D01*
X-515369Y291356D01*
X-515296Y291346D01*
X-515223Y291340D01*
X-515150Y291338D01*
X-513866Y292255D02*
X-513804Y292387D01*
X-513746Y292520D01*
X-513691Y292654D01*
X-513640Y292790D01*
X-513593Y292927D01*
X-513549Y293066D01*
X-513509Y293205D01*
X-513472Y293346D01*
X-513440Y293487D01*
X-513411Y293629D01*
X-513386Y293772D01*
X-513364Y293916D01*
X-513347Y294060D01*
X-513333Y294205D01*
X-513324Y294350D01*
X-513318Y294495D01*
X-513316Y294640D01*
X-513866Y292255D02*
X-513892Y292186D01*
X-513921Y292119D01*
X-513954Y292054D01*
X-513990Y291990D01*
X-514030Y291929D01*
X-514073Y291870D01*
X-514119Y291813D01*
X-514168Y291758D01*
X-514220Y291707D01*
X-514275Y291658D01*
X-514332Y291612D01*
X-514391Y291570D01*
X-514453Y291531D01*
X-514517Y291495D01*
X-514582Y291462D01*
X-514650Y291434D01*
X-514718Y291408D01*
X-514788Y291387D01*
X-514860Y291369D01*
X-514931Y291356D01*
X-515004Y291346D01*
X-515077Y291340D01*
X-515150Y291338D01*
X-516617Y292806D02*
X-513682Y296474D01*
X-510126Y296474D02*
X-508292Y297942D01*
X-508292Y291338D01*
X-510126Y291338D02*
X-506457Y291338D01*
X-549741Y286512D02*
X-551942Y279908D01*
X-547539Y279908D02*
X-549741Y286512D01*
X-548090Y281559D02*
X-551392Y281559D01*
X-544579Y279908D02*
X-544579Y284311D01*
X-542744Y284311D01*
X-542680Y284309D01*
X-542616Y284304D01*
X-542553Y284294D01*
X-542490Y284281D01*
X-542428Y284265D01*
X-542367Y284245D01*
X-542308Y284221D01*
X-542250Y284194D01*
X-542194Y284163D01*
X-542139Y284130D01*
X-542087Y284093D01*
X-542036Y284053D01*
X-541988Y284011D01*
X-541943Y283966D01*
X-541901Y283918D01*
X-541861Y283867D01*
X-541824Y283815D01*
X-541791Y283761D01*
X-541760Y283704D01*
X-541733Y283646D01*
X-541709Y283587D01*
X-541689Y283526D01*
X-541673Y283464D01*
X-541660Y283401D01*
X-541650Y283338D01*
X-541645Y283274D01*
X-541643Y283210D01*
X-541644Y283210D02*
X-541644Y279908D01*
X-535519Y279908D02*
X-535519Y286512D01*
X-535519Y279908D02*
X-537353Y279908D01*
X-537417Y279910D01*
X-537481Y279915D01*
X-537544Y279925D01*
X-537607Y279938D01*
X-537669Y279954D01*
X-537730Y279974D01*
X-537789Y279998D01*
X-537847Y280025D01*
X-537904Y280056D01*
X-537958Y280089D01*
X-538010Y280126D01*
X-538061Y280166D01*
X-538109Y280208D01*
X-538154Y280253D01*
X-538196Y280301D01*
X-538236Y280352D01*
X-538273Y280404D01*
X-538307Y280459D01*
X-538337Y280515D01*
X-538364Y280573D01*
X-538388Y280632D01*
X-538408Y280693D01*
X-538424Y280755D01*
X-538437Y280818D01*
X-538447Y280881D01*
X-538452Y280945D01*
X-538454Y281009D01*
X-538454Y283210D01*
X-538452Y283274D01*
X-538447Y283338D01*
X-538437Y283401D01*
X-538424Y283464D01*
X-538408Y283526D01*
X-538388Y283587D01*
X-538364Y283646D01*
X-538337Y283704D01*
X-538306Y283761D01*
X-538273Y283815D01*
X-538236Y283867D01*
X-538196Y283918D01*
X-538154Y283966D01*
X-538109Y284011D01*
X-538061Y284053D01*
X-538010Y284093D01*
X-537958Y284130D01*
X-537904Y284163D01*
X-537847Y284194D01*
X-537789Y284221D01*
X-537730Y284245D01*
X-537669Y284265D01*
X-537607Y284281D01*
X-537544Y284294D01*
X-537481Y284304D01*
X-537417Y284309D01*
X-537353Y284311D01*
X-535519Y284311D01*
X-531953Y284311D02*
X-531953Y279908D01*
X-531953Y284311D02*
X-529751Y284311D01*
X-529751Y283577D01*
X-526333Y279908D02*
X-524499Y279908D01*
X-526333Y279908D02*
X-526397Y279910D01*
X-526461Y279915D01*
X-526524Y279925D01*
X-526587Y279938D01*
X-526649Y279954D01*
X-526710Y279974D01*
X-526769Y279998D01*
X-526827Y280025D01*
X-526884Y280056D01*
X-526938Y280089D01*
X-526990Y280126D01*
X-527041Y280166D01*
X-527089Y280208D01*
X-527134Y280253D01*
X-527176Y280301D01*
X-527216Y280352D01*
X-527253Y280404D01*
X-527287Y280459D01*
X-527317Y280515D01*
X-527344Y280573D01*
X-527368Y280632D01*
X-527388Y280693D01*
X-527404Y280755D01*
X-527417Y280818D01*
X-527427Y280881D01*
X-527432Y280945D01*
X-527434Y281009D01*
X-527434Y282843D01*
X-527432Y282919D01*
X-527426Y282994D01*
X-527417Y283069D01*
X-527403Y283143D01*
X-527386Y283217D01*
X-527364Y283289D01*
X-527340Y283361D01*
X-527311Y283431D01*
X-527279Y283499D01*
X-527244Y283566D01*
X-527205Y283631D01*
X-527162Y283694D01*
X-527117Y283754D01*
X-527069Y283812D01*
X-527017Y283868D01*
X-526963Y283920D01*
X-526906Y283970D01*
X-526847Y284017D01*
X-526786Y284061D01*
X-526722Y284102D01*
X-526656Y284139D01*
X-526588Y284173D01*
X-526519Y284203D01*
X-526448Y284230D01*
X-526376Y284253D01*
X-526303Y284272D01*
X-526229Y284287D01*
X-526154Y284299D01*
X-526079Y284307D01*
X-526004Y284311D01*
X-525928Y284311D01*
X-525853Y284307D01*
X-525778Y284299D01*
X-525703Y284287D01*
X-525629Y284272D01*
X-525556Y284253D01*
X-525484Y284230D01*
X-525413Y284203D01*
X-525344Y284173D01*
X-525276Y284139D01*
X-525210Y284102D01*
X-525146Y284061D01*
X-525085Y284017D01*
X-525026Y283970D01*
X-524969Y283920D01*
X-524915Y283868D01*
X-524863Y283812D01*
X-524815Y283754D01*
X-524770Y283694D01*
X-524727Y283631D01*
X-524688Y283566D01*
X-524653Y283499D01*
X-524621Y283431D01*
X-524592Y283361D01*
X-524568Y283289D01*
X-524546Y283217D01*
X-524529Y283143D01*
X-524515Y283069D01*
X-524506Y282994D01*
X-524500Y282919D01*
X-524498Y282843D01*
X-524499Y282843D02*
X-524499Y282109D01*
X-527434Y282109D01*
X-521623Y279908D02*
X-521623Y284311D01*
X-521806Y286145D02*
X-521806Y286512D01*
X-521440Y286512D01*
X-521440Y286145D01*
X-521806Y286145D01*
X-514680Y286512D02*
X-514680Y279908D01*
X-512479Y282843D02*
X-514680Y286512D01*
X-512479Y282843D02*
X-510278Y286512D01*
X-510278Y279908D01*
X-506993Y279908D02*
X-506993Y284311D01*
X-507176Y286145D02*
X-507176Y286512D01*
X-506809Y286512D01*
X-506809Y286145D01*
X-507176Y286145D01*
X-504738Y284311D02*
X-502537Y284311D01*
X-504005Y286512D02*
X-504005Y281009D01*
X-504003Y280945D01*
X-503998Y280881D01*
X-503988Y280818D01*
X-503975Y280755D01*
X-503959Y280693D01*
X-503939Y280632D01*
X-503915Y280573D01*
X-503888Y280515D01*
X-503857Y280458D01*
X-503824Y280404D01*
X-503787Y280352D01*
X-503747Y280301D01*
X-503705Y280253D01*
X-503660Y280208D01*
X-503612Y280166D01*
X-503561Y280126D01*
X-503509Y280089D01*
X-503454Y280055D01*
X-503398Y280025D01*
X-503340Y279998D01*
X-503281Y279974D01*
X-503220Y279954D01*
X-503158Y279938D01*
X-503095Y279925D01*
X-503032Y279915D01*
X-502968Y279910D01*
X-502904Y279908D01*
X-502537Y279908D01*
X-499492Y279908D02*
X-499492Y284311D01*
X-497290Y284311D01*
X-497290Y283577D01*
X-494973Y282843D02*
X-494973Y281376D01*
X-494973Y282843D02*
X-494971Y282919D01*
X-494965Y282994D01*
X-494956Y283069D01*
X-494942Y283143D01*
X-494925Y283217D01*
X-494903Y283289D01*
X-494879Y283361D01*
X-494850Y283431D01*
X-494818Y283499D01*
X-494783Y283566D01*
X-494744Y283631D01*
X-494701Y283694D01*
X-494656Y283754D01*
X-494608Y283812D01*
X-494556Y283868D01*
X-494502Y283920D01*
X-494445Y283970D01*
X-494386Y284017D01*
X-494325Y284061D01*
X-494261Y284102D01*
X-494195Y284139D01*
X-494127Y284173D01*
X-494058Y284203D01*
X-493987Y284230D01*
X-493915Y284253D01*
X-493842Y284272D01*
X-493768Y284287D01*
X-493693Y284299D01*
X-493618Y284307D01*
X-493543Y284311D01*
X-493467Y284311D01*
X-493392Y284307D01*
X-493317Y284299D01*
X-493242Y284287D01*
X-493168Y284272D01*
X-493095Y284253D01*
X-493023Y284230D01*
X-492952Y284203D01*
X-492883Y284173D01*
X-492815Y284139D01*
X-492749Y284102D01*
X-492685Y284061D01*
X-492624Y284017D01*
X-492565Y283970D01*
X-492508Y283920D01*
X-492454Y283868D01*
X-492402Y283812D01*
X-492354Y283754D01*
X-492309Y283694D01*
X-492266Y283631D01*
X-492227Y283566D01*
X-492192Y283499D01*
X-492160Y283431D01*
X-492131Y283361D01*
X-492107Y283289D01*
X-492085Y283217D01*
X-492068Y283143D01*
X-492054Y283069D01*
X-492045Y282994D01*
X-492039Y282919D01*
X-492037Y282843D01*
X-492038Y282843D02*
X-492038Y281376D01*
X-492037Y281376D02*
X-492039Y281300D01*
X-492045Y281225D01*
X-492054Y281150D01*
X-492068Y281076D01*
X-492085Y281002D01*
X-492107Y280930D01*
X-492131Y280858D01*
X-492160Y280788D01*
X-492192Y280720D01*
X-492227Y280653D01*
X-492266Y280588D01*
X-492309Y280525D01*
X-492354Y280465D01*
X-492402Y280407D01*
X-492454Y280351D01*
X-492508Y280299D01*
X-492565Y280249D01*
X-492624Y280202D01*
X-492685Y280158D01*
X-492749Y280117D01*
X-492815Y280080D01*
X-492883Y280046D01*
X-492952Y280016D01*
X-493023Y279989D01*
X-493095Y279966D01*
X-493168Y279947D01*
X-493242Y279932D01*
X-493317Y279920D01*
X-493392Y279912D01*
X-493467Y279908D01*
X-493543Y279908D01*
X-493618Y279912D01*
X-493693Y279920D01*
X-493768Y279932D01*
X-493842Y279947D01*
X-493915Y279966D01*
X-493987Y279989D01*
X-494058Y280016D01*
X-494127Y280046D01*
X-494195Y280080D01*
X-494261Y280117D01*
X-494325Y280158D01*
X-494386Y280202D01*
X-494445Y280249D01*
X-494502Y280299D01*
X-494556Y280351D01*
X-494608Y280407D01*
X-494656Y280465D01*
X-494701Y280525D01*
X-494744Y280588D01*
X-494783Y280653D01*
X-494818Y280720D01*
X-494850Y280788D01*
X-494879Y280858D01*
X-494903Y280930D01*
X-494925Y281002D01*
X-494942Y281076D01*
X-494956Y281150D01*
X-494965Y281225D01*
X-494971Y281300D01*
X-494973Y281376D01*
X-488681Y279908D02*
X-488681Y285411D01*
X-488679Y285475D01*
X-488674Y285539D01*
X-488664Y285602D01*
X-488651Y285665D01*
X-488635Y285727D01*
X-488615Y285788D01*
X-488591Y285847D01*
X-488564Y285905D01*
X-488533Y285962D01*
X-488500Y286016D01*
X-488463Y286068D01*
X-488423Y286119D01*
X-488381Y286167D01*
X-488336Y286212D01*
X-488288Y286254D01*
X-488237Y286294D01*
X-488185Y286331D01*
X-488131Y286364D01*
X-488074Y286395D01*
X-488016Y286422D01*
X-487957Y286446D01*
X-487896Y286466D01*
X-487834Y286482D01*
X-487771Y286495D01*
X-487708Y286505D01*
X-487644Y286510D01*
X-487580Y286512D01*
X-487213Y286512D01*
X-487213Y284311D02*
X-489414Y284311D01*
X-483906Y282476D02*
X-482255Y282476D01*
X-483906Y282476D02*
X-483977Y282474D01*
X-484047Y282468D01*
X-484117Y282458D01*
X-484187Y282445D01*
X-484255Y282428D01*
X-484323Y282406D01*
X-484389Y282382D01*
X-484454Y282353D01*
X-484517Y282321D01*
X-484578Y282286D01*
X-484638Y282247D01*
X-484695Y282205D01*
X-484749Y282160D01*
X-484801Y282112D01*
X-484851Y282062D01*
X-484897Y282008D01*
X-484941Y281952D01*
X-484981Y281894D01*
X-485018Y281834D01*
X-485052Y281772D01*
X-485082Y281708D01*
X-485108Y281642D01*
X-485131Y281575D01*
X-485151Y281507D01*
X-485166Y281438D01*
X-485178Y281368D01*
X-485186Y281298D01*
X-485190Y281227D01*
X-485190Y281157D01*
X-485186Y281086D01*
X-485178Y281016D01*
X-485166Y280946D01*
X-485151Y280877D01*
X-485131Y280809D01*
X-485108Y280742D01*
X-485082Y280676D01*
X-485052Y280612D01*
X-485018Y280550D01*
X-484981Y280490D01*
X-484941Y280432D01*
X-484897Y280376D01*
X-484851Y280322D01*
X-484801Y280272D01*
X-484749Y280224D01*
X-484695Y280179D01*
X-484638Y280137D01*
X-484578Y280098D01*
X-484517Y280063D01*
X-484454Y280031D01*
X-484389Y280002D01*
X-484323Y279978D01*
X-484255Y279956D01*
X-484187Y279939D01*
X-484117Y279926D01*
X-484047Y279916D01*
X-483977Y279910D01*
X-483906Y279908D01*
X-482255Y279908D01*
X-482255Y283210D01*
X-482257Y283274D01*
X-482262Y283338D01*
X-482272Y283401D01*
X-482285Y283464D01*
X-482301Y283526D01*
X-482321Y283587D01*
X-482345Y283646D01*
X-482372Y283704D01*
X-482403Y283761D01*
X-482436Y283815D01*
X-482473Y283867D01*
X-482513Y283918D01*
X-482555Y283966D01*
X-482600Y284011D01*
X-482648Y284053D01*
X-482699Y284093D01*
X-482751Y284130D01*
X-482806Y284164D01*
X-482862Y284194D01*
X-482920Y284221D01*
X-482979Y284245D01*
X-483040Y284265D01*
X-483102Y284281D01*
X-483165Y284294D01*
X-483228Y284304D01*
X-483292Y284309D01*
X-483356Y284311D01*
X-484823Y284311D01*
X-478742Y284311D02*
X-478742Y279908D01*
X-478742Y284311D02*
X-476908Y284311D01*
X-476844Y284309D01*
X-476780Y284304D01*
X-476717Y284294D01*
X-476654Y284281D01*
X-476592Y284265D01*
X-476531Y284245D01*
X-476472Y284221D01*
X-476414Y284194D01*
X-476358Y284163D01*
X-476303Y284130D01*
X-476251Y284093D01*
X-476200Y284053D01*
X-476152Y284011D01*
X-476107Y283966D01*
X-476065Y283918D01*
X-476025Y283867D01*
X-475988Y283815D01*
X-475955Y283761D01*
X-475924Y283704D01*
X-475897Y283646D01*
X-475873Y283587D01*
X-475853Y283526D01*
X-475837Y283464D01*
X-475824Y283401D01*
X-475814Y283338D01*
X-475809Y283274D01*
X-475807Y283210D01*
X-475807Y279908D01*
D314*
X-373888Y170504D02*
X-373888Y168021D01*
X-373888Y170504D02*
X-373886Y170602D01*
X-373880Y170699D01*
X-373871Y170796D01*
X-373857Y170893D01*
X-373840Y170989D01*
X-373819Y171084D01*
X-373795Y171178D01*
X-373766Y171272D01*
X-373734Y171364D01*
X-373699Y171455D01*
X-373660Y171544D01*
X-373617Y171632D01*
X-373571Y171718D01*
X-373522Y171802D01*
X-373469Y171884D01*
X-373414Y171964D01*
X-373355Y172042D01*
X-373293Y172117D01*
X-373228Y172190D01*
X-373160Y172260D01*
X-373090Y172328D01*
X-373017Y172393D01*
X-372942Y172455D01*
X-372864Y172514D01*
X-372784Y172569D01*
X-372702Y172622D01*
X-372618Y172671D01*
X-372532Y172717D01*
X-372444Y172760D01*
X-372355Y172799D01*
X-372264Y172834D01*
X-372172Y172866D01*
X-372078Y172895D01*
X-371984Y172919D01*
X-371889Y172940D01*
X-371793Y172957D01*
X-371696Y172971D01*
X-371599Y172980D01*
X-371502Y172986D01*
X-371404Y172988D01*
X-365196Y172988D01*
X-365098Y172986D01*
X-365001Y172980D01*
X-364904Y172971D01*
X-364807Y172957D01*
X-364711Y172940D01*
X-364616Y172919D01*
X-364522Y172895D01*
X-364428Y172866D01*
X-364336Y172834D01*
X-364245Y172799D01*
X-364156Y172760D01*
X-364068Y172717D01*
X-363982Y172671D01*
X-363898Y172622D01*
X-363816Y172569D01*
X-363736Y172514D01*
X-363658Y172455D01*
X-363583Y172393D01*
X-363510Y172328D01*
X-363440Y172260D01*
X-363372Y172190D01*
X-363307Y172117D01*
X-363245Y172042D01*
X-363186Y171964D01*
X-363131Y171884D01*
X-363078Y171802D01*
X-363029Y171718D01*
X-362983Y171632D01*
X-362940Y171544D01*
X-362901Y171455D01*
X-362866Y171364D01*
X-362834Y171272D01*
X-362805Y171178D01*
X-362781Y171084D01*
X-362760Y170989D01*
X-362743Y170893D01*
X-362729Y170796D01*
X-362720Y170699D01*
X-362714Y170602D01*
X-362712Y170504D01*
X-362712Y168021D01*
X-365196Y163421D02*
X-362712Y160317D01*
X-373888Y160317D01*
X-373888Y163421D02*
X-373888Y157212D01*
X-354838Y231521D02*
X-354838Y234004D01*
X-354836Y234102D01*
X-354830Y234199D01*
X-354821Y234296D01*
X-354807Y234393D01*
X-354790Y234489D01*
X-354769Y234584D01*
X-354745Y234678D01*
X-354716Y234772D01*
X-354684Y234864D01*
X-354649Y234955D01*
X-354610Y235044D01*
X-354567Y235132D01*
X-354521Y235218D01*
X-354472Y235302D01*
X-354419Y235384D01*
X-354364Y235464D01*
X-354305Y235542D01*
X-354243Y235617D01*
X-354178Y235690D01*
X-354110Y235760D01*
X-354040Y235828D01*
X-353967Y235893D01*
X-353892Y235955D01*
X-353814Y236014D01*
X-353734Y236069D01*
X-353652Y236122D01*
X-353568Y236171D01*
X-353482Y236217D01*
X-353394Y236260D01*
X-353305Y236299D01*
X-353214Y236334D01*
X-353122Y236366D01*
X-353028Y236395D01*
X-352934Y236419D01*
X-352839Y236440D01*
X-352743Y236457D01*
X-352646Y236471D01*
X-352549Y236480D01*
X-352452Y236486D01*
X-352354Y236488D01*
X-346146Y236488D01*
X-346048Y236486D01*
X-345951Y236480D01*
X-345854Y236471D01*
X-345757Y236457D01*
X-345661Y236440D01*
X-345566Y236419D01*
X-345472Y236395D01*
X-345378Y236366D01*
X-345286Y236334D01*
X-345195Y236299D01*
X-345106Y236260D01*
X-345018Y236217D01*
X-344932Y236171D01*
X-344848Y236122D01*
X-344766Y236069D01*
X-344686Y236014D01*
X-344608Y235955D01*
X-344533Y235893D01*
X-344460Y235828D01*
X-344390Y235760D01*
X-344322Y235690D01*
X-344257Y235617D01*
X-344195Y235542D01*
X-344136Y235464D01*
X-344081Y235384D01*
X-344028Y235302D01*
X-343979Y235218D01*
X-343933Y235132D01*
X-343890Y235044D01*
X-343851Y234955D01*
X-343816Y234864D01*
X-343784Y234772D01*
X-343755Y234678D01*
X-343731Y234584D01*
X-343710Y234489D01*
X-343693Y234393D01*
X-343679Y234296D01*
X-343670Y234199D01*
X-343664Y234102D01*
X-343662Y234004D01*
X-343662Y231521D01*
X-343662Y223506D02*
X-343664Y223402D01*
X-343670Y223297D01*
X-343680Y223193D01*
X-343693Y223090D01*
X-343711Y222987D01*
X-343732Y222884D01*
X-343757Y222783D01*
X-343786Y222682D01*
X-343819Y222583D01*
X-343855Y222485D01*
X-343895Y222389D01*
X-343939Y222294D01*
X-343986Y222200D01*
X-344036Y222109D01*
X-344090Y222020D01*
X-344147Y221932D01*
X-344208Y221847D01*
X-344272Y221764D01*
X-344338Y221684D01*
X-344408Y221606D01*
X-344480Y221530D01*
X-344556Y221458D01*
X-344634Y221388D01*
X-344714Y221322D01*
X-344797Y221258D01*
X-344882Y221197D01*
X-344970Y221140D01*
X-345059Y221086D01*
X-345150Y221036D01*
X-345244Y220989D01*
X-345339Y220945D01*
X-345435Y220905D01*
X-345533Y220869D01*
X-345632Y220836D01*
X-345733Y220807D01*
X-345834Y220782D01*
X-345937Y220761D01*
X-346040Y220743D01*
X-346143Y220730D01*
X-346247Y220720D01*
X-346352Y220714D01*
X-346456Y220712D01*
X-343662Y223506D02*
X-343664Y223625D01*
X-343670Y223743D01*
X-343680Y223862D01*
X-343693Y223980D01*
X-343711Y224097D01*
X-343733Y224214D01*
X-343758Y224330D01*
X-343787Y224445D01*
X-343820Y224560D01*
X-343857Y224673D01*
X-343897Y224784D01*
X-343941Y224895D01*
X-343989Y225003D01*
X-344040Y225110D01*
X-344095Y225216D01*
X-344154Y225319D01*
X-344215Y225421D01*
X-344280Y225520D01*
X-344349Y225618D01*
X-344420Y225712D01*
X-344495Y225805D01*
X-344572Y225895D01*
X-344653Y225982D01*
X-344736Y226067D01*
X-344822Y226149D01*
X-344911Y226228D01*
X-345002Y226304D01*
X-345096Y226377D01*
X-345192Y226446D01*
X-345291Y226513D01*
X-345391Y226576D01*
X-345494Y226636D01*
X-345598Y226693D01*
X-345705Y226745D01*
X-345813Y226795D01*
X-345922Y226841D01*
X-346034Y226883D01*
X-346146Y226921D01*
X-348629Y221643D02*
X-348555Y221568D01*
X-348478Y221496D01*
X-348399Y221426D01*
X-348317Y221359D01*
X-348233Y221295D01*
X-348147Y221234D01*
X-348059Y221176D01*
X-347968Y221121D01*
X-347876Y221069D01*
X-347782Y221021D01*
X-347687Y220976D01*
X-347589Y220934D01*
X-347491Y220896D01*
X-347391Y220861D01*
X-347290Y220830D01*
X-347188Y220803D01*
X-347085Y220779D01*
X-346982Y220758D01*
X-346877Y220742D01*
X-346772Y220729D01*
X-346667Y220719D01*
X-346562Y220714D01*
X-346456Y220712D01*
X-348629Y221644D02*
X-354838Y226921D01*
X-354838Y220712D01*
X-388638Y275971D02*
X-388638Y278454D01*
X-388636Y278552D01*
X-388630Y278649D01*
X-388621Y278746D01*
X-388607Y278843D01*
X-388590Y278939D01*
X-388569Y279034D01*
X-388545Y279128D01*
X-388516Y279222D01*
X-388484Y279314D01*
X-388449Y279405D01*
X-388410Y279494D01*
X-388367Y279582D01*
X-388321Y279668D01*
X-388272Y279752D01*
X-388219Y279834D01*
X-388164Y279914D01*
X-388105Y279992D01*
X-388043Y280067D01*
X-387978Y280140D01*
X-387910Y280210D01*
X-387840Y280278D01*
X-387767Y280343D01*
X-387692Y280405D01*
X-387614Y280464D01*
X-387534Y280519D01*
X-387452Y280572D01*
X-387368Y280621D01*
X-387282Y280667D01*
X-387194Y280710D01*
X-387105Y280749D01*
X-387014Y280784D01*
X-386922Y280816D01*
X-386828Y280845D01*
X-386734Y280869D01*
X-386639Y280890D01*
X-386543Y280907D01*
X-386446Y280921D01*
X-386349Y280930D01*
X-386252Y280936D01*
X-386154Y280938D01*
X-379946Y280938D01*
X-379848Y280936D01*
X-379751Y280930D01*
X-379654Y280921D01*
X-379557Y280907D01*
X-379461Y280890D01*
X-379366Y280869D01*
X-379272Y280845D01*
X-379178Y280816D01*
X-379086Y280784D01*
X-378995Y280749D01*
X-378906Y280710D01*
X-378818Y280667D01*
X-378732Y280621D01*
X-378648Y280572D01*
X-378566Y280519D01*
X-378486Y280464D01*
X-378408Y280405D01*
X-378333Y280343D01*
X-378260Y280278D01*
X-378190Y280210D01*
X-378122Y280140D01*
X-378057Y280067D01*
X-377995Y279992D01*
X-377936Y279914D01*
X-377881Y279834D01*
X-377828Y279752D01*
X-377779Y279668D01*
X-377733Y279582D01*
X-377690Y279494D01*
X-377651Y279405D01*
X-377616Y279314D01*
X-377584Y279222D01*
X-377555Y279128D01*
X-377531Y279034D01*
X-377510Y278939D01*
X-377493Y278843D01*
X-377479Y278746D01*
X-377470Y278649D01*
X-377464Y278552D01*
X-377462Y278454D01*
X-377462Y275971D01*
X-388638Y271371D02*
X-388638Y268267D01*
X-388636Y268156D01*
X-388630Y268046D01*
X-388620Y267935D01*
X-388606Y267825D01*
X-388589Y267716D01*
X-388567Y267607D01*
X-388542Y267499D01*
X-388512Y267393D01*
X-388479Y267287D01*
X-388442Y267182D01*
X-388402Y267079D01*
X-388357Y266978D01*
X-388310Y266878D01*
X-388258Y266779D01*
X-388203Y266683D01*
X-388145Y266589D01*
X-388084Y266497D01*
X-388019Y266407D01*
X-387951Y266319D01*
X-387880Y266234D01*
X-387806Y266152D01*
X-387729Y266072D01*
X-387649Y265995D01*
X-387567Y265921D01*
X-387482Y265850D01*
X-387394Y265782D01*
X-387304Y265717D01*
X-387212Y265656D01*
X-387118Y265598D01*
X-387022Y265543D01*
X-386923Y265491D01*
X-386823Y265444D01*
X-386722Y265399D01*
X-386619Y265359D01*
X-386514Y265322D01*
X-386408Y265289D01*
X-386302Y265259D01*
X-386194Y265234D01*
X-386085Y265212D01*
X-385976Y265195D01*
X-385866Y265181D01*
X-385755Y265171D01*
X-385645Y265165D01*
X-385534Y265163D01*
X-385423Y265165D01*
X-385313Y265171D01*
X-385202Y265181D01*
X-385092Y265195D01*
X-384983Y265212D01*
X-384874Y265234D01*
X-384766Y265259D01*
X-384660Y265289D01*
X-384554Y265322D01*
X-384449Y265359D01*
X-384346Y265399D01*
X-384245Y265444D01*
X-384145Y265491D01*
X-384046Y265543D01*
X-383950Y265598D01*
X-383856Y265656D01*
X-383764Y265717D01*
X-383674Y265782D01*
X-383586Y265850D01*
X-383501Y265921D01*
X-383419Y265995D01*
X-383339Y266072D01*
X-383262Y266152D01*
X-383188Y266234D01*
X-383117Y266319D01*
X-383049Y266407D01*
X-382984Y266497D01*
X-382923Y266589D01*
X-382865Y266683D01*
X-382810Y266779D01*
X-382758Y266878D01*
X-382711Y266978D01*
X-382666Y267079D01*
X-382626Y267182D01*
X-382589Y267287D01*
X-382556Y267393D01*
X-382526Y267499D01*
X-382501Y267607D01*
X-382479Y267716D01*
X-382462Y267825D01*
X-382448Y267935D01*
X-382438Y268046D01*
X-382432Y268156D01*
X-382430Y268267D01*
X-377462Y267646D02*
X-377462Y271371D01*
X-377462Y267646D02*
X-377464Y267547D01*
X-377470Y267449D01*
X-377480Y267350D01*
X-377493Y267253D01*
X-377511Y267155D01*
X-377532Y267059D01*
X-377558Y266963D01*
X-377587Y266869D01*
X-377619Y266776D01*
X-377656Y266684D01*
X-377696Y266594D01*
X-377740Y266505D01*
X-377787Y266418D01*
X-377837Y266333D01*
X-377891Y266251D01*
X-377948Y266170D01*
X-378008Y266092D01*
X-378072Y266016D01*
X-378138Y265943D01*
X-378207Y265872D01*
X-378279Y265804D01*
X-378354Y265740D01*
X-378431Y265678D01*
X-378510Y265619D01*
X-378592Y265564D01*
X-378676Y265511D01*
X-378761Y265463D01*
X-378849Y265417D01*
X-378939Y265375D01*
X-379030Y265337D01*
X-379122Y265303D01*
X-379216Y265272D01*
X-379311Y265245D01*
X-379407Y265221D01*
X-379504Y265202D01*
X-379601Y265186D01*
X-379699Y265174D01*
X-379798Y265166D01*
X-379897Y265162D01*
X-379995Y265162D01*
X-380094Y265166D01*
X-380193Y265174D01*
X-380291Y265186D01*
X-380388Y265202D01*
X-380485Y265221D01*
X-380581Y265245D01*
X-380676Y265272D01*
X-380770Y265303D01*
X-380862Y265337D01*
X-380953Y265375D01*
X-381043Y265417D01*
X-381131Y265463D01*
X-381216Y265511D01*
X-381300Y265564D01*
X-381382Y265619D01*
X-381461Y265678D01*
X-381538Y265740D01*
X-381613Y265804D01*
X-381685Y265872D01*
X-381754Y265943D01*
X-381820Y266016D01*
X-381884Y266092D01*
X-381944Y266170D01*
X-382001Y266251D01*
X-382055Y266333D01*
X-382105Y266418D01*
X-382152Y266505D01*
X-382196Y266594D01*
X-382236Y266684D01*
X-382273Y266776D01*
X-382305Y266869D01*
X-382334Y266963D01*
X-382360Y267059D01*
X-382381Y267155D01*
X-382399Y267253D01*
X-382412Y267350D01*
X-382422Y267449D01*
X-382428Y267547D01*
X-382430Y267646D01*
X-382429Y267646D02*
X-382429Y270129D01*
X-424688Y170504D02*
X-424688Y168021D01*
X-424688Y170504D02*
X-424686Y170602D01*
X-424680Y170699D01*
X-424671Y170796D01*
X-424657Y170893D01*
X-424640Y170989D01*
X-424619Y171084D01*
X-424595Y171178D01*
X-424566Y171272D01*
X-424534Y171364D01*
X-424499Y171455D01*
X-424460Y171544D01*
X-424417Y171632D01*
X-424371Y171718D01*
X-424322Y171802D01*
X-424269Y171884D01*
X-424214Y171964D01*
X-424155Y172042D01*
X-424093Y172117D01*
X-424028Y172190D01*
X-423960Y172260D01*
X-423890Y172328D01*
X-423817Y172393D01*
X-423742Y172455D01*
X-423664Y172514D01*
X-423584Y172569D01*
X-423502Y172622D01*
X-423418Y172671D01*
X-423332Y172717D01*
X-423244Y172760D01*
X-423155Y172799D01*
X-423064Y172834D01*
X-422972Y172866D01*
X-422878Y172895D01*
X-422784Y172919D01*
X-422689Y172940D01*
X-422593Y172957D01*
X-422496Y172971D01*
X-422399Y172980D01*
X-422302Y172986D01*
X-422204Y172988D01*
X-415996Y172988D01*
X-415898Y172986D01*
X-415801Y172980D01*
X-415704Y172971D01*
X-415607Y172957D01*
X-415511Y172940D01*
X-415416Y172919D01*
X-415322Y172895D01*
X-415228Y172866D01*
X-415136Y172834D01*
X-415045Y172799D01*
X-414956Y172760D01*
X-414868Y172717D01*
X-414782Y172671D01*
X-414698Y172622D01*
X-414616Y172569D01*
X-414536Y172514D01*
X-414458Y172455D01*
X-414383Y172393D01*
X-414310Y172328D01*
X-414240Y172260D01*
X-414172Y172190D01*
X-414107Y172117D01*
X-414045Y172042D01*
X-413986Y171964D01*
X-413931Y171884D01*
X-413878Y171802D01*
X-413829Y171718D01*
X-413783Y171632D01*
X-413740Y171544D01*
X-413701Y171455D01*
X-413666Y171364D01*
X-413634Y171272D01*
X-413605Y171178D01*
X-413581Y171084D01*
X-413560Y170989D01*
X-413543Y170893D01*
X-413529Y170796D01*
X-413520Y170699D01*
X-413514Y170602D01*
X-413512Y170504D01*
X-413512Y168021D01*
X-413512Y160938D02*
X-422204Y163421D01*
X-422204Y157212D01*
X-419721Y159075D02*
X-424688Y159075D01*
X-145288Y282321D02*
X-145288Y284804D01*
X-145286Y284902D01*
X-145280Y284999D01*
X-145271Y285096D01*
X-145257Y285193D01*
X-145240Y285289D01*
X-145219Y285384D01*
X-145195Y285478D01*
X-145166Y285572D01*
X-145134Y285664D01*
X-145099Y285755D01*
X-145060Y285844D01*
X-145017Y285932D01*
X-144971Y286018D01*
X-144922Y286102D01*
X-144869Y286184D01*
X-144814Y286264D01*
X-144755Y286342D01*
X-144693Y286417D01*
X-144628Y286490D01*
X-144560Y286560D01*
X-144490Y286628D01*
X-144417Y286693D01*
X-144342Y286755D01*
X-144264Y286814D01*
X-144184Y286869D01*
X-144102Y286922D01*
X-144018Y286971D01*
X-143932Y287017D01*
X-143844Y287060D01*
X-143755Y287099D01*
X-143664Y287134D01*
X-143572Y287166D01*
X-143478Y287195D01*
X-143384Y287219D01*
X-143289Y287240D01*
X-143193Y287257D01*
X-143096Y287271D01*
X-142999Y287280D01*
X-142902Y287286D01*
X-142804Y287288D01*
X-136596Y287288D01*
X-136498Y287286D01*
X-136401Y287280D01*
X-136304Y287271D01*
X-136207Y287257D01*
X-136111Y287240D01*
X-136016Y287219D01*
X-135922Y287195D01*
X-135828Y287166D01*
X-135736Y287134D01*
X-135645Y287099D01*
X-135556Y287060D01*
X-135468Y287017D01*
X-135382Y286971D01*
X-135298Y286922D01*
X-135216Y286869D01*
X-135136Y286814D01*
X-135058Y286755D01*
X-134983Y286693D01*
X-134910Y286628D01*
X-134840Y286560D01*
X-134772Y286490D01*
X-134707Y286417D01*
X-134645Y286342D01*
X-134586Y286264D01*
X-134531Y286184D01*
X-134478Y286102D01*
X-134429Y286018D01*
X-134383Y285932D01*
X-134340Y285844D01*
X-134301Y285755D01*
X-134266Y285664D01*
X-134234Y285572D01*
X-134205Y285478D01*
X-134181Y285384D01*
X-134160Y285289D01*
X-134143Y285193D01*
X-134129Y285096D01*
X-134120Y284999D01*
X-134114Y284902D01*
X-134112Y284804D01*
X-134112Y282321D01*
X-145288Y277721D02*
X-145288Y273996D01*
X-145286Y273898D01*
X-145280Y273801D01*
X-145271Y273704D01*
X-145257Y273607D01*
X-145240Y273511D01*
X-145219Y273416D01*
X-145195Y273322D01*
X-145166Y273228D01*
X-145134Y273136D01*
X-145099Y273045D01*
X-145060Y272956D01*
X-145017Y272868D01*
X-144971Y272782D01*
X-144922Y272698D01*
X-144869Y272616D01*
X-144814Y272536D01*
X-144755Y272458D01*
X-144693Y272383D01*
X-144628Y272310D01*
X-144560Y272240D01*
X-144490Y272172D01*
X-144417Y272107D01*
X-144342Y272045D01*
X-144264Y271986D01*
X-144184Y271931D01*
X-144102Y271878D01*
X-144018Y271829D01*
X-143932Y271783D01*
X-143844Y271740D01*
X-143755Y271701D01*
X-143664Y271666D01*
X-143572Y271634D01*
X-143478Y271605D01*
X-143384Y271581D01*
X-143289Y271560D01*
X-143193Y271543D01*
X-143096Y271529D01*
X-142999Y271520D01*
X-142902Y271514D01*
X-142804Y271512D01*
X-141563Y271512D01*
X-141465Y271514D01*
X-141368Y271520D01*
X-141271Y271529D01*
X-141174Y271543D01*
X-141078Y271560D01*
X-140983Y271581D01*
X-140889Y271605D01*
X-140795Y271634D01*
X-140703Y271666D01*
X-140612Y271701D01*
X-140523Y271740D01*
X-140435Y271783D01*
X-140349Y271829D01*
X-140265Y271878D01*
X-140183Y271931D01*
X-140103Y271986D01*
X-140025Y272045D01*
X-139950Y272107D01*
X-139877Y272172D01*
X-139807Y272240D01*
X-139739Y272310D01*
X-139674Y272383D01*
X-139612Y272458D01*
X-139553Y272536D01*
X-139498Y272616D01*
X-139445Y272698D01*
X-139396Y272782D01*
X-139350Y272868D01*
X-139307Y272956D01*
X-139268Y273045D01*
X-139233Y273136D01*
X-139201Y273228D01*
X-139172Y273322D01*
X-139148Y273416D01*
X-139127Y273511D01*
X-139110Y273607D01*
X-139096Y273704D01*
X-139087Y273801D01*
X-139081Y273898D01*
X-139079Y273996D01*
X-139079Y277721D01*
X-134112Y277721D01*
X-134112Y271512D01*
D315*
X-696900Y254000D02*
X-696885Y255227D01*
X-696840Y256453D01*
X-696765Y257678D01*
X-696659Y258901D01*
X-696524Y260121D01*
X-696359Y261337D01*
X-696164Y262548D01*
X-695939Y263755D01*
X-695685Y264955D01*
X-695402Y266149D01*
X-695089Y267336D01*
X-694747Y268514D01*
X-694376Y269684D01*
X-693977Y270844D01*
X-693550Y271995D01*
X-693094Y273134D01*
X-692610Y274262D01*
X-692099Y275378D01*
X-691561Y276481D01*
X-690996Y277570D01*
X-690404Y278645D01*
X-689786Y279705D01*
X-689143Y280750D01*
X-688473Y281779D01*
X-687779Y282790D01*
X-687060Y283785D01*
X-686317Y284762D01*
X-685551Y285720D01*
X-684760Y286659D01*
X-683948Y287578D01*
X-683112Y288477D01*
X-682255Y289355D01*
X-681377Y290212D01*
X-680478Y291048D01*
X-679559Y291860D01*
X-678620Y292651D01*
X-677662Y293417D01*
X-676685Y294160D01*
X-675690Y294879D01*
X-674679Y295573D01*
X-673650Y296243D01*
X-672605Y296886D01*
X-671545Y297504D01*
X-670470Y298096D01*
X-669381Y298661D01*
X-668278Y299199D01*
X-667162Y299710D01*
X-666034Y300194D01*
X-664895Y300650D01*
X-663744Y301077D01*
X-662584Y301476D01*
X-661414Y301847D01*
X-660236Y302189D01*
X-659049Y302502D01*
X-657855Y302785D01*
X-656655Y303039D01*
X-655448Y303264D01*
X-654237Y303459D01*
X-653021Y303624D01*
X-651801Y303759D01*
X-650578Y303865D01*
X-649353Y303940D01*
X-648127Y303985D01*
X-646900Y304000D01*
X-645673Y303985D01*
X-644447Y303940D01*
X-643222Y303865D01*
X-641999Y303759D01*
X-640779Y303624D01*
X-639563Y303459D01*
X-638352Y303264D01*
X-637145Y303039D01*
X-635945Y302785D01*
X-634751Y302502D01*
X-633564Y302189D01*
X-632386Y301847D01*
X-631216Y301476D01*
X-630056Y301077D01*
X-628905Y300650D01*
X-627766Y300194D01*
X-626638Y299710D01*
X-625522Y299199D01*
X-624419Y298661D01*
X-623330Y298096D01*
X-622255Y297504D01*
X-621195Y296886D01*
X-620150Y296243D01*
X-619121Y295573D01*
X-618110Y294879D01*
X-617115Y294160D01*
X-616138Y293417D01*
X-615180Y292651D01*
X-614241Y291860D01*
X-613322Y291048D01*
X-612423Y290212D01*
X-611545Y289355D01*
X-610688Y288477D01*
X-609852Y287578D01*
X-609040Y286659D01*
X-608249Y285720D01*
X-607483Y284762D01*
X-606740Y283785D01*
X-606021Y282790D01*
X-605327Y281779D01*
X-604657Y280750D01*
X-604014Y279705D01*
X-603396Y278645D01*
X-602804Y277570D01*
X-602239Y276481D01*
X-601701Y275378D01*
X-601190Y274262D01*
X-600706Y273134D01*
X-600250Y271995D01*
X-599823Y270844D01*
X-599424Y269684D01*
X-599053Y268514D01*
X-598711Y267336D01*
X-598398Y266149D01*
X-598115Y264955D01*
X-597861Y263755D01*
X-597636Y262548D01*
X-597441Y261337D01*
X-597276Y260121D01*
X-597141Y258901D01*
X-597035Y257678D01*
X-596960Y256453D01*
X-596915Y255227D01*
X-596900Y254000D01*
X-596915Y252773D01*
X-596960Y251547D01*
X-597035Y250322D01*
X-597141Y249099D01*
X-597276Y247879D01*
X-597441Y246663D01*
X-597636Y245452D01*
X-597861Y244245D01*
X-598115Y243045D01*
X-598398Y241851D01*
X-598711Y240664D01*
X-599053Y239486D01*
X-599424Y238316D01*
X-599823Y237156D01*
X-600250Y236005D01*
X-600706Y234866D01*
X-601190Y233738D01*
X-601701Y232622D01*
X-602239Y231519D01*
X-602804Y230430D01*
X-603396Y229355D01*
X-604014Y228295D01*
X-604657Y227250D01*
X-605327Y226221D01*
X-606021Y225210D01*
X-606740Y224215D01*
X-607483Y223238D01*
X-608249Y222280D01*
X-609040Y221341D01*
X-609852Y220422D01*
X-610688Y219523D01*
X-611545Y218645D01*
X-612423Y217788D01*
X-613322Y216952D01*
X-614241Y216140D01*
X-615180Y215349D01*
X-616138Y214583D01*
X-617115Y213840D01*
X-618110Y213121D01*
X-619121Y212427D01*
X-620150Y211757D01*
X-621195Y211114D01*
X-622255Y210496D01*
X-623330Y209904D01*
X-624419Y209339D01*
X-625522Y208801D01*
X-626638Y208290D01*
X-627766Y207806D01*
X-628905Y207350D01*
X-630056Y206923D01*
X-631216Y206524D01*
X-632386Y206153D01*
X-633564Y205811D01*
X-634751Y205498D01*
X-635945Y205215D01*
X-637145Y204961D01*
X-638352Y204736D01*
X-639563Y204541D01*
X-640779Y204376D01*
X-641999Y204241D01*
X-643222Y204135D01*
X-644447Y204060D01*
X-645673Y204015D01*
X-646900Y204000D01*
X-648127Y204015D01*
X-649353Y204060D01*
X-650578Y204135D01*
X-651801Y204241D01*
X-653021Y204376D01*
X-654237Y204541D01*
X-655448Y204736D01*
X-656655Y204961D01*
X-657855Y205215D01*
X-659049Y205498D01*
X-660236Y205811D01*
X-661414Y206153D01*
X-662584Y206524D01*
X-663744Y206923D01*
X-664895Y207350D01*
X-666034Y207806D01*
X-667162Y208290D01*
X-668278Y208801D01*
X-669381Y209339D01*
X-670470Y209904D01*
X-671545Y210496D01*
X-672605Y211114D01*
X-673650Y211757D01*
X-674679Y212427D01*
X-675690Y213121D01*
X-676685Y213840D01*
X-677662Y214583D01*
X-678620Y215349D01*
X-679559Y216140D01*
X-680478Y216952D01*
X-681377Y217788D01*
X-682255Y218645D01*
X-683112Y219523D01*
X-683948Y220422D01*
X-684760Y221341D01*
X-685551Y222280D01*
X-686317Y223238D01*
X-687060Y224215D01*
X-687779Y225210D01*
X-688473Y226221D01*
X-689143Y227250D01*
X-689786Y228295D01*
X-690404Y229355D01*
X-690996Y230430D01*
X-691561Y231519D01*
X-692099Y232622D01*
X-692610Y233738D01*
X-693094Y234866D01*
X-693550Y236005D01*
X-693977Y237156D01*
X-694376Y238316D01*
X-694747Y239486D01*
X-695089Y240664D01*
X-695402Y241851D01*
X-695685Y243045D01*
X-695939Y244245D01*
X-696164Y245452D01*
X-696359Y246663D01*
X-696524Y247879D01*
X-696659Y249099D01*
X-696765Y250322D01*
X-696840Y251547D01*
X-696885Y252773D01*
X-696900Y254000D01*
D314*
X-596900Y234000D02*
X-596900Y274000D01*
X-566900Y274000D01*
X-566900Y234000D01*
X-596900Y234000D01*
D316*
X-651764Y265602D02*
X-651764Y272602D01*
X-636016Y272602D01*
X-636016Y265602D01*
X-643015Y267352D02*
X-643015Y272602D01*
X-651764Y256159D02*
X-651764Y252660D01*
X-651764Y256159D02*
X-651762Y256276D01*
X-651756Y256393D01*
X-651746Y256509D01*
X-651733Y256626D01*
X-651715Y256741D01*
X-651694Y256856D01*
X-651669Y256970D01*
X-651640Y257084D01*
X-651607Y257196D01*
X-651570Y257307D01*
X-651530Y257417D01*
X-651486Y257525D01*
X-651439Y257632D01*
X-651388Y257738D01*
X-651333Y257841D01*
X-651275Y257943D01*
X-651214Y258042D01*
X-651150Y258140D01*
X-651082Y258235D01*
X-651011Y258328D01*
X-650937Y258419D01*
X-650860Y258507D01*
X-650780Y258592D01*
X-650697Y258675D01*
X-650612Y258755D01*
X-650524Y258832D01*
X-650433Y258906D01*
X-650340Y258977D01*
X-650245Y259045D01*
X-650147Y259109D01*
X-650048Y259170D01*
X-649946Y259228D01*
X-649843Y259283D01*
X-649737Y259334D01*
X-649630Y259381D01*
X-649522Y259425D01*
X-649412Y259465D01*
X-649301Y259502D01*
X-649189Y259535D01*
X-649075Y259564D01*
X-648961Y259589D01*
X-648846Y259610D01*
X-648731Y259628D01*
X-648614Y259641D01*
X-648498Y259651D01*
X-648381Y259657D01*
X-648264Y259659D01*
X-639516Y259659D01*
X-639399Y259657D01*
X-639282Y259651D01*
X-639166Y259641D01*
X-639050Y259628D01*
X-638934Y259610D01*
X-638819Y259589D01*
X-638705Y259564D01*
X-638591Y259535D01*
X-638479Y259502D01*
X-638368Y259465D01*
X-638258Y259425D01*
X-638150Y259381D01*
X-638043Y259334D01*
X-637937Y259283D01*
X-637834Y259228D01*
X-637732Y259170D01*
X-637633Y259109D01*
X-637535Y259045D01*
X-637440Y258977D01*
X-637347Y258906D01*
X-637256Y258832D01*
X-637168Y258755D01*
X-637083Y258675D01*
X-637000Y258592D01*
X-636920Y258507D01*
X-636843Y258419D01*
X-636769Y258328D01*
X-636698Y258235D01*
X-636630Y258140D01*
X-636566Y258042D01*
X-636505Y257943D01*
X-636447Y257841D01*
X-636392Y257738D01*
X-636341Y257632D01*
X-636294Y257525D01*
X-636250Y257417D01*
X-636210Y257307D01*
X-636173Y257196D01*
X-636140Y257084D01*
X-636111Y256970D01*
X-636086Y256856D01*
X-636065Y256741D01*
X-636047Y256626D01*
X-636034Y256509D01*
X-636024Y256393D01*
X-636018Y256276D01*
X-636016Y256159D01*
X-636016Y252660D01*
X-636016Y245897D02*
X-651764Y245897D01*
X-644765Y240648D02*
X-636016Y245897D01*
X-644765Y240648D02*
X-636016Y235398D01*
X-651764Y235398D01*
D314*
X-583438Y261465D02*
X-572262Y261465D01*
X-578471Y257739D01*
X-572262Y254014D01*
X-583438Y254014D01*
X-574746Y248271D02*
X-572262Y245166D01*
X-583438Y245166D01*
X-583438Y242062D02*
X-583438Y248271D01*
D315*
X-241300Y177800D02*
X-241285Y179027D01*
X-241240Y180253D01*
X-241165Y181478D01*
X-241059Y182701D01*
X-240924Y183921D01*
X-240759Y185137D01*
X-240564Y186348D01*
X-240339Y187555D01*
X-240085Y188755D01*
X-239802Y189949D01*
X-239489Y191136D01*
X-239147Y192314D01*
X-238776Y193484D01*
X-238377Y194644D01*
X-237950Y195795D01*
X-237494Y196934D01*
X-237010Y198062D01*
X-236499Y199178D01*
X-235961Y200281D01*
X-235396Y201370D01*
X-234804Y202445D01*
X-234186Y203505D01*
X-233543Y204550D01*
X-232873Y205579D01*
X-232179Y206590D01*
X-231460Y207585D01*
X-230717Y208562D01*
X-229951Y209520D01*
X-229160Y210459D01*
X-228348Y211378D01*
X-227512Y212277D01*
X-226655Y213155D01*
X-225777Y214012D01*
X-224878Y214848D01*
X-223959Y215660D01*
X-223020Y216451D01*
X-222062Y217217D01*
X-221085Y217960D01*
X-220090Y218679D01*
X-219079Y219373D01*
X-218050Y220043D01*
X-217005Y220686D01*
X-215945Y221304D01*
X-214870Y221896D01*
X-213781Y222461D01*
X-212678Y222999D01*
X-211562Y223510D01*
X-210434Y223994D01*
X-209295Y224450D01*
X-208144Y224877D01*
X-206984Y225276D01*
X-205814Y225647D01*
X-204636Y225989D01*
X-203449Y226302D01*
X-202255Y226585D01*
X-201055Y226839D01*
X-199848Y227064D01*
X-198637Y227259D01*
X-197421Y227424D01*
X-196201Y227559D01*
X-194978Y227665D01*
X-193753Y227740D01*
X-192527Y227785D01*
X-191300Y227800D01*
X-190073Y227785D01*
X-188847Y227740D01*
X-187622Y227665D01*
X-186399Y227559D01*
X-185179Y227424D01*
X-183963Y227259D01*
X-182752Y227064D01*
X-181545Y226839D01*
X-180345Y226585D01*
X-179151Y226302D01*
X-177964Y225989D01*
X-176786Y225647D01*
X-175616Y225276D01*
X-174456Y224877D01*
X-173305Y224450D01*
X-172166Y223994D01*
X-171038Y223510D01*
X-169922Y222999D01*
X-168819Y222461D01*
X-167730Y221896D01*
X-166655Y221304D01*
X-165595Y220686D01*
X-164550Y220043D01*
X-163521Y219373D01*
X-162510Y218679D01*
X-161515Y217960D01*
X-160538Y217217D01*
X-159580Y216451D01*
X-158641Y215660D01*
X-157722Y214848D01*
X-156823Y214012D01*
X-155945Y213155D01*
X-155088Y212277D01*
X-154252Y211378D01*
X-153440Y210459D01*
X-152649Y209520D01*
X-151883Y208562D01*
X-151140Y207585D01*
X-150421Y206590D01*
X-149727Y205579D01*
X-149057Y204550D01*
X-148414Y203505D01*
X-147796Y202445D01*
X-147204Y201370D01*
X-146639Y200281D01*
X-146101Y199178D01*
X-145590Y198062D01*
X-145106Y196934D01*
X-144650Y195795D01*
X-144223Y194644D01*
X-143824Y193484D01*
X-143453Y192314D01*
X-143111Y191136D01*
X-142798Y189949D01*
X-142515Y188755D01*
X-142261Y187555D01*
X-142036Y186348D01*
X-141841Y185137D01*
X-141676Y183921D01*
X-141541Y182701D01*
X-141435Y181478D01*
X-141360Y180253D01*
X-141315Y179027D01*
X-141300Y177800D01*
X-141315Y176573D01*
X-141360Y175347D01*
X-141435Y174122D01*
X-141541Y172899D01*
X-141676Y171679D01*
X-141841Y170463D01*
X-142036Y169252D01*
X-142261Y168045D01*
X-142515Y166845D01*
X-142798Y165651D01*
X-143111Y164464D01*
X-143453Y163286D01*
X-143824Y162116D01*
X-144223Y160956D01*
X-144650Y159805D01*
X-145106Y158666D01*
X-145590Y157538D01*
X-146101Y156422D01*
X-146639Y155319D01*
X-147204Y154230D01*
X-147796Y153155D01*
X-148414Y152095D01*
X-149057Y151050D01*
X-149727Y150021D01*
X-150421Y149010D01*
X-151140Y148015D01*
X-151883Y147038D01*
X-152649Y146080D01*
X-153440Y145141D01*
X-154252Y144222D01*
X-155088Y143323D01*
X-155945Y142445D01*
X-156823Y141588D01*
X-157722Y140752D01*
X-158641Y139940D01*
X-159580Y139149D01*
X-160538Y138383D01*
X-161515Y137640D01*
X-162510Y136921D01*
X-163521Y136227D01*
X-164550Y135557D01*
X-165595Y134914D01*
X-166655Y134296D01*
X-167730Y133704D01*
X-168819Y133139D01*
X-169922Y132601D01*
X-171038Y132090D01*
X-172166Y131606D01*
X-173305Y131150D01*
X-174456Y130723D01*
X-175616Y130324D01*
X-176786Y129953D01*
X-177964Y129611D01*
X-179151Y129298D01*
X-180345Y129015D01*
X-181545Y128761D01*
X-182752Y128536D01*
X-183963Y128341D01*
X-185179Y128176D01*
X-186399Y128041D01*
X-187622Y127935D01*
X-188847Y127860D01*
X-190073Y127815D01*
X-191300Y127800D01*
X-192527Y127815D01*
X-193753Y127860D01*
X-194978Y127935D01*
X-196201Y128041D01*
X-197421Y128176D01*
X-198637Y128341D01*
X-199848Y128536D01*
X-201055Y128761D01*
X-202255Y129015D01*
X-203449Y129298D01*
X-204636Y129611D01*
X-205814Y129953D01*
X-206984Y130324D01*
X-208144Y130723D01*
X-209295Y131150D01*
X-210434Y131606D01*
X-211562Y132090D01*
X-212678Y132601D01*
X-213781Y133139D01*
X-214870Y133704D01*
X-215945Y134296D01*
X-217005Y134914D01*
X-218050Y135557D01*
X-219079Y136227D01*
X-220090Y136921D01*
X-221085Y137640D01*
X-222062Y138383D01*
X-223020Y139149D01*
X-223959Y139940D01*
X-224878Y140752D01*
X-225777Y141588D01*
X-226655Y142445D01*
X-227512Y143323D01*
X-228348Y144222D01*
X-229160Y145141D01*
X-229951Y146080D01*
X-230717Y147038D01*
X-231460Y148015D01*
X-232179Y149010D01*
X-232873Y150021D01*
X-233543Y151050D01*
X-234186Y152095D01*
X-234804Y153155D01*
X-235396Y154230D01*
X-235961Y155319D01*
X-236499Y156422D01*
X-237010Y157538D01*
X-237494Y158666D01*
X-237950Y159805D01*
X-238377Y160956D01*
X-238776Y162116D01*
X-239147Y163286D01*
X-239489Y164464D01*
X-239802Y165651D01*
X-240085Y166845D01*
X-240339Y168045D01*
X-240564Y169252D01*
X-240759Y170463D01*
X-240924Y171679D01*
X-241059Y172899D01*
X-241165Y174122D01*
X-241240Y175347D01*
X-241285Y176573D01*
X-241300Y177800D01*
D314*
X-241300Y197800D02*
X-241300Y157800D01*
X-271300Y157800D01*
X-271300Y197800D01*
X-241300Y197800D01*
D316*
X-202184Y196402D02*
X-202184Y189402D01*
X-202184Y196402D02*
X-186436Y196402D01*
X-186436Y189402D01*
X-193435Y191152D02*
X-193435Y196402D01*
X-202184Y179959D02*
X-202184Y176460D01*
X-202184Y179959D02*
X-202182Y180076D01*
X-202176Y180193D01*
X-202166Y180309D01*
X-202153Y180426D01*
X-202135Y180541D01*
X-202114Y180656D01*
X-202089Y180770D01*
X-202060Y180884D01*
X-202027Y180996D01*
X-201990Y181107D01*
X-201950Y181217D01*
X-201906Y181325D01*
X-201859Y181432D01*
X-201808Y181538D01*
X-201753Y181641D01*
X-201695Y181743D01*
X-201634Y181842D01*
X-201570Y181940D01*
X-201502Y182035D01*
X-201431Y182128D01*
X-201357Y182219D01*
X-201280Y182307D01*
X-201200Y182392D01*
X-201117Y182475D01*
X-201032Y182555D01*
X-200944Y182632D01*
X-200853Y182706D01*
X-200760Y182777D01*
X-200665Y182845D01*
X-200567Y182909D01*
X-200468Y182970D01*
X-200366Y183028D01*
X-200263Y183083D01*
X-200157Y183134D01*
X-200050Y183181D01*
X-199942Y183225D01*
X-199832Y183265D01*
X-199721Y183302D01*
X-199609Y183335D01*
X-199495Y183364D01*
X-199381Y183389D01*
X-199266Y183410D01*
X-199151Y183428D01*
X-199034Y183441D01*
X-198918Y183451D01*
X-198801Y183457D01*
X-198684Y183459D01*
X-189936Y183459D01*
X-189819Y183457D01*
X-189702Y183451D01*
X-189586Y183441D01*
X-189470Y183428D01*
X-189354Y183410D01*
X-189239Y183389D01*
X-189125Y183364D01*
X-189011Y183335D01*
X-188899Y183302D01*
X-188788Y183265D01*
X-188678Y183225D01*
X-188570Y183181D01*
X-188463Y183134D01*
X-188357Y183083D01*
X-188254Y183028D01*
X-188152Y182970D01*
X-188053Y182909D01*
X-187955Y182845D01*
X-187860Y182777D01*
X-187767Y182706D01*
X-187676Y182632D01*
X-187588Y182555D01*
X-187503Y182475D01*
X-187420Y182392D01*
X-187340Y182307D01*
X-187263Y182219D01*
X-187189Y182128D01*
X-187118Y182035D01*
X-187050Y181940D01*
X-186986Y181842D01*
X-186925Y181743D01*
X-186867Y181641D01*
X-186812Y181538D01*
X-186761Y181432D01*
X-186714Y181325D01*
X-186670Y181217D01*
X-186630Y181107D01*
X-186593Y180996D01*
X-186560Y180884D01*
X-186531Y180770D01*
X-186506Y180656D01*
X-186485Y180541D01*
X-186467Y180426D01*
X-186454Y180309D01*
X-186444Y180193D01*
X-186438Y180076D01*
X-186436Y179959D01*
X-186436Y176460D01*
X-186436Y169697D02*
X-202184Y169697D01*
X-195185Y164448D02*
X-186436Y169697D01*
X-195185Y164448D02*
X-186436Y159198D01*
X-202184Y159198D01*
D314*
X-248412Y189738D02*
X-259588Y189738D01*
X-254621Y186013D02*
X-248412Y189738D01*
X-254621Y186013D02*
X-248412Y182287D01*
X-259588Y182287D01*
X-248412Y173129D02*
X-248414Y173025D01*
X-248420Y172920D01*
X-248430Y172816D01*
X-248443Y172713D01*
X-248461Y172610D01*
X-248482Y172507D01*
X-248507Y172406D01*
X-248536Y172305D01*
X-248569Y172206D01*
X-248605Y172108D01*
X-248645Y172012D01*
X-248689Y171917D01*
X-248736Y171823D01*
X-248786Y171732D01*
X-248840Y171643D01*
X-248897Y171555D01*
X-248958Y171470D01*
X-249022Y171387D01*
X-249088Y171307D01*
X-249158Y171229D01*
X-249230Y171153D01*
X-249306Y171081D01*
X-249384Y171011D01*
X-249464Y170945D01*
X-249547Y170881D01*
X-249632Y170820D01*
X-249720Y170763D01*
X-249809Y170709D01*
X-249900Y170659D01*
X-249994Y170612D01*
X-250089Y170568D01*
X-250185Y170528D01*
X-250283Y170492D01*
X-250382Y170459D01*
X-250483Y170430D01*
X-250584Y170405D01*
X-250687Y170384D01*
X-250790Y170366D01*
X-250893Y170353D01*
X-250997Y170343D01*
X-251102Y170337D01*
X-251206Y170335D01*
X-248412Y173129D02*
X-248414Y173248D01*
X-248420Y173366D01*
X-248430Y173485D01*
X-248443Y173603D01*
X-248461Y173720D01*
X-248483Y173837D01*
X-248508Y173953D01*
X-248537Y174068D01*
X-248570Y174183D01*
X-248607Y174296D01*
X-248647Y174407D01*
X-248691Y174518D01*
X-248739Y174626D01*
X-248790Y174733D01*
X-248845Y174839D01*
X-248904Y174942D01*
X-248965Y175044D01*
X-249030Y175143D01*
X-249099Y175241D01*
X-249170Y175335D01*
X-249245Y175428D01*
X-249322Y175518D01*
X-249403Y175605D01*
X-249486Y175690D01*
X-249572Y175772D01*
X-249661Y175851D01*
X-249752Y175927D01*
X-249846Y176000D01*
X-249942Y176069D01*
X-250041Y176136D01*
X-250141Y176199D01*
X-250244Y176259D01*
X-250348Y176316D01*
X-250455Y176368D01*
X-250563Y176418D01*
X-250672Y176464D01*
X-250784Y176506D01*
X-250896Y176544D01*
X-253379Y171266D02*
X-253305Y171191D01*
X-253228Y171119D01*
X-253149Y171049D01*
X-253067Y170982D01*
X-252983Y170918D01*
X-252897Y170857D01*
X-252809Y170799D01*
X-252718Y170744D01*
X-252626Y170692D01*
X-252532Y170644D01*
X-252437Y170599D01*
X-252339Y170557D01*
X-252241Y170519D01*
X-252141Y170484D01*
X-252040Y170453D01*
X-251938Y170426D01*
X-251835Y170402D01*
X-251732Y170381D01*
X-251627Y170365D01*
X-251522Y170352D01*
X-251417Y170342D01*
X-251312Y170337D01*
X-251206Y170335D01*
X-253379Y171267D02*
X-259588Y176544D01*
X-259588Y170335D01*
X-183388Y288173D02*
X-172212Y288173D01*
X-172212Y285069D01*
X-172214Y284958D01*
X-172220Y284848D01*
X-172230Y284737D01*
X-172244Y284627D01*
X-172261Y284518D01*
X-172283Y284409D01*
X-172308Y284301D01*
X-172338Y284195D01*
X-172371Y284089D01*
X-172408Y283984D01*
X-172448Y283881D01*
X-172493Y283780D01*
X-172540Y283680D01*
X-172592Y283581D01*
X-172647Y283485D01*
X-172705Y283391D01*
X-172766Y283299D01*
X-172831Y283209D01*
X-172899Y283121D01*
X-172970Y283036D01*
X-173044Y282954D01*
X-173121Y282874D01*
X-173201Y282797D01*
X-173283Y282723D01*
X-173368Y282652D01*
X-173456Y282584D01*
X-173546Y282519D01*
X-173638Y282458D01*
X-173732Y282400D01*
X-173828Y282345D01*
X-173927Y282293D01*
X-174027Y282246D01*
X-174128Y282201D01*
X-174231Y282161D01*
X-174336Y282124D01*
X-174442Y282091D01*
X-174548Y282061D01*
X-174656Y282036D01*
X-174765Y282014D01*
X-174874Y281997D01*
X-174984Y281983D01*
X-175095Y281973D01*
X-175205Y281967D01*
X-175316Y281965D01*
X-175427Y281967D01*
X-175537Y281973D01*
X-175648Y281983D01*
X-175758Y281997D01*
X-175867Y282014D01*
X-175976Y282036D01*
X-176084Y282061D01*
X-176190Y282091D01*
X-176296Y282124D01*
X-176401Y282161D01*
X-176504Y282201D01*
X-176605Y282246D01*
X-176705Y282293D01*
X-176804Y282345D01*
X-176900Y282400D01*
X-176994Y282458D01*
X-177086Y282519D01*
X-177176Y282584D01*
X-177264Y282652D01*
X-177349Y282723D01*
X-177431Y282797D01*
X-177511Y282874D01*
X-177588Y282954D01*
X-177662Y283036D01*
X-177733Y283121D01*
X-177801Y283209D01*
X-177866Y283299D01*
X-177927Y283391D01*
X-177985Y283485D01*
X-178040Y283581D01*
X-178092Y283680D01*
X-178139Y283780D01*
X-178184Y283881D01*
X-178224Y283984D01*
X-178261Y284089D01*
X-178294Y284195D01*
X-178324Y284301D01*
X-178349Y284409D01*
X-178371Y284518D01*
X-178388Y284627D01*
X-178402Y284737D01*
X-178412Y284848D01*
X-178418Y284958D01*
X-178420Y285069D01*
X-178421Y285069D02*
X-178421Y288173D01*
X-178421Y284448D02*
X-183388Y281965D01*
X-174696Y276835D02*
X-172212Y273731D01*
X-183388Y273731D01*
X-183388Y276835D02*
X-183388Y270627D01*
D315*
X-385900Y249100D02*
X-390800Y249100D01*
X-385900Y249100D02*
X-385900Y244200D01*
X-422000Y208100D02*
X-426900Y208100D01*
X-426900Y213000D01*
X-385900Y213000D02*
X-385900Y208100D01*
X-390800Y208100D01*
D317*
X-437400Y241600D02*
X-437398Y241663D01*
X-437392Y241725D01*
X-437382Y241787D01*
X-437369Y241849D01*
X-437351Y241909D01*
X-437330Y241968D01*
X-437305Y242026D01*
X-437276Y242082D01*
X-437244Y242136D01*
X-437209Y242188D01*
X-437171Y242237D01*
X-437129Y242285D01*
X-437085Y242329D01*
X-437037Y242371D01*
X-436988Y242409D01*
X-436936Y242444D01*
X-436882Y242476D01*
X-436826Y242505D01*
X-436768Y242530D01*
X-436709Y242551D01*
X-436649Y242569D01*
X-436587Y242582D01*
X-436525Y242592D01*
X-436463Y242598D01*
X-436400Y242600D01*
X-436337Y242598D01*
X-436275Y242592D01*
X-436213Y242582D01*
X-436151Y242569D01*
X-436091Y242551D01*
X-436032Y242530D01*
X-435974Y242505D01*
X-435918Y242476D01*
X-435864Y242444D01*
X-435812Y242409D01*
X-435763Y242371D01*
X-435715Y242329D01*
X-435671Y242285D01*
X-435629Y242237D01*
X-435591Y242188D01*
X-435556Y242136D01*
X-435524Y242082D01*
X-435495Y242026D01*
X-435470Y241968D01*
X-435449Y241909D01*
X-435431Y241849D01*
X-435418Y241787D01*
X-435408Y241725D01*
X-435402Y241663D01*
X-435400Y241600D01*
X-435402Y241537D01*
X-435408Y241475D01*
X-435418Y241413D01*
X-435431Y241351D01*
X-435449Y241291D01*
X-435470Y241232D01*
X-435495Y241174D01*
X-435524Y241118D01*
X-435556Y241064D01*
X-435591Y241012D01*
X-435629Y240963D01*
X-435671Y240915D01*
X-435715Y240871D01*
X-435763Y240829D01*
X-435812Y240791D01*
X-435864Y240756D01*
X-435918Y240724D01*
X-435974Y240695D01*
X-436032Y240670D01*
X-436091Y240649D01*
X-436151Y240631D01*
X-436213Y240618D01*
X-436275Y240608D01*
X-436337Y240602D01*
X-436400Y240600D01*
X-436463Y240602D01*
X-436525Y240608D01*
X-436587Y240618D01*
X-436649Y240631D01*
X-436709Y240649D01*
X-436768Y240670D01*
X-436826Y240695D01*
X-436882Y240724D01*
X-436936Y240756D01*
X-436988Y240791D01*
X-437037Y240829D01*
X-437085Y240871D01*
X-437129Y240915D01*
X-437171Y240963D01*
X-437209Y241012D01*
X-437244Y241064D01*
X-437276Y241118D01*
X-437305Y241174D01*
X-437330Y241232D01*
X-437351Y241291D01*
X-437369Y241351D01*
X-437382Y241413D01*
X-437392Y241475D01*
X-437398Y241537D01*
X-437400Y241600D01*
D315*
X-426900Y244200D02*
X-426900Y249100D01*
X-422000Y249100D01*
D314*
X-431038Y257866D02*
X-431038Y265938D01*
X-431038Y257866D02*
X-431036Y257755D01*
X-431030Y257645D01*
X-431020Y257534D01*
X-431006Y257424D01*
X-430989Y257315D01*
X-430967Y257206D01*
X-430942Y257098D01*
X-430912Y256992D01*
X-430879Y256886D01*
X-430842Y256781D01*
X-430802Y256678D01*
X-430757Y256577D01*
X-430710Y256477D01*
X-430658Y256378D01*
X-430603Y256282D01*
X-430545Y256188D01*
X-430484Y256096D01*
X-430419Y256006D01*
X-430351Y255918D01*
X-430280Y255833D01*
X-430206Y255751D01*
X-430129Y255671D01*
X-430049Y255594D01*
X-429967Y255520D01*
X-429882Y255449D01*
X-429794Y255381D01*
X-429704Y255316D01*
X-429612Y255255D01*
X-429518Y255197D01*
X-429422Y255142D01*
X-429323Y255090D01*
X-429223Y255043D01*
X-429122Y254998D01*
X-429019Y254958D01*
X-428914Y254921D01*
X-428808Y254888D01*
X-428702Y254858D01*
X-428594Y254833D01*
X-428485Y254811D01*
X-428376Y254794D01*
X-428266Y254780D01*
X-428155Y254770D01*
X-428045Y254764D01*
X-427934Y254762D01*
X-427823Y254764D01*
X-427713Y254770D01*
X-427602Y254780D01*
X-427492Y254794D01*
X-427383Y254811D01*
X-427274Y254833D01*
X-427166Y254858D01*
X-427060Y254888D01*
X-426954Y254921D01*
X-426849Y254958D01*
X-426746Y254998D01*
X-426645Y255043D01*
X-426545Y255090D01*
X-426446Y255142D01*
X-426350Y255197D01*
X-426256Y255255D01*
X-426164Y255316D01*
X-426074Y255381D01*
X-425986Y255449D01*
X-425901Y255520D01*
X-425819Y255594D01*
X-425739Y255671D01*
X-425662Y255751D01*
X-425588Y255833D01*
X-425517Y255918D01*
X-425449Y256006D01*
X-425384Y256096D01*
X-425323Y256188D01*
X-425265Y256282D01*
X-425210Y256378D01*
X-425158Y256477D01*
X-425111Y256577D01*
X-425066Y256678D01*
X-425026Y256781D01*
X-424989Y256886D01*
X-424956Y256992D01*
X-424926Y257098D01*
X-424901Y257206D01*
X-424879Y257315D01*
X-424862Y257424D01*
X-424848Y257534D01*
X-424838Y257645D01*
X-424832Y257755D01*
X-424830Y257866D01*
X-424829Y257866D02*
X-424829Y265938D01*
X-419227Y263454D02*
X-416123Y265938D01*
X-416123Y254762D01*
X-419227Y254762D02*
X-413018Y254762D01*
X-489712Y167523D02*
X-500888Y167523D01*
X-489712Y167523D02*
X-489712Y164419D01*
X-489714Y164308D01*
X-489720Y164198D01*
X-489730Y164087D01*
X-489744Y163977D01*
X-489761Y163868D01*
X-489783Y163759D01*
X-489808Y163651D01*
X-489838Y163545D01*
X-489871Y163439D01*
X-489908Y163334D01*
X-489948Y163231D01*
X-489993Y163130D01*
X-490040Y163030D01*
X-490092Y162931D01*
X-490147Y162835D01*
X-490205Y162741D01*
X-490266Y162649D01*
X-490331Y162559D01*
X-490399Y162471D01*
X-490470Y162386D01*
X-490544Y162304D01*
X-490621Y162224D01*
X-490701Y162147D01*
X-490783Y162073D01*
X-490868Y162002D01*
X-490956Y161934D01*
X-491046Y161869D01*
X-491138Y161808D01*
X-491232Y161750D01*
X-491328Y161695D01*
X-491427Y161643D01*
X-491527Y161596D01*
X-491628Y161551D01*
X-491731Y161511D01*
X-491836Y161474D01*
X-491942Y161441D01*
X-492048Y161411D01*
X-492156Y161386D01*
X-492265Y161364D01*
X-492374Y161347D01*
X-492484Y161333D01*
X-492595Y161323D01*
X-492705Y161317D01*
X-492816Y161315D01*
X-492927Y161317D01*
X-493037Y161323D01*
X-493148Y161333D01*
X-493258Y161347D01*
X-493367Y161364D01*
X-493476Y161386D01*
X-493584Y161411D01*
X-493690Y161441D01*
X-493796Y161474D01*
X-493901Y161511D01*
X-494004Y161551D01*
X-494105Y161596D01*
X-494205Y161643D01*
X-494304Y161695D01*
X-494400Y161750D01*
X-494494Y161808D01*
X-494586Y161869D01*
X-494676Y161934D01*
X-494764Y162002D01*
X-494849Y162073D01*
X-494931Y162147D01*
X-495011Y162224D01*
X-495088Y162304D01*
X-495162Y162386D01*
X-495233Y162471D01*
X-495301Y162559D01*
X-495366Y162649D01*
X-495427Y162741D01*
X-495485Y162835D01*
X-495540Y162931D01*
X-495592Y163030D01*
X-495639Y163130D01*
X-495684Y163231D01*
X-495724Y163334D01*
X-495761Y163439D01*
X-495794Y163545D01*
X-495824Y163651D01*
X-495849Y163759D01*
X-495871Y163868D01*
X-495888Y163977D01*
X-495902Y164087D01*
X-495912Y164198D01*
X-495918Y164308D01*
X-495920Y164419D01*
X-495921Y164419D02*
X-495921Y167523D01*
X-495921Y163798D02*
X-500888Y161315D01*
X-498404Y156185D02*
X-489712Y153702D01*
X-498404Y156185D02*
X-498404Y149977D01*
X-495921Y151839D02*
X-500888Y151839D01*
X-475488Y167523D02*
X-464312Y167523D01*
X-464312Y164419D01*
X-464314Y164308D01*
X-464320Y164198D01*
X-464330Y164087D01*
X-464344Y163977D01*
X-464361Y163868D01*
X-464383Y163759D01*
X-464408Y163651D01*
X-464438Y163545D01*
X-464471Y163439D01*
X-464508Y163334D01*
X-464548Y163231D01*
X-464593Y163130D01*
X-464640Y163030D01*
X-464692Y162931D01*
X-464747Y162835D01*
X-464805Y162741D01*
X-464866Y162649D01*
X-464931Y162559D01*
X-464999Y162471D01*
X-465070Y162386D01*
X-465144Y162304D01*
X-465221Y162224D01*
X-465301Y162147D01*
X-465383Y162073D01*
X-465468Y162002D01*
X-465556Y161934D01*
X-465646Y161869D01*
X-465738Y161808D01*
X-465832Y161750D01*
X-465928Y161695D01*
X-466027Y161643D01*
X-466127Y161596D01*
X-466228Y161551D01*
X-466331Y161511D01*
X-466436Y161474D01*
X-466542Y161441D01*
X-466648Y161411D01*
X-466756Y161386D01*
X-466865Y161364D01*
X-466974Y161347D01*
X-467084Y161333D01*
X-467195Y161323D01*
X-467305Y161317D01*
X-467416Y161315D01*
X-467527Y161317D01*
X-467637Y161323D01*
X-467748Y161333D01*
X-467858Y161347D01*
X-467967Y161364D01*
X-468076Y161386D01*
X-468184Y161411D01*
X-468290Y161441D01*
X-468396Y161474D01*
X-468501Y161511D01*
X-468604Y161551D01*
X-468705Y161596D01*
X-468805Y161643D01*
X-468904Y161695D01*
X-469000Y161750D01*
X-469094Y161808D01*
X-469186Y161869D01*
X-469276Y161934D01*
X-469364Y162002D01*
X-469449Y162073D01*
X-469531Y162147D01*
X-469611Y162224D01*
X-469688Y162304D01*
X-469762Y162386D01*
X-469833Y162471D01*
X-469901Y162559D01*
X-469966Y162649D01*
X-470027Y162741D01*
X-470085Y162835D01*
X-470140Y162931D01*
X-470192Y163030D01*
X-470239Y163130D01*
X-470284Y163231D01*
X-470324Y163334D01*
X-470361Y163439D01*
X-470394Y163545D01*
X-470424Y163651D01*
X-470449Y163759D01*
X-470471Y163868D01*
X-470488Y163977D01*
X-470502Y164087D01*
X-470512Y164198D01*
X-470518Y164308D01*
X-470520Y164419D01*
X-470521Y164419D02*
X-470521Y167523D01*
X-470521Y163798D02*
X-475488Y161315D01*
X-475488Y156185D02*
X-475488Y152460D01*
X-475486Y152362D01*
X-475480Y152265D01*
X-475471Y152168D01*
X-475457Y152071D01*
X-475440Y151975D01*
X-475419Y151880D01*
X-475395Y151786D01*
X-475366Y151692D01*
X-475334Y151600D01*
X-475299Y151509D01*
X-475260Y151420D01*
X-475217Y151332D01*
X-475171Y151246D01*
X-475122Y151162D01*
X-475069Y151080D01*
X-475014Y151000D01*
X-474955Y150922D01*
X-474893Y150847D01*
X-474828Y150774D01*
X-474760Y150704D01*
X-474690Y150636D01*
X-474617Y150571D01*
X-474542Y150509D01*
X-474464Y150450D01*
X-474384Y150395D01*
X-474302Y150342D01*
X-474218Y150293D01*
X-474132Y150247D01*
X-474044Y150204D01*
X-473955Y150165D01*
X-473864Y150130D01*
X-473772Y150098D01*
X-473678Y150069D01*
X-473584Y150045D01*
X-473489Y150024D01*
X-473393Y150007D01*
X-473296Y149993D01*
X-473199Y149984D01*
X-473102Y149978D01*
X-473004Y149976D01*
X-473004Y149977D02*
X-471763Y149977D01*
X-471763Y149976D02*
X-471665Y149978D01*
X-471568Y149984D01*
X-471471Y149993D01*
X-471374Y150007D01*
X-471278Y150024D01*
X-471183Y150045D01*
X-471089Y150069D01*
X-470995Y150098D01*
X-470903Y150130D01*
X-470812Y150165D01*
X-470723Y150204D01*
X-470635Y150247D01*
X-470549Y150293D01*
X-470465Y150342D01*
X-470383Y150395D01*
X-470303Y150450D01*
X-470225Y150509D01*
X-470150Y150571D01*
X-470077Y150636D01*
X-470007Y150704D01*
X-469939Y150774D01*
X-469874Y150847D01*
X-469812Y150922D01*
X-469753Y151000D01*
X-469698Y151080D01*
X-469645Y151162D01*
X-469596Y151246D01*
X-469550Y151332D01*
X-469507Y151420D01*
X-469468Y151509D01*
X-469433Y151600D01*
X-469401Y151692D01*
X-469372Y151786D01*
X-469348Y151880D01*
X-469327Y151975D01*
X-469310Y152071D01*
X-469296Y152168D01*
X-469287Y152265D01*
X-469281Y152362D01*
X-469279Y152460D01*
X-469279Y156185D01*
X-464312Y156185D01*
X-464312Y149977D01*
X-608457Y120269D02*
X-614807Y113919D01*
X-608457Y120269D02*
X-608457Y132969D01*
X-614807Y139319D01*
X-608457Y145669D01*
X-608457Y158369D01*
X-614807Y164719D01*
X-608457Y171069D01*
X-608457Y183769D01*
X-614807Y190119D01*
D316*
X-614807Y113919D02*
X-652907Y113919D01*
X-659257Y120269D01*
X-659257Y132969D01*
X-652907Y139319D01*
X-659257Y145669D01*
X-659257Y158369D01*
X-652907Y164719D01*
X-659257Y171069D01*
X-659257Y183769D01*
X-652907Y190119D01*
X-652907Y139319D02*
X-614807Y139319D01*
X-614807Y164719D02*
X-652907Y164719D01*
X-652907Y190119D02*
X-614807Y190119D01*
D313*
X-690301Y119507D02*
X-694196Y119507D01*
X-690301Y119507D02*
X-690202Y119509D01*
X-690102Y119515D01*
X-690003Y119524D01*
X-689905Y119537D01*
X-689807Y119554D01*
X-689709Y119575D01*
X-689613Y119600D01*
X-689518Y119628D01*
X-689424Y119660D01*
X-689331Y119695D01*
X-689239Y119734D01*
X-689149Y119777D01*
X-689061Y119822D01*
X-688974Y119872D01*
X-688890Y119924D01*
X-688807Y119980D01*
X-688727Y120038D01*
X-688649Y120100D01*
X-688574Y120165D01*
X-688501Y120233D01*
X-688431Y120303D01*
X-688363Y120376D01*
X-688298Y120451D01*
X-688236Y120529D01*
X-688178Y120609D01*
X-688122Y120692D01*
X-688070Y120776D01*
X-688020Y120863D01*
X-687975Y120951D01*
X-687932Y121041D01*
X-687893Y121133D01*
X-687858Y121226D01*
X-687826Y121320D01*
X-687798Y121415D01*
X-687773Y121511D01*
X-687752Y121609D01*
X-687735Y121707D01*
X-687722Y121805D01*
X-687713Y121904D01*
X-687707Y122004D01*
X-687705Y122103D01*
X-687705Y123402D01*
X-687707Y123501D01*
X-687713Y123601D01*
X-687722Y123700D01*
X-687735Y123798D01*
X-687752Y123896D01*
X-687773Y123994D01*
X-687798Y124090D01*
X-687826Y124185D01*
X-687858Y124279D01*
X-687893Y124372D01*
X-687932Y124464D01*
X-687975Y124554D01*
X-688020Y124642D01*
X-688070Y124729D01*
X-688122Y124813D01*
X-688178Y124896D01*
X-688236Y124976D01*
X-688298Y125054D01*
X-688363Y125129D01*
X-688431Y125202D01*
X-688501Y125272D01*
X-688574Y125340D01*
X-688649Y125405D01*
X-688727Y125467D01*
X-688807Y125525D01*
X-688890Y125581D01*
X-688974Y125633D01*
X-689061Y125683D01*
X-689149Y125728D01*
X-689239Y125771D01*
X-689331Y125810D01*
X-689424Y125845D01*
X-689518Y125877D01*
X-689613Y125905D01*
X-689709Y125930D01*
X-689807Y125951D01*
X-689905Y125968D01*
X-690003Y125981D01*
X-690102Y125990D01*
X-690202Y125996D01*
X-690301Y125998D01*
X-694196Y125998D01*
X-694196Y131191D01*
X-687705Y131191D01*
X-683415Y131191D02*
X-679521Y119507D01*
X-675626Y131191D01*
X-670363Y129568D02*
X-670462Y129361D01*
X-670555Y129151D01*
X-670643Y128938D01*
X-670726Y128724D01*
X-670804Y128508D01*
X-670877Y128290D01*
X-670945Y128070D01*
X-671007Y127849D01*
X-671064Y127626D01*
X-671116Y127402D01*
X-671162Y127177D01*
X-671203Y126951D01*
X-671238Y126724D01*
X-671268Y126496D01*
X-671293Y126267D01*
X-671312Y126038D01*
X-671326Y125809D01*
X-671334Y125579D01*
X-671337Y125349D01*
X-670363Y129568D02*
X-670330Y129658D01*
X-670294Y129747D01*
X-670254Y129835D01*
X-670210Y129920D01*
X-670163Y130004D01*
X-670113Y130086D01*
X-670059Y130166D01*
X-670003Y130243D01*
X-669943Y130319D01*
X-669880Y130392D01*
X-669815Y130462D01*
X-669746Y130530D01*
X-669675Y130594D01*
X-669602Y130656D01*
X-669526Y130715D01*
X-669448Y130771D01*
X-669367Y130824D01*
X-669285Y130873D01*
X-669201Y130919D01*
X-669114Y130962D01*
X-669027Y131001D01*
X-668937Y131037D01*
X-668847Y131069D01*
X-668755Y131097D01*
X-668662Y131122D01*
X-668568Y131143D01*
X-668474Y131160D01*
X-668379Y131174D01*
X-668283Y131183D01*
X-668187Y131189D01*
X-668091Y131191D01*
X-667995Y131189D01*
X-667899Y131183D01*
X-667803Y131174D01*
X-667708Y131160D01*
X-667614Y131143D01*
X-667520Y131122D01*
X-667427Y131097D01*
X-667335Y131069D01*
X-667245Y131037D01*
X-667155Y131001D01*
X-667068Y130962D01*
X-666981Y130919D01*
X-666897Y130873D01*
X-666815Y130824D01*
X-666734Y130771D01*
X-666656Y130715D01*
X-666580Y130656D01*
X-666507Y130594D01*
X-666436Y130530D01*
X-666367Y130462D01*
X-666302Y130392D01*
X-666239Y130319D01*
X-666179Y130244D01*
X-666123Y130166D01*
X-666069Y130086D01*
X-666019Y130004D01*
X-665972Y129920D01*
X-665929Y129835D01*
X-665888Y129747D01*
X-665852Y129658D01*
X-665819Y129568D01*
X-665720Y129360D01*
X-665627Y129150D01*
X-665539Y128938D01*
X-665456Y128724D01*
X-665378Y128507D01*
X-665305Y128289D01*
X-665237Y128070D01*
X-665175Y127848D01*
X-665118Y127626D01*
X-665066Y127402D01*
X-665020Y127177D01*
X-664979Y126951D01*
X-664944Y126723D01*
X-664914Y126496D01*
X-664889Y126267D01*
X-664870Y126038D01*
X-664856Y125809D01*
X-664848Y125579D01*
X-664845Y125349D01*
X-671336Y125349D02*
X-671333Y125119D01*
X-671325Y124889D01*
X-671311Y124660D01*
X-671292Y124431D01*
X-671267Y124202D01*
X-671237Y123974D01*
X-671202Y123747D01*
X-671161Y123521D01*
X-671115Y123296D01*
X-671063Y123072D01*
X-671006Y122849D01*
X-670944Y122628D01*
X-670876Y122408D01*
X-670803Y122190D01*
X-670725Y121974D01*
X-670642Y121760D01*
X-670554Y121548D01*
X-670461Y121337D01*
X-670362Y121130D01*
X-670363Y121130D02*
X-670330Y121040D01*
X-670294Y120951D01*
X-670253Y120863D01*
X-670210Y120778D01*
X-670163Y120694D01*
X-670113Y120612D01*
X-670059Y120532D01*
X-670003Y120455D01*
X-669943Y120379D01*
X-669880Y120306D01*
X-669815Y120236D01*
X-669746Y120168D01*
X-669675Y120104D01*
X-669602Y120042D01*
X-669526Y119983D01*
X-669448Y119927D01*
X-669367Y119874D01*
X-669285Y119825D01*
X-669201Y119779D01*
X-669114Y119736D01*
X-669027Y119697D01*
X-668937Y119661D01*
X-668847Y119629D01*
X-668755Y119601D01*
X-668662Y119576D01*
X-668568Y119555D01*
X-668474Y119538D01*
X-668379Y119524D01*
X-668283Y119515D01*
X-668187Y119509D01*
X-668091Y119507D01*
X-665819Y121130D02*
X-665720Y121337D01*
X-665627Y121548D01*
X-665539Y121760D01*
X-665456Y121974D01*
X-665378Y122190D01*
X-665305Y122408D01*
X-665237Y122628D01*
X-665175Y122849D01*
X-665118Y123072D01*
X-665066Y123296D01*
X-665020Y123521D01*
X-664979Y123747D01*
X-664944Y123974D01*
X-664914Y124202D01*
X-664889Y124431D01*
X-664870Y124660D01*
X-664856Y124889D01*
X-664848Y125119D01*
X-664845Y125349D01*
X-665819Y121130D02*
X-665852Y121040D01*
X-665888Y120951D01*
X-665929Y120863D01*
X-665972Y120778D01*
X-666019Y120694D01*
X-666069Y120612D01*
X-666123Y120532D01*
X-666179Y120454D01*
X-666239Y120379D01*
X-666302Y120306D01*
X-666367Y120236D01*
X-666436Y120168D01*
X-666507Y120104D01*
X-666580Y120042D01*
X-666656Y119983D01*
X-666734Y119927D01*
X-666815Y119874D01*
X-666897Y119825D01*
X-666981Y119779D01*
X-667068Y119736D01*
X-667155Y119697D01*
X-667245Y119661D01*
X-667335Y119629D01*
X-667427Y119601D01*
X-667520Y119576D01*
X-667614Y119555D01*
X-667708Y119538D01*
X-667803Y119524D01*
X-667899Y119515D01*
X-667995Y119509D01*
X-668091Y119507D01*
X-670687Y122103D02*
X-665494Y128595D01*
X-695522Y144907D02*
X-699417Y144907D01*
X-695522Y144907D02*
X-695423Y144909D01*
X-695323Y144915D01*
X-695224Y144924D01*
X-695126Y144937D01*
X-695028Y144954D01*
X-694930Y144975D01*
X-694834Y145000D01*
X-694739Y145028D01*
X-694645Y145060D01*
X-694552Y145095D01*
X-694460Y145134D01*
X-694370Y145177D01*
X-694282Y145222D01*
X-694195Y145272D01*
X-694111Y145324D01*
X-694028Y145380D01*
X-693948Y145438D01*
X-693870Y145500D01*
X-693795Y145565D01*
X-693722Y145633D01*
X-693652Y145703D01*
X-693584Y145776D01*
X-693519Y145851D01*
X-693457Y145929D01*
X-693399Y146009D01*
X-693343Y146092D01*
X-693291Y146176D01*
X-693241Y146263D01*
X-693196Y146351D01*
X-693153Y146441D01*
X-693114Y146533D01*
X-693079Y146626D01*
X-693047Y146720D01*
X-693019Y146815D01*
X-692994Y146911D01*
X-692973Y147009D01*
X-692956Y147107D01*
X-692943Y147205D01*
X-692934Y147304D01*
X-692928Y147404D01*
X-692926Y147503D01*
X-692926Y148802D01*
X-692928Y148901D01*
X-692934Y149001D01*
X-692943Y149100D01*
X-692956Y149198D01*
X-692973Y149296D01*
X-692994Y149394D01*
X-693019Y149490D01*
X-693047Y149585D01*
X-693079Y149679D01*
X-693114Y149772D01*
X-693153Y149864D01*
X-693196Y149954D01*
X-693241Y150042D01*
X-693291Y150129D01*
X-693343Y150213D01*
X-693399Y150296D01*
X-693457Y150376D01*
X-693519Y150454D01*
X-693584Y150529D01*
X-693652Y150602D01*
X-693722Y150672D01*
X-693795Y150740D01*
X-693870Y150805D01*
X-693948Y150867D01*
X-694028Y150925D01*
X-694111Y150981D01*
X-694195Y151033D01*
X-694282Y151083D01*
X-694370Y151128D01*
X-694460Y151171D01*
X-694552Y151210D01*
X-694645Y151245D01*
X-694739Y151277D01*
X-694834Y151305D01*
X-694930Y151330D01*
X-695028Y151351D01*
X-695126Y151368D01*
X-695224Y151381D01*
X-695323Y151390D01*
X-695423Y151396D01*
X-695522Y151398D01*
X-699417Y151398D01*
X-699417Y156591D01*
X-692926Y156591D01*
X-688495Y145556D02*
X-688495Y144907D01*
X-688495Y145556D02*
X-687846Y145556D01*
X-687846Y144907D01*
X-688495Y144907D01*
X-683416Y150749D02*
X-683413Y150979D01*
X-683405Y151209D01*
X-683391Y151438D01*
X-683372Y151667D01*
X-683347Y151896D01*
X-683317Y152124D01*
X-683282Y152351D01*
X-683241Y152577D01*
X-683195Y152802D01*
X-683143Y153026D01*
X-683086Y153249D01*
X-683024Y153470D01*
X-682956Y153690D01*
X-682883Y153908D01*
X-682805Y154124D01*
X-682722Y154338D01*
X-682634Y154551D01*
X-682541Y154761D01*
X-682442Y154968D01*
X-682409Y155058D01*
X-682373Y155147D01*
X-682333Y155235D01*
X-682289Y155320D01*
X-682242Y155404D01*
X-682192Y155486D01*
X-682138Y155566D01*
X-682082Y155643D01*
X-682022Y155719D01*
X-681959Y155792D01*
X-681894Y155862D01*
X-681825Y155930D01*
X-681754Y155994D01*
X-681681Y156056D01*
X-681605Y156115D01*
X-681527Y156171D01*
X-681446Y156224D01*
X-681364Y156273D01*
X-681280Y156319D01*
X-681193Y156362D01*
X-681106Y156401D01*
X-681016Y156437D01*
X-680926Y156469D01*
X-680834Y156497D01*
X-680741Y156522D01*
X-680647Y156543D01*
X-680553Y156560D01*
X-680458Y156574D01*
X-680362Y156583D01*
X-680266Y156589D01*
X-680170Y156591D01*
X-680074Y156589D01*
X-679978Y156583D01*
X-679882Y156574D01*
X-679787Y156560D01*
X-679693Y156543D01*
X-679599Y156522D01*
X-679506Y156497D01*
X-679414Y156469D01*
X-679324Y156437D01*
X-679234Y156401D01*
X-679147Y156362D01*
X-679060Y156319D01*
X-678976Y156273D01*
X-678894Y156224D01*
X-678813Y156171D01*
X-678735Y156115D01*
X-678659Y156056D01*
X-678586Y155994D01*
X-678515Y155930D01*
X-678446Y155862D01*
X-678381Y155792D01*
X-678318Y155719D01*
X-678258Y155644D01*
X-678202Y155566D01*
X-678148Y155486D01*
X-678098Y155404D01*
X-678051Y155320D01*
X-678008Y155235D01*
X-677967Y155147D01*
X-677931Y155058D01*
X-677898Y154968D01*
X-677899Y154968D02*
X-677800Y154760D01*
X-677707Y154550D01*
X-677619Y154338D01*
X-677536Y154124D01*
X-677458Y153907D01*
X-677385Y153689D01*
X-677317Y153470D01*
X-677255Y153248D01*
X-677198Y153026D01*
X-677146Y152802D01*
X-677100Y152577D01*
X-677059Y152351D01*
X-677024Y152123D01*
X-676994Y151896D01*
X-676969Y151667D01*
X-676950Y151438D01*
X-676936Y151209D01*
X-676928Y150979D01*
X-676925Y150749D01*
X-683415Y150749D02*
X-683412Y150519D01*
X-683404Y150289D01*
X-683390Y150060D01*
X-683371Y149831D01*
X-683346Y149602D01*
X-683316Y149374D01*
X-683281Y149147D01*
X-683240Y148921D01*
X-683194Y148696D01*
X-683142Y148472D01*
X-683085Y148249D01*
X-683023Y148028D01*
X-682955Y147808D01*
X-682882Y147590D01*
X-682804Y147374D01*
X-682721Y147160D01*
X-682633Y146948D01*
X-682540Y146737D01*
X-682441Y146530D01*
X-682442Y146530D02*
X-682409Y146440D01*
X-682373Y146351D01*
X-682332Y146263D01*
X-682289Y146178D01*
X-682242Y146094D01*
X-682192Y146012D01*
X-682138Y145932D01*
X-682082Y145855D01*
X-682022Y145779D01*
X-681959Y145706D01*
X-681894Y145636D01*
X-681825Y145568D01*
X-681754Y145504D01*
X-681681Y145442D01*
X-681605Y145383D01*
X-681527Y145327D01*
X-681446Y145274D01*
X-681364Y145225D01*
X-681280Y145179D01*
X-681193Y145136D01*
X-681106Y145097D01*
X-681016Y145061D01*
X-680926Y145029D01*
X-680834Y145001D01*
X-680741Y144976D01*
X-680647Y144955D01*
X-680553Y144938D01*
X-680458Y144924D01*
X-680362Y144915D01*
X-680266Y144909D01*
X-680170Y144907D01*
X-677898Y146530D02*
X-677799Y146737D01*
X-677706Y146948D01*
X-677618Y147160D01*
X-677535Y147374D01*
X-677457Y147590D01*
X-677384Y147808D01*
X-677316Y148028D01*
X-677254Y148249D01*
X-677197Y148472D01*
X-677145Y148696D01*
X-677099Y148921D01*
X-677058Y149147D01*
X-677023Y149374D01*
X-676993Y149602D01*
X-676968Y149831D01*
X-676949Y150060D01*
X-676935Y150289D01*
X-676927Y150519D01*
X-676924Y150749D01*
X-677898Y146530D02*
X-677931Y146440D01*
X-677967Y146351D01*
X-678008Y146263D01*
X-678051Y146178D01*
X-678098Y146094D01*
X-678148Y146012D01*
X-678202Y145932D01*
X-678258Y145854D01*
X-678318Y145779D01*
X-678381Y145706D01*
X-678446Y145636D01*
X-678515Y145568D01*
X-678586Y145504D01*
X-678659Y145442D01*
X-678735Y145383D01*
X-678813Y145327D01*
X-678894Y145274D01*
X-678976Y145225D01*
X-679060Y145179D01*
X-679147Y145136D01*
X-679234Y145097D01*
X-679324Y145061D01*
X-679414Y145029D01*
X-679506Y145001D01*
X-679599Y144976D01*
X-679693Y144955D01*
X-679787Y144938D01*
X-679882Y144924D01*
X-679978Y144915D01*
X-680074Y144909D01*
X-680170Y144907D01*
X-682766Y147503D02*
X-677573Y153995D01*
X-672634Y156591D02*
X-668740Y144907D01*
X-664845Y156591D01*
X-689229Y176798D02*
X-691176Y176798D01*
X-689229Y176798D02*
X-689229Y170307D01*
X-693124Y170307D01*
X-693223Y170309D01*
X-693323Y170315D01*
X-693422Y170324D01*
X-693520Y170337D01*
X-693618Y170354D01*
X-693716Y170375D01*
X-693812Y170400D01*
X-693907Y170428D01*
X-694001Y170460D01*
X-694094Y170495D01*
X-694186Y170534D01*
X-694276Y170577D01*
X-694364Y170622D01*
X-694451Y170672D01*
X-694535Y170724D01*
X-694618Y170780D01*
X-694698Y170838D01*
X-694776Y170900D01*
X-694851Y170965D01*
X-694924Y171033D01*
X-694994Y171103D01*
X-695062Y171176D01*
X-695127Y171251D01*
X-695189Y171329D01*
X-695247Y171409D01*
X-695303Y171492D01*
X-695355Y171576D01*
X-695405Y171663D01*
X-695450Y171751D01*
X-695493Y171841D01*
X-695532Y171933D01*
X-695567Y172026D01*
X-695599Y172120D01*
X-695627Y172215D01*
X-695652Y172311D01*
X-695673Y172409D01*
X-695690Y172507D01*
X-695703Y172605D01*
X-695712Y172704D01*
X-695718Y172804D01*
X-695720Y172903D01*
X-695720Y179395D01*
X-695718Y179494D01*
X-695712Y179594D01*
X-695703Y179693D01*
X-695690Y179791D01*
X-695673Y179889D01*
X-695652Y179987D01*
X-695627Y180083D01*
X-695599Y180178D01*
X-695567Y180272D01*
X-695532Y180365D01*
X-695493Y180457D01*
X-695450Y180547D01*
X-695405Y180635D01*
X-695355Y180722D01*
X-695303Y180806D01*
X-695247Y180889D01*
X-695189Y180969D01*
X-695127Y181047D01*
X-695062Y181122D01*
X-694994Y181195D01*
X-694924Y181265D01*
X-694851Y181333D01*
X-694776Y181398D01*
X-694698Y181460D01*
X-694618Y181518D01*
X-694535Y181574D01*
X-694451Y181626D01*
X-694364Y181676D01*
X-694276Y181721D01*
X-694186Y181764D01*
X-694094Y181803D01*
X-694001Y181838D01*
X-693907Y181870D01*
X-693812Y181898D01*
X-693716Y181923D01*
X-693618Y181944D01*
X-693520Y181961D01*
X-693422Y181974D01*
X-693323Y181983D01*
X-693223Y181989D01*
X-693124Y181991D01*
X-689229Y181991D01*
X-683528Y181991D02*
X-683528Y170307D01*
X-677037Y170307D02*
X-683528Y181991D01*
X-677037Y181991D02*
X-677037Y170307D01*
X-671336Y170307D02*
X-671336Y181991D01*
X-668091Y181991D01*
X-667978Y181989D01*
X-667865Y181983D01*
X-667752Y181973D01*
X-667639Y181959D01*
X-667527Y181942D01*
X-667416Y181920D01*
X-667306Y181895D01*
X-667196Y181865D01*
X-667088Y181832D01*
X-666981Y181795D01*
X-666875Y181755D01*
X-666771Y181710D01*
X-666668Y181662D01*
X-666567Y181611D01*
X-666468Y181556D01*
X-666371Y181498D01*
X-666276Y181436D01*
X-666183Y181371D01*
X-666093Y181303D01*
X-666005Y181232D01*
X-665919Y181157D01*
X-665836Y181080D01*
X-665756Y181000D01*
X-665679Y180917D01*
X-665604Y180831D01*
X-665533Y180743D01*
X-665465Y180653D01*
X-665400Y180560D01*
X-665338Y180465D01*
X-665280Y180368D01*
X-665225Y180269D01*
X-665174Y180168D01*
X-665126Y180065D01*
X-665081Y179961D01*
X-665041Y179855D01*
X-665004Y179748D01*
X-664971Y179640D01*
X-664941Y179530D01*
X-664916Y179420D01*
X-664894Y179309D01*
X-664877Y179197D01*
X-664863Y179084D01*
X-664853Y178971D01*
X-664847Y178858D01*
X-664845Y178745D01*
X-664845Y173553D01*
X-664847Y173440D01*
X-664853Y173327D01*
X-664863Y173214D01*
X-664877Y173101D01*
X-664894Y172989D01*
X-664916Y172878D01*
X-664941Y172768D01*
X-664971Y172658D01*
X-665004Y172550D01*
X-665041Y172443D01*
X-665081Y172337D01*
X-665126Y172233D01*
X-665174Y172130D01*
X-665225Y172029D01*
X-665280Y171930D01*
X-665338Y171833D01*
X-665400Y171738D01*
X-665465Y171645D01*
X-665533Y171555D01*
X-665604Y171467D01*
X-665679Y171381D01*
X-665756Y171298D01*
X-665836Y171218D01*
X-665919Y171141D01*
X-666005Y171066D01*
X-666093Y170995D01*
X-666183Y170927D01*
X-666276Y170862D01*
X-666371Y170800D01*
X-666468Y170742D01*
X-666567Y170687D01*
X-666668Y170636D01*
X-666771Y170588D01*
X-666875Y170543D01*
X-666981Y170503D01*
X-667088Y170466D01*
X-667196Y170433D01*
X-667306Y170403D01*
X-667416Y170378D01*
X-667527Y170356D01*
X-667639Y170339D01*
X-667752Y170325D01*
X-667865Y170315D01*
X-667978Y170309D01*
X-668091Y170307D01*
X-671336Y170307D01*
X-602869Y119507D02*
X-599623Y119507D01*
X-599510Y119509D01*
X-599397Y119515D01*
X-599284Y119525D01*
X-599171Y119539D01*
X-599059Y119556D01*
X-598948Y119578D01*
X-598838Y119603D01*
X-598728Y119633D01*
X-598620Y119666D01*
X-598513Y119703D01*
X-598407Y119743D01*
X-598303Y119788D01*
X-598200Y119836D01*
X-598099Y119887D01*
X-598000Y119942D01*
X-597903Y120000D01*
X-597808Y120062D01*
X-597715Y120127D01*
X-597625Y120195D01*
X-597537Y120266D01*
X-597451Y120341D01*
X-597368Y120418D01*
X-597288Y120498D01*
X-597211Y120581D01*
X-597136Y120667D01*
X-597065Y120755D01*
X-596997Y120845D01*
X-596932Y120938D01*
X-596870Y121033D01*
X-596812Y121130D01*
X-596757Y121229D01*
X-596706Y121330D01*
X-596658Y121433D01*
X-596613Y121537D01*
X-596573Y121643D01*
X-596536Y121750D01*
X-596503Y121858D01*
X-596473Y121968D01*
X-596448Y122078D01*
X-596426Y122189D01*
X-596409Y122301D01*
X-596395Y122414D01*
X-596385Y122527D01*
X-596379Y122640D01*
X-596377Y122753D01*
X-596379Y122866D01*
X-596385Y122979D01*
X-596395Y123092D01*
X-596409Y123205D01*
X-596426Y123317D01*
X-596448Y123428D01*
X-596473Y123538D01*
X-596503Y123648D01*
X-596536Y123756D01*
X-596573Y123863D01*
X-596613Y123969D01*
X-596658Y124073D01*
X-596706Y124176D01*
X-596757Y124277D01*
X-596812Y124376D01*
X-596870Y124473D01*
X-596932Y124568D01*
X-596997Y124661D01*
X-597065Y124751D01*
X-597136Y124839D01*
X-597211Y124925D01*
X-597288Y125008D01*
X-597368Y125088D01*
X-597451Y125165D01*
X-597537Y125240D01*
X-597625Y125311D01*
X-597715Y125379D01*
X-597808Y125444D01*
X-597903Y125506D01*
X-598000Y125564D01*
X-598099Y125619D01*
X-598200Y125670D01*
X-598303Y125718D01*
X-598407Y125763D01*
X-598513Y125803D01*
X-598620Y125840D01*
X-598728Y125873D01*
X-598838Y125903D01*
X-598948Y125928D01*
X-599059Y125950D01*
X-599171Y125967D01*
X-599284Y125981D01*
X-599397Y125991D01*
X-599510Y125997D01*
X-599623Y125999D01*
X-598974Y131191D02*
X-602869Y131191D01*
X-598974Y131191D02*
X-598873Y131189D01*
X-598773Y131183D01*
X-598673Y131173D01*
X-598573Y131160D01*
X-598474Y131142D01*
X-598375Y131121D01*
X-598278Y131096D01*
X-598181Y131067D01*
X-598086Y131034D01*
X-597992Y130998D01*
X-597900Y130958D01*
X-597809Y130915D01*
X-597720Y130868D01*
X-597633Y130818D01*
X-597547Y130764D01*
X-597464Y130707D01*
X-597384Y130647D01*
X-597305Y130584D01*
X-597229Y130517D01*
X-597156Y130448D01*
X-597086Y130376D01*
X-597018Y130302D01*
X-596953Y130225D01*
X-596892Y130145D01*
X-596833Y130063D01*
X-596778Y129979D01*
X-596726Y129893D01*
X-596677Y129805D01*
X-596632Y129715D01*
X-596590Y129623D01*
X-596552Y129530D01*
X-596518Y129435D01*
X-596487Y129340D01*
X-596460Y129243D01*
X-596437Y129145D01*
X-596417Y129046D01*
X-596402Y128946D01*
X-596390Y128846D01*
X-596382Y128746D01*
X-596378Y128645D01*
X-596378Y128545D01*
X-596382Y128444D01*
X-596390Y128344D01*
X-596402Y128244D01*
X-596417Y128144D01*
X-596437Y128045D01*
X-596460Y127947D01*
X-596487Y127850D01*
X-596518Y127755D01*
X-596552Y127660D01*
X-596590Y127567D01*
X-596632Y127475D01*
X-596677Y127385D01*
X-596726Y127297D01*
X-596778Y127211D01*
X-596833Y127127D01*
X-596892Y127045D01*
X-596953Y126965D01*
X-597018Y126888D01*
X-597086Y126814D01*
X-597156Y126742D01*
X-597229Y126673D01*
X-597305Y126606D01*
X-597384Y126543D01*
X-597464Y126483D01*
X-597547Y126426D01*
X-597633Y126372D01*
X-597720Y126322D01*
X-597809Y126275D01*
X-597900Y126232D01*
X-597992Y126192D01*
X-598086Y126156D01*
X-598181Y126123D01*
X-598278Y126094D01*
X-598375Y126069D01*
X-598474Y126048D01*
X-598573Y126030D01*
X-598673Y126017D01*
X-598773Y126007D01*
X-598873Y126001D01*
X-598974Y125999D01*
X-598974Y125998D02*
X-601571Y125998D01*
X-592088Y131191D02*
X-588193Y119507D01*
X-584299Y131191D01*
X-580009Y119507D02*
X-576764Y119507D01*
X-576651Y119509D01*
X-576538Y119515D01*
X-576425Y119525D01*
X-576312Y119539D01*
X-576200Y119556D01*
X-576089Y119578D01*
X-575979Y119603D01*
X-575869Y119633D01*
X-575761Y119666D01*
X-575654Y119703D01*
X-575548Y119743D01*
X-575444Y119788D01*
X-575341Y119836D01*
X-575240Y119887D01*
X-575141Y119942D01*
X-575044Y120000D01*
X-574949Y120062D01*
X-574856Y120127D01*
X-574766Y120195D01*
X-574678Y120266D01*
X-574592Y120341D01*
X-574509Y120418D01*
X-574429Y120498D01*
X-574352Y120581D01*
X-574277Y120667D01*
X-574206Y120755D01*
X-574138Y120845D01*
X-574073Y120938D01*
X-574011Y121033D01*
X-573953Y121130D01*
X-573898Y121229D01*
X-573847Y121330D01*
X-573799Y121433D01*
X-573754Y121537D01*
X-573714Y121643D01*
X-573677Y121750D01*
X-573644Y121858D01*
X-573614Y121968D01*
X-573589Y122078D01*
X-573567Y122189D01*
X-573550Y122301D01*
X-573536Y122414D01*
X-573526Y122527D01*
X-573520Y122640D01*
X-573518Y122753D01*
X-573520Y122866D01*
X-573526Y122979D01*
X-573536Y123092D01*
X-573550Y123205D01*
X-573567Y123317D01*
X-573589Y123428D01*
X-573614Y123538D01*
X-573644Y123648D01*
X-573677Y123756D01*
X-573714Y123863D01*
X-573754Y123969D01*
X-573799Y124073D01*
X-573847Y124176D01*
X-573898Y124277D01*
X-573953Y124376D01*
X-574011Y124473D01*
X-574073Y124568D01*
X-574138Y124661D01*
X-574206Y124751D01*
X-574277Y124839D01*
X-574352Y124925D01*
X-574429Y125008D01*
X-574509Y125088D01*
X-574592Y125165D01*
X-574678Y125240D01*
X-574766Y125311D01*
X-574856Y125379D01*
X-574949Y125444D01*
X-575044Y125506D01*
X-575141Y125564D01*
X-575240Y125619D01*
X-575341Y125670D01*
X-575444Y125718D01*
X-575548Y125763D01*
X-575654Y125803D01*
X-575761Y125840D01*
X-575869Y125873D01*
X-575979Y125903D01*
X-576089Y125928D01*
X-576200Y125950D01*
X-576312Y125967D01*
X-576425Y125981D01*
X-576538Y125991D01*
X-576651Y125997D01*
X-576764Y125999D01*
X-576114Y131191D02*
X-580009Y131191D01*
X-576114Y131191D02*
X-576013Y131189D01*
X-575913Y131183D01*
X-575813Y131173D01*
X-575713Y131160D01*
X-575614Y131142D01*
X-575515Y131121D01*
X-575418Y131096D01*
X-575321Y131067D01*
X-575226Y131034D01*
X-575132Y130998D01*
X-575040Y130958D01*
X-574949Y130915D01*
X-574860Y130868D01*
X-574773Y130818D01*
X-574687Y130764D01*
X-574604Y130707D01*
X-574524Y130647D01*
X-574445Y130584D01*
X-574369Y130517D01*
X-574296Y130448D01*
X-574226Y130376D01*
X-574158Y130302D01*
X-574093Y130225D01*
X-574032Y130145D01*
X-573973Y130063D01*
X-573918Y129979D01*
X-573866Y129893D01*
X-573817Y129805D01*
X-573772Y129715D01*
X-573730Y129623D01*
X-573692Y129530D01*
X-573658Y129435D01*
X-573627Y129340D01*
X-573600Y129243D01*
X-573577Y129145D01*
X-573557Y129046D01*
X-573542Y128946D01*
X-573530Y128846D01*
X-573522Y128746D01*
X-573518Y128645D01*
X-573518Y128545D01*
X-573522Y128444D01*
X-573530Y128344D01*
X-573542Y128244D01*
X-573557Y128144D01*
X-573577Y128045D01*
X-573600Y127947D01*
X-573627Y127850D01*
X-573658Y127755D01*
X-573692Y127660D01*
X-573730Y127567D01*
X-573772Y127475D01*
X-573817Y127385D01*
X-573866Y127297D01*
X-573918Y127211D01*
X-573973Y127127D01*
X-574032Y127045D01*
X-574093Y126965D01*
X-574158Y126888D01*
X-574226Y126814D01*
X-574296Y126742D01*
X-574369Y126673D01*
X-574445Y126606D01*
X-574524Y126543D01*
X-574604Y126483D01*
X-574687Y126426D01*
X-574773Y126372D01*
X-574860Y126322D01*
X-574949Y126275D01*
X-575040Y126232D01*
X-575132Y126192D01*
X-575226Y126156D01*
X-575321Y126123D01*
X-575418Y126094D01*
X-575515Y126069D01*
X-575614Y126048D01*
X-575713Y126030D01*
X-575813Y126017D01*
X-575913Y126007D01*
X-576013Y126001D01*
X-576114Y125999D01*
X-576114Y125998D02*
X-578711Y125998D01*
X-598974Y144907D02*
X-598875Y144909D01*
X-598775Y144915D01*
X-598676Y144924D01*
X-598578Y144937D01*
X-598480Y144954D01*
X-598382Y144975D01*
X-598286Y145000D01*
X-598191Y145028D01*
X-598097Y145060D01*
X-598004Y145095D01*
X-597912Y145134D01*
X-597822Y145177D01*
X-597734Y145222D01*
X-597647Y145272D01*
X-597563Y145324D01*
X-597480Y145380D01*
X-597400Y145438D01*
X-597322Y145500D01*
X-597247Y145565D01*
X-597174Y145633D01*
X-597104Y145703D01*
X-597036Y145776D01*
X-596971Y145851D01*
X-596909Y145929D01*
X-596851Y146009D01*
X-596795Y146092D01*
X-596743Y146176D01*
X-596693Y146263D01*
X-596648Y146351D01*
X-596605Y146441D01*
X-596566Y146533D01*
X-596531Y146626D01*
X-596499Y146720D01*
X-596471Y146815D01*
X-596446Y146911D01*
X-596425Y147009D01*
X-596408Y147107D01*
X-596395Y147205D01*
X-596386Y147304D01*
X-596380Y147404D01*
X-596378Y147503D01*
X-598974Y144907D02*
X-599118Y144909D01*
X-599263Y144915D01*
X-599407Y144924D01*
X-599550Y144937D01*
X-599694Y144954D01*
X-599837Y144975D01*
X-599979Y145000D01*
X-600120Y145028D01*
X-600261Y145060D01*
X-600401Y145096D01*
X-600540Y145135D01*
X-600678Y145178D01*
X-600814Y145225D01*
X-600950Y145275D01*
X-601084Y145329D01*
X-601216Y145386D01*
X-601347Y145447D01*
X-601476Y145511D01*
X-601604Y145579D01*
X-601730Y145650D01*
X-601854Y145724D01*
X-601975Y145801D01*
X-602095Y145882D01*
X-602213Y145965D01*
X-602328Y146052D01*
X-602441Y146142D01*
X-602552Y146235D01*
X-602660Y146330D01*
X-602766Y146429D01*
X-602869Y146530D01*
X-602544Y153995D02*
X-602542Y154094D01*
X-602536Y154194D01*
X-602527Y154293D01*
X-602514Y154391D01*
X-602497Y154489D01*
X-602476Y154587D01*
X-602451Y154683D01*
X-602423Y154778D01*
X-602391Y154872D01*
X-602356Y154965D01*
X-602317Y155057D01*
X-602274Y155147D01*
X-602229Y155235D01*
X-602179Y155322D01*
X-602127Y155406D01*
X-602071Y155489D01*
X-602013Y155569D01*
X-601951Y155647D01*
X-601886Y155722D01*
X-601818Y155795D01*
X-601748Y155865D01*
X-601675Y155933D01*
X-601600Y155998D01*
X-601522Y156060D01*
X-601442Y156118D01*
X-601359Y156174D01*
X-601275Y156226D01*
X-601188Y156276D01*
X-601100Y156321D01*
X-601010Y156364D01*
X-600918Y156403D01*
X-600825Y156438D01*
X-600731Y156470D01*
X-600636Y156498D01*
X-600540Y156523D01*
X-600442Y156544D01*
X-600344Y156561D01*
X-600246Y156574D01*
X-600147Y156583D01*
X-600047Y156589D01*
X-599948Y156591D01*
X-599812Y156589D01*
X-599676Y156583D01*
X-599540Y156574D01*
X-599404Y156561D01*
X-599269Y156543D01*
X-599135Y156523D01*
X-599001Y156498D01*
X-598867Y156470D01*
X-598735Y156437D01*
X-598604Y156402D01*
X-598473Y156362D01*
X-598344Y156319D01*
X-598216Y156273D01*
X-598090Y156222D01*
X-597964Y156169D01*
X-597841Y156111D01*
X-597719Y156051D01*
X-597599Y155987D01*
X-597480Y155919D01*
X-597364Y155849D01*
X-597250Y155775D01*
X-597137Y155698D01*
X-597027Y155617D01*
X-601246Y151723D02*
X-601332Y151776D01*
X-601416Y151833D01*
X-601498Y151892D01*
X-601578Y151955D01*
X-601655Y152021D01*
X-601730Y152089D01*
X-601802Y152161D01*
X-601871Y152235D01*
X-601937Y152312D01*
X-602000Y152391D01*
X-602060Y152473D01*
X-602117Y152557D01*
X-602171Y152643D01*
X-602221Y152731D01*
X-602268Y152821D01*
X-602312Y152912D01*
X-602351Y153006D01*
X-602388Y153100D01*
X-602420Y153196D01*
X-602449Y153294D01*
X-602474Y153392D01*
X-602495Y153491D01*
X-602513Y153591D01*
X-602526Y153691D01*
X-602536Y153792D01*
X-602542Y153894D01*
X-602544Y153995D01*
X-597676Y149775D02*
X-597590Y149722D01*
X-597506Y149665D01*
X-597424Y149606D01*
X-597344Y149543D01*
X-597267Y149477D01*
X-597192Y149409D01*
X-597120Y149337D01*
X-597051Y149263D01*
X-596985Y149186D01*
X-596922Y149107D01*
X-596862Y149025D01*
X-596805Y148941D01*
X-596751Y148855D01*
X-596701Y148767D01*
X-596654Y148677D01*
X-596610Y148586D01*
X-596571Y148492D01*
X-596534Y148398D01*
X-596502Y148302D01*
X-596473Y148204D01*
X-596448Y148106D01*
X-596427Y148007D01*
X-596409Y147907D01*
X-596396Y147807D01*
X-596386Y147706D01*
X-596380Y147604D01*
X-596378Y147503D01*
X-597676Y149775D02*
X-601246Y151723D01*
X-591439Y156591D02*
X-591439Y144907D01*
X-591439Y156591D02*
X-588194Y156591D01*
X-588081Y156589D01*
X-587968Y156583D01*
X-587855Y156573D01*
X-587742Y156559D01*
X-587630Y156542D01*
X-587519Y156520D01*
X-587409Y156495D01*
X-587299Y156465D01*
X-587191Y156432D01*
X-587084Y156395D01*
X-586978Y156355D01*
X-586874Y156310D01*
X-586771Y156262D01*
X-586670Y156211D01*
X-586571Y156156D01*
X-586474Y156098D01*
X-586379Y156036D01*
X-586286Y155971D01*
X-586196Y155903D01*
X-586108Y155832D01*
X-586022Y155757D01*
X-585939Y155680D01*
X-585859Y155600D01*
X-585782Y155517D01*
X-585707Y155431D01*
X-585636Y155343D01*
X-585568Y155253D01*
X-585503Y155160D01*
X-585441Y155065D01*
X-585383Y154968D01*
X-585328Y154869D01*
X-585277Y154768D01*
X-585229Y154665D01*
X-585184Y154561D01*
X-585144Y154455D01*
X-585107Y154348D01*
X-585074Y154240D01*
X-585044Y154130D01*
X-585019Y154020D01*
X-584997Y153909D01*
X-584980Y153797D01*
X-584966Y153684D01*
X-584956Y153571D01*
X-584950Y153458D01*
X-584948Y153345D01*
X-584948Y148153D01*
X-584950Y148040D01*
X-584956Y147927D01*
X-584966Y147814D01*
X-584980Y147701D01*
X-584997Y147589D01*
X-585019Y147478D01*
X-585044Y147368D01*
X-585074Y147258D01*
X-585107Y147150D01*
X-585144Y147043D01*
X-585184Y146937D01*
X-585229Y146833D01*
X-585277Y146730D01*
X-585328Y146629D01*
X-585383Y146530D01*
X-585441Y146433D01*
X-585503Y146338D01*
X-585568Y146245D01*
X-585636Y146155D01*
X-585707Y146067D01*
X-585782Y145981D01*
X-585859Y145898D01*
X-585939Y145818D01*
X-586022Y145741D01*
X-586108Y145666D01*
X-586196Y145595D01*
X-586286Y145527D01*
X-586379Y145462D01*
X-586474Y145400D01*
X-586571Y145342D01*
X-586670Y145287D01*
X-586771Y145236D01*
X-586874Y145188D01*
X-586978Y145143D01*
X-587084Y145103D01*
X-587191Y145066D01*
X-587299Y145033D01*
X-587409Y145003D01*
X-587519Y144978D01*
X-587630Y144956D01*
X-587742Y144939D01*
X-587855Y144925D01*
X-587968Y144915D01*
X-588081Y144909D01*
X-588194Y144907D01*
X-591439Y144907D01*
X-580277Y144907D02*
X-576383Y156591D01*
X-572488Y144907D01*
X-573462Y147828D02*
X-579304Y147828D01*
X-568198Y153995D02*
X-564953Y156591D01*
X-564953Y144907D01*
X-568198Y144907D02*
X-561707Y144907D01*
X-596378Y172903D02*
X-596380Y172804D01*
X-596386Y172704D01*
X-596395Y172605D01*
X-596408Y172507D01*
X-596425Y172409D01*
X-596446Y172311D01*
X-596471Y172215D01*
X-596499Y172120D01*
X-596531Y172026D01*
X-596566Y171933D01*
X-596605Y171841D01*
X-596648Y171751D01*
X-596693Y171663D01*
X-596743Y171576D01*
X-596795Y171492D01*
X-596851Y171409D01*
X-596909Y171329D01*
X-596971Y171251D01*
X-597036Y171176D01*
X-597104Y171103D01*
X-597174Y171033D01*
X-597247Y170965D01*
X-597322Y170900D01*
X-597400Y170838D01*
X-597480Y170780D01*
X-597563Y170724D01*
X-597647Y170672D01*
X-597734Y170622D01*
X-597822Y170577D01*
X-597912Y170534D01*
X-598004Y170495D01*
X-598097Y170460D01*
X-598191Y170428D01*
X-598286Y170400D01*
X-598382Y170375D01*
X-598480Y170354D01*
X-598578Y170337D01*
X-598676Y170324D01*
X-598775Y170315D01*
X-598875Y170309D01*
X-598974Y170307D01*
X-599118Y170309D01*
X-599263Y170315D01*
X-599407Y170324D01*
X-599550Y170337D01*
X-599694Y170354D01*
X-599837Y170375D01*
X-599979Y170400D01*
X-600120Y170428D01*
X-600261Y170460D01*
X-600401Y170496D01*
X-600540Y170535D01*
X-600678Y170578D01*
X-600814Y170625D01*
X-600950Y170675D01*
X-601084Y170729D01*
X-601216Y170786D01*
X-601347Y170847D01*
X-601476Y170911D01*
X-601604Y170979D01*
X-601730Y171050D01*
X-601854Y171124D01*
X-601975Y171201D01*
X-602095Y171282D01*
X-602213Y171365D01*
X-602328Y171452D01*
X-602441Y171542D01*
X-602552Y171635D01*
X-602660Y171730D01*
X-602766Y171829D01*
X-602869Y171930D01*
X-602544Y179395D02*
X-602542Y179494D01*
X-602536Y179594D01*
X-602527Y179693D01*
X-602514Y179791D01*
X-602497Y179889D01*
X-602476Y179987D01*
X-602451Y180083D01*
X-602423Y180178D01*
X-602391Y180272D01*
X-602356Y180365D01*
X-602317Y180457D01*
X-602274Y180547D01*
X-602229Y180635D01*
X-602179Y180722D01*
X-602127Y180806D01*
X-602071Y180889D01*
X-602013Y180969D01*
X-601951Y181047D01*
X-601886Y181122D01*
X-601818Y181195D01*
X-601748Y181265D01*
X-601675Y181333D01*
X-601600Y181398D01*
X-601522Y181460D01*
X-601442Y181518D01*
X-601359Y181574D01*
X-601275Y181626D01*
X-601188Y181676D01*
X-601100Y181721D01*
X-601010Y181764D01*
X-600918Y181803D01*
X-600825Y181838D01*
X-600731Y181870D01*
X-600636Y181898D01*
X-600540Y181923D01*
X-600442Y181944D01*
X-600344Y181961D01*
X-600246Y181974D01*
X-600147Y181983D01*
X-600047Y181989D01*
X-599948Y181991D01*
X-599812Y181989D01*
X-599676Y181983D01*
X-599540Y181974D01*
X-599404Y181961D01*
X-599269Y181943D01*
X-599135Y181923D01*
X-599001Y181898D01*
X-598867Y181870D01*
X-598735Y181837D01*
X-598604Y181802D01*
X-598473Y181762D01*
X-598344Y181719D01*
X-598216Y181673D01*
X-598090Y181622D01*
X-597964Y181569D01*
X-597841Y181511D01*
X-597719Y181451D01*
X-597599Y181387D01*
X-597480Y181319D01*
X-597364Y181249D01*
X-597250Y181175D01*
X-597137Y181098D01*
X-597027Y181017D01*
X-601246Y177123D02*
X-601332Y177176D01*
X-601416Y177233D01*
X-601498Y177292D01*
X-601578Y177355D01*
X-601655Y177421D01*
X-601730Y177489D01*
X-601802Y177561D01*
X-601871Y177635D01*
X-601937Y177712D01*
X-602000Y177791D01*
X-602060Y177873D01*
X-602117Y177957D01*
X-602171Y178043D01*
X-602221Y178131D01*
X-602268Y178221D01*
X-602312Y178312D01*
X-602351Y178406D01*
X-602388Y178500D01*
X-602420Y178596D01*
X-602449Y178694D01*
X-602474Y178792D01*
X-602495Y178891D01*
X-602513Y178991D01*
X-602526Y179091D01*
X-602536Y179192D01*
X-602542Y179294D01*
X-602544Y179395D01*
X-597676Y175175D02*
X-597590Y175122D01*
X-597506Y175065D01*
X-597424Y175006D01*
X-597344Y174943D01*
X-597267Y174877D01*
X-597192Y174809D01*
X-597120Y174737D01*
X-597051Y174663D01*
X-596985Y174586D01*
X-596922Y174507D01*
X-596862Y174425D01*
X-596805Y174341D01*
X-596751Y174255D01*
X-596701Y174167D01*
X-596654Y174077D01*
X-596610Y173986D01*
X-596571Y173892D01*
X-596534Y173798D01*
X-596502Y173702D01*
X-596473Y173604D01*
X-596448Y173506D01*
X-596427Y173407D01*
X-596409Y173307D01*
X-596396Y173207D01*
X-596386Y173106D01*
X-596380Y173004D01*
X-596378Y172903D01*
X-597676Y175175D02*
X-601246Y177123D01*
X-589257Y170307D02*
X-586660Y170307D01*
X-589257Y170307D02*
X-589356Y170309D01*
X-589456Y170315D01*
X-589555Y170324D01*
X-589653Y170337D01*
X-589751Y170354D01*
X-589849Y170375D01*
X-589945Y170400D01*
X-590040Y170428D01*
X-590134Y170460D01*
X-590227Y170495D01*
X-590319Y170534D01*
X-590409Y170577D01*
X-590497Y170622D01*
X-590584Y170672D01*
X-590668Y170724D01*
X-590751Y170780D01*
X-590831Y170838D01*
X-590909Y170900D01*
X-590984Y170965D01*
X-591057Y171033D01*
X-591127Y171103D01*
X-591195Y171176D01*
X-591260Y171251D01*
X-591322Y171329D01*
X-591380Y171409D01*
X-591436Y171492D01*
X-591488Y171576D01*
X-591538Y171663D01*
X-591583Y171751D01*
X-591626Y171841D01*
X-591665Y171933D01*
X-591700Y172026D01*
X-591732Y172120D01*
X-591760Y172215D01*
X-591785Y172311D01*
X-591806Y172409D01*
X-591823Y172507D01*
X-591836Y172605D01*
X-591845Y172704D01*
X-591851Y172804D01*
X-591853Y172903D01*
X-591853Y179395D01*
X-591851Y179494D01*
X-591845Y179594D01*
X-591836Y179693D01*
X-591823Y179791D01*
X-591806Y179889D01*
X-591785Y179987D01*
X-591760Y180083D01*
X-591732Y180178D01*
X-591700Y180272D01*
X-591665Y180365D01*
X-591626Y180457D01*
X-591583Y180547D01*
X-591538Y180635D01*
X-591488Y180722D01*
X-591436Y180806D01*
X-591380Y180889D01*
X-591322Y180969D01*
X-591260Y181047D01*
X-591195Y181122D01*
X-591127Y181195D01*
X-591057Y181265D01*
X-590984Y181333D01*
X-590909Y181398D01*
X-590831Y181460D01*
X-590751Y181518D01*
X-590668Y181574D01*
X-590584Y181626D01*
X-590497Y181676D01*
X-590409Y181721D01*
X-590319Y181764D01*
X-590227Y181803D01*
X-590134Y181838D01*
X-590040Y181870D01*
X-589945Y181898D01*
X-589849Y181923D01*
X-589751Y181944D01*
X-589653Y181961D01*
X-589555Y181974D01*
X-589456Y181983D01*
X-589356Y181989D01*
X-589257Y181991D01*
X-586660Y181991D01*
X-581891Y181991D02*
X-581891Y170307D01*
X-576699Y170307D01*
X-572389Y179395D02*
X-569144Y181991D01*
X-569144Y170307D01*
X-572389Y170307D02*
X-565898Y170307D01*
M02*
