G04 EAGLE Gerber RS-274X export*
G75*
%MOMM*%
%FSLAX34Y34*%
%LPD*%
%INSolderpaste Top*%
%IPPOS*%
%AMOC8*
5,1,8,0,0,1.08239X$1,22.5*%
G01*
%ADD10R,1.100000X1.000000*%
%ADD11R,0.790000X0.260000*%
%ADD12R,0.260000X0.790000*%


D10*
X-381000Y156600D03*
X-381000Y173600D03*
X-361950Y220100D03*
X-361950Y237100D03*
X-393700Y264550D03*
X-393700Y281550D03*
X-431800Y156600D03*
X-431800Y173600D03*
X-152400Y270900D03*
X-152400Y287900D03*
X-190500Y270900D03*
X-190500Y287900D03*
D11*
X-426100Y241100D03*
X-426100Y236100D03*
X-426100Y231100D03*
X-426100Y226100D03*
X-426100Y221100D03*
X-426100Y216100D03*
D12*
X-418900Y208900D03*
X-413900Y208900D03*
X-408900Y208900D03*
X-403900Y208900D03*
X-398900Y208900D03*
X-393900Y208900D03*
D11*
X-386700Y216100D03*
X-386700Y221100D03*
X-386700Y226100D03*
X-386700Y231100D03*
X-386700Y236100D03*
X-386700Y241100D03*
D12*
X-393900Y248300D03*
X-398900Y248300D03*
X-403900Y248300D03*
X-408900Y248300D03*
X-413900Y248300D03*
X-418900Y248300D03*
D10*
X-508000Y150250D03*
X-508000Y167250D03*
X-482600Y150250D03*
X-482600Y167250D03*
M02*
