G04 EAGLE Gerber RS-274X export*
G75*
%MOMM*%
%FSLAX34Y34*%
%LPD*%
%INSoldermask Top*%
%IPPOS*%
%AMOC8*
5,1,8,0,0,1.08239X$1,22.5*%
G01*
%ADD10R,1.252400X1.152400*%
%ADD11C,0.609600*%
%ADD12C,1.168400*%
%ADD13C,1.157200*%
%ADD14C,1.143000*%
%ADD15C,4.597400*%
%ADD16R,0.942400X0.412400*%
%ADD17R,0.412400X0.942400*%
%ADD18R,1.676400X1.676400*%
%ADD19P,1.814519X8X202.500000*%
%ADD20R,1.828800X1.828800*%
%ADD21C,1.828800*%


D10*
X-381000Y156600D03*
X-381000Y173600D03*
X-361950Y220100D03*
X-361950Y237100D03*
X-393700Y264550D03*
X-393700Y281550D03*
X-431800Y156600D03*
X-431800Y173600D03*
X-152400Y270900D03*
X-152400Y287900D03*
D11*
X-172720Y101600D02*
X-172718Y101787D01*
X-172711Y101974D01*
X-172699Y102161D01*
X-172683Y102347D01*
X-172663Y102533D01*
X-172638Y102718D01*
X-172608Y102903D01*
X-172574Y103087D01*
X-172535Y103270D01*
X-172492Y103452D01*
X-172444Y103632D01*
X-172392Y103812D01*
X-172335Y103990D01*
X-172275Y104167D01*
X-172209Y104342D01*
X-172140Y104516D01*
X-172066Y104688D01*
X-171988Y104858D01*
X-171906Y105026D01*
X-171820Y105192D01*
X-171730Y105356D01*
X-171636Y105517D01*
X-171538Y105677D01*
X-171436Y105833D01*
X-171330Y105988D01*
X-171220Y106139D01*
X-171107Y106288D01*
X-170990Y106434D01*
X-170870Y106577D01*
X-170746Y106717D01*
X-170619Y106854D01*
X-170488Y106988D01*
X-170354Y107119D01*
X-170217Y107246D01*
X-170077Y107370D01*
X-169934Y107490D01*
X-169788Y107607D01*
X-169639Y107720D01*
X-169488Y107830D01*
X-169333Y107936D01*
X-169177Y108038D01*
X-169017Y108136D01*
X-168856Y108230D01*
X-168692Y108320D01*
X-168526Y108406D01*
X-168358Y108488D01*
X-168188Y108566D01*
X-168016Y108640D01*
X-167842Y108709D01*
X-167667Y108775D01*
X-167490Y108835D01*
X-167312Y108892D01*
X-167132Y108944D01*
X-166952Y108992D01*
X-166770Y109035D01*
X-166587Y109074D01*
X-166403Y109108D01*
X-166218Y109138D01*
X-166033Y109163D01*
X-165847Y109183D01*
X-165661Y109199D01*
X-165474Y109211D01*
X-165287Y109218D01*
X-165100Y109220D01*
X-164913Y109218D01*
X-164726Y109211D01*
X-164539Y109199D01*
X-164353Y109183D01*
X-164167Y109163D01*
X-163982Y109138D01*
X-163797Y109108D01*
X-163613Y109074D01*
X-163430Y109035D01*
X-163248Y108992D01*
X-163068Y108944D01*
X-162888Y108892D01*
X-162710Y108835D01*
X-162533Y108775D01*
X-162358Y108709D01*
X-162184Y108640D01*
X-162012Y108566D01*
X-161842Y108488D01*
X-161674Y108406D01*
X-161508Y108320D01*
X-161344Y108230D01*
X-161183Y108136D01*
X-161023Y108038D01*
X-160867Y107936D01*
X-160712Y107830D01*
X-160561Y107720D01*
X-160412Y107607D01*
X-160266Y107490D01*
X-160123Y107370D01*
X-159983Y107246D01*
X-159846Y107119D01*
X-159712Y106988D01*
X-159581Y106854D01*
X-159454Y106717D01*
X-159330Y106577D01*
X-159210Y106434D01*
X-159093Y106288D01*
X-158980Y106139D01*
X-158870Y105988D01*
X-158764Y105833D01*
X-158662Y105677D01*
X-158564Y105517D01*
X-158470Y105356D01*
X-158380Y105192D01*
X-158294Y105026D01*
X-158212Y104858D01*
X-158134Y104688D01*
X-158060Y104516D01*
X-157991Y104342D01*
X-157925Y104167D01*
X-157865Y103990D01*
X-157808Y103812D01*
X-157756Y103632D01*
X-157708Y103452D01*
X-157665Y103270D01*
X-157626Y103087D01*
X-157592Y102903D01*
X-157562Y102718D01*
X-157537Y102533D01*
X-157517Y102347D01*
X-157501Y102161D01*
X-157489Y101974D01*
X-157482Y101787D01*
X-157480Y101600D01*
X-157482Y101413D01*
X-157489Y101226D01*
X-157501Y101039D01*
X-157517Y100853D01*
X-157537Y100667D01*
X-157562Y100482D01*
X-157592Y100297D01*
X-157626Y100113D01*
X-157665Y99930D01*
X-157708Y99748D01*
X-157756Y99568D01*
X-157808Y99388D01*
X-157865Y99210D01*
X-157925Y99033D01*
X-157991Y98858D01*
X-158060Y98684D01*
X-158134Y98512D01*
X-158212Y98342D01*
X-158294Y98174D01*
X-158380Y98008D01*
X-158470Y97844D01*
X-158564Y97683D01*
X-158662Y97523D01*
X-158764Y97367D01*
X-158870Y97212D01*
X-158980Y97061D01*
X-159093Y96912D01*
X-159210Y96766D01*
X-159330Y96623D01*
X-159454Y96483D01*
X-159581Y96346D01*
X-159712Y96212D01*
X-159846Y96081D01*
X-159983Y95954D01*
X-160123Y95830D01*
X-160266Y95710D01*
X-160412Y95593D01*
X-160561Y95480D01*
X-160712Y95370D01*
X-160867Y95264D01*
X-161023Y95162D01*
X-161183Y95064D01*
X-161344Y94970D01*
X-161508Y94880D01*
X-161674Y94794D01*
X-161842Y94712D01*
X-162012Y94634D01*
X-162184Y94560D01*
X-162358Y94491D01*
X-162533Y94425D01*
X-162710Y94365D01*
X-162888Y94308D01*
X-163068Y94256D01*
X-163248Y94208D01*
X-163430Y94165D01*
X-163613Y94126D01*
X-163797Y94092D01*
X-163982Y94062D01*
X-164167Y94037D01*
X-164353Y94017D01*
X-164539Y94001D01*
X-164726Y93989D01*
X-164913Y93982D01*
X-165100Y93980D01*
X-165287Y93982D01*
X-165474Y93989D01*
X-165661Y94001D01*
X-165847Y94017D01*
X-166033Y94037D01*
X-166218Y94062D01*
X-166403Y94092D01*
X-166587Y94126D01*
X-166770Y94165D01*
X-166952Y94208D01*
X-167132Y94256D01*
X-167312Y94308D01*
X-167490Y94365D01*
X-167667Y94425D01*
X-167842Y94491D01*
X-168016Y94560D01*
X-168188Y94634D01*
X-168358Y94712D01*
X-168526Y94794D01*
X-168692Y94880D01*
X-168856Y94970D01*
X-169017Y95064D01*
X-169177Y95162D01*
X-169333Y95264D01*
X-169488Y95370D01*
X-169639Y95480D01*
X-169788Y95593D01*
X-169934Y95710D01*
X-170077Y95830D01*
X-170217Y95954D01*
X-170354Y96081D01*
X-170488Y96212D01*
X-170619Y96346D01*
X-170746Y96483D01*
X-170870Y96623D01*
X-170990Y96766D01*
X-171107Y96912D01*
X-171220Y97061D01*
X-171330Y97212D01*
X-171436Y97367D01*
X-171538Y97523D01*
X-171636Y97683D01*
X-171730Y97844D01*
X-171820Y98008D01*
X-171906Y98174D01*
X-171988Y98342D01*
X-172066Y98512D01*
X-172140Y98684D01*
X-172209Y98858D01*
X-172275Y99033D01*
X-172335Y99210D01*
X-172392Y99388D01*
X-172444Y99568D01*
X-172492Y99748D01*
X-172535Y99930D01*
X-172574Y100113D01*
X-172608Y100297D01*
X-172638Y100482D01*
X-172663Y100667D01*
X-172683Y100853D01*
X-172699Y101039D01*
X-172711Y101226D01*
X-172718Y101413D01*
X-172720Y101600D01*
D12*
X-165100Y101600D03*
D11*
X-172720Y342900D02*
X-172718Y343087D01*
X-172711Y343274D01*
X-172699Y343461D01*
X-172683Y343647D01*
X-172663Y343833D01*
X-172638Y344018D01*
X-172608Y344203D01*
X-172574Y344387D01*
X-172535Y344570D01*
X-172492Y344752D01*
X-172444Y344932D01*
X-172392Y345112D01*
X-172335Y345290D01*
X-172275Y345467D01*
X-172209Y345642D01*
X-172140Y345816D01*
X-172066Y345988D01*
X-171988Y346158D01*
X-171906Y346326D01*
X-171820Y346492D01*
X-171730Y346656D01*
X-171636Y346817D01*
X-171538Y346977D01*
X-171436Y347133D01*
X-171330Y347288D01*
X-171220Y347439D01*
X-171107Y347588D01*
X-170990Y347734D01*
X-170870Y347877D01*
X-170746Y348017D01*
X-170619Y348154D01*
X-170488Y348288D01*
X-170354Y348419D01*
X-170217Y348546D01*
X-170077Y348670D01*
X-169934Y348790D01*
X-169788Y348907D01*
X-169639Y349020D01*
X-169488Y349130D01*
X-169333Y349236D01*
X-169177Y349338D01*
X-169017Y349436D01*
X-168856Y349530D01*
X-168692Y349620D01*
X-168526Y349706D01*
X-168358Y349788D01*
X-168188Y349866D01*
X-168016Y349940D01*
X-167842Y350009D01*
X-167667Y350075D01*
X-167490Y350135D01*
X-167312Y350192D01*
X-167132Y350244D01*
X-166952Y350292D01*
X-166770Y350335D01*
X-166587Y350374D01*
X-166403Y350408D01*
X-166218Y350438D01*
X-166033Y350463D01*
X-165847Y350483D01*
X-165661Y350499D01*
X-165474Y350511D01*
X-165287Y350518D01*
X-165100Y350520D01*
X-164913Y350518D01*
X-164726Y350511D01*
X-164539Y350499D01*
X-164353Y350483D01*
X-164167Y350463D01*
X-163982Y350438D01*
X-163797Y350408D01*
X-163613Y350374D01*
X-163430Y350335D01*
X-163248Y350292D01*
X-163068Y350244D01*
X-162888Y350192D01*
X-162710Y350135D01*
X-162533Y350075D01*
X-162358Y350009D01*
X-162184Y349940D01*
X-162012Y349866D01*
X-161842Y349788D01*
X-161674Y349706D01*
X-161508Y349620D01*
X-161344Y349530D01*
X-161183Y349436D01*
X-161023Y349338D01*
X-160867Y349236D01*
X-160712Y349130D01*
X-160561Y349020D01*
X-160412Y348907D01*
X-160266Y348790D01*
X-160123Y348670D01*
X-159983Y348546D01*
X-159846Y348419D01*
X-159712Y348288D01*
X-159581Y348154D01*
X-159454Y348017D01*
X-159330Y347877D01*
X-159210Y347734D01*
X-159093Y347588D01*
X-158980Y347439D01*
X-158870Y347288D01*
X-158764Y347133D01*
X-158662Y346977D01*
X-158564Y346817D01*
X-158470Y346656D01*
X-158380Y346492D01*
X-158294Y346326D01*
X-158212Y346158D01*
X-158134Y345988D01*
X-158060Y345816D01*
X-157991Y345642D01*
X-157925Y345467D01*
X-157865Y345290D01*
X-157808Y345112D01*
X-157756Y344932D01*
X-157708Y344752D01*
X-157665Y344570D01*
X-157626Y344387D01*
X-157592Y344203D01*
X-157562Y344018D01*
X-157537Y343833D01*
X-157517Y343647D01*
X-157501Y343461D01*
X-157489Y343274D01*
X-157482Y343087D01*
X-157480Y342900D01*
X-157482Y342713D01*
X-157489Y342526D01*
X-157501Y342339D01*
X-157517Y342153D01*
X-157537Y341967D01*
X-157562Y341782D01*
X-157592Y341597D01*
X-157626Y341413D01*
X-157665Y341230D01*
X-157708Y341048D01*
X-157756Y340868D01*
X-157808Y340688D01*
X-157865Y340510D01*
X-157925Y340333D01*
X-157991Y340158D01*
X-158060Y339984D01*
X-158134Y339812D01*
X-158212Y339642D01*
X-158294Y339474D01*
X-158380Y339308D01*
X-158470Y339144D01*
X-158564Y338983D01*
X-158662Y338823D01*
X-158764Y338667D01*
X-158870Y338512D01*
X-158980Y338361D01*
X-159093Y338212D01*
X-159210Y338066D01*
X-159330Y337923D01*
X-159454Y337783D01*
X-159581Y337646D01*
X-159712Y337512D01*
X-159846Y337381D01*
X-159983Y337254D01*
X-160123Y337130D01*
X-160266Y337010D01*
X-160412Y336893D01*
X-160561Y336780D01*
X-160712Y336670D01*
X-160867Y336564D01*
X-161023Y336462D01*
X-161183Y336364D01*
X-161344Y336270D01*
X-161508Y336180D01*
X-161674Y336094D01*
X-161842Y336012D01*
X-162012Y335934D01*
X-162184Y335860D01*
X-162358Y335791D01*
X-162533Y335725D01*
X-162710Y335665D01*
X-162888Y335608D01*
X-163068Y335556D01*
X-163248Y335508D01*
X-163430Y335465D01*
X-163613Y335426D01*
X-163797Y335392D01*
X-163982Y335362D01*
X-164167Y335337D01*
X-164353Y335317D01*
X-164539Y335301D01*
X-164726Y335289D01*
X-164913Y335282D01*
X-165100Y335280D01*
X-165287Y335282D01*
X-165474Y335289D01*
X-165661Y335301D01*
X-165847Y335317D01*
X-166033Y335337D01*
X-166218Y335362D01*
X-166403Y335392D01*
X-166587Y335426D01*
X-166770Y335465D01*
X-166952Y335508D01*
X-167132Y335556D01*
X-167312Y335608D01*
X-167490Y335665D01*
X-167667Y335725D01*
X-167842Y335791D01*
X-168016Y335860D01*
X-168188Y335934D01*
X-168358Y336012D01*
X-168526Y336094D01*
X-168692Y336180D01*
X-168856Y336270D01*
X-169017Y336364D01*
X-169177Y336462D01*
X-169333Y336564D01*
X-169488Y336670D01*
X-169639Y336780D01*
X-169788Y336893D01*
X-169934Y337010D01*
X-170077Y337130D01*
X-170217Y337254D01*
X-170354Y337381D01*
X-170488Y337512D01*
X-170619Y337646D01*
X-170746Y337783D01*
X-170870Y337923D01*
X-170990Y338066D01*
X-171107Y338212D01*
X-171220Y338361D01*
X-171330Y338512D01*
X-171436Y338667D01*
X-171538Y338823D01*
X-171636Y338983D01*
X-171730Y339144D01*
X-171820Y339308D01*
X-171906Y339474D01*
X-171988Y339642D01*
X-172066Y339812D01*
X-172140Y339984D01*
X-172209Y340158D01*
X-172275Y340333D01*
X-172335Y340510D01*
X-172392Y340688D01*
X-172444Y340868D01*
X-172492Y341048D01*
X-172535Y341230D01*
X-172574Y341413D01*
X-172608Y341597D01*
X-172638Y341782D01*
X-172663Y341967D01*
X-172683Y342153D01*
X-172699Y342339D01*
X-172711Y342526D01*
X-172718Y342713D01*
X-172720Y342900D01*
D12*
X-165100Y342900D03*
D11*
X-668020Y342900D02*
X-668018Y343087D01*
X-668011Y343274D01*
X-667999Y343461D01*
X-667983Y343647D01*
X-667963Y343833D01*
X-667938Y344018D01*
X-667908Y344203D01*
X-667874Y344387D01*
X-667835Y344570D01*
X-667792Y344752D01*
X-667744Y344932D01*
X-667692Y345112D01*
X-667635Y345290D01*
X-667575Y345467D01*
X-667509Y345642D01*
X-667440Y345816D01*
X-667366Y345988D01*
X-667288Y346158D01*
X-667206Y346326D01*
X-667120Y346492D01*
X-667030Y346656D01*
X-666936Y346817D01*
X-666838Y346977D01*
X-666736Y347133D01*
X-666630Y347288D01*
X-666520Y347439D01*
X-666407Y347588D01*
X-666290Y347734D01*
X-666170Y347877D01*
X-666046Y348017D01*
X-665919Y348154D01*
X-665788Y348288D01*
X-665654Y348419D01*
X-665517Y348546D01*
X-665377Y348670D01*
X-665234Y348790D01*
X-665088Y348907D01*
X-664939Y349020D01*
X-664788Y349130D01*
X-664633Y349236D01*
X-664477Y349338D01*
X-664317Y349436D01*
X-664156Y349530D01*
X-663992Y349620D01*
X-663826Y349706D01*
X-663658Y349788D01*
X-663488Y349866D01*
X-663316Y349940D01*
X-663142Y350009D01*
X-662967Y350075D01*
X-662790Y350135D01*
X-662612Y350192D01*
X-662432Y350244D01*
X-662252Y350292D01*
X-662070Y350335D01*
X-661887Y350374D01*
X-661703Y350408D01*
X-661518Y350438D01*
X-661333Y350463D01*
X-661147Y350483D01*
X-660961Y350499D01*
X-660774Y350511D01*
X-660587Y350518D01*
X-660400Y350520D01*
X-660213Y350518D01*
X-660026Y350511D01*
X-659839Y350499D01*
X-659653Y350483D01*
X-659467Y350463D01*
X-659282Y350438D01*
X-659097Y350408D01*
X-658913Y350374D01*
X-658730Y350335D01*
X-658548Y350292D01*
X-658368Y350244D01*
X-658188Y350192D01*
X-658010Y350135D01*
X-657833Y350075D01*
X-657658Y350009D01*
X-657484Y349940D01*
X-657312Y349866D01*
X-657142Y349788D01*
X-656974Y349706D01*
X-656808Y349620D01*
X-656644Y349530D01*
X-656483Y349436D01*
X-656323Y349338D01*
X-656167Y349236D01*
X-656012Y349130D01*
X-655861Y349020D01*
X-655712Y348907D01*
X-655566Y348790D01*
X-655423Y348670D01*
X-655283Y348546D01*
X-655146Y348419D01*
X-655012Y348288D01*
X-654881Y348154D01*
X-654754Y348017D01*
X-654630Y347877D01*
X-654510Y347734D01*
X-654393Y347588D01*
X-654280Y347439D01*
X-654170Y347288D01*
X-654064Y347133D01*
X-653962Y346977D01*
X-653864Y346817D01*
X-653770Y346656D01*
X-653680Y346492D01*
X-653594Y346326D01*
X-653512Y346158D01*
X-653434Y345988D01*
X-653360Y345816D01*
X-653291Y345642D01*
X-653225Y345467D01*
X-653165Y345290D01*
X-653108Y345112D01*
X-653056Y344932D01*
X-653008Y344752D01*
X-652965Y344570D01*
X-652926Y344387D01*
X-652892Y344203D01*
X-652862Y344018D01*
X-652837Y343833D01*
X-652817Y343647D01*
X-652801Y343461D01*
X-652789Y343274D01*
X-652782Y343087D01*
X-652780Y342900D01*
X-652782Y342713D01*
X-652789Y342526D01*
X-652801Y342339D01*
X-652817Y342153D01*
X-652837Y341967D01*
X-652862Y341782D01*
X-652892Y341597D01*
X-652926Y341413D01*
X-652965Y341230D01*
X-653008Y341048D01*
X-653056Y340868D01*
X-653108Y340688D01*
X-653165Y340510D01*
X-653225Y340333D01*
X-653291Y340158D01*
X-653360Y339984D01*
X-653434Y339812D01*
X-653512Y339642D01*
X-653594Y339474D01*
X-653680Y339308D01*
X-653770Y339144D01*
X-653864Y338983D01*
X-653962Y338823D01*
X-654064Y338667D01*
X-654170Y338512D01*
X-654280Y338361D01*
X-654393Y338212D01*
X-654510Y338066D01*
X-654630Y337923D01*
X-654754Y337783D01*
X-654881Y337646D01*
X-655012Y337512D01*
X-655146Y337381D01*
X-655283Y337254D01*
X-655423Y337130D01*
X-655566Y337010D01*
X-655712Y336893D01*
X-655861Y336780D01*
X-656012Y336670D01*
X-656167Y336564D01*
X-656323Y336462D01*
X-656483Y336364D01*
X-656644Y336270D01*
X-656808Y336180D01*
X-656974Y336094D01*
X-657142Y336012D01*
X-657312Y335934D01*
X-657484Y335860D01*
X-657658Y335791D01*
X-657833Y335725D01*
X-658010Y335665D01*
X-658188Y335608D01*
X-658368Y335556D01*
X-658548Y335508D01*
X-658730Y335465D01*
X-658913Y335426D01*
X-659097Y335392D01*
X-659282Y335362D01*
X-659467Y335337D01*
X-659653Y335317D01*
X-659839Y335301D01*
X-660026Y335289D01*
X-660213Y335282D01*
X-660400Y335280D01*
X-660587Y335282D01*
X-660774Y335289D01*
X-660961Y335301D01*
X-661147Y335317D01*
X-661333Y335337D01*
X-661518Y335362D01*
X-661703Y335392D01*
X-661887Y335426D01*
X-662070Y335465D01*
X-662252Y335508D01*
X-662432Y335556D01*
X-662612Y335608D01*
X-662790Y335665D01*
X-662967Y335725D01*
X-663142Y335791D01*
X-663316Y335860D01*
X-663488Y335934D01*
X-663658Y336012D01*
X-663826Y336094D01*
X-663992Y336180D01*
X-664156Y336270D01*
X-664317Y336364D01*
X-664477Y336462D01*
X-664633Y336564D01*
X-664788Y336670D01*
X-664939Y336780D01*
X-665088Y336893D01*
X-665234Y337010D01*
X-665377Y337130D01*
X-665517Y337254D01*
X-665654Y337381D01*
X-665788Y337512D01*
X-665919Y337646D01*
X-666046Y337783D01*
X-666170Y337923D01*
X-666290Y338066D01*
X-666407Y338212D01*
X-666520Y338361D01*
X-666630Y338512D01*
X-666736Y338667D01*
X-666838Y338823D01*
X-666936Y338983D01*
X-667030Y339144D01*
X-667120Y339308D01*
X-667206Y339474D01*
X-667288Y339642D01*
X-667366Y339812D01*
X-667440Y339984D01*
X-667509Y340158D01*
X-667575Y340333D01*
X-667635Y340510D01*
X-667692Y340688D01*
X-667744Y340868D01*
X-667792Y341048D01*
X-667835Y341230D01*
X-667874Y341413D01*
X-667908Y341597D01*
X-667938Y341782D01*
X-667963Y341967D01*
X-667983Y342153D01*
X-667999Y342339D01*
X-668011Y342526D01*
X-668018Y342713D01*
X-668020Y342900D01*
D12*
X-660400Y342900D03*
D13*
X-556900Y244000D03*
D14*
X-556900Y264000D03*
D13*
X-281300Y187800D03*
D14*
X-281300Y167800D03*
D15*
X-152400Y381000D03*
X-685800Y381000D03*
X-152400Y50800D03*
D10*
X-190500Y270900D03*
X-190500Y287900D03*
D16*
X-426100Y241100D03*
X-426100Y236100D03*
X-426100Y231100D03*
X-426100Y226100D03*
X-426100Y221100D03*
X-426100Y216100D03*
D17*
X-418900Y208900D03*
X-413900Y208900D03*
X-408900Y208900D03*
X-403900Y208900D03*
X-398900Y208900D03*
X-393900Y208900D03*
D16*
X-386700Y216100D03*
X-386700Y221100D03*
X-386700Y226100D03*
X-386700Y231100D03*
X-386700Y236100D03*
X-386700Y241100D03*
D17*
X-393900Y248300D03*
X-398900Y248300D03*
X-403900Y248300D03*
X-408900Y248300D03*
X-413900Y248300D03*
X-418900Y248300D03*
D18*
X-198800Y73400D03*
D19*
X-198800Y98800D03*
X-224200Y73400D03*
X-224200Y98800D03*
X-249600Y73400D03*
X-249600Y98800D03*
X-275000Y73400D03*
X-275000Y98800D03*
X-300400Y73400D03*
X-300400Y98800D03*
X-325800Y73400D03*
X-325800Y98800D03*
X-351200Y73400D03*
X-351200Y98800D03*
X-376600Y73400D03*
X-376600Y98800D03*
X-402000Y73400D03*
X-402000Y98800D03*
X-427400Y73400D03*
X-427400Y98800D03*
X-452800Y73400D03*
X-452800Y98800D03*
X-478200Y73400D03*
X-478200Y98800D03*
X-503600Y73400D03*
X-503600Y98800D03*
X-529000Y73400D03*
X-529000Y98800D03*
X-554400Y73400D03*
X-554400Y98800D03*
X-579800Y73400D03*
X-579800Y98800D03*
X-605200Y73400D03*
X-605200Y98800D03*
X-630600Y73400D03*
X-630600Y98800D03*
D18*
X-198800Y327400D03*
D19*
X-198800Y352800D03*
X-224200Y327400D03*
X-224200Y352800D03*
X-249600Y327400D03*
X-249600Y352800D03*
X-275000Y327400D03*
X-275000Y352800D03*
X-300400Y327400D03*
X-300400Y352800D03*
X-325800Y327400D03*
X-325800Y352800D03*
X-351200Y327400D03*
X-351200Y352800D03*
X-376600Y327400D03*
X-376600Y352800D03*
X-402000Y327400D03*
X-402000Y352800D03*
X-427400Y327400D03*
X-427400Y352800D03*
X-452800Y327400D03*
X-452800Y352800D03*
X-478200Y327400D03*
X-478200Y352800D03*
X-503600Y327400D03*
X-503600Y352800D03*
X-529000Y327400D03*
X-529000Y352800D03*
X-554400Y327400D03*
X-554400Y352800D03*
X-579800Y327400D03*
X-579800Y352800D03*
X-605200Y327400D03*
X-605200Y352800D03*
X-630600Y327400D03*
X-630600Y352800D03*
D10*
X-508000Y150250D03*
X-508000Y167250D03*
X-482600Y150250D03*
X-482600Y167250D03*
D20*
X-621157Y126619D03*
D21*
X-646557Y126619D03*
X-621157Y152019D03*
X-646557Y152019D03*
X-621157Y177419D03*
X-646557Y177419D03*
D15*
X-685800Y50800D03*
M02*
