M48
;GenerationSoftware,Autodesk,EAGLE,9.6.2*%
;CreationDate,2021-12-15T04:30:05Z*%
FMAT,2
ICI,OFF
METRIC,TZ,000.000
T7C0.305
T6C0.350
T5C0.686
T4C0.700
T3C0.889
T2C1.000
T1C3.175
%
G90
M71
T1
X-15240Y38100
X-68580Y38100
X-15240Y5080
X-68580Y5080
T2
X-64656Y17742
X-62116Y17742
X-64656Y15202
X-62116Y15202
X-64656Y12662
X-62116Y12662
T3
X-19880Y9880
X-50360Y32740
X-50360Y35280
X-52900Y32740
X-52900Y35280
X-55440Y32740
X-55440Y35280
X-57980Y35280
X-60520Y32740
X-60520Y35280
X-63060Y32740
X-63060Y35280
X-55440Y7340
X-57980Y32740
X-19880Y7340
X-22420Y7340
X-22420Y9880
X-24960Y7340
X-24960Y9880
X-27500Y7340
X-27500Y9880
X-30040Y7340
X-30040Y9880
X-32580Y7340
X-32580Y9880
X-35120Y7340
X-35120Y9880
X-37660Y7340
X-37660Y9880
X-40200Y7340
X-40200Y9880
X-42740Y7340
X-42740Y9880
X-45280Y7340
X-45280Y9880
X-47820Y7340
X-47820Y9880
X-50360Y7340
X-50360Y9880
X-52900Y7340
X-52900Y9880
X-42740Y32740
X-55440Y9880
X-57980Y7340
X-57980Y9880
X-60520Y7340
X-60520Y9880
X-63060Y7340
X-63060Y9880
X-19880Y32740
X-19880Y35280
X-22420Y32740
X-22420Y35280
X-24960Y32740
X-24960Y35280
X-27500Y32740
X-27500Y35280
X-30040Y32740
X-30040Y35280
X-32580Y32740
X-32580Y35280
X-35120Y32740
X-35120Y35280
X-37660Y32740
X-37660Y35280
X-40200Y32740
X-40200Y35280
X-42740Y35280
X-45280Y32740
X-45280Y35280
X-47820Y32740
X-47820Y35280
T4
X-28130Y18780
X-55690Y24400
T5
X-28130Y16780
X-55690Y26400
T6
X-38418Y11430
X-66853Y16129
X-48260Y13652
X-60642Y12700
X-34290Y11430
X-50800Y13652
T7
X-18415Y31115
X-15875Y31115
X-53975Y24130
X-38100Y14287
X-43180Y14287
X-36195Y25082
X-39370Y29527
X-43180Y18733
X-36195Y20638
X-29210Y19050
M30